<svg width="109" height="126" viewBox="0 0 109 126" fill="none" xmlns="http://www.w3.org/2000/svg">
<path d="M19.5089 86.9363C19.5089 99.6416 26.285 106.902 37.5383 106.902C62.9489 106.902 75.6542 87.7833 78.8003 82.8222V71.3269C71.9031 67.0918 62.9489 63.5827 50.3646 63.5827C33.9082 63.7037 19.5089 72.6579 19.5089 86.9363ZM97.7977 86.0892C97.7977 90.3243 97.7977 101.578 99.3707 103.635C100.944 105.813 105.421 108.596 108.93 111.379L98.8867 125.778C92.5946 120.938 85.3344 117.913 83.1564 105.692C73.7181 114.767 61.3759 125.294 37.5383 125.294C16.8468 125.294 0.632449 108.233 0.632449 88.1463C0.632449 78.9501 4.26253 68.1808 11.4017 60.7997C22.897 49.0624 35.1182 46.1583 49.3966 46.1583C64.6429 46.1583 72.2661 48.3364 78.8003 52.3295C78.8003 29.4599 70.4511 18.4487 49.8806 18.4487C33.1822 18.4487 25.559 22.0788 15.8788 39.3822L0.148438 29.4599C11.7647 7.43741 27.9791 0.177246 49.6386 0.177246C78.9213 0.177246 97.7977 18.9327 97.7977 46.1583V86.0892Z" fill="#EB662B"/>
</svg>
