<svg width="101" height="174" viewBox="0 0 101 174" fill="none" xmlns="http://www.w3.org/2000/svg">
<path d="M70.5936 147.553C78.4587 140.172 81.3628 128.797 81.3628 112.825V110.647C81.1208 88.3824 73.3766 73.0151 51.9591 73.0151C40.4639 73.0151 19.2884 81.2433 19.2884 112.583C19.2884 140.051 29.8156 154.692 50.0231 154.692C59.2193 154.571 64.5434 152.635 70.5936 147.553ZM20.4984 69.022C29.0896 58.7368 42.1579 54.3806 56.6782 54.3806C71.9246 54.3806 84.9929 61.8828 93.4631 77.8552C98.4242 87.4144 100.602 99.6357 100.602 111.252C100.602 142.592 88.986 173.447 50.0231 173.447H49.7811C16.8683 173.326 0.169922 162.92 0.169922 95.4006C0.169922 38.4083 13.6012 16.7488 54.7422 12.6347C80.0318 10.0936 83.1778 7.06855 91.648 0.171387L100.844 15.9018C93.1001 21.7099 85.3559 28.244 56.4362 30.1801C29.8156 31.9951 20.9824 46.8785 20.4984 69.022Z" fill="#EB662B"/>
</svg>
