<svg width="200" height="82" viewBox="0 0 200 82" fill="none" xmlns="http://www.w3.org/2000/svg">
<rect x="1.52539" y="35.8569" width="175.409" height="46.1603" transform="rotate(-6.55537 1.52539 35.8569)" fill="#ECC7CF"/>
<path d="M175.788 15.8308L193.408 4.39699L198.783 51.1726L181.058 61.6893L175.788 15.8308Z" fill="#E3B7C0"/>
<path d="M18.9166 24.4488L193.408 4.39714L175.828 16.1749L1.10666 36.2528L18.9166 24.4488Z" fill="#F8D1D9"/>
<ellipse cx="41.1152" cy="25.2209" rx="12.8496" ry="3.50769" transform="rotate(-6.55537 41.1152 25.2209)" fill="#E19DAC"/>
<rect x="27.6074" y="20.2168" width="8.01757" height="6.37111" transform="rotate(-6.55537 27.6074 20.2168)" fill="#E19DAC"/>
<rect x="45.1816" y="18.269" width="8.01757" height="6.37111" transform="rotate(-6.55537 45.1816 18.269)" fill="#E19DAC"/>
<ellipse cx="40.3887" cy="18.8913" rx="12.8496" ry="3.50769" transform="rotate(-6.55537 40.3887 18.8913)" fill="#ECC7CF"/>
<ellipse cx="79.8399" cy="20.5378" rx="12.8496" ry="3.50769" transform="rotate(-6.55537 79.8399 20.5378)" fill="#E19DAC"/>
<rect x="66.3301" y="15.5337" width="8.01757" height="6.37111" transform="rotate(-6.55537 66.3301 15.5337)" fill="#E19DAC"/>
<rect x="83.9043" y="13.5859" width="8.01757" height="6.37111" transform="rotate(-6.55537 83.9043 13.5859)" fill="#E19DAC"/>
<ellipse cx="79.1113" cy="14.2087" rx="12.8496" ry="3.50769" transform="rotate(-6.55537 79.1113 14.2087)" fill="#ECC7CF"/>
<ellipse cx="121.084" cy="15.5666" rx="12.8496" ry="3.50769" transform="rotate(-6.55537 121.084 15.5666)" fill="#E19DAC"/>
<rect x="107.576" y="10.562" width="8.01757" height="6.37111" transform="rotate(-6.55537 107.576 10.562)" fill="#E19DAC"/>
<rect x="125.15" y="8.61426" width="8.01757" height="6.37111" transform="rotate(-6.55537 125.15 8.61426)" fill="#E19DAC"/>
<ellipse cx="120.357" cy="9.23704" rx="12.8496" ry="3.50769" transform="rotate(-6.55537 120.357 9.23704)" fill="#ECC7CF"/>
<ellipse cx="162.41" cy="11.281" rx="12.8496" ry="3.50769" transform="rotate(-6.55537 162.41 11.281)" fill="#E19DAC"/>
<rect x="148.902" y="6.27637" width="8.01757" height="6.37111" transform="rotate(-6.55537 148.902 6.27637)" fill="#E19DAC"/>
<rect x="166.477" y="4.3291" width="8.01757" height="6.37111" transform="rotate(-6.55537 166.477 4.3291)" fill="#E19DAC"/>
<ellipse cx="161.684" cy="4.95189" rx="12.8496" ry="3.50769" transform="rotate(-6.55537 161.684 4.95189)" fill="#ECC7CF"/>
<path d="M160.376 39.5995C159.379 39.2679 157.799 38.4612 157.457 35.8392C156.886 31.4741 160.392 30.599 163.498 30.1934C164.391 30.0767 166.097 30.0178 166.72 29.996C166.778 30.8972 166.853 31.5876 166.981 32.569L168.598 44.9465L166.284 45.2489L165.485 39.0215C164.68 39.2459 164.066 39.5644 162.88 39.8385C162.253 41.306 159.1 45.3381 157.676 46.984L155.964 45.5093C157.151 44.1029 159.526 41.5281 160.376 39.5995ZM159.727 35.5427C159.978 37.4616 161.555 37.7918 162.464 37.6732C163.372 37.5545 164.259 37.2748 165.194 36.795L164.642 32.3382C163.917 32.3734 163.193 32.4232 162.505 32.5131C161.142 32.6911 159.476 33.6238 159.727 35.5427Z" fill="#EB662B"/>
<path d="M143.102 43.6437C143.303 45.1818 144.238 45.9535 145.601 45.7756C148.677 45.3738 149.912 42.8585 150.215 42.2082L150.033 40.8166C149.131 40.413 147.992 40.1298 146.468 40.3288C144.478 40.6036 142.877 41.9153 143.102 43.6437ZM152.566 42.3033C152.633 42.8159 152.811 44.1782 153.034 44.4023C153.259 44.6411 153.845 44.9072 154.314 45.1887L153.326 47.0906C152.487 46.6041 151.561 46.3528 151.104 44.9077C150.105 46.1556 148.777 47.6251 145.891 48.0021C143.387 48.3292 141.154 46.5203 140.836 44.0887C140.691 42.9755 140.96 41.6144 141.708 40.608C142.914 39.0053 144.347 38.4605 146.076 38.2348C147.921 37.9937 148.878 38.1368 149.733 38.5169C149.371 35.7484 148.186 34.5474 145.696 34.8727C143.675 35.1368 142.809 35.6967 141.911 37.9445L139.85 36.9921C140.908 34.1425 142.756 33.0072 145.378 32.6647C148.923 32.2017 151.504 34.1736 151.935 37.4694L152.566 42.3033Z" fill="#EB662B"/>
<path d="M131.76 41.6687C133.744 43.1676 137.5 46.1481 138.808 47.8395L137.251 49.488C136.122 48.1457 132.615 45.1326 130.467 43.521L128.748 45.6377L129.327 50.076L127.042 50.3745L125.091 35.4336L127.376 35.1351L128.315 42.3273C130.62 39.5532 133.883 35.3428 135.699 33.6159L137.367 35.3199C135.34 36.9105 133.181 39.7699 131.76 41.6687Z" fill="#EB662B"/>
<path d="M111.577 44.5437C112.285 49.9635 115.331 49.6699 116.942 49.4595L117.132 49.4346C119.417 49.1361 120.392 48.0405 120.987 46.6666L123.007 47.7585C122.604 48.4368 121.578 51.1928 117.491 51.7267C115.968 51.9257 114.151 52.0438 112.607 51.1728C110.509 49.9421 109.629 47.7629 109.248 44.8479C108.546 39.4721 110.916 37.3152 115.53 36.7125C116.922 36.5307 118.051 36.7407 119.018 37.2997C120.002 37.8714 120.571 38.691 120.992 39.4106L118.851 40.5841C118.612 40.0046 118.005 38.6685 115.662 38.9747C112.424 39.3975 111.12 41.0428 111.577 44.5437Z" fill="#EB662B"/>
<path d="M99.0364 57.3553C100.589 57.1525 101.026 54.3393 101.38 52.7139C99.3754 48.0892 97.0257 43.6735 94.767 42.1212C94.2263 41.7449 93.6238 41.8087 93.0964 41.8776L92.8037 39.6364C93.2871 39.5733 94.0271 39.5362 94.4449 39.5412C96.939 39.5879 100.031 44.7856 102.308 49.33C102.977 46.0097 103.391 41.6502 103.074 38.3098L105.388 38.0075C105.503 38.8864 105.539 39.7309 105.505 40.4951C105.228 45.7902 104.38 50.8173 103.041 55.6254C102.523 57.7043 101.57 59.3037 99.3877 59.5888C96.8243 59.9236 95.0248 58.5795 94.5082 54.6245L96.7933 54.3261C97.132 56.9188 97.8645 57.5084 99.0364 57.3553Z" fill="#EB662B"/>
<path d="M88.3308 47.5805C87.9404 44.5923 86.9065 42.8353 84.4163 43.1606C82.4095 43.4228 81.7944 44.1884 80.9726 45.9941L81.8068 52.3806C82.6661 53.0282 83.6215 53.842 84.9545 53.6678C87.3421 53.356 88.8723 51.7259 88.3308 47.5805ZM78.609 45.692L78.5631 45.3405C78.4043 44.1247 78.1079 42.8822 77.8351 41.9346L80.1991 41.3278C80.3336 41.787 80.4489 42.0997 80.544 42.713C81.3596 41.7721 82.4645 41.1064 84.1051 40.8921C88.1333 40.3659 90.0814 43.0761 90.5942 47.0018C91.237 51.9235 89.7773 55.3471 85.046 55.9651C83.5812 56.1564 82.9634 55.7604 82.2009 55.3981L82.597 58.4303C82.7769 59.8072 83.0694 61.0204 83.3021 62.0031L80.9902 62.4391C80.7187 61.387 80.4618 59.9904 80.2877 58.6574L78.609 45.692Z" fill="#EB662B"/>
<path d="M65.4675 53.7844C65.6684 55.3224 66.6035 56.0941 67.9658 55.9162C71.0419 55.5144 72.2776 52.9991 72.58 52.3488L72.3982 50.9572C71.4963 50.5536 70.3569 50.2704 68.8335 50.4694C66.8433 50.7443 65.2417 52.0559 65.4675 53.7844ZM74.9314 52.4439C74.9983 52.9566 75.1763 54.3188 75.3992 54.543C75.6241 54.7818 76.2101 55.0479 76.6789 55.3293L75.6908 57.2312C74.8526 56.7448 73.9258 56.4934 73.4689 55.0484C72.4699 56.2962 71.1423 57.7658 68.2566 58.1427C65.7518 58.4699 63.5192 56.6609 63.2016 54.2293C63.0561 53.1161 63.3253 51.755 64.0728 50.7486C65.2788 49.146 66.7123 48.6012 68.4408 48.3754C70.2864 48.1343 71.2437 48.2774 72.0978 48.6575C71.7362 45.889 70.5514 44.6881 68.0612 45.0133C66.0398 45.2774 65.1744 45.8374 64.2761 48.0851L62.215 47.1327C63.273 44.2831 65.121 43.1478 67.743 42.8053C71.2878 42.3423 73.8695 44.3142 74.3 47.61L74.9314 52.4439Z" fill="#EB662B"/>
<path d="M47.4498 60.6963L47.4315 58.3895C47.6423 58.4067 47.8531 58.4238 48.0728 58.3951C49.3472 58.2287 50.6411 56.6146 49.1659 45.321L53.6462 44.7208L55.3893 44.4931C56.5319 44.3439 57.5573 44.21 58.3852 44.1614L60.3349 59.0877L57.9619 59.3977C57.6456 56.8617 56.6493 49.0065 56.664 49.0046L56.3559 46.6463L51.7711 47.2452C52.3404 53.7706 52.5626 60.1477 48.4758 60.6815C48.1682 60.7217 47.8109 60.7236 47.4498 60.6963Z" fill="#EB662B"/>
<path d="M33.9277 53.8967C35.8154 53.6352 39.5627 53.0117 41.6121 52.5056C41.0697 50.1779 39.3804 48.879 37.3883 49.1392C34.8981 49.4645 33.6477 51.639 33.9277 53.8967ZM37.0828 46.9146C42.6051 46.1933 43.8742 51.6887 44.1382 53.7101C44.1765 54.0031 44.2052 54.2228 44.2058 54.3419C40.1408 55.156 36.824 55.768 34.2205 56.1379C34.5132 58.379 36.0236 60.1333 39.0118 59.743C41.1064 59.4694 42.1857 58.1515 42.6537 57.2859L44.6639 58.6472C44.1494 59.3848 42.7321 61.5364 39.2459 61.9918C34.8808 62.562 32.3347 59.7213 31.7358 55.1365C31.1886 50.9472 32.9374 47.4561 37.0828 46.9146Z" fill="#EB662B"/>
<path d="M25.2228 60.4718C26.0582 59.4539 26.2299 58.0311 25.9773 56.0976L25.9429 55.8339C25.5615 53.1425 24.3811 51.4046 21.7884 51.7433C20.3968 51.9251 17.9635 53.256 18.4591 57.0498C18.8934 60.3749 20.3993 61.9809 22.8455 61.6613C23.9569 61.5013 24.5708 61.1827 25.2228 60.4718ZM17.9168 51.7574C18.7941 50.3765 20.3072 49.6425 22.065 49.4129C23.9106 49.1718 25.6112 49.8733 26.8892 51.6729C27.6409 52.7517 28.0978 54.1967 28.2815 55.6029C28.7771 59.3967 27.8588 63.3157 23.1421 63.9318L23.1128 63.9356C19.1266 64.4414 16.9407 63.4457 15.873 55.2721C14.9718 48.3729 16.2552 45.5385 21.1705 44.39C24.1918 43.6825 24.5248 43.2665 25.4411 42.2976L26.8031 44.0565C25.9574 44.882 25.1233 45.7955 21.653 46.4871C18.4592 47.1278 17.6252 49.0692 17.9168 51.7574Z" fill="#EB662B"/>
</svg>
