<svg width="70" height="112" viewBox="0 0 70 112" fill="none" xmlns="http://www.w3.org/2000/svg">
<rect x="18.0547" y="65.9792" width="34" height="34" transform="rotate(0.141149 18.0547 65.9792)" fill="#EA6626"/>
<rect x="1.02832" y="76.937" width="34" height="34" transform="rotate(0.141149 1.02832 76.937)" fill="#F17C44"/>
<path d="M35.0277 77.3761L52.0556 66.0629L51.9738 99.2871L34.9448 111.021L35.0277 77.3761Z" fill="#EA6626"/>
<path d="M18.1267 65.9793L1.02857 76.9372L35.0996 77.0212L52.0555 66.0629L18.1267 65.9793Z" fill="#FB7B3D"/>
<rect x="35.1113" y="33.042" width="34" height="34" transform="rotate(0.141149 35.1113 33.042)" fill="#EA6626"/>
<rect x="18.084" y="43.9998" width="34" height="34" transform="rotate(0.141149 18.084 43.9998)" fill="#F17C44"/>
<path d="M52.0834 44.4388L69.1113 33.1256L69.0294 66.3498L52.0005 78.0836L52.0834 44.4388Z" fill="#EA6626"/>
<path d="M35.1824 33.0421L18.0842 44L52.1553 44.0839L69.1112 33.1256L35.1824 33.0421Z" fill="#FB7B3D"/>
<rect x="18.1113" y="0.0419922" width="34" height="34" transform="rotate(0.141149 18.1113 0.0419922)" fill="#EA6626"/>
<rect x="1.08398" y="10.9998" width="34" height="34" transform="rotate(0.141149 1.08398 10.9998)" fill="#F17C44"/>
<path d="M35.0834 11.4388L52.1113 0.12562L52.0294 33.3498L35.0005 45.0836L35.0834 11.4388Z" fill="#EA6626"/>
<path d="M18.1824 0.042055L1.08423 11L35.1553 11.0839L52.1112 0.125639L18.1824 0.042055Z" fill="#FB7B3D"/>
</svg>
