<svg width="193" height="68" viewBox="0 0 193 68" fill="none" xmlns="http://www.w3.org/2000/svg">
<rect x="0.84375" y="22.9482" width="171.357" height="45.0939" transform="rotate(-2.47619 0.84375 22.9482)" fill="#EFECDB"/>
<path d="M172.039 15.5458L190.003 5.62894L191.99 51.5817L173.987 60.5976L172.039 15.5458Z" fill="#E2DFCD"/>
<path d="M18.5838 13.0411L190.006 5.628L172.056 15.8828L0.409132 23.3056L18.5838 13.0411Z" fill="#FEF9E5"/>
<ellipse cx="40.1617" cy="15.3352" rx="12.5527" ry="3.42665" transform="rotate(-2.47619 40.1617 15.3352)" fill="#DDDACB"/>
<rect x="27.3457" y="9.52051" width="7.83235" height="6.22392" transform="rotate(-2.47619 27.3457 9.52051)" fill="#DDDACB"/>
<rect x="44.6055" y="8.84326" width="7.83235" height="6.22392" transform="rotate(-2.47619 44.6055 8.84326)" fill="#DDDACB"/>
<ellipse cx="39.8922" cy="9.11745" rx="12.5527" ry="3.42665" transform="rotate(-2.47619 39.8922 9.11745)" fill="#EFECDB"/>
<ellipse cx="78.2223" cy="13.4646" rx="12.5527" ry="3.42665" transform="rotate(-2.47619 78.2223 13.4646)" fill="#DDDACB"/>
<rect x="65.4062" y="7.64893" width="7.83235" height="6.22392" transform="rotate(-2.47619 65.4062 7.64893)" fill="#DDDACB"/>
<rect x="82.666" y="6.97266" width="7.83235" height="6.22392" transform="rotate(-2.47619 82.666 6.97266)" fill="#DDDACB"/>
<ellipse cx="77.9537" cy="7.24636" rx="12.5527" ry="3.42665" transform="rotate(-2.47619 77.9537 7.24636)" fill="#EFECDB"/>
<ellipse cx="118.756" cy="11.4856" rx="12.5527" ry="3.42665" transform="rotate(-2.47619 118.756 11.4856)" fill="#DDDACB"/>
<rect x="105.941" y="5.67041" width="7.83235" height="6.22392" transform="rotate(-2.47619 105.941 5.67041)" fill="#DDDACB"/>
<rect x="123.202" y="4.99365" width="7.83235" height="6.22392" transform="rotate(-2.47619 123.202 4.99365)" fill="#DDDACB"/>
<ellipse cx="118.488" cy="5.26784" rx="12.5527" ry="3.42665" transform="rotate(-2.47619 118.488 5.26784)" fill="#EFECDB"/>
<ellipse cx="159.323" cy="10.1839" rx="12.5527" ry="3.42665" transform="rotate(-2.47619 159.323 10.1839)" fill="#DDDACB"/>
<rect x="146.505" y="4.36865" width="7.83235" height="6.22392" transform="rotate(-2.47619 146.505 4.36865)" fill="#DDDACB"/>
<rect x="163.767" y="3.69189" width="7.83235" height="6.22392" transform="rotate(-2.47619 163.767 3.69189)" fill="#DDDACB"/>
<ellipse cx="159.053" cy="3.96608" rx="12.5527" ry="3.42665" transform="rotate(-2.47619 159.053 3.96608)" fill="#EFECDB"/>
<path d="M149.988 31.5396L152.212 31.4114C152.212 31.4114 152.499 36.5603 152.707 39.8047C152.853 42.0841 153.014 44.166 153.199 45.7408L151.003 45.8812C150.725 43.498 150.664 42.547 150.497 39.946C150.419 38.7153 150.311 35.7173 150.311 35.7173C148.664 39.1645 145.998 43.5756 144.4 46.2614L142.18 46.4595L141.264 32.1396L143.488 31.9974C143.609 33.8853 143.877 39.1758 144.095 42.588C146.423 38.8164 147.803 35.5829 149.988 31.5396Z" fill="#EB662B"/>
<path d="M132.894 39.3301C134.677 40.8729 138.046 43.9291 139.179 45.6119L137.601 47.0748C136.617 45.7336 133.486 42.6621 131.554 41.0024L129.794 42.8982L130.065 47.1355L127.883 47.275L126.971 33.011L129.153 32.8715L129.592 39.7378C131.947 37.2563 135.299 33.4754 137.126 31.9544L138.598 33.6716C136.58 35.0504 134.357 37.6217 132.894 39.3301Z" fill="#EB662B"/>
<path d="M113.61 40.7885C113.941 45.9627 116.842 45.8755 118.38 45.7771L118.562 45.7655C120.743 45.626 121.734 44.6499 122.383 43.3868L124.227 44.5467C123.803 45.1635 122.66 47.7079 118.758 47.9575C117.304 48.0505 115.577 48.0486 114.17 47.1276C112.261 45.8314 111.564 43.7136 111.386 40.9307C111.058 35.7985 113.436 33.9053 117.842 33.6236C119.17 33.5386 120.226 33.808 121.107 34.3977C122.002 35.0004 122.489 35.8117 122.843 36.5192L120.743 37.496C120.553 36.9325 120.062 35.6299 117.825 35.773C114.734 35.9706 113.396 37.4463 113.61 40.7885Z" fill="#EB662B"/>
<path d="M106.239 41.259C106.057 38.4062 105.188 36.6785 102.811 36.8306C100.895 36.9531 100.265 37.6393 99.3741 39.297L99.764 45.3941C100.537 46.0608 101.39 46.8909 102.663 46.8095C104.942 46.6637 106.493 45.2166 106.239 41.259ZM97.1558 38.8631L97.1344 38.5275C97.0601 37.3668 96.8574 36.1722 96.6585 35.2582L98.9341 34.8318C99.0326 35.2749 99.1222 35.5781 99.1737 36.1645C100.005 35.325 101.092 34.764 102.658 34.6639C106.504 34.4179 108.178 37.1051 108.418 40.8529C108.718 45.5516 107.123 48.7007 102.606 48.9896C101.207 49.079 100.647 48.6655 99.9482 48.2749L100.133 51.1697C100.217 52.4842 100.418 53.6508 100.577 54.5955L98.3616 54.8635C98.1705 53.8507 98.0147 52.5127 97.9333 51.2401L97.1558 38.8631Z" fill="#EB662B"/>
<path d="M84.2107 45.701C84.3046 47.1694 85.1414 47.9584 86.442 47.8752C89.3787 47.6874 90.7057 45.384 91.0326 44.7874L90.9477 43.4588C90.1193 43.0204 89.0585 42.681 87.6041 42.774C85.7032 42.9096 84.1052 44.0509 84.2107 45.701ZM93.2523 45.0245C93.2836 45.514 93.3668 46.8145 93.5638 47.0406C93.7617 47.2807 94.2997 47.5693 94.7258 47.865L93.6715 49.6033C92.9086 49.0905 92.0471 48.7945 91.7051 47.3982C90.6814 48.5168 89.3328 49.8246 86.5779 50.0008C84.1866 50.1537 82.1866 48.3018 82.0381 45.9804C81.9702 44.9176 82.3101 43.6462 83.0806 42.7403C84.3224 41.2989 85.7133 40.873 87.3635 40.7674C89.1255 40.6547 90.0226 40.8501 90.8073 41.2633C90.6382 38.6203 89.592 37.4094 87.2146 37.5614C85.2848 37.6849 84.4306 38.1607 83.4397 40.232L81.5485 39.2016C82.7282 36.5706 84.5484 35.6117 87.0516 35.4516C90.4358 35.2352 92.756 37.2632 92.9572 40.4097L93.2523 45.0245Z" fill="#EB662B"/>
<path d="M68.5156 36.75L76.5426 36.2367C77.5914 36.1696 78.1354 36.3314 78.8069 36.5131L78.3641 38.5915C77.7354 38.4211 77.4801 38.3812 76.6524 38.392L70.9048 38.7596L71.6793 50.87L69.4278 51.014L68.5156 36.75Z" fill="#EB662B"/>
<path d="M51.9026 52.0641L52.0297 49.8796C52.2281 49.909 52.4266 49.9384 52.6364 49.925C53.853 49.8472 55.1787 48.4004 54.4892 37.6185L58.7675 37.3309L60.4316 37.2245C61.5224 37.1547 62.5013 37.0921 63.288 37.098L64.1993 51.348L61.9338 51.4928C61.7931 49.0727 61.3417 41.5753 61.3557 41.5744L61.2117 39.3229L56.8346 39.6028C56.9651 45.8149 56.7763 51.8648 52.8747 52.1143C52.581 52.1331 52.2427 52.1126 51.9026 52.0641Z" fill="#EB662B"/>
<path d="M43.6202 45.7406C42.8511 45.7898 41.4747 46.0042 41.4747 46.0042C41.6587 49.3203 41.6635 49.6148 41.7175 50.6785C43.2278 50.5819 42.8118 50.6647 43.8607 50.5976C46.3778 50.4367 47.7078 50.155 47.5611 47.8616C47.4359 45.9038 45.7878 45.602 43.6202 45.7406ZM41.0093 38.5077C41.0949 39.6256 41.1414 40.3527 41.1879 41.0799L41.3775 44.0446C42.4557 43.7791 42.8437 43.6981 43.7247 43.6417C47.1649 43.4217 49.5646 44.2793 49.7989 47.9431C50.0064 51.1875 47.9253 52.458 44.4572 52.6797C43.1287 52.7647 41.1944 52.8182 39.5722 52.9219C39.3987 50.209 39.4128 48.4529 39.0407 42.6354C38.9432 41.1111 38.9752 42.0499 38.8929 40.7633L36.18 40.9368L36.0449 38.8252L40.0724 38.5676L41.0093 38.5077Z" fill="#EB662B"/>
<path d="M30.8766 50.4596C31.731 49.5485 31.9826 48.2125 31.8645 46.3666L31.8484 46.1148C31.6559 43.5435 30.6473 41.8248 28.1721 41.983C26.8436 42.068 24.4571 43.1754 24.6888 46.7974C24.8918 49.9718 26.2166 51.5861 28.552 51.4368C29.6139 51.3548 30.2149 51.0917 30.8766 50.4596ZM24.5067 41.7541C25.4235 40.5019 26.9016 39.9019 28.5798 39.7946C30.3418 39.6819 31.9075 40.4523 33.0045 42.2357C33.6485 43.3038 33.9905 44.7001 34.0764 46.0426C34.308 49.6645 33.1936 53.3164 28.6906 53.6043L28.6627 53.6061C24.858 53.8354 22.8513 52.7561 22.3523 44.9529C21.931 38.3663 23.3232 35.7638 28.0475 34.9843C30.9514 34.5037 31.2926 34.1309 32.2206 33.2712L33.3996 35.0212C32.5476 35.7496 31.7009 36.562 28.3729 36.9995C25.3098 37.406 24.3989 39.1914 24.5067 41.7541Z" fill="#EB662B"/>
</svg>
