<svg width="700" height="724" viewBox="0 0 700 724" fill="none" xmlns="http://www.w3.org/2000/svg">
<path d="M104.773 299.377H109.462L115.954 304.175" stroke="#EA6626" stroke-width="3"/>
<path d="M111.266 295.539L119.2 297.138L131.102 306.415L135.069 308.654" stroke="#EA6626" stroke-width="2"/>
<path d="M37.6934 298.738L49.9558 309.613H66.9069L80.2514 307.374L102.252 300.977L114.875 292.98L119.563 284.343M119.563 284.343V277.626M119.563 284.343L127.859 279.545" stroke="#EA6626" stroke-width="3"/>
<path d="M64.0198 303.856L56.4459 296.179L39.8555 299.697L49.2327 310.253H70.5117L77.0036 307.054V303.856H64.0198Z" fill="#EA6626" stroke="#EA6626" stroke-width="3"/>
<path d="M-34.082 359.514L-26.8688 368.79L-23.9835 382.544L-19.2949 394.7L-5.95046 411.013L9.55797 420.929V427.007L14.9679 444.28L5.95136 453.236L-5.95046 457.715H-19.2949M-19.2949 457.715L-26.8688 453.236M-19.2949 457.715V465.711" stroke="#EA6626" stroke-width="3"/>
<path d="M-57.8848 359.193H-39.491L-25.0646 356.314L-8.47418 362.712H6.67359H25.428L33.3625 365.271L42.7397 368.15L68.3467 380.625L81.3305 375.187L98.6422 383.823L123.528 392.78L136.872 397.898L153.102 401.736L175.824 397.898" stroke="#EA6626" stroke-width="8"/>
<path d="M154.186 405.255L158.153 415.171L165.366 432.764V442.36" stroke="#EA6626" stroke-width="3"/>
<path d="M165.367 430.525L179.794 439.802L190.253 458.674L198.187 475.308" stroke="#EA6626" stroke-width="3"/>
<path d="M-127.131 147.438L-138.672 141.36H-143V170.789H-134.705V185.503L-138.672 209.173V222.928V244.359L-134.705 266.43L-105.852 283.384L-93.2287 298.738L-88.1795 319.209L-75.917 347.998L-60.0479 366.231L-56.802 356.635L-75.917 341.281L-80.9663 310.573L-93.2287 283.384L-113.065 261.952L-114.868 251.077L-123.885 231.245L-114.868 209.173L-110.54 190.621V170.789L-100.081 185.503H-88.1795L-80.9663 190.621L-65.8185 209.173L-56.802 217.17L-35.1623 234.123V251.077L-22.1785 258.434L-8.11269 267.71L11.0024 288.502L30.1174 298.738L58.9703 294.259H63.2982L74.8394 298.738L84.5773 310.573L96.4791 326.566L113.791 341.281L120.283 347.998L131.103 352.156L141.201 363.992L159.234 376.467L165.005 388.302L170.775 396.299L188.087 405.255L198.186 420.609L206.481 428.606L222.35 435.323L230.284 438.202L255.17 435.323L265.99 428.606L271.039 411.653L285.105 396.299H295.203H309.991H323.335H345.696L360.483 411.653L369.5 405.255L376.352 396.299L385.369 388.302V376.467L397.631 356.635V341.281H391.139L385.369 356.635L376.352 383.184L369.5 388.302L355.434 396.299L338.122 383.184H304.22L280.056 388.302L271.039 396.299L255.17 420.609L250.481 428.606H227.038L216.219 420.609L193.858 396.299L175.103 383.184L170.775 369.749L145.89 356.635L141.201 347.998L113.791 330.085L97.9217 306.095L74.8394 288.502L30.1174 279.545L0.182526 258.434L-22.1785 226.766L-35.1623 203.096L-56.802 170.789L-88.1795 165.671L-114.868 147.438H-127.131Z" fill="#EA6626" stroke="#EA6626" stroke-width="8"/>
<path d="M15.332 444.6L27.2339 452.277L38.775 457.075L40.939 462.193L47.7915 467.95L56.8081 475.627" stroke="#EA6626" stroke-width="5"/>
<path d="M12.084 436.603L22.9038 432.444" stroke="#EA6626" stroke-width="3"/>
<path d="M151.299 359.194L166.807 347.678L177.627 341.92L190.611 336.163H200.349H211.529L220.185 332.324L233.53 318.57L246.513 312.492L255.891 305.455L265.268 300.977L274.284 295.219V286.583L286.186 279.865L296.645 270.589V266.431L305.301 260.673" stroke="#EA6626" stroke-width="2"/>
<path d="M174.022 354.395L158.513 361.752L153.104 358.553L167.169 347.678L181.596 340.001L193.858 335.842L211.531 337.442L224.154 329.125L233.531 319.209L238.22 316.97L250.843 310.892L273.925 293.939L276.089 285.942V293.939H285.466L290.515 291.06L285.466 300.657L276.089 296.818L273.925 300.657L261.663 305.774L248.318 315.371L236.416 324.967L224.154 335.842L211.891 342.56L218.383 347.678H229.564L243.629 344.159H253.728L268.154 347.678L285.466 354.395L299.532 358.553L306.024 363.352L301.696 365.271L297.007 361.752L280.417 354.395L265.63 351.196L250.843 347.678L236.416 351.196H221.268L211.17 347.678L200.711 340.001H193.858L183.76 344.159L174.022 354.395Z" fill="#EA6626" stroke="#EA6626" stroke-width="2"/>
<path d="M531.53 429.472C531.414 429.355 531.79 429.399 531.859 429.392C532.291 429.348 532.701 429.215 533.111 429.093C533.707 428.914 534.276 428.676 534.864 428.487C535.273 428.355 535.666 428.246 536.083 428.143C536.231 428.107 536.697 428.033 536.791 427.928C536.885 427.824 536.858 427.895 536.602 427.895C536.077 427.895 535.56 427.868 535.046 427.764C534.102 427.572 533.061 427.792 532.127 427.534C531.666 427.406 531.752 427.257 531.752 426.847C531.752 426.682 531.752 426.516 531.752 426.35C531.752 426.172 532.367 426.412 532.493 426.449C533.343 426.696 534.188 426.921 535.021 427.209C535.329 427.315 536.203 427.377 536.347 427.632" stroke="#EA6626" stroke-width="3" stroke-linecap="round"/>
<path d="M504.702 427.5C504.106 427.5 505.897 427.554 506.488 427.496C507.43 427.403 508.426 427.171 509.37 427.171" stroke="#EA6626" stroke-width="3" stroke-linecap="round"/>
<path d="M504.705 423.096C505.192 423.096 505.684 423.077 506.171 423.096C506.65 423.115 507.269 423.464 507.739 423.589C508.775 423.865 509.759 424.305 510.782 424.608" stroke="#EA6626" stroke-width="3" stroke-linecap="round"/>
<path d="M445.238 186.142V177.505L442.713 172.707L439.828 160.872V151.276V144.559" stroke="#EA6626" stroke-width="3"/>
<path d="M444.878 187.742L444.352 179.105M444.157 175.906L444.352 179.105M441.271 185.183L444.352 179.105M442.714 184.543L443.796 183.263" stroke="#EA6626" stroke-width="3"/>
<path d="M394.746 331.685L396.91 340.961" stroke="#EA6626" stroke-width="9"/>
<path d="M392.582 342.56V331.045L404.484 324.647L417.107 315.051L426.484 300.977V288.821L432.255 284.023L446.681 269.629L457.501 259.713L456.058 245.959L461.108 231.564L465.075 226.446L457.501 211.092L456.058 201.816L443.796 183.903" stroke="#EA6626" stroke-width="9"/>
<path d="M441.994 371.988V361.752M441.994 361.752V355.355H435.502M441.994 361.752L448.846 357.594V344.799L453.896 336.482L448.846 323.048" stroke="#EA6626" stroke-width="2"/>
<path d="M379.598 391.821H390.417L398.713 382.864L411.697 379.666H419.992L438.025 373.268L454.615 368.79L463.992 361.753H479.861L488.517 368.79H495.731L509.436 373.268H522.78L555.24 361.753L570.387 347.039L580.125 338.722L606.093 333.284H616.552" stroke="#EA6626" stroke-width="5"/>
<path d="M529.271 427.327H538.508L547.305 424.128" stroke="#EA6626" stroke-width="2"/>
<path d="M403.041 425.407L413.14 419.97L421.435 415.491H430.812L437.304 410.693H445.599H454.976L474.452 415.491L495.01 425.407H505.469" stroke="#EA6626" stroke-width="9"/>
<path d="M504.025 425.407H513.403L522.78 427.646H532.157" stroke="#EA6626" stroke-width="7"/>
<path d="M360.842 412.292L378.875 421.248L397.269 424.767L413.859 435.963L421.072 444.919" stroke="#EA6626" stroke-width="9"/>
<path d="M74.1191 185.183L84.2177 195.738L88.9063 200.856L91.7915 207.894L93.5948 213.971L97.9228 222.608L102.972 231.884L106.939 236.042L109.825 239.241" stroke="#EA6626" stroke-width="3"/>
<path d="M48.1504 189.981H65.8228L75.5606 183.264H89.6264L103.692 181.345L110.184 178.786L119.201 166.951L126.053 162.792H134.709H144.086L155.627 160.553L171.497 155.115" stroke="#EA6626" stroke-width="5"/>
<path d="M167.889 156.075L176.905 153.836H187.364L197.824 149.997H218.381H229.922L241.824 148.078H253.726" stroke="#EA6626" stroke-width="3"/>
<path d="M-16.0449 202.776L-29.75 205.975L-26.504 213.972H-22.1761L-1.25776 209.173H13.5293L27.2345 202.776L37.6936 197.658H45.6282L51.3988 202.136L52.4808 200.537L48.1528 190.301V189.021L34.4477 192.22L21.4639 194.139L11.0047 200.217H-1.25776L-16.0449 202.776Z" fill="#EA6626" stroke="#EA6626" stroke-width="2"/>
<path d="M52.1172 201.496L63.2977 207.254L76.6421 212.692L90.7079 215.89L106.216 220.369L126.053 223.567L138.315 220.369L149.856 223.567L159.234 220.369H178.349L198.546 223.567H204.316L208.283 226.446" stroke="#EA6626" stroke-width="5"/>
<path d="M493.207 282.744L497.896 296.499L500.781 307.374" stroke="#EA6626" stroke-width="3"/>
<path d="M506.912 281.465L510.519 285.943H518.093" stroke="#EA6626" stroke-width="3"/>
<path d="M427.566 300.017L447.403 294.899L468.321 283.703H494.289L514.846 279.545L527.83 273.787L546.945 270.269H571.831L590.946 266.75L599.241 259.073H603.93L610.422 254.915L620.881 252.996L632.061 248.517L642.881 239.561L667.767 233.483" stroke="#EA6626" stroke-width="3"/>
<path d="M426.123 304.176L448.484 293.62L470.124 284.663H477.337L497.534 282.424L513.042 277.626L529.633 276.027L549.83 269.949" stroke="#EA6626" stroke-width="5"/>
<path d="M458.225 202.456L463.995 194.459L475.176 185.503L477.34 177.506L493.569 168.869" stroke="#EA6626" stroke-width="3"/>
<path d="M459.305 207.254L470.125 202.136" stroke="#EA6626" stroke-width="3"/>
<path d="M38.0237 413.955C33.7224 417.802 28.7258 425.934 32.0675 428.873C35.4091 431.812 46.4672 429.012 50.7686 425.166C55.0699 421.319 53.156 415.942 49.8144 413.003C46.4727 410.063 42.325 410.109 38.0237 413.955Z" fill="#EFECDB"/>
<path d="M42.7301 436.805C43.1778 431.402 41.0118 422.343 36.3181 422.037C31.6244 421.731 25.2761 430.236 24.8285 435.639C24.3808 441.041 29.7773 444.023 34.4711 444.329C39.1648 444.635 42.2824 442.208 42.7301 436.805Z" fill="#EFECDB"/>
<path d="M49.6634 424.947C43.6526 423.983 33.2666 424.939 32.4292 429.046C31.5918 433.154 40.4588 439.648 46.4697 440.612C52.4805 441.576 56.3921 437.131 57.2294 433.023C58.0668 428.916 55.6742 425.91 49.6634 424.947Z" fill="#EFECDB"/>
<path d="M21.7861 421.22C27.7115 419.904 38.1461 420.247 39.2892 424.296C40.4323 428.345 32.0711 435.348 26.1457 436.663C20.2203 437.979 15.9845 433.774 14.8415 429.725C13.6984 425.676 15.8607 422.536 21.7861 421.22Z" fill="#F2EDE1"/>
<path d="M19.0331 418.288C21.7324 423.148 28.7734 429.986 32.9953 428.142C37.2172 426.297 37.8345 416.112 35.1351 411.253C32.4358 406.393 26.0799 406.246 21.858 408.091C17.6361 409.935 16.3337 413.428 19.0331 418.288Z" fill="#EFECDB"/>
<path d="M40.77 425.658C39.7666 426.392 38.0526 426.469 36.8761 426.921C35.6655 427.386 36.3018 426.249 36.5925 425.76C36.7887 425.431 36.9846 425.129 37.1965 424.807C37.2059 424.793 36.5534 425.975 36.3052 426.275C35.4378 427.325 35.0951 424.399 34.9733 423.968C34.8316 423.466 34.5252 421.957 34.4969 422.474C34.4618 423.115 34.5113 423.783 34.6624 424.411C34.9177 425.471 35.5488 426.408 36.4079 427.164C37.1152 427.786 39.2603 429.585 38.722 428.841C38.2869 428.24 37.4288 427.632 36.8136 427.193C36.6388 427.069 35.3726 426.107 35.1923 426.197C34.5719 426.506 35.4706 429.036 35.5492 429.418C35.594 429.636 35.7793 430.562 35.7804 430.553C35.8649 429.933 35.6265 429.269 35.5456 428.658C35.447 427.913 35.2982 427.085 34.9845 426.383C34.7783 425.921 34.2766 426.634 34.0652 426.823C33.3516 427.461 32.6379 428.1 31.9243 428.738C31.6006 429.027 32.4578 427.955 32.5633 427.836C32.7234 427.656 34.3168 426.082 34.2411 426.016C34.218 425.995 33.5 426.37 33.4258 426.384C32.691 426.517 32.0077 426.314 31.2869 426.253C31.0487 426.232 30.5707 426.11 31.0712 425.971C31.8585 425.752 32.7357 425.927 33.545 425.864C34.0056 425.828 33.3775 425.42 33.2702 425.325C32.6812 424.807 32.0424 424.43 31.4789 423.934" stroke="#EA6626" stroke-width="2" stroke-linecap="round"/>
<path d="M108.715 226.51C104.414 230.357 99.4172 238.488 102.759 241.428C106.101 244.367 117.159 241.567 121.46 237.721C125.761 233.874 123.847 228.497 120.506 225.557C117.164 222.618 113.016 222.664 108.715 226.51Z" fill="#EFECDB"/>
<path d="M113.42 249.36C113.867 243.957 111.701 234.898 107.008 234.592C102.314 234.286 95.9656 242.79 95.5179 248.193C95.0703 253.596 100.467 256.578 105.161 256.884C109.854 257.19 112.972 254.763 113.42 249.36Z" fill="#EFECDB"/>
<path d="M120.351 237.501C114.34 236.537 103.954 237.493 103.117 241.601C102.279 245.708 111.146 252.203 117.157 253.167C123.168 254.131 127.08 249.685 127.917 245.578C128.754 241.47 126.362 238.465 120.351 237.501Z" fill="#EFECDB"/>
<path d="M92.4794 233.775C98.4048 232.459 108.84 232.801 109.983 236.851C111.126 240.9 102.764 247.902 96.8391 249.218C90.9137 250.534 86.6779 246.329 85.5348 242.279C84.3917 238.23 86.554 235.091 92.4794 233.775Z" fill="#F2EDE1"/>
<path d="M89.7225 230.843C92.4219 235.702 99.4629 242.541 103.685 240.696C107.907 238.852 108.524 228.667 105.825 223.807C103.125 218.948 96.7694 218.801 92.5475 220.645C88.3256 222.49 87.0232 225.983 89.7225 230.843Z" fill="#EFECDB"/>
<path d="M111.461 238.213C110.458 238.948 108.744 239.024 107.567 239.476C106.357 239.942 106.993 238.804 107.284 238.316C107.48 237.987 107.676 237.685 107.888 237.363C107.897 237.349 107.245 238.531 106.997 238.831C106.129 239.881 105.786 236.955 105.665 236.523C105.523 236.021 105.217 234.513 105.188 235.029C105.153 235.671 105.203 236.339 105.354 236.966C105.609 238.026 106.24 238.964 107.099 239.72C107.807 240.342 109.952 242.14 109.413 241.397C108.978 240.796 108.12 240.188 107.505 239.749C107.33 239.624 106.064 238.663 105.884 238.753C105.263 239.062 106.162 241.592 106.241 241.974C106.285 242.192 106.471 243.117 106.472 243.109C106.556 242.489 106.318 241.825 106.237 241.213C106.138 240.468 105.99 239.641 105.676 238.939C105.47 238.477 104.968 239.19 104.757 239.379C104.043 240.017 103.329 240.655 102.616 241.293C102.292 241.583 103.149 240.51 103.255 240.392C103.415 240.212 105.008 238.638 104.932 238.571C104.909 238.551 104.191 238.926 104.117 238.939C103.382 239.072 102.699 238.87 101.978 238.808C101.74 238.788 101.262 238.666 101.763 238.526C102.55 238.307 103.427 238.483 104.236 238.42C104.697 238.384 104.069 237.976 103.962 237.881C103.373 237.363 102.734 236.985 102.17 236.49" stroke="#EA6626" stroke-width="2" stroke-linecap="round"/>
<path d="M141.891 132.468C137.59 136.315 132.593 144.446 135.935 147.386C139.276 150.325 150.334 147.525 154.636 143.679C158.937 139.832 157.023 134.455 153.682 131.515C150.34 128.576 146.192 128.622 141.891 132.468Z" fill="#EFECDB"/>
<path d="M146.595 155.318C147.043 149.915 144.877 140.856 140.183 140.55C135.49 140.244 129.141 148.748 128.694 154.151C128.246 159.554 133.643 162.536 138.336 162.842C143.03 163.148 146.148 160.721 146.595 155.318Z" fill="#EFECDB"/>
<path d="M153.531 143.459C147.52 142.495 137.134 143.451 136.296 147.559C135.459 151.666 144.326 158.161 150.337 159.125C156.348 160.089 160.259 155.643 161.097 151.536C161.934 147.428 159.541 144.423 153.531 143.459Z" fill="#EFECDB"/>
<path d="M125.655 139.733C131.581 138.417 142.015 138.759 143.158 142.809C144.301 146.858 135.94 153.86 130.015 155.176C124.089 156.492 119.854 152.287 118.711 148.237C117.568 144.188 119.73 141.049 125.655 139.733Z" fill="#F2EDE1"/>
<path d="M122.902 136.801C125.602 141.66 132.643 148.499 136.864 146.654C141.086 144.81 141.704 134.625 139.004 129.765C136.305 124.906 129.949 124.759 125.727 126.603C121.505 128.448 120.203 131.941 122.902 136.801Z" fill="#EFECDB"/>
<path d="M144.639 144.17C143.636 144.905 141.922 144.981 140.745 145.434C139.535 145.899 140.171 144.761 140.462 144.273C140.658 143.944 140.854 143.642 141.066 143.32C141.075 143.306 140.423 144.488 140.174 144.788C139.307 145.838 138.964 142.912 138.842 142.48C138.701 141.978 138.394 140.47 138.366 140.986C138.331 141.628 138.38 142.296 138.532 142.923C138.787 143.983 139.418 144.921 140.277 145.677C140.984 146.299 143.129 148.097 142.591 147.354C142.156 146.753 141.298 146.145 140.683 145.706C140.508 145.582 139.242 144.62 139.061 144.71C138.441 145.019 139.34 147.549 139.418 147.931C139.463 148.149 139.648 149.074 139.65 149.066C139.734 148.446 139.496 147.782 139.415 147.17C139.316 146.425 139.167 145.598 138.854 144.896C138.647 144.434 138.146 145.147 137.934 145.336C137.221 145.974 136.507 146.612 135.793 147.25C135.47 147.54 136.327 146.467 136.432 146.349C136.593 146.169 138.186 144.595 138.11 144.528C138.087 144.508 137.369 144.883 137.295 144.896C136.56 145.029 135.877 144.827 135.156 144.765C134.918 144.745 134.44 144.623 134.94 144.483C135.728 144.264 136.605 144.44 137.414 144.377C137.875 144.341 137.247 143.933 137.139 143.838C136.55 143.32 135.912 142.942 135.348 142.447" stroke="#EA6626" stroke-width="2" stroke-linecap="round"/>
<path d="M132.512 174.691C128.211 178.537 123.214 186.669 126.556 189.608C129.897 192.548 140.956 189.748 145.257 185.901C149.558 182.055 147.644 176.677 144.303 173.738C140.961 170.799 136.813 170.844 132.512 174.691Z" fill="#EFECDB"/>
<path d="M137.218 197.541C137.666 192.138 135.5 183.078 130.806 182.772C126.113 182.466 119.764 190.971 119.317 196.374C118.869 201.777 124.266 204.758 128.959 205.064C133.653 205.37 136.771 202.944 137.218 197.541Z" fill="#EFECDB"/>
<path d="M144.152 185.682C138.141 184.718 127.755 185.674 126.917 189.782C126.08 193.889 134.947 200.384 140.958 201.348C146.969 202.312 150.88 197.866 151.718 193.759C152.555 189.651 150.163 186.646 144.152 185.682Z" fill="#EFECDB"/>
<path d="M116.274 181.956C122.2 180.64 132.634 180.982 133.778 185.031C134.921 189.08 126.559 196.083 120.634 197.399C114.709 198.715 110.473 194.509 109.33 190.46C108.187 186.411 110.349 183.271 116.274 181.956Z" fill="#F2EDE1"/>
<path d="M113.521 179.023C116.221 183.883 123.262 190.722 127.484 188.877C131.706 187.033 132.323 176.848 129.623 171.988C126.924 167.128 120.568 166.981 116.346 168.826C112.124 170.671 110.822 174.163 113.521 179.023Z" fill="#EFECDB"/>
<path d="M135.258 186.393C134.255 187.127 132.541 187.204 131.364 187.656C130.154 188.122 130.79 186.984 131.081 186.496C131.277 186.166 131.473 185.864 131.685 185.543C131.694 185.528 131.042 186.71 130.793 187.011C129.926 188.061 129.583 185.135 129.462 184.703C129.32 184.201 129.013 182.692 128.985 183.209C128.95 183.851 129 184.519 129.151 185.146C129.406 186.206 130.037 187.144 130.896 187.899C131.603 188.522 133.749 190.32 133.21 189.577C132.775 188.976 131.917 188.367 131.302 187.929C131.127 187.804 129.861 186.843 129.681 186.933C129.06 187.241 129.959 189.772 130.037 190.154C130.082 190.371 130.268 191.297 130.269 191.289C130.353 190.669 130.115 190.004 130.034 189.393C129.935 188.648 129.786 187.821 129.473 187.118C129.267 186.657 128.765 187.37 128.553 187.559C127.84 188.197 127.126 188.835 126.413 189.473C126.089 189.763 126.946 188.69 127.052 188.571C127.212 188.391 128.805 186.818 128.729 186.751C128.706 186.731 127.988 187.105 127.914 187.119C127.179 187.252 126.496 187.049 125.775 186.988C125.537 186.968 125.059 186.845 125.559 186.706C126.347 186.487 127.224 186.662 128.033 186.599C128.494 186.564 127.866 186.155 127.758 186.061C127.169 185.543 126.531 185.165 125.967 184.669" stroke="#EA6626" stroke-width="2" stroke-linecap="round"/>
<path d="M204.426 157.023C201.811 159.362 198.772 164.307 200.804 166.094C202.836 167.882 209.561 166.179 212.177 163.84C214.792 161.501 213.628 158.231 211.596 156.443C209.564 154.656 207.042 154.684 204.426 157.023Z" fill="#EFECDB"/>
<path d="M207.288 170.917C207.56 167.632 206.243 162.123 203.389 161.937C200.535 161.751 196.674 166.922 196.402 170.208C196.13 173.493 199.412 175.306 202.266 175.492C205.12 175.679 207.016 174.203 207.288 170.917Z" fill="#EFECDB"/>
<path d="M211.502 163.706C207.846 163.12 201.531 163.701 201.021 166.199C200.512 168.697 205.904 172.646 209.559 173.233C213.215 173.819 215.593 171.115 216.103 168.618C216.612 166.12 215.157 164.292 211.502 163.706Z" fill="#EFECDB"/>
<path d="M194.55 161.44C198.153 160.64 204.499 160.848 205.194 163.31C205.889 165.773 200.805 170.031 197.201 170.831C193.598 171.631 191.022 169.074 190.327 166.612C189.632 164.149 190.947 162.24 194.55 161.44Z" fill="#F2EDE1"/>
<path d="M192.877 159.657C194.518 162.613 198.8 166.771 201.367 165.65C203.935 164.528 204.31 158.334 202.669 155.379C201.027 152.424 197.162 152.335 194.595 153.456C192.027 154.578 191.235 156.702 192.877 159.657Z" fill="#EFECDB"/>
<path d="M206.097 164.139C205.487 164.585 204.445 164.632 203.729 164.907C202.993 165.19 203.38 164.498 203.557 164.201C203.676 164.001 203.795 163.817 203.924 163.622C203.93 163.613 203.533 164.332 203.382 164.514C202.855 165.153 202.646 163.373 202.572 163.111C202.486 162.806 202.3 161.888 202.283 162.203C202.261 162.593 202.291 162.999 202.383 163.38C202.538 164.025 202.922 164.595 203.445 165.055C203.875 165.433 205.179 166.527 204.852 166.075C204.587 165.709 204.065 165.339 203.691 165.073C203.585 164.997 202.815 164.412 202.705 164.467C202.328 164.655 202.875 166.193 202.922 166.426C202.95 166.558 203.062 167.121 203.063 167.116C203.114 166.739 202.97 166.335 202.92 165.963C202.86 165.51 202.77 165.007 202.579 164.58C202.454 164.299 202.149 164.733 202.02 164.848C201.586 165.236 201.152 165.624 200.718 166.012C200.521 166.188 201.043 165.536 201.107 165.463C201.204 165.354 202.173 164.397 202.127 164.356C202.113 164.344 201.676 164.572 201.631 164.58C201.184 164.661 200.769 164.538 200.331 164.501C200.186 164.488 199.895 164.414 200.199 164.329C200.678 164.196 201.212 164.302 201.704 164.264C201.984 164.243 201.602 163.994 201.537 163.937C201.178 163.622 200.79 163.392 200.447 163.091" stroke="#EA6626" stroke-width="2" stroke-linecap="round"/>
<path d="M464.102 323.994C461.486 326.333 458.448 331.278 460.48 333.066C462.512 334.853 469.237 333.151 471.852 330.811C474.468 328.472 473.304 325.202 471.272 323.415C469.24 321.627 466.718 321.655 464.102 323.994Z" fill="#EFECDB"/>
<path d="M466.966 337.889C467.238 334.603 465.921 329.094 463.067 328.908C460.212 328.722 456.352 333.894 456.08 337.179C455.808 340.465 459.089 342.278 461.944 342.464C464.798 342.65 466.694 341.174 466.966 337.889Z" fill="#EFECDB"/>
<path d="M471.181 330.678C467.526 330.092 461.21 330.673 460.701 333.171C460.192 335.669 465.584 339.618 469.239 340.204C472.894 340.79 475.273 338.087 475.782 335.589C476.291 333.091 474.837 331.264 471.181 330.678Z" fill="#EFECDB"/>
<path d="M454.228 328.412C457.831 327.611 464.177 327.82 464.872 330.282C465.567 332.744 460.482 337.003 456.879 337.803C453.276 338.603 450.7 336.046 450.005 333.583C449.31 331.121 450.625 329.212 454.228 328.412Z" fill="#F2EDE1"/>
<path d="M452.555 326.629C454.196 329.584 458.478 333.743 461.045 332.621C463.613 331.5 463.988 325.306 462.346 322.351C460.705 319.396 456.84 319.306 454.272 320.428C451.705 321.55 450.913 323.674 452.555 326.629Z" fill="#EFECDB"/>
<path d="M465.775 331.11C465.165 331.557 464.123 331.604 463.407 331.879C462.671 332.162 463.058 331.47 463.235 331.173C463.354 330.973 463.473 330.789 463.602 330.593C463.608 330.585 463.211 331.303 463.06 331.486C462.532 332.125 462.324 330.345 462.25 330.083C462.164 329.777 461.978 328.86 461.96 329.174C461.939 329.564 461.969 329.971 462.061 330.352C462.216 330.997 462.6 331.567 463.122 332.027C463.552 332.405 464.857 333.499 464.53 333.046C464.265 332.681 463.743 332.311 463.369 332.044C463.263 331.969 462.493 331.384 462.383 331.439C462.006 331.626 462.552 333.165 462.6 333.397C462.627 333.53 462.74 334.093 462.741 334.087C462.792 333.711 462.647 333.307 462.598 332.935C462.538 332.482 462.448 331.979 462.257 331.552C462.131 331.271 461.826 331.704 461.698 331.819C461.264 332.207 460.83 332.595 460.396 332.983C460.199 333.159 460.72 332.507 460.784 332.435C460.882 332.326 461.851 331.369 461.805 331.328C461.791 331.316 461.354 331.544 461.309 331.552C460.862 331.633 460.447 331.51 460.008 331.472C459.863 331.46 459.573 331.386 459.877 331.301C460.356 331.168 460.889 331.274 461.381 331.236C461.662 331.214 461.28 330.966 461.214 330.908C460.856 330.593 460.468 330.364 460.125 330.062" stroke="#EA6626" stroke-width="2" stroke-linecap="round"/>
<path d="M470.596 261.299C467.981 263.638 464.942 268.583 466.974 270.371C469.006 272.158 475.731 270.455 478.346 268.116C480.962 265.777 479.798 262.507 477.766 260.72C475.734 258.932 473.212 258.96 470.596 261.299Z" fill="#EFECDB"/>
<path d="M473.458 275.194C473.73 271.908 472.413 266.399 469.559 266.213C466.705 266.027 462.844 271.199 462.572 274.484C462.3 277.77 465.581 279.583 468.436 279.769C471.29 279.955 473.186 278.479 473.458 275.194Z" fill="#EFECDB"/>
<path d="M477.672 267.982C474.016 267.396 467.701 267.978 467.191 270.476C466.682 272.973 472.074 276.923 475.729 277.509C479.385 278.095 481.763 275.392 482.272 272.894C482.782 270.396 481.327 268.569 477.672 267.982Z" fill="#EFECDB"/>
<path d="M460.72 265.716C464.323 264.916 470.669 265.124 471.364 267.587C472.059 270.049 466.974 274.307 463.371 275.107C459.768 275.908 457.192 273.35 456.497 270.888C455.802 268.426 457.117 266.516 460.72 265.716Z" fill="#F2EDE1"/>
<path d="M459.047 263.934C460.688 266.889 464.97 271.048 467.537 269.926C470.105 268.804 470.48 262.611 468.839 259.656C467.197 256.7 463.332 256.611 460.765 257.733C458.197 258.854 457.405 260.978 459.047 263.934Z" fill="#EFECDB"/>
<path d="M472.267 268.415C471.657 268.862 470.615 268.908 469.899 269.183C469.163 269.466 469.55 268.775 469.727 268.478C469.846 268.277 469.965 268.094 470.094 267.898C470.1 267.889 469.703 268.608 469.552 268.791C469.025 269.429 468.816 267.65 468.742 267.387C468.656 267.082 468.47 266.165 468.453 266.479C468.431 266.869 468.461 267.275 468.553 267.657C468.708 268.301 469.092 268.872 469.615 269.331C470.045 269.71 471.349 270.803 471.022 270.351C470.757 269.986 470.235 269.616 469.861 269.349C469.755 269.273 468.985 268.689 468.875 268.743C468.498 268.931 469.045 270.47 469.092 270.702C469.12 270.834 469.232 271.397 469.233 271.392C469.284 271.015 469.139 270.611 469.09 270.239C469.03 269.786 468.94 269.283 468.749 268.856C468.624 268.575 468.319 269.009 468.19 269.124C467.756 269.512 467.322 269.9 466.888 270.288C466.691 270.464 467.213 269.812 467.277 269.74C467.374 269.63 468.343 268.673 468.297 268.633C468.283 268.62 467.846 268.848 467.801 268.857C467.354 268.938 466.939 268.814 466.5 268.777C466.356 268.765 466.065 268.69 466.369 268.606C466.848 268.472 467.382 268.579 467.874 268.541C468.154 268.519 467.772 268.271 467.707 268.213C467.348 267.898 466.96 267.668 466.617 267.367" stroke="#EA6626" stroke-width="2" stroke-linecap="round"/>
<path d="M614.864 315.678C612.248 318.017 609.21 322.962 611.242 324.749C613.274 326.537 619.998 324.834 622.614 322.495C625.23 320.156 624.066 316.886 622.034 315.098C620.002 313.311 617.48 313.339 614.864 315.678Z" fill="#EFECDB"/>
<path d="M617.726 329.573C617.998 326.287 616.681 320.778 613.826 320.592C610.972 320.406 607.112 325.577 606.84 328.863C606.567 332.149 609.849 333.962 612.703 334.148C615.558 334.334 617.453 332.858 617.726 329.573Z" fill="#EFECDB"/>
<path d="M621.939 322.361C618.284 321.775 611.968 322.357 611.459 324.854C610.95 327.352 616.342 331.302 619.997 331.888C623.652 332.474 626.031 329.771 626.54 327.273C627.049 324.775 625.594 322.948 621.939 322.361Z" fill="#EFECDB"/>
<path d="M604.988 320.095C608.591 319.295 614.936 319.503 615.631 321.966C616.327 324.428 611.242 328.686 607.639 329.486C604.036 330.286 601.46 327.729 600.765 325.267C600.07 322.805 601.384 320.895 604.988 320.095Z" fill="#F2EDE1"/>
<path d="M603.314 318.313C604.956 321.268 609.238 325.427 611.805 324.305C614.372 323.183 614.748 316.99 613.106 314.034C611.465 311.079 607.6 310.99 605.032 312.112C602.465 313.233 601.673 315.357 603.314 318.313Z" fill="#EFECDB"/>
<path d="M616.535 322.794C615.925 323.241 614.882 323.287 614.167 323.562C613.431 323.845 613.818 323.153 613.994 322.856C614.114 322.656 614.233 322.473 614.362 322.277C614.367 322.268 613.971 322.987 613.82 323.17C613.292 323.808 613.084 322.029 613.01 321.766C612.924 321.461 612.737 320.544 612.72 320.858C612.699 321.248 612.729 321.654 612.821 322.036C612.976 322.68 613.36 323.251 613.882 323.71C614.312 324.088 615.617 325.182 615.289 324.73C615.025 324.365 614.503 323.995 614.129 323.728C614.023 323.652 613.253 323.068 613.143 323.122C612.766 323.31 613.312 324.849 613.36 325.081C613.387 325.213 613.5 325.776 613.501 325.771C613.552 325.394 613.407 324.99 613.358 324.618C613.298 324.165 613.207 323.662 613.017 323.235C612.891 322.954 612.586 323.388 612.458 323.503C612.024 323.891 611.59 324.279 611.156 324.667C610.959 324.843 611.48 324.191 611.544 324.119C611.642 324.009 612.611 323.052 612.565 323.012C612.55 322.999 612.114 323.227 612.069 323.235C611.622 323.316 611.206 323.193 610.768 323.156C610.623 323.144 610.333 323.069 610.637 322.984C611.116 322.851 611.649 322.958 612.141 322.92C612.421 322.898 612.039 322.649 611.974 322.592C611.616 322.277 611.227 322.047 610.885 321.746" stroke="#EA6626" stroke-width="2" stroke-linecap="round"/>
<path d="M210.922 206.282C208.307 208.622 205.268 213.566 207.3 215.354C209.332 217.141 216.057 215.439 218.673 213.1C221.288 210.76 220.125 207.49 218.092 205.703C216.06 203.916 213.538 203.943 210.922 206.282Z" fill="#EFECDB"/>
<path d="M213.784 220.177C214.056 216.891 212.739 211.382 209.885 211.196C207.031 211.01 203.17 216.182 202.898 219.468C202.626 222.753 205.908 224.566 208.762 224.752C211.616 224.938 213.512 223.463 213.784 220.177Z" fill="#EFECDB"/>
<path d="M218.002 212.966C214.346 212.38 208.031 212.961 207.521 215.459C207.012 217.957 212.404 221.906 216.059 222.492C219.715 223.079 222.093 220.375 222.603 217.877C223.112 215.38 221.657 213.552 218.002 212.966Z" fill="#EFECDB"/>
<path d="M201.048 210.7C204.651 209.9 210.997 210.108 211.692 212.57C212.387 215.032 207.303 219.291 203.699 220.091C200.096 220.891 197.52 218.334 196.825 215.871C196.13 213.409 197.445 211.5 201.048 210.7Z" fill="#F2EDE1"/>
<path d="M199.375 208.917C201.016 211.872 205.298 216.031 207.865 214.909C210.433 213.788 210.808 207.594 209.167 204.639C207.525 201.684 203.66 201.594 201.093 202.716C198.525 203.838 197.733 205.962 199.375 208.917Z" fill="#EFECDB"/>
<path d="M212.593 213.399C211.983 213.845 210.941 213.892 210.225 214.167C209.489 214.45 209.876 213.758 210.053 213.461C210.172 213.261 210.291 213.077 210.42 212.881C210.426 212.873 210.029 213.591 209.878 213.774C209.351 214.413 209.142 212.633 209.068 212.371C208.982 212.065 208.796 211.148 208.779 211.462C208.757 211.853 208.787 212.259 208.879 212.64C209.035 213.285 209.418 213.855 209.941 214.315C210.371 214.693 211.675 215.787 211.348 215.335C211.083 214.969 210.562 214.599 210.187 214.332C210.081 214.257 209.311 213.672 209.202 213.727C208.824 213.914 209.371 215.453 209.419 215.685C209.446 215.818 209.559 216.381 209.559 216.376C209.611 215.999 209.466 215.595 209.416 215.223C209.356 214.77 209.266 214.267 209.075 213.84C208.95 213.559 208.645 213.992 208.516 214.107C208.082 214.495 207.648 214.883 207.214 215.272C207.017 215.448 207.539 214.795 207.603 214.723C207.7 214.614 208.669 213.657 208.623 213.616C208.609 213.604 208.172 213.832 208.127 213.84C207.68 213.921 207.265 213.798 206.827 213.76C206.682 213.748 206.391 213.674 206.695 213.589C207.174 213.456 207.708 213.562 208.2 213.524C208.48 213.502 208.098 213.254 208.033 213.196C207.675 212.881 207.286 212.652 206.943 212.35" stroke="#EA6626" stroke-width="2" stroke-linecap="round"/>
<path d="M176.299 226.114C173.684 228.454 170.645 233.399 172.677 235.186C174.709 236.973 181.434 235.271 184.05 232.932C186.665 230.592 185.501 227.322 183.469 225.535C181.437 223.748 178.915 223.775 176.299 226.114Z" fill="#EFECDB"/>
<path d="M179.161 240.009C179.433 236.724 178.116 231.214 175.262 231.028C172.408 230.842 168.547 236.014 168.275 239.3C168.003 242.585 171.285 244.398 174.139 244.584C176.993 244.77 178.889 243.295 179.161 240.009Z" fill="#EFECDB"/>
<path d="M183.379 232.798C179.723 232.212 173.408 232.793 172.898 235.291C172.389 237.789 177.781 241.738 181.436 242.324C185.092 242.911 187.47 240.207 187.98 237.709C188.489 235.212 187.034 233.384 183.379 232.798Z" fill="#EFECDB"/>
<path d="M166.425 230.532C170.028 229.732 176.374 229.94 177.069 232.402C177.764 234.864 172.68 239.123 169.076 239.923C165.473 240.723 162.897 238.166 162.202 235.703C161.507 233.241 162.822 231.332 166.425 230.532Z" fill="#F2EDE1"/>
<path d="M164.75 228.749C166.391 231.704 170.673 235.863 173.24 234.741C175.808 233.62 176.183 227.426 174.542 224.471C172.9 221.516 169.035 221.426 166.468 222.548C163.9 223.67 163.108 225.794 164.75 228.749Z" fill="#EFECDB"/>
<path d="M177.972 233.231C177.362 233.677 176.32 233.724 175.604 233.999C174.868 234.282 175.255 233.59 175.432 233.293C175.551 233.093 175.67 232.909 175.799 232.713C175.805 232.705 175.408 233.424 175.257 233.606C174.73 234.245 174.521 232.465 174.447 232.203C174.361 231.898 174.175 230.98 174.158 231.294C174.136 231.685 174.166 232.091 174.258 232.472C174.413 233.117 174.797 233.687 175.32 234.147C175.75 234.525 177.054 235.619 176.727 235.167C176.462 234.801 175.94 234.431 175.566 234.164C175.46 234.089 174.69 233.504 174.58 233.559C174.203 233.746 174.75 235.285 174.797 235.517C174.825 235.65 174.937 236.213 174.938 236.208C174.989 235.831 174.845 235.427 174.795 235.055C174.735 234.602 174.645 234.099 174.454 233.672C174.329 233.391 174.024 233.824 173.895 233.939C173.461 234.327 173.027 234.715 172.593 235.104C172.396 235.28 172.918 234.627 172.982 234.555C173.079 234.446 174.048 233.489 174.002 233.448C173.988 233.436 173.551 233.664 173.506 233.672C173.059 233.753 172.644 233.63 172.206 233.592C172.061 233.58 171.77 233.506 172.074 233.421C172.553 233.288 173.087 233.394 173.579 233.356C173.859 233.334 173.477 233.086 173.412 233.029C173.053 232.714 172.665 232.484 172.322 232.182" stroke="#EA6626" stroke-width="2" stroke-linecap="round"/>
<path d="M253.483 289.448C250.867 291.788 247.829 296.733 249.861 298.52C251.893 300.307 258.618 298.605 261.233 296.266C263.849 293.926 262.685 290.656 260.653 288.869C258.621 287.082 256.099 287.109 253.483 289.448Z" fill="#EFECDB"/>
<path d="M256.343 303.344C256.615 300.058 255.298 294.549 252.444 294.363C249.589 294.177 245.729 299.349 245.457 302.635C245.185 305.92 248.466 307.733 251.32 307.919C254.175 308.105 256.071 306.63 256.343 303.344Z" fill="#EFECDB"/>
<path d="M260.558 296.133C256.903 295.547 250.587 296.128 250.078 298.626C249.569 301.124 254.961 305.073 258.616 305.659C262.271 306.246 264.65 303.542 265.159 301.044C265.668 298.547 264.213 296.719 260.558 296.133Z" fill="#EFECDB"/>
<path d="M243.609 293.866C247.212 293.066 253.557 293.274 254.253 295.736C254.948 298.198 249.863 302.457 246.26 303.257C242.657 304.057 240.081 301.5 239.386 299.037C238.691 296.575 240.006 294.666 243.609 293.866Z" fill="#F2EDE1"/>
<path d="M241.934 292.083C243.575 295.038 247.857 299.197 250.424 298.075C252.991 296.954 253.367 290.76 251.725 287.805C250.084 284.85 246.219 284.76 243.651 285.882C241.084 287.004 240.292 289.128 241.934 292.083Z" fill="#EFECDB"/>
<path d="M255.154 296.566C254.544 297.012 253.501 297.059 252.786 297.334C252.05 297.617 252.437 296.925 252.614 296.628C252.733 296.428 252.852 296.244 252.981 296.048C252.987 296.04 252.59 296.758 252.439 296.941C251.911 297.58 251.703 295.8 251.629 295.538C251.543 295.232 251.356 294.315 251.339 294.629C251.318 295.02 251.348 295.426 251.44 295.807C251.595 296.452 251.979 297.022 252.501 297.482C252.931 297.86 254.236 298.954 253.909 298.502C253.644 298.136 253.122 297.766 252.748 297.499C252.642 297.424 251.872 296.839 251.762 296.894C251.385 297.081 251.931 298.62 251.979 298.852C252.006 298.985 252.119 299.548 252.12 299.543C252.171 299.166 252.026 298.762 251.977 298.39C251.917 297.937 251.826 297.434 251.636 297.007C251.51 296.726 251.205 297.159 251.077 297.274C250.643 297.662 250.209 298.05 249.775 298.439C249.578 298.615 250.099 297.962 250.163 297.89C250.261 297.781 251.23 296.824 251.184 296.783C251.17 296.771 250.733 296.999 250.688 297.007C250.241 297.088 249.826 296.965 249.387 296.927C249.242 296.915 248.952 296.841 249.256 296.756C249.735 296.623 250.268 296.729 250.76 296.691C251.04 296.669 250.659 296.421 250.593 296.363C250.235 296.048 249.847 295.819 249.504 295.517" stroke="#EA6626" stroke-width="2" stroke-linecap="round"/>
<path d="M295.319 247.865C292.703 250.205 289.665 255.149 291.697 256.937C293.729 258.724 300.453 257.022 303.069 254.683C305.685 252.343 304.521 249.073 302.489 247.286C300.457 245.499 297.935 245.526 295.319 247.865Z" fill="#EFECDB"/>
<path d="M298.179 261.76C298.451 258.474 297.134 252.965 294.28 252.779C291.425 252.593 287.565 257.765 287.293 261.051C287.02 264.336 290.302 266.149 293.156 266.335C296.011 266.521 297.907 265.046 298.179 261.76Z" fill="#EFECDB"/>
<path d="M302.398 254.549C298.743 253.963 292.427 254.544 291.918 257.042C291.409 259.54 296.801 263.489 300.456 264.075C304.111 264.662 306.49 261.958 306.999 259.46C307.508 256.963 306.053 255.135 302.398 254.549Z" fill="#EFECDB"/>
<path d="M285.445 252.283C289.048 251.483 295.393 251.691 296.088 254.153C296.784 256.615 291.699 260.874 288.096 261.674C284.493 262.474 281.917 259.917 281.222 257.454C280.527 254.992 281.841 253.083 285.445 252.283Z" fill="#F2EDE1"/>
<path d="M283.769 250.5C285.411 253.455 289.693 257.614 292.26 256.492C294.827 255.371 295.203 249.177 293.561 246.222C291.92 243.267 288.055 243.177 285.487 244.299C282.92 245.421 282.128 247.545 283.769 250.5Z" fill="#EFECDB"/>
<path d="M296.992 254.983C296.382 255.429 295.339 255.476 294.624 255.751C293.888 256.034 294.275 255.342 294.451 255.045C294.571 254.845 294.69 254.661 294.819 254.465C294.824 254.457 294.428 255.175 294.277 255.358C293.749 255.997 293.541 254.217 293.467 253.955C293.381 253.649 293.194 252.732 293.177 253.046C293.156 253.437 293.186 253.843 293.278 254.224C293.433 254.869 293.817 255.439 294.339 255.899C294.769 256.277 296.074 257.371 295.746 256.918C295.482 256.553 294.96 256.183 294.586 255.916C294.48 255.841 293.71 255.256 293.6 255.311C293.223 255.498 293.769 257.037 293.817 257.269C293.844 257.402 293.957 257.965 293.958 257.96C294.009 257.583 293.864 257.179 293.815 256.807C293.755 256.354 293.664 255.851 293.474 255.424C293.348 255.143 293.043 255.576 292.915 255.691C292.481 256.079 292.047 256.467 291.613 256.856C291.416 257.032 291.937 256.379 292.001 256.307C292.099 256.198 293.068 255.241 293.022 255.2C293.007 255.188 292.571 255.416 292.526 255.424C292.079 255.505 291.663 255.382 291.225 255.344C291.08 255.332 290.79 255.258 291.094 255.173C291.573 255.04 292.106 255.146 292.598 255.108C292.878 255.086 292.496 254.838 292.431 254.78C292.073 254.465 291.684 254.236 291.342 253.934" stroke="#EA6626" stroke-width="2" stroke-linecap="round"/>
<path d="M122.202 302.242C119.586 304.581 116.548 309.526 118.58 311.314C120.612 313.101 127.336 311.399 129.952 309.059C132.568 306.72 131.404 303.45 129.372 301.663C127.34 299.875 124.817 299.903 122.202 302.242Z" fill="#EFECDB"/>
<path d="M125.064 316.138C125.336 312.852 124.019 307.343 121.164 307.157C118.31 306.971 114.45 312.143 114.177 315.428C113.905 318.714 117.187 320.527 120.041 320.713C122.895 320.899 124.791 319.423 125.064 316.138Z" fill="#EFECDB"/>
<path d="M129.281 308.927C125.626 308.341 119.31 308.922 118.801 311.42C118.291 313.918 123.684 317.867 127.339 318.453C130.994 319.039 133.373 316.336 133.882 313.838C134.391 311.34 132.936 309.513 129.281 308.927Z" fill="#EFECDB"/>
<path d="M112.328 306.66C115.931 305.86 122.276 306.068 122.971 308.53C123.666 310.992 118.582 315.251 114.979 316.051C111.375 316.851 108.8 314.294 108.104 311.831C107.409 309.369 108.724 307.46 112.328 306.66Z" fill="#F2EDE1"/>
<path d="M110.654 304.877C112.296 307.832 116.577 311.991 119.145 310.869C121.712 309.748 122.087 303.554 120.446 300.599C118.804 297.644 114.939 297.554 112.372 298.676C109.805 299.798 109.013 301.922 110.654 304.877Z" fill="#EFECDB"/>
<path d="M123.875 309.359C123.264 309.806 122.222 309.853 121.507 310.128C120.771 310.411 121.158 309.719 121.334 309.422C121.454 309.222 121.573 309.038 121.702 308.842C121.707 308.834 121.31 309.552 121.16 309.735C120.632 310.374 120.424 308.594 120.35 308.332C120.263 308.026 120.077 307.109 120.06 307.423C120.039 307.813 120.069 308.22 120.161 308.601C120.316 309.246 120.7 309.816 121.222 310.276C121.652 310.654 122.957 311.748 122.629 311.295C122.365 310.93 121.843 310.56 121.469 310.293C121.362 310.218 120.592 309.633 120.483 309.688C120.106 309.875 120.652 311.414 120.7 311.646C120.727 311.779 120.84 312.342 120.84 312.336C120.892 311.96 120.747 311.556 120.698 311.184C120.638 310.731 120.547 310.228 120.356 309.801C120.231 309.52 119.926 309.953 119.797 310.068C119.363 310.456 118.929 310.844 118.496 311.232C118.299 311.408 118.82 310.756 118.884 310.684C118.981 310.575 119.95 309.618 119.904 309.577C119.89 309.565 119.454 309.793 119.409 309.801C118.962 309.882 118.546 309.759 118.108 309.721C117.963 309.709 117.672 309.635 117.977 309.55C118.456 309.417 118.989 309.523 119.481 309.485C119.761 309.463 119.379 309.215 119.314 309.157C118.956 308.842 118.567 308.613 118.225 308.311" stroke="#EA6626" stroke-width="2" stroke-linecap="round"/>
<path d="M123.643 263.859C121.027 266.198 117.989 271.143 120.021 272.93C122.053 274.717 128.778 273.015 131.393 270.676C134.009 268.337 132.845 265.067 130.813 263.279C128.781 261.492 126.259 261.519 123.643 263.859Z" fill="#EFECDB"/>
<path d="M126.507 277.753C126.779 274.468 125.462 268.959 122.608 268.773C119.753 268.586 115.893 273.758 115.621 277.044C115.349 280.329 118.63 282.142 121.485 282.328C124.339 282.514 126.235 281.039 126.507 277.753Z" fill="#EFECDB"/>
<path d="M130.722 270.542C127.067 269.956 120.751 270.537 120.242 273.035C119.733 275.533 125.125 279.482 128.78 280.069C132.435 280.655 134.814 277.951 135.323 275.454C135.832 272.956 134.378 271.128 130.722 270.542Z" fill="#EFECDB"/>
<path d="M113.771 268.276C117.374 267.476 123.72 267.684 124.415 270.146C125.11 272.608 120.025 276.867 116.422 277.667C112.819 278.467 110.243 275.91 109.548 273.448C108.853 270.985 110.168 269.076 113.771 268.276Z" fill="#F2EDE1"/>
<path d="M112.096 266.493C113.737 269.449 118.019 273.607 120.586 272.486C123.154 271.364 123.529 265.17 121.887 262.215C120.246 259.26 116.381 259.171 113.813 260.292C111.246 261.414 110.454 263.538 112.096 266.493Z" fill="#EFECDB"/>
<path d="M125.316 270.975C124.706 271.421 123.664 271.468 122.948 271.743C122.212 272.026 122.599 271.334 122.776 271.037C122.895 270.837 123.014 270.653 123.143 270.458C123.149 270.449 122.752 271.168 122.601 271.35C122.073 271.989 121.865 270.209 121.791 269.947C121.705 269.642 121.519 268.724 121.501 269.039C121.48 269.429 121.51 269.835 121.602 270.216C121.757 270.861 122.141 271.431 122.663 271.891C123.094 272.269 124.398 273.363 124.071 272.911C123.806 272.545 123.284 272.175 122.91 271.909C122.804 271.833 122.034 271.248 121.924 271.303C121.547 271.49 122.093 273.029 122.141 273.262C122.168 273.394 122.281 273.957 122.282 273.952C122.333 273.575 122.188 273.171 122.139 272.799C122.079 272.346 121.989 271.843 121.798 271.416C121.672 271.135 121.367 271.569 121.239 271.683C120.805 272.072 120.371 272.46 119.937 272.848C119.74 273.024 120.261 272.371 120.326 272.299C120.423 272.19 121.392 271.233 121.346 271.192C121.332 271.18 120.895 271.408 120.85 271.416C120.403 271.497 119.988 271.374 119.549 271.337C119.404 271.324 119.114 271.25 119.418 271.165C119.897 271.032 120.43 271.138 120.922 271.1C121.203 271.078 120.821 270.83 120.755 270.773C120.397 270.458 120.009 270.228 119.666 269.927" stroke="#EA6626" stroke-width="2" stroke-linecap="round"/>
<path d="M227.516 355.341C224.901 357.68 221.862 362.625 223.894 364.413C225.926 366.2 232.651 364.497 235.266 362.158C237.882 359.819 236.718 356.549 234.686 354.762C232.654 352.974 230.132 353.002 227.516 355.341Z" fill="#EFECDB"/>
<path d="M230.378 369.237C230.65 365.951 229.333 360.442 226.479 360.256C223.625 360.07 219.764 365.242 219.492 368.527C219.22 371.813 222.501 373.626 225.356 373.812C228.21 373.998 230.106 372.522 230.378 369.237Z" fill="#EFECDB"/>
<path d="M234.593 362.025C230.938 361.439 224.622 362.021 224.113 364.518C223.604 367.016 228.996 370.966 232.651 371.552C236.307 372.138 238.685 369.435 239.194 366.937C239.704 364.439 238.249 362.612 234.593 362.025Z" fill="#EFECDB"/>
<path d="M217.64 359.758C221.243 358.958 227.589 359.166 228.284 361.629C228.979 364.091 223.894 368.349 220.291 369.149C216.688 369.95 214.112 367.392 213.417 364.93C212.722 362.468 214.037 360.558 217.64 359.758Z" fill="#F2EDE1"/>
<path d="M215.967 357.976C217.608 360.931 221.89 365.09 224.457 363.968C227.025 362.846 227.4 356.653 225.758 353.698C224.117 350.742 220.252 350.653 217.685 351.775C215.117 352.896 214.325 355.02 215.967 357.976Z" fill="#EFECDB"/>
<path d="M229.187 362.457C228.577 362.904 227.535 362.95 226.819 363.225C226.083 363.508 226.47 362.817 226.647 362.52C226.766 362.319 226.885 362.136 227.014 361.94C227.02 361.931 226.623 362.65 226.472 362.833C225.945 363.471 225.736 361.692 225.662 361.429C225.576 361.124 225.39 360.207 225.372 360.521C225.351 360.911 225.381 361.317 225.473 361.699C225.628 362.343 226.012 362.914 226.534 363.373C226.965 363.752 228.269 364.845 227.942 364.393C227.677 364.028 227.155 363.658 226.781 363.391C226.675 363.315 225.905 362.731 225.795 362.785C225.418 362.973 225.965 364.512 226.012 364.744C226.04 364.876 226.152 365.439 226.153 365.434C226.204 365.057 226.059 364.653 226.01 364.281C225.95 363.828 225.86 363.325 225.669 362.898C225.544 362.617 225.238 363.051 225.11 363.166C224.676 363.554 224.242 363.942 223.808 364.33C223.611 364.506 224.132 363.854 224.197 363.782C224.294 363.672 225.263 362.715 225.217 362.675C225.203 362.662 224.766 362.89 224.721 362.899C224.274 362.98 223.859 362.856 223.42 362.819C223.276 362.807 222.985 362.732 223.289 362.648C223.768 362.514 224.301 362.621 224.794 362.583C225.074 362.561 224.692 362.313 224.626 362.255C224.268 361.94 223.88 361.71 223.537 361.409" stroke="#EA6626" stroke-width="2" stroke-linecap="round"/>
<path d="M256.986 357.763C254.88 359.646 252.434 363.627 254.07 365.065C255.706 366.504 261.119 365.134 263.225 363.251C265.33 361.368 264.393 358.735 262.758 357.296C261.122 355.858 259.091 355.88 256.986 357.763Z" fill="#EFECDB"/>
<path d="M259.288 368.949C259.507 366.304 258.446 361.869 256.149 361.719C253.851 361.569 250.744 365.733 250.524 368.377C250.305 371.022 252.947 372.482 255.245 372.632C257.542 372.781 259.068 371.593 259.288 368.949Z" fill="#EFECDB"/>
<path d="M262.683 363.143C259.74 362.671 254.656 363.139 254.246 365.15C253.836 367.16 258.177 370.34 261.119 370.811C264.062 371.283 265.977 369.107 266.386 367.096C266.796 365.086 265.625 363.615 262.683 363.143Z" fill="#EFECDB"/>
<path d="M249.036 361.319C251.937 360.675 257.045 360.843 257.604 362.825C258.164 364.807 254.071 368.235 251.17 368.879C248.27 369.523 246.196 367.465 245.636 365.482C245.077 363.5 246.135 361.963 249.036 361.319Z" fill="#F2EDE1"/>
<path d="M247.69 359.884C249.012 362.263 252.458 365.61 254.525 364.707C256.592 363.804 256.894 358.819 255.572 356.44C254.251 354.061 251.14 353.989 249.073 354.892C247.006 355.795 246.369 357.505 247.69 359.884Z" fill="#EFECDB"/>
<path d="M258.331 363.492C257.84 363.852 257.001 363.889 256.425 364.111C255.832 364.339 256.144 363.782 256.286 363.543C256.382 363.381 256.478 363.234 256.582 363.076C256.586 363.069 256.267 363.648 256.145 363.795C255.721 364.309 255.553 362.876 255.493 362.665C255.424 362.419 255.274 361.681 255.26 361.934C255.243 362.248 255.267 362.575 255.341 362.882C255.466 363.401 255.775 363.86 256.196 364.23C256.542 364.534 257.592 365.415 257.328 365.051C257.115 364.757 256.695 364.459 256.394 364.244C256.309 364.183 255.689 363.713 255.601 363.757C255.297 363.908 255.737 365.146 255.775 365.333C255.797 365.44 255.888 365.893 255.888 365.889C255.93 365.585 255.813 365.26 255.774 364.961C255.725 364.596 255.652 364.191 255.499 363.847C255.398 363.621 255.152 363.97 255.049 364.063C254.7 364.375 254.35 364.688 254.001 365C253.842 365.142 254.262 364.617 254.314 364.559C254.392 364.471 255.172 363.7 255.135 363.668C255.124 363.658 254.772 363.841 254.736 363.848C254.376 363.913 254.042 363.814 253.689 363.784C253.572 363.774 253.338 363.714 253.583 363.646C253.969 363.538 254.398 363.624 254.794 363.593C255.02 363.576 254.712 363.376 254.66 363.33C254.371 363.076 254.059 362.891 253.783 362.649" stroke="#EA6626" stroke-width="2" stroke-linecap="round"/>
<path d="M221.698 128.665C218.34 131.668 214.439 138.016 217.048 140.311C219.657 142.605 228.289 140.42 231.647 137.417C235.005 134.414 233.511 130.216 230.902 127.921C228.294 125.627 225.056 125.662 221.698 128.665Z" fill="#EFECDB"/>
<path d="M225.369 146.502C225.718 142.285 224.027 135.212 220.363 134.973C216.699 134.735 211.743 141.374 211.394 145.592C211.044 149.809 215.257 152.137 218.921 152.376C222.586 152.615 225.019 150.72 225.369 146.502Z" fill="#EFECDB"/>
<path d="M230.781 137.245C226.088 136.493 217.98 137.239 217.327 140.446C216.673 143.652 223.595 148.723 228.288 149.475C232.98 150.227 236.034 146.757 236.687 143.55C237.341 140.344 235.473 137.998 230.781 137.245Z" fill="#EFECDB"/>
<path d="M209.02 134.337C213.646 133.309 221.792 133.577 222.685 136.738C223.577 139.899 217.05 145.365 212.424 146.392C207.798 147.42 204.491 144.137 203.599 140.976C202.707 137.815 204.395 135.364 209.02 134.337Z" fill="#F2EDE1"/>
<path d="M206.87 132.048C208.977 135.842 214.474 141.18 217.77 139.74C221.065 138.3 221.547 130.349 219.44 126.555C217.333 122.762 212.371 122.647 209.075 124.087C205.779 125.527 204.762 128.254 206.87 132.048Z" fill="#EFECDB"/>
<path d="M223.84 137.801C223.057 138.374 221.719 138.434 220.801 138.787C219.856 139.15 220.352 138.262 220.579 137.881C220.732 137.624 220.885 137.388 221.051 137.137C221.058 137.126 220.549 138.049 220.355 138.283C219.678 139.103 219.41 136.819 219.315 136.482C219.205 136.09 218.965 134.912 218.943 135.315C218.916 135.816 218.954 136.338 219.072 136.828C219.272 137.655 219.764 138.387 220.435 138.977C220.987 139.463 222.662 140.867 222.242 140.286C221.902 139.817 221.232 139.342 220.752 139C220.615 138.903 219.627 138.152 219.486 138.222C219.002 138.463 219.703 140.439 219.765 140.737C219.8 140.907 219.944 141.629 219.945 141.623C220.011 141.139 219.825 140.62 219.762 140.143C219.685 139.561 219.569 138.915 219.324 138.367C219.163 138.007 218.771 138.563 218.606 138.711C218.049 139.209 217.492 139.707 216.935 140.206C216.682 140.431 217.351 139.594 217.434 139.502C217.559 139.361 218.803 138.132 218.744 138.08C218.725 138.065 218.165 138.357 218.107 138.368C217.533 138.472 217 138.313 216.437 138.265C216.251 138.25 215.878 138.154 216.269 138.045C216.884 137.874 217.568 138.011 218.2 137.962C218.56 137.934 218.069 137.615 217.986 137.542C217.526 137.137 217.027 136.842 216.587 136.455" stroke="#EA6626" stroke-width="2" stroke-linecap="round"/>
<path d="M40.4483 465.688C37.2789 468.523 33.5973 474.515 36.0595 476.68C38.5218 478.846 46.6698 476.783 49.8392 473.949C53.0085 471.114 51.5983 467.152 49.1361 464.986C46.6739 462.821 43.6177 462.854 40.4483 465.688Z" fill="#EFECDB"/>
<path d="M43.9164 482.525C44.2463 478.544 42.6504 471.869 39.1918 471.644C35.7333 471.418 31.0557 477.685 30.7259 481.666C30.396 485.647 34.3724 487.844 37.8309 488.069C41.2894 488.295 43.5866 486.506 43.9164 482.525Z" fill="#EFECDB"/>
<path d="M49.0261 473.788C44.5971 473.077 36.9443 473.782 36.3273 476.808C35.7103 479.835 42.2438 484.62 46.6728 485.331C51.1018 486.041 53.984 482.765 54.601 479.739C55.218 476.712 53.4551 474.498 49.0261 473.788Z" fill="#EFECDB"/>
<path d="M28.4863 471.042C32.8523 470.073 40.5409 470.325 41.3832 473.309C42.2255 476.292 36.0646 481.452 31.6986 482.421C27.3326 483.391 24.2115 480.292 23.3692 477.309C22.527 474.325 24.1202 472.012 28.4863 471.042Z" fill="#F2EDE1"/>
<path d="M26.4584 468.882C28.4474 472.463 33.6355 477.502 36.7463 476.143C39.8572 474.784 40.312 467.279 38.323 463.698C36.3341 460.117 31.6508 460.009 28.54 461.368C25.4291 462.728 24.4695 465.301 26.4584 468.882Z" fill="#EFECDB"/>
<path d="M42.4756 474.312C41.7362 474.853 40.4733 474.91 39.6064 475.243C38.7144 475.586 39.1833 474.748 39.3975 474.388C39.542 474.145 39.6864 473.923 39.8425 473.686C39.8494 473.675 39.3686 474.546 39.1858 474.767C38.5466 475.541 38.2941 473.385 38.2043 473.067C38.1 472.697 37.8742 471.585 37.8534 471.966C37.8275 472.439 37.864 472.931 37.9753 473.393C38.1634 474.174 38.6284 474.865 39.2614 475.422C39.7826 475.881 41.3631 477.206 40.9665 476.658C40.646 476.215 40.0136 475.767 39.5604 475.444C39.4316 475.352 38.4986 474.644 38.3657 474.71C37.9086 474.937 38.5708 476.802 38.6287 477.083C38.6617 477.244 38.7983 477.926 38.7991 477.919C38.8613 477.463 38.6857 476.973 38.6261 476.523C38.5534 475.974 38.4437 475.364 38.2126 474.847C38.0607 474.507 37.691 475.032 37.5353 475.171C37.0094 475.641 36.4836 476.112 35.9578 476.582C35.7193 476.795 36.3509 476.005 36.4286 475.917C36.5465 475.785 37.7206 474.625 37.6648 474.576C37.6478 474.561 37.1188 474.837 37.0641 474.847C36.5227 474.945 36.0192 474.796 35.4881 474.751C35.3126 474.736 34.9604 474.646 35.3291 474.543C35.9093 474.382 36.5556 474.511 37.152 474.464C37.4913 474.438 37.0285 474.137 36.9494 474.067C36.5155 473.686 36.0447 473.407 35.6296 473.042" stroke="#EA6626" stroke-width="2" stroke-linecap="round"/>
<path d="M158.043 435.249C155.44 437.577 152.417 442.497 154.439 444.276C156.461 446.054 163.152 444.36 165.755 442.032C168.357 439.705 167.199 436.451 165.177 434.673C163.155 432.894 160.646 432.922 158.043 435.249Z" fill="#EFECDB"/>
<path d="M160.892 449.076C161.163 445.807 159.852 440.325 157.012 440.14C154.172 439.955 150.331 445.101 150.06 448.37C149.789 451.639 153.055 453.443 155.895 453.628C158.735 453.813 160.621 452.345 160.892 449.076Z" fill="#EFECDB"/>
<path d="M165.083 441.901C161.446 441.317 155.162 441.896 154.655 444.381C154.149 446.866 159.514 450.796 163.151 451.38C166.788 451.963 169.155 449.273 169.661 446.788C170.168 444.302 168.72 442.484 165.083 441.901Z" fill="#EFECDB"/>
<path d="M148.218 439.646C151.804 438.85 158.117 439.057 158.809 441.507C159.501 443.957 154.442 448.194 150.856 448.99C147.271 449.786 144.708 447.242 144.016 444.792C143.325 442.342 144.633 440.442 148.218 439.646Z" fill="#F2EDE1"/>
<path d="M146.552 437.871C148.186 440.812 152.446 444.949 155 443.833C157.555 442.717 157.928 436.555 156.295 433.614C154.662 430.674 150.816 430.585 148.262 431.701C145.707 432.817 144.919 434.93 146.552 437.871Z" fill="#EFECDB"/>
<path d="M159.707 442.331C159.1 442.775 158.063 442.821 157.351 443.095C156.619 443.377 157.004 442.688 157.18 442.393C157.298 442.193 157.417 442.011 157.545 441.816C157.551 441.808 157.156 442.523 157.006 442.704C156.481 443.34 156.274 441.569 156.2 441.308C156.114 441.004 155.929 440.091 155.912 440.404C155.891 440.792 155.92 441.197 156.012 441.576C156.166 442.217 156.548 442.785 157.068 443.242C157.496 443.619 158.794 444.707 158.468 444.257C158.205 443.893 157.686 443.525 157.314 443.26C157.208 443.184 156.442 442.603 156.332 442.657C155.957 442.844 156.501 444.375 156.548 444.606C156.576 444.738 156.688 445.298 156.688 445.293C156.739 444.918 156.595 444.516 156.546 444.146C156.487 443.695 156.397 443.194 156.207 442.769C156.082 442.49 155.778 442.921 155.651 443.036C155.219 443.422 154.787 443.808 154.355 444.194C154.159 444.369 154.678 443.72 154.742 443.649C154.839 443.54 155.803 442.588 155.757 442.547C155.743 442.535 155.309 442.762 155.264 442.77C154.819 442.85 154.406 442.728 153.969 442.691C153.825 442.678 153.536 442.604 153.839 442.52C154.315 442.388 154.846 442.493 155.336 442.455C155.614 442.434 155.234 442.187 155.169 442.13C154.813 441.816 154.427 441.588 154.086 441.288" stroke="#EA6626" stroke-width="2" stroke-linecap="round"/>
<path d="M442.963 338.011C440.36 340.338 437.337 345.259 439.359 347.037C441.381 348.816 448.072 347.122 450.674 344.794C453.277 342.467 452.119 339.213 450.097 337.434C448.075 335.656 445.565 335.684 442.963 338.011Z" fill="#EFECDB"/>
<path d="M445.812 351.837C446.083 348.568 444.772 343.087 441.932 342.902C439.092 342.716 435.251 347.862 434.98 351.131C434.709 354.401 437.975 356.205 440.815 356.39C443.655 356.575 445.541 355.107 445.812 351.837Z" fill="#EFECDB"/>
<path d="M450.003 344.662C446.366 344.079 440.082 344.658 439.575 347.143C439.069 349.628 444.434 353.558 448.071 354.141C451.708 354.724 454.075 352.035 454.581 349.549C455.088 347.064 453.64 345.245 450.003 344.662Z" fill="#EFECDB"/>
<path d="M433.138 342.408C436.724 341.612 443.037 341.819 443.729 344.269C444.421 346.719 439.361 350.956 435.776 351.752C432.191 352.548 429.628 350.004 428.936 347.554C428.245 345.104 429.553 343.204 433.138 342.408Z" fill="#F2EDE1"/>
<path d="M431.472 340.633C433.105 343.573 437.366 347.711 439.92 346.595C442.475 345.479 442.848 339.316 441.215 336.376C439.582 333.435 435.736 333.346 433.181 334.463C430.627 335.579 429.839 337.692 431.472 340.633Z" fill="#EFECDB"/>
<path d="M444.627 345.092C444.02 345.537 442.983 345.583 442.271 345.857C441.539 346.138 441.924 345.45 442.1 345.154C442.218 344.955 442.337 344.773 442.465 344.578C442.471 344.569 442.076 345.284 441.926 345.466C441.401 346.101 441.194 344.331 441.12 344.07C441.034 343.766 440.849 342.853 440.832 343.166C440.81 343.554 440.84 343.958 440.932 344.338C441.086 344.979 441.468 345.547 441.988 346.004C442.416 346.38 443.714 347.468 443.388 347.019C443.125 346.655 442.606 346.287 442.233 346.022C442.128 345.946 441.362 345.365 441.252 345.419C440.877 345.606 441.421 347.137 441.468 347.368C441.495 347.5 441.608 348.06 441.608 348.054C441.659 347.679 441.515 347.277 441.466 346.908C441.407 346.457 441.316 345.956 441.127 345.531C441.002 345.252 440.698 345.683 440.57 345.798C440.139 346.184 439.707 346.57 439.275 346.956C439.079 347.131 439.598 346.482 439.662 346.41C439.759 346.302 440.723 345.349 440.677 345.309C440.663 345.297 440.228 345.523 440.184 345.532C439.739 345.612 439.326 345.489 438.889 345.452C438.745 345.44 438.456 345.366 438.759 345.282C439.235 345.149 439.766 345.255 440.256 345.217C440.534 345.196 440.154 344.948 440.089 344.891C439.733 344.578 439.346 344.349 439.006 344.049" stroke="#EA6626" stroke-width="2" stroke-linecap="round"/>
<path d="M499.947 347.609C497.345 349.936 494.321 354.856 496.343 356.635C498.365 358.413 505.056 356.719 507.659 354.392C510.261 352.064 509.103 348.811 507.081 347.032C505.06 345.254 502.55 345.281 499.947 347.609Z" fill="#EFECDB"/>
<path d="M502.796 361.435C503.067 358.166 501.757 352.684 498.917 352.499C496.077 352.314 492.235 357.46 491.965 360.729C491.694 363.998 494.959 365.802 497.799 365.988C500.639 366.173 502.525 364.704 502.796 361.435Z" fill="#EFECDB"/>
<path d="M506.992 354.26C503.355 353.677 497.07 354.255 496.564 356.741C496.057 359.226 501.422 363.156 505.059 363.739C508.696 364.322 511.063 361.632 511.57 359.147C512.076 356.662 510.629 354.843 506.992 354.26Z" fill="#EFECDB"/>
<path d="M490.125 352.005C493.71 351.209 500.024 351.416 500.715 353.866C501.407 356.316 496.348 360.554 492.763 361.35C489.177 362.146 486.614 359.601 485.923 357.151C485.231 354.701 486.539 352.802 490.125 352.005Z" fill="#F2EDE1"/>
<path d="M488.457 350.23C490.09 353.171 494.35 357.309 496.905 356.193C499.459 355.077 499.833 348.914 498.199 345.974C496.566 343.033 492.72 342.944 490.166 344.06C487.611 345.176 486.823 347.29 488.457 350.23Z" fill="#EFECDB"/>
<path d="M501.612 354.69C501.005 355.134 499.968 355.181 499.256 355.454C498.523 355.736 498.908 355.048 499.084 354.752C499.203 354.553 499.321 354.37 499.45 354.176C499.455 354.167 499.06 354.882 498.91 355.064C498.385 355.699 498.178 353.929 498.104 353.667C498.019 353.364 497.833 352.451 497.816 352.763C497.795 353.152 497.825 353.556 497.916 353.935C498.071 354.577 498.453 355.144 498.972 355.601C499.4 355.978 500.698 357.066 500.373 356.616C500.109 356.253 499.59 355.885 499.218 355.619C499.112 355.544 498.346 354.962 498.237 355.016C497.861 355.203 498.405 356.734 498.453 356.965C498.48 357.097 498.592 357.657 498.593 357.652C498.644 357.277 498.5 356.875 498.451 356.505C498.391 356.054 498.301 355.554 498.111 355.129C497.986 354.85 497.683 355.281 497.555 355.395C497.123 355.781 496.691 356.168 496.259 356.554C496.064 356.729 496.582 356.08 496.646 356.008C496.743 355.899 497.707 354.947 497.661 354.907C497.647 354.894 497.213 355.121 497.168 355.129C496.723 355.21 496.31 355.087 495.874 355.05C495.73 355.038 495.44 354.964 495.743 354.879C496.22 354.747 496.75 354.853 497.24 354.815C497.519 354.793 497.139 354.546 497.074 354.489C496.717 354.176 496.331 353.947 495.99 353.647" stroke="#EA6626" stroke-width="2" stroke-linecap="round"/>
<path d="M493.457 396.869C490.854 399.197 487.831 404.117 489.853 405.896C491.875 407.674 498.566 405.98 501.169 403.653C503.771 401.325 502.613 398.071 500.591 396.293C498.569 394.514 496.06 394.542 493.457 396.869Z" fill="#EFECDB"/>
<path d="M496.304 410.696C496.575 407.427 495.264 401.945 492.424 401.76C489.584 401.575 485.743 406.721 485.472 409.99C485.201 413.259 488.467 415.063 491.307 415.248C494.147 415.433 496.033 413.965 496.304 410.696Z" fill="#EFECDB"/>
<path d="M500.499 403.52C496.862 402.936 490.578 403.515 490.071 406C489.565 408.486 494.93 412.415 498.567 412.999C502.204 413.582 504.571 410.892 505.077 408.407C505.584 405.921 504.136 404.103 500.499 403.52Z" fill="#EFECDB"/>
<path d="M483.63 401.265C487.216 400.469 493.53 400.676 494.221 403.126C494.913 405.576 489.854 409.813 486.268 410.609C482.683 411.406 480.12 408.861 479.428 406.411C478.737 403.961 480.045 402.061 483.63 401.265Z" fill="#F2EDE1"/>
<path d="M481.966 399.491C483.6 402.432 487.86 406.57 490.414 405.453C492.969 404.337 493.343 398.175 491.709 395.234C490.076 392.294 486.23 392.205 483.676 393.321C481.121 394.437 480.333 396.551 481.966 399.491Z" fill="#EFECDB"/>
<path d="M495.122 403.951C494.514 404.395 493.477 404.441 492.765 404.715C492.033 404.997 492.418 404.308 492.594 404.013C492.712 403.814 492.831 403.631 492.959 403.436C492.965 403.428 492.57 404.143 492.42 404.324C491.895 404.96 491.688 403.189 491.614 402.928C491.528 402.624 491.343 401.711 491.326 402.024C491.305 402.412 491.335 402.817 491.426 403.196C491.58 403.838 491.962 404.405 492.482 404.862C492.91 405.239 494.208 406.327 493.882 405.877C493.619 405.514 493.1 405.145 492.728 404.88C492.622 404.805 491.856 404.223 491.747 404.277C491.371 404.464 491.915 405.995 491.963 406.226C491.99 406.358 492.102 406.918 492.102 406.913C492.154 406.538 492.009 406.136 491.96 405.766C491.901 405.315 491.811 404.815 491.621 404.39C491.496 404.11 491.193 404.542 491.065 404.656C490.633 405.042 490.201 405.428 489.769 405.814C489.573 405.99 490.092 405.341 490.156 405.269C490.253 405.16 491.217 404.208 491.171 404.167C491.157 404.155 490.723 404.382 490.678 404.39C490.233 404.471 489.82 404.348 489.384 404.311C489.239 404.298 488.95 404.224 489.253 404.14C489.729 404.008 490.26 404.114 490.75 404.076C491.029 404.054 490.649 403.807 490.584 403.75C490.227 403.436 489.841 403.208 489.5 402.908" stroke="#EA6626" stroke-width="2" stroke-linecap="round"/>
<path d="M569.916 244.61C567.313 246.937 564.29 251.857 566.312 253.636C568.334 255.414 575.025 253.72 577.628 251.393C580.23 249.065 579.072 245.812 577.05 244.033C575.028 242.255 572.519 242.282 569.916 244.61Z" fill="#EFECDB"/>
<path d="M572.763 258.435C573.034 255.166 571.723 249.684 568.883 249.499C566.043 249.314 562.202 254.46 561.931 257.729C561.66 260.998 564.926 262.802 567.766 262.988C570.606 263.173 572.492 261.704 572.763 258.435Z" fill="#EFECDB"/>
<path d="M576.96 251.26C573.323 250.677 567.039 251.255 566.532 253.741C566.026 256.226 571.391 260.156 575.028 260.739C578.665 261.322 581.032 258.632 581.538 256.147C582.045 253.662 580.597 251.843 576.96 251.26Z" fill="#EFECDB"/>
<path d="M560.091 249.005C563.677 248.209 569.99 248.416 570.682 250.866C571.374 253.316 566.315 257.554 562.729 258.35C559.144 259.146 556.581 256.601 555.889 254.151C555.198 251.701 556.506 249.802 560.091 249.005Z" fill="#F2EDE1"/>
<path d="M558.427 247.231C560.061 250.172 564.321 254.31 566.875 253.194C569.43 252.078 569.803 245.915 568.17 242.975C566.537 240.034 562.691 239.945 560.137 241.061C557.582 242.177 556.794 244.291 558.427 247.231Z" fill="#EFECDB"/>
<path d="M571.58 251.691C570.973 252.135 569.936 252.182 569.224 252.455C568.492 252.737 568.877 252.049 569.053 251.753C569.171 251.554 569.29 251.371 569.418 251.176C569.424 251.168 569.029 251.883 568.879 252.065C568.354 252.7 568.147 250.929 568.073 250.668C567.987 250.365 567.802 249.452 567.785 249.764C567.764 250.153 567.794 250.557 567.885 250.936C568.039 251.578 568.421 252.145 568.941 252.602C569.369 252.979 570.667 254.067 570.341 253.617C570.078 253.254 569.559 252.886 569.187 252.62C569.081 252.545 568.315 251.963 568.206 252.017C567.83 252.204 568.374 253.735 568.421 253.966C568.449 254.098 568.561 254.658 568.561 254.653C568.613 254.278 568.468 253.876 568.419 253.506C568.36 253.055 568.27 252.555 568.08 252.13C567.955 251.85 567.651 252.282 567.524 252.396C567.092 252.782 566.66 253.168 566.228 253.555C566.032 253.73 566.551 253.081 566.615 253.009C566.712 252.9 567.676 251.948 567.63 251.908C567.616 251.895 567.182 252.122 567.137 252.13C566.692 252.211 566.279 252.088 565.843 252.051C565.698 252.039 565.409 251.965 565.712 251.88C566.188 251.748 566.719 251.854 567.209 251.816C567.488 251.794 567.107 251.547 567.043 251.49C566.686 251.176 566.3 250.948 565.959 250.648" stroke="#EA6626" stroke-width="2" stroke-linecap="round"/>
<path d="M639.166 227.336C636.563 229.664 633.54 234.584 635.562 236.362C637.584 238.141 644.275 236.447 646.878 234.119C649.48 231.792 648.322 228.538 646.3 226.76C644.278 224.981 641.769 225.009 639.166 227.336Z" fill="#EFECDB"/>
<path d="M642.013 241.162C642.284 237.893 640.973 232.411 638.133 232.226C635.293 232.041 631.452 237.187 631.181 240.456C630.91 243.725 634.176 245.529 637.016 245.714C639.856 245.899 641.742 244.431 642.013 241.162Z" fill="#EFECDB"/>
<path d="M646.208 233.986C642.571 233.403 636.287 233.982 635.78 236.467C635.274 238.952 640.639 242.882 644.276 243.465C647.913 244.049 650.28 241.359 650.786 238.873C651.293 236.388 649.845 234.57 646.208 233.986Z" fill="#EFECDB"/>
<path d="M629.339 231.732C632.925 230.936 639.238 231.143 639.93 233.593C640.622 236.043 635.563 240.28 631.977 241.076C628.392 241.872 625.829 239.328 625.137 236.878C624.446 234.428 625.754 232.528 629.339 231.732Z" fill="#F2EDE1"/>
<path d="M627.673 229.957C629.307 232.897 633.567 237.035 636.122 235.919C638.676 234.803 639.05 228.641 637.416 225.7C635.783 222.76 631.937 222.671 629.383 223.787C626.828 224.903 626.04 227.016 627.673 229.957Z" fill="#EFECDB"/>
<path d="M640.829 234.418C640.221 234.862 639.184 234.908 638.472 235.182C637.74 235.463 638.125 234.775 638.301 234.48C638.42 234.28 638.538 234.098 638.666 233.903C638.672 233.894 638.277 234.61 638.127 234.791C637.602 235.427 637.395 233.656 637.321 233.395C637.235 233.091 637.05 232.178 637.033 232.491C637.012 232.879 637.042 233.283 637.133 233.663C637.287 234.304 637.669 234.872 638.189 235.329C638.617 235.705 639.915 236.794 639.589 236.344C639.326 235.98 638.807 235.612 638.435 235.347C638.329 235.271 637.563 234.69 637.454 234.744C637.078 234.931 637.622 236.462 637.67 236.693C637.697 236.825 637.809 237.385 637.809 237.38C637.861 237.005 637.716 236.603 637.667 236.233C637.608 235.782 637.518 235.281 637.328 234.856C637.203 234.577 636.9 235.008 636.772 235.123C636.34 235.509 635.908 235.895 635.476 236.281C635.28 236.456 635.799 235.807 635.863 235.736C635.96 235.627 636.924 234.674 636.878 234.634C636.864 234.622 636.43 234.849 636.385 234.857C635.94 234.937 635.527 234.815 635.091 234.778C634.946 234.765 634.657 234.691 634.96 234.607C635.436 234.474 635.967 234.58 636.457 234.542C636.736 234.521 636.356 234.274 636.291 234.217C635.934 233.903 635.548 233.675 635.207 233.375" stroke="#EA6626" stroke-width="2" stroke-linecap="round"/>
<path d="M619.166 257.818C615.983 260.664 612.287 266.681 614.759 268.855C617.231 271.03 625.413 268.958 628.595 266.112C631.778 263.267 630.362 259.288 627.889 257.113C625.417 254.939 622.348 254.972 619.166 257.818Z" fill="#EFECDB"/>
<path d="M622.65 274.723C622.982 270.726 621.379 264.023 617.906 263.797C614.434 263.571 609.737 269.863 609.406 273.86C609.074 277.858 613.067 280.064 616.54 280.29C620.013 280.516 622.319 278.721 622.65 274.723Z" fill="#EFECDB"/>
<path d="M627.778 265.951C623.331 265.237 615.647 265.945 615.027 268.984C614.408 272.023 620.968 276.828 625.415 277.541C629.863 278.254 632.757 274.965 633.376 271.926C633.996 268.887 632.225 266.664 627.778 265.951Z" fill="#EFECDB"/>
<path d="M607.154 263.193C611.538 262.219 619.258 262.473 620.104 265.468C620.95 268.464 614.763 273.645 610.38 274.619C605.996 275.592 602.862 272.481 602.016 269.485C601.17 266.489 602.77 264.166 607.154 263.193Z" fill="#F2EDE1"/>
<path d="M605.117 261.024C607.114 264.619 612.324 269.679 615.447 268.314C618.571 266.95 619.028 259.414 617.03 255.819C615.033 252.223 610.331 252.115 607.207 253.479C604.084 254.844 603.12 257.428 605.117 261.024Z" fill="#EFECDB"/>
<path d="M621.199 266.477C620.457 267.02 619.189 267.077 618.318 267.411C617.423 267.756 617.894 266.914 618.109 266.553C618.254 266.309 618.399 266.086 618.556 265.848C618.562 265.837 618.08 266.712 617.896 266.934C617.254 267.711 617.001 265.546 616.911 265.226C616.806 264.855 616.579 263.739 616.558 264.121C616.532 264.596 616.569 265.09 616.681 265.554C616.87 266.339 617.336 267.032 617.972 267.591C618.495 268.052 620.082 269.382 619.684 268.832C619.362 268.388 618.727 267.938 618.272 267.613C618.143 267.521 617.206 266.81 617.073 266.876C616.614 267.104 617.279 268.977 617.337 269.259C617.37 269.42 617.507 270.105 617.508 270.099C617.57 269.64 617.394 269.149 617.334 268.696C617.261 268.145 617.151 267.533 616.919 267.013C616.766 266.672 616.395 267.199 616.239 267.339C615.711 267.811 615.183 268.284 614.655 268.756C614.415 268.97 615.05 268.176 615.128 268.089C615.246 267.955 616.425 266.791 616.369 266.742C616.352 266.727 615.821 267.004 615.766 267.014C615.222 267.112 614.717 266.962 614.183 266.917C614.007 266.902 613.653 266.812 614.024 266.709C614.606 266.546 615.255 266.676 615.854 266.63C616.195 266.603 615.73 266.301 615.651 266.231C615.215 265.848 614.742 265.568 614.325 265.202" stroke="#EA6626" stroke-width="2" stroke-linecap="round"/>
<path d="M488.053 183.801C482.918 188.393 476.952 198.102 480.942 201.611C484.931 205.12 498.134 201.777 503.269 197.185C508.404 192.593 506.119 186.172 502.13 182.663C498.14 179.154 493.188 179.208 488.053 183.801Z" fill="#EFECDB"/>
<path d="M493.672 211.082C494.206 204.632 491.62 193.815 486.017 193.45C480.413 193.085 472.834 203.239 472.299 209.689C471.765 216.14 478.208 219.699 483.811 220.065C489.415 220.43 493.137 217.533 493.672 211.082Z" fill="#EFECDB"/>
<path d="M501.947 196.924C494.771 195.773 482.371 196.914 481.371 201.818C480.372 206.722 490.958 214.476 498.134 215.627C505.311 216.778 509.981 211.47 510.981 206.566C511.98 201.662 509.124 198.074 501.947 196.924Z" fill="#EFECDB"/>
<path d="M468.667 192.474C475.742 190.903 488.2 191.312 489.564 196.146C490.929 200.98 480.947 209.341 473.872 210.912C466.798 212.483 461.741 207.462 460.376 202.628C459.012 197.793 461.593 194.045 468.667 192.474Z" fill="#F2EDE1"/>
<path d="M465.381 188.974C468.604 194.777 477.01 202.941 482.051 200.739C487.091 198.537 487.828 186.377 484.605 180.575C481.383 174.773 473.794 174.598 468.754 176.8C463.713 179.002 462.158 183.172 465.381 188.974Z" fill="#EFECDB"/>
<path d="M491.336 197.774C490.138 198.65 488.091 198.742 486.687 199.282C485.241 199.837 486.001 198.479 486.348 197.896C486.582 197.503 486.816 197.143 487.069 196.759C487.081 196.742 486.302 198.153 486.005 198.511C484.97 199.765 484.56 196.271 484.415 195.756C484.246 195.157 483.88 193.355 483.846 193.972C483.804 194.738 483.864 195.536 484.044 196.285C484.349 197.55 485.102 198.67 486.128 199.572C486.972 200.315 489.533 202.462 488.891 201.575C488.371 200.857 487.347 200.131 486.612 199.607C486.404 199.458 484.892 198.311 484.676 198.418C483.936 198.786 485.009 201.807 485.103 202.263C485.156 202.524 485.377 203.628 485.379 203.618C485.48 202.878 485.195 202.085 485.098 201.355C484.981 200.466 484.803 199.478 484.428 198.64C484.182 198.088 483.583 198.94 483.331 199.165C482.479 199.927 481.627 200.689 480.775 201.451C480.388 201.797 481.412 200.516 481.538 200.374C481.729 200.16 483.631 198.281 483.541 198.201C483.513 198.177 482.656 198.624 482.567 198.64C481.69 198.799 480.874 198.557 480.014 198.484C479.729 198.46 479.159 198.314 479.756 198.148C480.696 197.886 481.744 198.095 482.71 198.02C483.26 197.977 482.51 197.49 482.382 197.377C481.679 196.759 480.916 196.308 480.243 195.716" stroke="#EA6626" stroke-width="2" stroke-linecap="round"/>
<path d="M389.233 298.319C384.097 302.912 378.132 312.62 382.121 316.13C386.111 319.639 399.313 316.296 404.449 311.703C409.584 307.111 407.299 300.691 403.31 297.182C399.32 293.672 394.368 293.727 389.233 298.319Z" fill="#EFECDB"/>
<path d="M394.85 325.6C395.384 319.149 392.798 308.333 387.194 307.968C381.59 307.603 374.011 317.756 373.477 324.207C372.942 330.657 379.385 334.217 384.989 334.582C390.593 334.948 394.315 332.05 394.85 325.6Z" fill="#EFECDB"/>
<path d="M403.127 311.441C395.951 310.29 383.551 311.432 382.551 316.336C381.551 321.24 392.138 328.994 399.314 330.145C406.49 331.295 411.16 325.988 412.16 321.084C413.16 316.18 410.303 312.592 403.127 311.441Z" fill="#EFECDB"/>
<path d="M369.845 306.993C376.919 305.422 389.377 305.83 390.742 310.665C392.107 315.499 382.124 323.859 375.05 325.43C367.976 327.001 362.919 321.98 361.554 317.146C360.189 312.312 362.771 308.564 369.845 306.993Z" fill="#F2EDE1"/>
<path d="M366.559 303.492C369.782 309.294 378.188 317.459 383.228 315.256C388.269 313.054 389.006 300.895 385.783 295.093C382.56 289.291 374.972 289.115 369.931 291.317C364.891 293.52 363.336 297.69 366.559 303.492Z" fill="#EFECDB"/>
<path d="M392.514 312.291C391.315 313.168 389.269 313.259 387.865 313.799C386.419 314.355 387.179 312.997 387.526 312.414C387.76 312.021 387.994 311.66 388.247 311.276C388.258 311.259 387.479 312.67 387.183 313.029C386.147 314.282 385.738 310.789 385.593 310.273C385.424 309.674 385.058 307.873 385.024 308.49C384.982 309.256 385.041 310.054 385.222 310.802C385.526 312.068 386.28 313.188 387.306 314.09C388.15 314.833 390.711 316.98 390.068 316.092C389.549 315.375 388.524 314.648 387.79 314.125C387.581 313.976 386.069 312.828 385.854 312.935C385.114 313.304 386.187 316.325 386.28 316.781C386.334 317.041 386.555 318.146 386.556 318.136C386.657 317.396 386.373 316.603 386.276 315.873C386.158 314.983 385.981 313.996 385.606 313.157C385.36 312.606 384.761 313.457 384.509 313.683C383.657 314.445 382.805 315.207 381.953 315.969C381.566 316.314 382.59 315.034 382.716 314.892C382.907 314.677 384.809 312.798 384.719 312.719C384.691 312.694 383.834 313.142 383.745 313.158C382.868 313.317 382.052 313.075 381.192 313.002C380.907 312.977 380.337 312.831 380.934 312.665C381.874 312.404 382.921 312.613 383.888 312.538C384.437 312.495 383.688 312.007 383.559 311.895C382.856 311.276 382.094 310.825 381.421 310.234" stroke="#EA6626" stroke-width="2" stroke-linecap="round"/>
<path d="M310.606 334.141C305.47 338.733 299.505 348.442 303.495 351.951C307.484 355.46 320.686 352.117 325.822 347.525C330.957 342.932 328.672 336.512 324.683 333.003C320.693 329.494 315.741 329.548 310.606 334.141Z" fill="#EFECDB"/>
<path d="M316.225 361.422C316.759 354.971 314.173 344.155 308.569 343.79C302.965 343.425 295.386 353.578 294.852 360.029C294.317 366.48 300.76 370.039 306.364 370.405C311.968 370.77 315.69 367.872 316.225 361.422Z" fill="#EFECDB"/>
<path d="M324.5 347.263C317.324 346.113 304.924 347.254 303.924 352.158C302.924 357.062 313.511 364.816 320.687 365.967C327.863 367.118 332.533 361.81 333.533 356.906C334.533 352.002 331.676 348.414 324.5 347.263Z" fill="#EFECDB"/>
<path d="M291.22 342.814C298.294 341.243 310.752 341.652 312.117 346.486C313.482 351.32 303.499 359.681 296.425 361.252C289.351 362.822 284.294 357.802 282.929 352.967C281.564 348.133 284.146 344.385 291.22 342.814Z" fill="#F2EDE1"/>
<path d="M287.934 339.314C291.157 345.116 299.563 353.281 304.603 351.079C309.644 348.876 310.381 336.717 307.158 330.915C303.935 325.113 296.347 324.937 291.306 327.14C286.266 329.342 284.711 333.512 287.934 339.314Z" fill="#EFECDB"/>
<path d="M313.889 348.114C312.69 348.99 310.644 349.082 309.24 349.622C307.794 350.177 308.554 348.819 308.901 348.236C309.135 347.843 309.369 347.482 309.622 347.098C309.633 347.081 308.854 348.492 308.558 348.851C307.522 350.104 307.113 346.611 306.968 346.096C306.799 345.496 306.433 343.695 306.399 344.312C306.357 345.078 306.416 345.876 306.597 346.625C306.901 347.89 307.655 349.01 308.681 349.912C309.525 350.655 312.086 352.802 311.443 351.914C310.924 351.197 309.899 350.471 309.165 349.947C308.956 349.798 307.444 348.651 307.229 348.758C306.489 349.126 307.562 352.147 307.655 352.603C307.709 352.863 307.93 353.968 307.931 353.958C308.032 353.218 307.748 352.425 307.651 351.695C307.533 350.806 307.356 349.818 306.981 348.98C306.735 348.428 306.136 349.279 305.884 349.505C305.032 350.267 304.18 351.029 303.328 351.791C302.941 352.136 303.965 350.856 304.091 350.714C304.282 350.5 306.184 348.62 306.094 348.541C306.066 348.517 305.209 348.964 305.12 348.98C304.243 349.139 303.427 348.897 302.567 348.824C302.282 348.8 301.712 348.654 302.309 348.487C303.249 348.226 304.296 348.435 305.263 348.36C305.812 348.317 305.063 347.83 304.934 347.717C304.231 347.098 303.469 346.648 302.796 346.056" stroke="#EA6626" stroke-width="2" stroke-linecap="round"/>
<path d="M299.408 284.531C295.312 288.194 290.555 295.936 293.736 298.735C296.918 301.534 307.447 298.868 311.543 295.205C315.638 291.543 313.816 286.423 310.634 283.624C307.452 280.825 303.503 280.869 299.408 284.531Z" fill="#EFECDB"/>
<path d="M303.891 306.287C304.317 301.143 302.255 292.517 297.785 292.226C293.316 291.934 287.272 300.032 286.846 305.176C286.419 310.321 291.558 313.16 296.027 313.451C300.496 313.742 303.464 311.432 303.891 306.287Z" fill="#EFECDB"/>
<path d="M310.49 294.997C304.767 294.079 294.878 294.99 294.081 298.901C293.283 302.811 301.726 308.995 307.449 309.913C313.172 310.831 316.897 306.598 317.694 302.687C318.492 298.776 316.213 295.915 310.49 294.997Z" fill="#EFECDB"/>
<path d="M283.949 291.448C289.591 290.195 299.526 290.521 300.615 294.377C301.703 298.232 293.742 304.899 288.1 306.152C282.458 307.405 278.425 303.401 277.337 299.546C276.248 295.69 278.307 292.701 283.949 291.448Z" fill="#F2EDE1"/>
<path d="M281.327 288.657C283.897 293.284 290.601 299.796 294.621 298.039C298.641 296.283 299.228 286.586 296.658 281.958C294.088 277.331 288.036 277.191 284.016 278.948C279.997 280.704 278.756 284.03 281.327 288.657Z" fill="#EFECDB"/>
<path d="M302.026 295.674C301.071 296.373 299.439 296.446 298.318 296.877C297.166 297.32 297.772 296.237 298.048 295.772C298.235 295.458 298.422 295.171 298.623 294.864C298.632 294.851 298.011 295.976 297.775 296.262C296.949 297.262 296.623 294.476 296.507 294.065C296.372 293.587 296.08 292.15 296.053 292.642C296.02 293.253 296.067 293.889 296.211 294.487C296.454 295.496 297.055 296.389 297.873 297.108C298.546 297.701 300.588 299.413 300.076 298.705C299.662 298.133 298.845 297.554 298.259 297.136C298.092 297.018 296.887 296.102 296.715 296.188C296.124 296.482 296.98 298.891 297.055 299.255C297.098 299.462 297.274 300.343 297.275 300.335C297.356 299.745 297.129 299.113 297.052 298.53C296.958 297.821 296.816 297.033 296.517 296.365C296.321 295.925 295.843 296.604 295.642 296.784C294.962 297.391 294.283 297.999 293.603 298.607C293.295 298.882 294.111 297.861 294.212 297.748C294.364 297.577 295.881 296.078 295.809 296.015C295.787 295.996 295.104 296.352 295.033 296.365C294.334 296.492 293.683 296.299 292.997 296.241C292.77 296.221 292.315 296.105 292.791 295.972C293.541 295.764 294.376 295.93 295.147 295.871C295.585 295.837 294.987 295.448 294.885 295.358C294.324 294.864 293.716 294.505 293.179 294.033" stroke="#EA6626" stroke-width="2" stroke-linecap="round"/>
<path d="M489.486 273.277C484.85 277.423 479.464 286.188 483.066 289.357C486.668 292.525 498.588 289.507 503.224 285.361C507.861 281.214 505.798 275.418 502.196 272.25C498.594 269.081 494.123 269.131 489.486 273.277Z" fill="#EFECDB"/>
<path d="M494.561 297.906C495.044 292.082 492.709 282.317 487.65 281.987C482.59 281.657 475.748 290.825 475.265 296.649C474.782 302.472 480.599 305.686 485.659 306.016C490.718 306.346 494.079 303.73 494.561 297.906Z" fill="#EFECDB"/>
<path d="M502.034 285.124C495.554 284.085 484.359 285.116 483.457 289.543C482.554 293.971 492.112 300.972 498.591 302.011C505.07 303.05 509.286 298.258 510.189 293.83C511.092 289.403 508.513 286.163 502.034 285.124Z" fill="#EFECDB"/>
<path d="M471.987 281.108C478.374 279.69 489.622 280.059 490.854 284.423C492.086 288.788 483.073 296.336 476.686 297.754C470.299 299.173 465.734 294.64 464.501 290.275C463.269 285.91 465.6 282.526 471.987 281.108Z" fill="#F2EDE1"/>
<path d="M469.02 277.947C471.93 283.185 479.52 290.557 484.07 288.568C488.621 286.58 489.287 275.602 486.377 270.363C483.467 265.125 476.616 264.967 472.065 266.955C467.515 268.943 466.111 272.708 469.02 277.947Z" fill="#EFECDB"/>
<path d="M492.452 285.892C491.37 286.683 489.523 286.766 488.255 287.253C486.95 287.755 487.636 286.529 487.949 286.003C488.16 285.648 488.372 285.322 488.6 284.975C488.61 284.96 487.907 286.234 487.639 286.558C486.704 287.689 486.335 284.535 486.203 284.07C486.051 283.529 485.72 281.903 485.69 282.46C485.652 283.152 485.706 283.872 485.868 284.548C486.144 285.69 486.824 286.701 487.75 287.516C488.512 288.186 490.824 290.125 490.244 289.324C489.775 288.676 488.85 288.02 488.187 287.547C487.999 287.413 486.634 286.377 486.44 286.473C485.771 286.806 486.74 289.534 486.824 289.945C486.873 290.18 487.072 291.178 487.074 291.169C487.165 290.501 486.908 289.785 486.82 289.126C486.714 288.323 486.554 287.431 486.216 286.674C485.993 286.176 485.452 286.944 485.225 287.148C484.455 287.836 483.686 288.524 482.917 289.212C482.568 289.524 483.492 288.368 483.606 288.24C483.778 288.046 485.496 286.35 485.414 286.278C485.389 286.256 484.615 286.66 484.535 286.674C483.743 286.818 483.007 286.599 482.23 286.533C481.973 286.511 481.458 286.379 481.997 286.229C482.846 285.993 483.792 286.182 484.664 286.114C485.16 286.076 484.483 285.636 484.368 285.534C483.733 284.975 483.044 284.568 482.437 284.034" stroke="#EA6626" stroke-width="2" stroke-linecap="round"/>
<path d="M496.697 307.824C492.061 311.97 486.675 320.735 490.277 323.904C493.879 327.072 505.799 324.054 510.435 319.908C515.072 315.761 513.009 309.965 509.407 306.797C505.805 303.628 501.334 303.677 496.697 307.824Z" fill="#EFECDB"/>
<path d="M501.772 332.454C502.255 326.63 499.92 316.865 494.861 316.535C489.801 316.205 482.958 325.372 482.476 331.196C481.993 337.02 487.81 340.234 492.87 340.564C497.929 340.894 501.29 338.278 501.772 332.454Z" fill="#EFECDB"/>
<path d="M509.245 319.671C502.765 318.632 491.57 319.663 490.667 324.09C489.765 328.518 499.323 335.519 505.802 336.558C512.281 337.597 516.497 332.805 517.4 328.377C518.303 323.95 515.724 320.71 509.245 319.671Z" fill="#EFECDB"/>
<path d="M479.198 315.655C485.585 314.237 496.833 314.605 498.065 318.97C499.297 323.335 490.284 330.883 483.897 332.301C477.51 333.72 472.944 329.187 471.712 324.822C470.48 320.457 472.811 317.073 479.198 315.655Z" fill="#F2EDE1"/>
<path d="M476.231 312.494C479.141 317.732 486.731 325.104 491.281 323.115C495.832 321.127 496.498 310.149 493.588 304.91C490.678 299.672 483.827 299.514 479.276 301.502C474.725 303.49 473.322 307.255 476.231 312.494Z" fill="#EFECDB"/>
<path d="M499.663 320.439C498.581 321.23 496.734 321.313 495.465 321.8C494.161 322.302 494.846 321.076 495.16 320.549C495.371 320.194 495.582 319.869 495.811 319.522C495.821 319.507 495.118 320.781 494.85 321.105C493.915 322.236 493.546 319.082 493.414 318.617C493.262 318.076 492.931 316.45 492.901 317.007C492.863 317.698 492.916 318.419 493.079 319.095C493.355 320.237 494.035 321.248 494.961 322.063C495.723 322.733 498.035 324.672 497.455 323.87C496.986 323.223 496.061 322.567 495.398 322.094C495.21 321.96 493.845 320.924 493.65 321.02C492.982 321.353 493.95 324.081 494.035 324.492C494.083 324.727 494.283 325.725 494.284 325.716C494.375 325.048 494.119 324.331 494.031 323.672C493.925 322.869 493.765 321.978 493.427 321.221C493.204 320.723 492.663 321.491 492.436 321.695C491.666 322.383 490.897 323.071 490.128 323.759C489.779 324.071 490.703 322.915 490.817 322.787C490.989 322.593 492.707 320.896 492.625 320.825C492.6 320.803 491.826 321.207 491.746 321.221C490.954 321.365 490.218 321.146 489.441 321.08C489.184 321.058 488.669 320.926 489.208 320.776C490.057 320.54 491.002 320.729 491.875 320.661C492.371 320.623 491.694 320.182 491.579 320.081C490.944 319.522 490.255 319.115 489.648 318.581" stroke="#EA6626" stroke-width="2" stroke-linecap="round"/>
<path d="M532.764 281.594C528.127 285.74 522.741 294.506 526.343 297.674C529.945 300.842 541.865 297.824 546.502 293.678C551.138 289.532 549.075 283.735 545.473 280.567C541.871 277.399 537.4 277.448 532.764 281.594Z" fill="#EFECDB"/>
<path d="M537.839 306.225C538.321 300.401 535.987 290.635 530.927 290.306C525.868 289.976 519.025 299.143 518.542 304.967C518.06 310.791 523.877 314.005 528.936 314.334C533.996 314.664 537.356 312.048 537.839 306.225Z" fill="#EFECDB"/>
<path d="M545.311 293.442C538.832 292.403 527.637 293.433 526.734 297.861C525.831 302.288 535.389 309.289 541.868 310.328C548.348 311.367 552.564 306.575 553.466 302.148C554.369 297.72 551.79 294.481 545.311 293.442Z" fill="#EFECDB"/>
<path d="M515.262 289.425C521.65 288.007 532.897 288.376 534.129 292.741C535.361 297.105 526.349 304.653 519.962 306.072C513.575 307.49 509.009 302.957 507.777 298.592C506.545 294.228 508.875 290.844 515.262 289.425Z" fill="#F2EDE1"/>
<path d="M512.296 286.264C515.205 291.503 522.795 298.874 527.346 296.886C531.897 294.898 532.562 283.919 529.652 278.681C526.743 273.442 519.892 273.284 515.341 275.272C510.79 277.261 509.386 281.026 512.296 286.264Z" fill="#EFECDB"/>
<path d="M535.729 294.209C534.648 295.001 532.8 295.083 531.532 295.571C530.227 296.073 530.913 294.846 531.226 294.32C531.438 293.965 531.649 293.64 531.877 293.293C531.887 293.277 531.184 294.551 530.917 294.875C529.982 296.007 529.612 292.853 529.481 292.387C529.328 291.846 528.998 290.22 528.967 290.777C528.93 291.469 528.983 292.189 529.146 292.865C529.421 294.008 530.101 295.019 531.027 295.833C531.79 296.504 534.102 298.442 533.522 297.641C533.053 296.993 532.128 296.337 531.465 295.865C531.276 295.73 529.911 294.694 529.717 294.791C529.048 295.124 530.017 297.851 530.102 298.263C530.15 298.498 530.35 299.495 530.351 299.486C530.442 298.818 530.185 298.102 530.098 297.443C529.991 296.64 529.831 295.748 529.493 294.991C529.271 294.493 528.73 295.262 528.502 295.466C527.733 296.154 526.964 296.841 526.194 297.529C525.845 297.841 526.769 296.685 526.883 296.557C527.056 296.363 528.773 294.667 528.692 294.595C528.667 294.573 527.893 294.977 527.813 294.992C527.021 295.135 526.284 294.917 525.507 294.851C525.25 294.829 524.735 294.697 525.275 294.547C526.123 294.311 527.069 294.499 527.941 294.432C528.438 294.393 527.761 293.953 527.645 293.851C527.01 293.293 526.322 292.886 525.714 292.351" stroke="#EA6626" stroke-width="2" stroke-linecap="round"/>
<path d="M511.846 245.768C507.209 249.914 501.823 258.68 505.425 261.848C509.027 265.016 520.947 261.998 525.584 257.852C530.22 253.706 528.157 247.909 524.555 244.741C520.953 241.573 516.482 241.622 511.846 245.768Z" fill="#EFECDB"/>
<path d="M516.921 270.398C517.403 264.574 515.069 254.809 510.009 254.479C504.95 254.15 498.107 263.317 497.624 269.141C497.142 274.965 502.959 278.179 508.018 278.508C513.078 278.838 516.438 276.222 516.921 270.398Z" fill="#EFECDB"/>
<path d="M524.393 257.615C517.914 256.576 506.719 257.607 505.816 262.035C504.913 266.462 514.471 273.463 520.95 274.502C527.43 275.541 531.646 270.749 532.548 266.321C533.451 261.894 530.872 258.654 524.393 257.615Z" fill="#EFECDB"/>
<path d="M494.346 253.599C500.734 252.181 511.981 252.55 513.213 256.914C514.445 261.279 505.433 268.827 499.046 270.246C492.659 271.664 488.093 267.131 486.861 262.766C485.629 258.402 487.959 255.017 494.346 253.599Z" fill="#F2EDE1"/>
<path d="M491.38 250.438C494.289 255.677 501.879 263.048 506.43 261.06C510.981 259.071 511.646 248.093 508.736 242.855C505.827 237.616 498.976 237.458 494.425 239.446C489.874 241.435 488.47 245.2 491.38 250.438Z" fill="#EFECDB"/>
<path d="M514.811 258.383C513.73 259.175 511.882 259.257 510.614 259.745C509.309 260.246 509.995 259.02 510.308 258.494C510.52 258.139 510.731 257.813 510.959 257.467C510.969 257.451 510.266 258.725 509.999 259.049C509.064 260.181 508.694 257.027 508.563 256.561C508.41 256.02 508.08 254.394 508.049 254.951C508.012 255.643 508.065 256.363 508.228 257.039C508.503 258.182 509.183 259.192 510.109 260.007C510.872 260.678 513.184 262.616 512.604 261.815C512.135 261.167 511.21 260.511 510.547 260.039C510.358 259.904 508.993 258.868 508.799 258.965C508.13 259.297 509.099 262.025 509.184 262.437C509.232 262.672 509.432 263.669 509.433 263.66C509.524 262.992 509.267 262.276 509.18 261.617C509.073 260.814 508.913 259.922 508.575 259.165C508.353 258.667 507.812 259.436 507.584 259.639C506.815 260.327 506.046 261.015 505.276 261.703C504.927 262.015 505.851 260.859 505.965 260.731C506.138 260.537 507.855 258.841 507.774 258.769C507.749 258.747 506.975 259.151 506.895 259.166C506.103 259.309 505.366 259.09 504.589 259.024C504.332 259.003 503.817 258.871 504.357 258.721C505.205 258.485 506.151 258.673 507.023 258.606C507.52 258.567 506.843 258.127 506.727 258.025C506.092 257.467 505.404 257.059 504.796 256.525" stroke="#EA6626" stroke-width="2" stroke-linecap="round"/>
<path d="M435.387 251.526C430.75 255.672 425.364 264.437 428.966 267.606C432.568 270.774 444.488 267.756 449.125 263.61C453.761 259.463 451.698 253.667 448.096 250.499C444.494 247.33 440.023 247.38 435.387 251.526Z" fill="#EFECDB"/>
<path d="M440.462 276.156C440.944 270.332 438.61 260.567 433.55 260.237C428.491 259.907 421.648 269.075 421.165 274.899C420.683 280.722 426.5 283.936 431.559 284.266C436.619 284.596 439.979 281.98 440.462 276.156Z" fill="#EFECDB"/>
<path d="M447.934 263.373C441.455 262.334 430.26 263.365 429.357 267.792C428.454 272.22 438.012 279.221 444.491 280.26C450.971 281.299 455.187 276.507 456.09 272.079C456.992 267.652 454.413 264.412 447.934 263.373Z" fill="#EFECDB"/>
<path d="M417.887 259.357C424.275 257.939 435.522 258.308 436.754 262.672C437.986 267.037 428.974 274.585 422.587 276.003C416.2 277.422 411.634 272.889 410.402 268.524C409.17 264.159 411.5 260.775 417.887 259.357Z" fill="#F2EDE1"/>
<path d="M414.921 256.196C417.83 261.434 425.42 268.806 429.971 266.817C434.522 264.829 435.187 253.851 432.277 248.613C429.368 243.374 422.517 243.216 417.966 245.204C413.415 247.192 412.011 250.957 414.921 256.196Z" fill="#EFECDB"/>
<path d="M438.352 264.141C437.271 264.932 435.423 265.015 434.155 265.502C432.85 266.004 433.536 264.778 433.849 264.252C434.061 263.897 434.272 263.571 434.5 263.224C434.51 263.209 433.807 264.483 433.54 264.807C432.605 265.938 432.235 262.784 432.104 262.319C431.951 261.778 431.621 260.152 431.59 260.709C431.553 261.401 431.606 262.121 431.769 262.797C432.044 263.939 432.724 264.95 433.65 265.765C434.413 266.435 436.725 268.374 436.145 267.573C435.676 266.925 434.751 266.269 434.088 265.796C433.899 265.662 432.534 264.626 432.34 264.722C431.671 265.055 432.64 267.783 432.725 268.195C432.773 268.429 432.973 269.427 432.974 269.418C433.065 268.75 432.808 268.034 432.721 267.375C432.614 266.572 432.454 265.68 432.116 264.923C431.894 264.425 431.353 265.194 431.125 265.397C430.356 266.085 429.587 266.773 428.817 267.461C428.468 267.773 429.392 266.617 429.506 266.489C429.679 266.295 431.396 264.599 431.315 264.527C431.29 264.505 430.516 264.909 430.436 264.923C429.644 265.067 428.907 264.848 428.13 264.782C427.873 264.76 427.358 264.628 427.898 264.478C428.746 264.242 429.692 264.431 430.564 264.363C431.061 264.325 430.384 263.885 430.268 263.783C429.633 263.224 428.945 262.817 428.337 262.283" stroke="#EA6626" stroke-width="2" stroke-linecap="round"/>
<path d="M541.422 346.848C536.785 350.994 531.4 359.76 535.002 362.928C538.604 366.096 550.523 363.078 555.16 358.932C559.796 354.786 557.733 348.989 554.131 345.821C550.529 342.653 546.058 342.702 541.422 346.848Z" fill="#EFECDB"/>
<path d="M546.497 371.478C546.98 365.655 544.645 355.889 539.585 355.559C534.526 355.23 527.683 364.397 527.201 370.221C526.718 376.045 532.535 379.259 537.594 379.588C542.654 379.918 546.014 377.302 546.497 371.478Z" fill="#EFECDB"/>
<path d="M553.969 358.696C547.49 357.657 536.295 358.687 535.392 363.115C534.489 367.542 544.047 374.543 550.527 375.582C557.006 376.621 561.222 371.829 562.125 367.402C563.027 362.974 560.448 359.735 553.969 358.696Z" fill="#EFECDB"/>
<path d="M523.923 354.679C530.31 353.261 541.557 353.63 542.79 357.995C544.022 362.359 535.009 369.907 528.622 371.326C522.235 372.744 517.669 368.211 516.437 363.846C515.205 359.482 517.536 356.098 523.923 354.679Z" fill="#F2EDE1"/>
<path d="M520.956 351.518C523.866 356.757 531.455 364.128 536.006 362.14C540.557 360.151 541.222 349.173 538.313 343.935C535.403 338.696 528.552 338.538 524.001 340.526C519.45 342.515 518.046 346.28 520.956 351.518Z" fill="#EFECDB"/>
<path d="M544.387 359.463C543.306 360.255 541.458 360.337 540.19 360.825C538.885 361.326 539.571 360.1 539.884 359.574C540.096 359.219 540.307 358.893 540.535 358.547C540.546 358.531 539.842 359.805 539.575 360.129C538.64 361.261 538.27 358.107 538.139 357.641C537.986 357.1 537.656 355.474 537.626 356.031C537.588 356.723 537.641 357.443 537.804 358.119C538.079 359.262 538.759 360.272 539.685 361.087C540.448 361.758 542.76 363.696 542.18 362.895C541.711 362.247 540.786 361.591 540.123 361.119C539.934 360.984 538.569 359.948 538.375 360.045C537.706 360.377 538.675 363.105 538.76 363.517C538.808 363.752 539.008 364.749 539.009 364.74C539.1 364.072 538.843 363.356 538.756 362.697C538.65 361.894 538.489 361.002 538.151 360.245C537.929 359.747 537.388 360.516 537.16 360.72C536.391 361.407 535.622 362.095 534.852 362.783C534.504 363.095 535.428 361.939 535.541 361.811C535.714 361.617 537.431 359.921 537.35 359.849C537.325 359.827 536.551 360.231 536.471 360.246C535.679 360.389 534.942 360.171 534.165 360.105C533.909 360.083 533.393 359.951 533.933 359.801C534.782 359.565 535.727 359.753 536.599 359.686C537.096 359.647 536.419 359.207 536.303 359.105C535.668 358.547 534.98 358.14 534.372 357.605" stroke="#EA6626" stroke-width="2" stroke-linecap="round"/>
<path d="M577.051 345.858C573.295 349.217 568.932 356.318 571.85 358.884C574.768 361.451 584.424 359.006 588.18 355.647C591.936 352.288 590.264 347.593 587.347 345.026C584.429 342.46 580.807 342.499 577.051 345.858Z" fill="#EFECDB"/>
<path d="M581.159 365.81C581.55 361.092 579.658 353.182 575.56 352.914C571.461 352.647 565.918 360.073 565.527 364.791C565.137 369.509 569.849 372.112 573.947 372.38C578.046 372.647 580.768 370.528 581.159 365.81Z" fill="#EFECDB"/>
<path d="M587.214 355.455C581.965 354.614 572.896 355.449 572.165 359.035C571.434 362.622 579.177 368.293 584.425 369.135C589.674 369.976 593.089 366.095 593.82 362.508C594.552 358.921 592.462 356.297 587.214 355.455Z" fill="#EFECDB"/>
<path d="M562.874 352.202C568.048 351.053 577.159 351.352 578.158 354.887C579.156 358.423 571.855 364.538 566.681 365.686C561.507 366.835 557.808 363.163 556.81 359.628C555.812 356.092 557.7 353.351 562.874 352.202Z" fill="#F2EDE1"/>
<path d="M560.469 349.641C562.826 353.885 568.974 359.856 572.661 358.245C576.347 356.635 576.886 347.742 574.529 343.498C572.172 339.255 566.623 339.126 562.936 340.737C559.25 342.348 558.112 345.398 560.469 349.641Z" fill="#EFECDB"/>
<path d="M579.453 356.077C578.576 356.719 577.08 356.785 576.052 357.18C574.995 357.587 575.551 356.593 575.805 356.167C575.976 355.879 576.147 355.616 576.332 355.335C576.34 355.322 575.771 356.354 575.554 356.617C574.796 357.533 574.497 354.978 574.391 354.602C574.267 354.163 574 352.846 573.975 353.297C573.944 353.858 573.988 354.441 574.119 354.989C574.342 355.914 574.893 356.733 575.644 357.393C576.261 357.936 578.134 359.506 577.664 358.857C577.284 358.333 576.535 357.801 575.998 357.418C575.845 357.31 574.74 356.47 574.582 356.548C574.04 356.818 574.825 359.027 574.894 359.361C574.933 359.551 575.095 360.359 575.096 360.352C575.169 359.811 574.961 359.231 574.891 358.697C574.805 358.046 574.675 357.324 574.401 356.711C574.221 356.308 573.783 356.93 573.598 357.095C572.975 357.652 572.352 358.21 571.729 358.767C571.446 359.02 572.194 358.083 572.287 357.979C572.426 357.822 573.818 356.448 573.752 356.39C573.731 356.372 573.104 356.699 573.04 356.711C572.398 356.827 571.801 356.65 571.172 356.597C570.964 356.579 570.547 356.472 570.984 356.351C571.671 356.16 572.437 356.312 573.144 356.258C573.546 356.226 572.997 355.87 572.904 355.787C572.389 355.335 571.832 355.005 571.34 354.572" stroke="#EA6626" stroke-width="2" stroke-linecap="round"/>
<path d="M197.556 436.705C191.266 437.48 181.356 441.409 182.029 445.707C182.702 450.005 193.834 453.873 200.124 453.098C206.414 452.323 208.654 446.808 207.981 442.51C207.307 438.212 203.846 435.93 197.556 436.705Z" fill="#EFECDB"/>
<path d="M185.205 458.225C189.415 454.009 194.064 445.308 190.401 442.431C186.738 439.554 175.446 443.035 171.235 447.251C167.025 451.468 169.367 456.95 173.029 459.827C176.692 462.704 180.994 462.441 185.205 458.225Z" fill="#EFECDB"/>
<path d="M199.365 452.298C195.081 448.141 185.815 443.124 182.203 446.052C178.591 448.979 181.305 459.306 185.589 463.463C189.873 467.621 196.267 466.133 199.878 463.205C203.49 460.278 203.649 456.456 199.365 452.298Z" fill="#EFECDB"/>
<path d="M178.968 433.632C184.802 435.857 193.185 441.974 191.252 445.96C189.319 449.947 177.429 451.061 171.596 448.836C165.762 446.611 165.249 440.766 167.182 436.779C169.116 432.793 173.135 431.406 178.968 433.632Z" fill="#F2EDE1"/>
<path d="M178.776 429.669C177.553 435.196 178.513 444.786 183.314 445.621C188.115 446.457 195.865 438.383 197.088 432.856C198.31 427.329 193.16 423.654 188.359 422.818C183.558 421.983 179.998 424.142 178.776 429.669Z" fill="#EFECDB"/>
<path d="M191.512 447.917C190.161 447.963 188.689 447.068 187.395 446.784C186.064 446.492 187.398 445.907 187.986 445.666C188.382 445.503 188.758 445.363 189.162 445.216C189.18 445.209 187.801 445.821 187.382 445.931C185.919 446.314 187.715 443.703 187.921 443.278C188.161 442.784 188.98 441.366 188.589 441.777C188.104 442.288 187.67 442.868 187.349 443.471C186.807 444.49 186.662 445.618 186.835 446.723C186.978 447.633 187.473 450.319 187.556 449.403C187.623 448.664 187.347 447.681 187.15 446.974C187.094 446.774 186.73 445.271 186.518 445.244C185.785 445.152 184.73 447.747 184.523 448.107C184.405 448.312 183.901 449.18 183.908 449.174C184.418 448.709 184.693 448.026 185.061 447.476C185.509 446.805 185.974 446.038 186.214 445.282C186.371 444.785 185.45 445.093 185.141 445.132C184.097 445.26 183.054 445.389 182.01 445.517C181.537 445.576 183.008 445.168 183.179 445.129C183.44 445.07 185.875 444.66 185.86 444.562C185.856 444.533 184.996 444.441 184.925 444.411C184.223 444.11 183.802 443.56 183.25 443.106C183.067 442.957 182.759 442.588 183.272 442.753C184.078 443.012 184.679 443.647 185.393 444.048C185.799 444.276 185.57 443.587 185.548 443.449C185.43 442.691 185.17 442.022 185.056 441.297" stroke="#EA6626" stroke-width="2" stroke-linecap="round"/>
</svg>
