<svg width="602" height="654" viewBox="0 0 602 654" fill="none" xmlns="http://www.w3.org/2000/svg">
<path d="M560.793 206.251L566.935 339.779L571.833 422.996L550.215 485.488L501.419 536.636" stroke="#EB662B" stroke-width="4"/>
<path d="M492.996 267.925L388.405 309.205L302.144 369.802L176.194 421.746L56.4522 423.171" stroke="#EB662B" stroke-width="4"/>
<path d="M495.155 538.099C491.988 548.695 491.834 567.599 499.999 570.039C508.163 572.479 523.125 558.001 526.292 547.405C529.459 536.809 521.229 528.761 513.065 526.321C504.9 523.881 498.322 527.503 495.155 538.099Z" fill="#EFECDB"/>
<path d="M524.655 575.22C520.171 565.111 507.996 550.649 500.206 554.104C492.417 557.559 490.464 578.288 494.948 588.397C499.433 598.506 510.918 599.269 518.708 595.814C526.497 592.359 529.14 585.329 524.655 575.22Z" fill="#EFECDB"/>
<path d="M524.317 547.955C513.792 551.349 498.128 561.934 500.743 570.044C503.359 578.153 523.767 582.279 534.292 578.884C544.817 575.49 546.785 564.148 544.17 556.039C541.555 547.929 534.843 544.56 524.317 547.955Z" fill="#EFECDB"/>
<path d="M476.216 565.036C484.411 557.61 501.402 549.322 507.123 555.636C512.845 561.95 506.232 581.693 498.037 589.119C489.842 596.545 479.032 592.588 473.31 586.274C467.589 579.96 468.02 572.462 476.216 565.036Z" fill="#F2EDE1"/>
<path d="M469 562.106C477.987 568.552 495.81 574.855 500.776 567.931C505.743 561.007 496.928 542.144 487.942 535.698C478.955 529.252 468.665 534.412 463.699 541.336C458.733 548.26 460.014 555.66 469 562.106Z" fill="#EFECDB"/>
<path d="M510.803 556.822C509.908 559.001 507.245 560.601 505.801 562.42C504.316 564.291 504.237 561.7 504.232 560.572C504.228 559.812 504.25 559.101 504.279 558.341C504.281 558.308 504.376 560.992 504.269 561.745C503.894 564.375 500.531 559.4 499.921 558.727C499.212 557.944 497.271 555.489 497.723 556.444C498.285 557.629 499.006 558.789 499.851 559.79C501.279 561.48 503.189 562.63 505.288 563.257C507.016 563.774 512.171 565.181 510.597 564.302C509.324 563.592 507.368 563.228 505.964 562.964C505.565 562.889 502.618 562.239 502.416 562.554C501.723 563.639 505.593 567.428 506.086 568.048C506.367 568.402 507.553 569.91 507.547 569.894C507.085 568.706 506.066 567.714 505.348 566.682C504.474 565.425 503.44 564.062 502.263 563.066C501.49 562.41 501.375 564.122 501.219 564.643C500.694 566.401 500.168 568.159 499.643 569.917C499.405 570.714 499.741 568.051 499.795 567.748C499.878 567.288 500.908 563.094 500.723 563.039C500.666 563.022 499.881 564.309 499.775 564.397C498.73 565.264 497.444 565.482 496.234 565.987C495.834 566.153 494.953 566.341 495.618 565.663C496.665 564.597 498.234 564.164 499.465 563.36C500.167 562.902 498.771 562.703 498.508 562.625C497.069 562.195 495.686 562.06 494.309 561.649" stroke="#EA6626" stroke-width="2" stroke-linecap="round"/>
<path d="M878.368 93.7209L698.479 128.565L553.094 210.113L444.381 312.309L388.964 426.375L285.73 509.471L183.407 527.323" stroke="#EB662B" stroke-width="8"/>
<path d="M547.131 209.715C539.239 222.049 532.155 246.057 541.658 252.138C551.162 258.219 575.484 245.242 583.376 232.907C591.269 220.573 583.725 207.329 574.221 201.248C564.718 195.167 555.023 197.381 547.131 209.715Z" fill="#EFECDB"/>
<path d="M571.157 267.719C569.133 253.216 558.903 230.37 547.729 231.93C536.555 233.49 526.515 259.165 528.54 273.668C530.564 288.17 544.907 293.326 556.081 291.766C567.255 290.207 573.181 282.221 571.157 267.719Z" fill="#EFECDB"/>
<path d="M580.662 232.889C566.027 233.374 542.231 241.14 542.605 252.417C542.979 263.693 567.454 276.381 582.089 275.895C596.724 275.41 603.362 261.69 602.988 250.413C602.614 239.137 595.297 232.403 580.662 232.889Z" fill="#EFECDB"/>
<path d="M513.208 237.103C526.346 230.637 550.995 226.277 555.977 236.4C560.959 246.522 545.348 269.244 532.21 275.711C519.072 282.177 506.753 273.202 501.77 263.079C496.788 252.956 500.07 243.569 513.208 237.103Z" fill="#F2EDE1"/>
<path d="M505.09 230.744C514.181 242.224 534.572 256.742 543.417 249.738C552.262 242.734 547.915 215.51 538.825 204.031C529.734 192.551 514.755 195.37 505.91 202.374C497.065 209.378 496 219.265 505.09 230.744Z" fill="#EFECDB"/>
<path d="M560.229 239.252C558.295 241.699 554.322 242.766 551.822 244.554C549.249 246.395 550.094 243.068 550.497 241.631C550.769 240.662 551.057 239.765 551.37 238.808C551.384 238.766 550.527 242.218 550.117 243.137C548.681 246.349 546.213 238.79 545.682 237.711C545.065 236.456 543.488 232.624 543.716 234.004C543.999 235.717 544.495 237.457 545.206 239.038C546.407 241.71 548.42 243.87 550.863 245.433C552.874 246.72 558.924 250.391 557.24 248.698C555.879 247.33 553.521 246.154 551.83 245.306C551.35 245.065 547.835 243.164 547.464 243.492C546.186 244.62 549.731 250.853 550.133 251.823C550.362 252.376 551.322 254.728 551.32 254.705C551.166 253.025 550.229 251.39 549.692 249.815C549.037 247.896 548.217 245.785 547.083 244.087C546.337 242.972 545.567 245.108 545.179 245.715C543.869 247.761 542.56 249.807 541.25 251.854C540.657 252.782 542.055 249.515 542.235 249.149C542.508 248.592 545.347 243.63 545.132 243.492C545.066 243.45 543.596 244.802 543.43 244.875C541.784 245.598 540.067 245.407 538.343 245.609C537.773 245.675 536.583 245.593 537.677 244.973C539.398 243.997 541.553 244.017 543.414 243.443C544.473 243.116 542.769 242.353 542.463 242.158C540.788 241.086 539.077 240.411 537.474 239.385" stroke="#EA6626" stroke-width="2" stroke-linecap="round"/>
<path d="M308.314 339.303C303.689 346.531 299.537 360.601 305.106 364.165C310.676 367.728 324.929 360.123 329.555 352.895C334.18 345.667 329.759 337.905 324.189 334.342C318.62 330.778 312.939 332.075 308.314 339.303Z" fill="#EFECDB"/>
<path d="M322.393 373.296C321.207 364.797 315.212 351.409 308.664 352.323C302.115 353.237 296.232 368.283 297.418 376.782C298.604 385.281 307.01 388.302 313.558 387.388C320.107 386.474 323.579 381.795 322.393 373.296Z" fill="#EFECDB"/>
<path d="M327.963 352.884C319.387 353.169 305.441 357.72 305.661 364.328C305.88 370.936 320.223 378.372 328.799 378.087C337.376 377.803 341.266 369.762 341.047 363.154C340.828 356.546 336.54 352.6 327.963 352.884Z" fill="#EFECDB"/>
<path d="M288.434 355.354C296.133 351.565 310.578 349.01 313.498 354.942C316.418 360.874 307.269 374.19 299.569 377.979C291.87 381.769 284.651 376.509 281.731 370.577C278.811 364.645 280.735 359.144 288.434 355.354Z" fill="#F2EDE1"/>
<path d="M283.677 351.628C289.005 358.355 300.955 366.863 306.138 362.759C311.321 358.654 308.774 342.7 303.447 335.973C298.119 329.245 289.341 330.897 284.158 335.002C278.974 339.106 278.35 344.9 283.677 351.628Z" fill="#EFECDB"/>
<path d="M315.988 356.614C314.855 358.047 312.527 358.673 311.062 359.721C309.554 360.799 310.049 358.85 310.285 358.008C310.445 357.44 310.613 356.914 310.797 356.353C310.805 356.329 310.303 358.352 310.062 358.89C309.221 360.772 307.775 356.343 307.464 355.71C307.102 354.975 306.178 352.729 306.312 353.538C306.477 354.542 306.768 355.562 307.185 356.488C307.889 358.054 309.068 359.32 310.5 360.236C311.679 360.99 315.224 363.141 314.237 362.149C313.439 361.347 312.058 360.659 311.067 360.161C310.785 360.02 308.726 358.906 308.508 359.098C307.759 359.76 309.837 363.412 310.072 363.981C310.206 364.305 310.769 365.683 310.768 365.67C310.677 364.685 310.128 363.727 309.813 362.804C309.43 361.679 308.949 360.442 308.285 359.447C307.847 358.793 307.396 360.046 307.169 360.401C306.401 361.6 305.634 362.799 304.867 363.998C304.519 364.542 305.338 362.628 305.444 362.413C305.603 362.087 307.267 359.179 307.141 359.098C307.103 359.074 306.241 359.866 306.144 359.909C305.179 360.332 304.173 360.22 303.163 360.339C302.829 360.378 302.132 360.33 302.773 359.966C303.781 359.394 305.044 359.406 306.135 359.069C306.755 358.878 305.756 358.431 305.577 358.316C304.596 357.688 303.593 357.292 302.654 356.692" stroke="#EA6626" stroke-width="2" stroke-linecap="round"/>
<path d="M283.37 485.1C278.745 492.328 274.594 506.398 280.163 509.961C285.732 513.525 299.986 505.92 304.611 498.692C309.236 491.463 304.815 483.702 299.246 480.138C293.677 476.575 287.996 477.872 283.37 485.1Z" fill="#EFECDB"/>
<path d="M297.451 519.093C296.264 510.594 290.27 497.205 283.721 498.119C277.173 499.033 271.289 514.08 272.476 522.579C273.662 531.078 282.068 534.099 288.616 533.185C295.164 532.271 298.637 527.592 297.451 519.093Z" fill="#EFECDB"/>
<path d="M303.02 498.681C294.443 498.966 280.498 503.517 280.717 510.125C280.936 516.733 295.28 524.169 303.856 523.884C312.433 523.6 316.323 515.559 316.104 508.951C315.884 502.343 311.597 498.396 303.02 498.681Z" fill="#EFECDB"/>
<path d="M263.49 501.151C271.19 497.362 285.635 494.807 288.554 500.739C291.474 506.671 282.325 519.987 274.626 523.776C266.927 527.566 259.708 522.306 256.788 516.374C253.868 510.442 255.791 504.941 263.49 501.151Z" fill="#F2EDE1"/>
<path d="M258.734 497.425C264.061 504.152 276.011 512.66 281.195 508.555C286.378 504.451 283.831 488.497 278.503 481.77C273.176 475.042 264.398 476.694 259.214 480.799C254.031 484.903 253.407 490.697 258.734 497.425Z" fill="#EFECDB"/>
<path d="M291.045 502.41C289.912 503.844 287.583 504.469 286.118 505.518C284.611 506.596 285.106 504.647 285.342 503.805C285.502 503.236 285.67 502.711 285.854 502.15C285.862 502.125 285.36 504.148 285.119 504.687C284.278 506.569 282.832 502.139 282.52 501.507C282.159 500.772 281.235 498.526 281.368 499.335C281.534 500.339 281.825 501.359 282.241 502.285C282.945 503.851 284.125 505.117 285.556 506.033C286.735 506.787 290.281 508.938 289.294 507.946C288.496 507.144 287.114 506.455 286.123 505.958C285.842 505.817 283.782 504.703 283.565 504.895C282.815 505.556 284.893 509.209 285.128 509.777C285.263 510.102 285.826 511.48 285.824 511.467C285.734 510.482 285.185 509.523 284.87 508.601C284.486 507.476 284.006 506.239 283.341 505.244C282.904 504.59 282.453 505.842 282.225 506.198C281.458 507.397 280.691 508.596 279.923 509.795C279.575 510.339 280.395 508.425 280.5 508.21C280.66 507.884 282.324 504.976 282.198 504.895C282.159 504.871 281.298 505.663 281.201 505.706C280.236 506.129 279.23 506.017 278.219 506.136C277.886 506.175 277.188 506.126 277.829 505.763C278.837 505.191 280.101 505.203 281.191 504.866C281.812 504.675 280.813 504.228 280.634 504.113C279.653 503.485 278.649 503.089 277.71 502.488" stroke="#EA6626" stroke-width="2" stroke-linecap="round"/>
<path d="M63.8977 400.781C59.2726 408.009 55.1212 422.079 60.6904 425.642C66.2597 429.206 80.5134 421.6 85.1386 414.372C89.7637 407.144 85.3426 399.383 79.7734 395.819C74.2041 392.256 68.5229 393.553 63.8977 400.781Z" fill="#EFECDB"/>
<path d="M77.978 434.773C76.7917 426.274 70.7969 412.886 64.2486 413.8C57.7003 414.714 51.8167 429.761 53.003 438.259C54.1893 446.758 62.5949 449.78 69.1432 448.866C75.6915 447.952 79.1643 443.272 77.978 434.773Z" fill="#EFECDB"/>
<path d="M83.5473 414.362C74.9707 414.646 61.0254 419.197 61.2446 425.806C61.4638 432.414 75.8068 439.849 84.3834 439.565C92.96 439.28 96.8501 431.24 96.6309 424.632C96.4117 418.023 92.1239 414.077 83.5473 414.362Z" fill="#EFECDB"/>
<path d="M44.0178 416.832C51.717 413.042 66.1621 410.487 69.0818 416.42C72.0015 422.352 62.8527 435.668 55.1534 439.457C47.4541 443.246 40.2349 437.987 37.3151 432.054C34.3954 426.122 36.3185 420.621 44.0178 416.832Z" fill="#F2EDE1"/>
<path d="M39.2613 413.105C44.5887 419.833 56.5385 428.341 61.7219 424.236C66.9053 420.131 64.3579 404.178 59.0306 397.45C53.7032 390.723 44.9251 392.375 39.7417 396.479C34.5583 400.584 33.934 406.378 39.2613 413.105Z" fill="#EFECDB"/>
<path d="M71.5725 418.091C70.4391 419.525 68.1107 420.15 66.6457 421.198C65.1382 422.277 65.6329 420.327 65.8694 419.485C66.0289 418.917 66.1974 418.392 66.3812 417.831C66.3893 417.806 65.8872 419.829 65.6464 420.368C64.8051 422.25 63.359 417.82 63.0478 417.188C62.6859 416.452 61.7621 414.207 61.8956 415.015C62.0614 416.019 62.352 417.039 62.7686 417.966C63.4726 419.532 64.652 420.797 66.0837 421.714C67.2625 422.468 70.8081 424.619 69.821 423.627C69.0232 422.825 67.6417 422.136 66.6507 421.639C66.3691 421.498 64.3096 420.383 64.0919 420.576C63.3428 421.237 65.4206 424.89 65.6558 425.458C65.79 425.782 66.353 427.16 66.3518 427.147C66.2611 426.162 65.7123 425.204 65.3974 424.281C65.0136 423.157 64.5334 421.92 63.8685 420.925C63.4314 420.271 62.9799 421.523 62.7527 421.878C61.9853 423.078 61.218 424.277 60.4506 425.476C60.1026 426.02 60.9222 424.106 61.0276 423.891C61.1875 423.565 62.8511 420.657 62.725 420.576C62.6865 420.551 61.8254 421.344 61.7279 421.387C60.7632 421.81 59.7572 421.698 58.7468 421.816C58.4128 421.855 57.7156 421.807 58.3565 421.443C59.3648 420.872 60.6279 420.883 61.7185 420.547C62.3392 420.355 61.3404 419.909 61.1614 419.794C60.1799 419.166 59.1766 418.77 58.2375 418.169" stroke="#EA6626" stroke-width="2" stroke-linecap="round"/>
</svg>
