<svg width="777" height="1120" viewBox="0 0 777 1120" fill="none" xmlns="http://www.w3.org/2000/svg">
<path d="M-44.748 517.23L-53.7831 751.763L-6.06072 817.46L8.30593 890.98L97.908 950.014" stroke="#EB662B" stroke-width="4"/>
<path d="M104.492 650.124L165.604 710.935L192.107 792.16L267.873 858.801L311.169 902.49L371.544 908.673" stroke="#EB662B" stroke-width="4"/>
<path d="M635.246 650.191L506.217 636.979L403.309 663.805L317.29 654.997L226.421 676.683" stroke="#EB662B" stroke-width="4"/>
<path d="M-67.1289 136.973L-63.4865 270.21L-75.607 388.575L-82.6749 457.598L27.5142 636.331L202.652 667.522L326.276 715.055L496.485 732.484L571.743 720.592" stroke="#EB662B" stroke-width="10"/>
<path d="M321.301 687.033C315.426 696.467 310.272 714.754 317.54 719.281C324.809 723.808 343.148 713.733 349.024 704.299C354.9 694.865 349.051 684.884 341.783 680.357C334.514 675.83 327.177 677.599 321.301 687.033Z" fill="#EFECDB"/>
<path d="M340.073 730.833C338.402 719.845 330.427 702.601 321.961 703.888C313.495 705.176 306.114 724.755 307.784 735.742C309.455 746.73 320.388 750.51 328.854 749.223C337.32 747.936 341.744 741.821 340.073 730.833Z" fill="#EFECDB"/>
<path d="M346.965 704.31C335.862 704.814 317.874 710.929 318.262 719.483C318.651 728.038 337.343 737.441 348.446 736.937C359.549 736.433 364.459 725.958 364.071 717.404C363.683 708.849 358.067 703.806 346.965 704.31Z" fill="#EFECDB"/>
<path d="M295.81 708.134C305.721 703.105 324.387 699.567 328.262 707.204C332.137 714.84 320.499 732.229 310.588 737.259C300.677 742.288 291.245 735.59 287.37 727.954C283.495 720.317 285.898 713.163 295.81 708.134Z" fill="#F2EDE1"/>
<path d="M289.589 703.383C296.595 712.011 312.205 722.841 318.853 717.443C325.501 712.045 321.95 691.425 314.944 682.797C307.939 674.169 296.597 676.446 289.949 681.844C283.301 687.242 282.584 694.755 289.589 703.383Z" fill="#EFECDB"/>
<path d="M331.515 709.329C330.07 711.203 327.065 712.05 325.184 713.431C323.249 714.851 323.858 712.319 324.151 711.224C324.349 710.486 324.559 709.803 324.788 709.074C324.798 709.042 324.18 711.669 323.877 712.371C322.817 714.822 320.874 709.108 320.461 708.294C319.981 707.347 318.749 704.453 318.935 705.498C319.165 706.796 319.558 708.112 320.112 709.306C321.048 711.323 322.596 712.943 324.464 714.107C326.003 715.065 330.628 717.794 329.334 716.525C328.289 715.499 326.489 714.629 325.197 714.001C324.83 713.823 322.146 712.412 321.867 712.665C320.907 713.533 323.656 718.231 323.969 718.963C324.148 719.38 324.899 721.157 324.897 721.139C324.764 719.865 324.038 718.633 323.616 717.443C323.101 715.993 322.46 714.398 321.583 713.12C321.007 712.28 320.442 713.909 320.153 714.373C319.178 715.938 318.203 717.503 317.228 719.068C316.786 719.778 317.818 717.286 317.951 717.006C318.153 716.582 320.261 712.789 320.097 712.686C320.046 712.655 318.944 713.695 318.818 713.752C317.575 714.316 316.271 714.187 314.964 714.356C314.532 714.412 313.628 714.36 314.453 713.879C315.75 713.123 317.386 713.118 318.793 712.665C319.593 712.407 318.293 711.844 318.059 711.699C316.778 710.901 315.473 710.404 314.247 709.641" stroke="#EA6626" stroke-width="2" stroke-linecap="round"/>
<path d="M382.138 914.34C377.594 916.487 371.157 922.175 372.811 925.676C374.465 929.177 383.903 929.839 388.446 927.692C392.99 925.545 393.211 920.319 391.557 916.819C389.903 913.318 386.681 912.194 382.138 914.34Z" fill="#EFECDB"/>
<path d="M378.545 935.585C380.601 930.999 381.793 922.492 378.26 920.908C374.727 919.324 367.127 924.958 365.071 929.543C363.015 934.129 366.245 938.243 369.778 939.827C373.311 941.411 376.489 940.17 378.545 935.585Z" fill="#EFECDB"/>
<path d="M387.661 927.192C383.317 924.664 374.983 922.583 373.036 925.93C371.088 929.276 375.89 937.428 380.234 939.955C384.577 942.482 389.009 939.704 390.956 936.358C392.903 933.011 392.004 929.719 387.661 927.192Z" fill="#EFECDB"/>
<path d="M367.282 916.117C372.28 916.633 380.241 919.86 379.844 923.711C379.447 927.563 370.765 931.322 365.766 930.806C360.768 930.291 358.823 925.435 359.22 921.584C359.618 917.732 362.283 915.602 367.282 916.117Z" fill="#F2EDE1"/>
<path d="M366.081 912.788C366.63 917.783 369.911 925.722 373.76 925.299C377.609 924.875 381.309 916.168 380.759 911.173C380.209 906.178 375.341 904.266 371.492 904.69C367.644 905.113 365.531 907.793 366.081 912.788Z" fill="#EFECDB"/>
<path d="M380.56 925.316C379.552 925.675 378.202 925.26 377.149 925.325C376.066 925.391 376.918 924.577 377.297 924.233C377.553 924.001 377.8 923.793 378.066 923.572C378.078 923.562 377.199 924.409 376.912 924.602C375.909 925.274 376.57 922.626 376.612 922.215C376.662 921.738 376.902 920.337 376.717 920.779C376.487 921.329 376.314 921.925 376.232 922.515C376.094 923.511 376.285 924.505 376.71 925.405C377.06 926.146 378.15 928.316 377.969 927.517C377.823 926.871 377.352 926.1 377.015 925.545C376.919 925.387 376.244 924.193 376.076 924.221C375.499 924.316 375.393 926.775 375.333 927.13C375.299 927.332 375.149 928.191 375.153 928.184C375.414 927.668 375.44 927.021 375.571 926.466C375.73 925.788 375.877 925.025 375.857 924.325C375.843 923.864 375.23 924.345 375.007 924.451C374.253 924.807 373.499 925.163 372.745 925.519C372.403 925.681 373.406 924.986 373.525 924.912C373.705 924.8 375.436 923.875 375.398 923.796C375.387 923.772 374.713 923.897 374.651 923.888C374.041 923.798 373.577 923.429 373.039 923.173C372.861 923.089 372.53 922.848 372.961 922.867C373.639 922.897 374.262 923.296 374.908 923.468C375.275 923.566 374.919 923.034 374.866 922.921C374.574 922.304 374.2 921.796 373.921 921.206" stroke="#EA6626" stroke-width="2" stroke-linecap="round"/>
<path d="M279.991 899.271C275.448 901.418 269.011 907.106 270.665 910.607C272.319 914.107 281.756 914.769 286.3 912.623C290.843 910.476 291.065 905.25 289.411 901.749C287.757 898.248 284.535 897.124 279.991 899.271Z" fill="#EFECDB"/>
<path d="M276.399 920.515C278.455 915.93 279.647 907.423 276.114 905.839C272.581 904.255 264.98 909.889 262.924 914.474C260.868 919.059 264.098 923.174 267.631 924.758C271.164 926.342 274.343 925.101 276.399 920.515Z" fill="#EFECDB"/>
<path d="M285.514 912.122C281.171 909.595 272.837 907.514 270.889 910.86C268.942 914.207 273.744 922.358 278.087 924.886C282.43 927.413 286.862 924.635 288.809 921.288C290.757 917.942 289.858 914.65 285.514 912.122Z" fill="#EFECDB"/>
<path d="M265.135 901.048C270.134 901.564 278.095 904.791 277.698 908.642C277.3 912.494 268.618 916.253 263.62 915.737C258.621 915.221 256.676 910.366 257.074 906.514C257.471 902.663 260.137 900.532 265.135 901.048Z" fill="#F2EDE1"/>
<path d="M263.934 897.719C264.484 902.714 267.765 910.653 271.613 910.229C275.462 909.806 279.162 901.099 278.613 896.104C278.063 891.109 273.194 889.197 269.346 889.62C265.497 890.044 263.385 892.724 263.934 897.719Z" fill="#EFECDB"/>
<path d="M278.414 910.247C277.406 910.605 276.056 910.191 275.003 910.255C273.92 910.321 274.772 909.508 275.151 909.164C275.407 908.932 275.654 908.723 275.92 908.502C275.931 908.493 275.053 909.34 274.766 909.532C273.763 910.204 274.424 907.557 274.466 907.146C274.515 906.669 274.756 905.267 274.57 905.71C274.34 906.26 274.167 906.856 274.085 907.445C273.947 908.441 274.139 909.436 274.564 910.336C274.914 911.077 276.004 913.247 275.823 912.448C275.676 911.802 275.205 911.03 274.868 910.475C274.773 910.318 274.098 909.124 273.93 909.152C273.352 909.247 273.247 911.705 273.187 912.06C273.152 912.263 273.003 913.122 273.006 913.115C273.268 912.598 273.294 911.952 273.424 911.396C273.584 910.719 273.731 909.956 273.71 909.255C273.697 908.795 273.083 909.276 272.86 909.381C272.106 909.737 271.353 910.094 270.599 910.45C270.257 910.611 271.259 909.917 271.378 909.843C271.559 909.731 273.289 908.806 273.252 908.726C273.24 908.702 272.566 908.828 272.505 908.818C271.894 908.728 271.43 908.36 270.892 908.104C270.714 908.02 270.383 907.779 270.815 907.798C271.493 907.828 272.116 908.227 272.761 908.399C273.129 908.497 272.772 907.965 272.719 907.852C272.428 907.235 272.053 906.727 271.774 906.136" stroke="#EA6626" stroke-width="2" stroke-linecap="round"/>
<path d="M255.292 831.073C250.749 833.22 244.311 838.908 245.965 842.408C247.619 845.909 257.057 846.571 261.601 844.424C266.144 842.278 266.366 837.052 264.712 833.551C263.058 830.05 259.836 828.926 255.292 831.073Z" fill="#EFECDB"/>
<path d="M251.7 852.317C253.756 847.732 254.947 839.225 251.414 837.641C247.881 836.057 240.281 841.69 238.225 846.276C236.169 850.861 239.399 854.975 242.932 856.559C246.465 858.144 249.644 856.903 251.7 852.317Z" fill="#EFECDB"/>
<path d="M260.815 843.924C256.472 841.397 248.137 839.316 246.19 842.662C244.243 846.008 249.045 854.16 253.388 856.687C257.731 859.215 262.163 856.436 264.11 853.09C266.058 849.743 265.158 846.452 260.815 843.924Z" fill="#EFECDB"/>
<path d="M240.436 832.85C245.435 833.366 253.396 836.593 252.998 840.444C252.601 844.295 243.919 848.055 238.921 847.539C233.922 847.023 231.977 842.168 232.374 838.316C232.772 834.465 235.437 832.334 240.436 832.85Z" fill="#F2EDE1"/>
<path d="M239.235 829.521C239.785 834.516 243.066 842.455 246.914 842.031C250.763 841.608 254.463 832.9 253.913 827.905C253.364 822.911 248.495 820.999 244.646 821.422C240.798 821.846 238.685 824.526 239.235 829.521Z" fill="#EFECDB"/>
<path d="M253.715 842.048C252.706 842.407 251.357 841.993 250.304 842.057C249.22 842.123 250.072 841.31 250.452 840.966C250.708 840.733 250.955 840.525 251.22 840.304C251.232 840.294 250.354 841.142 250.067 841.334C249.063 842.006 249.724 839.358 249.767 838.948C249.816 838.47 250.057 837.069 249.871 837.512C249.641 838.061 249.468 838.658 249.386 839.247C249.248 840.243 249.439 841.238 249.865 842.138C250.215 842.879 251.305 845.049 251.123 844.25C250.977 843.604 250.506 842.832 250.169 842.277C250.073 842.119 249.398 840.926 249.231 840.953C248.653 841.049 248.547 843.507 248.487 843.862C248.453 844.065 248.303 844.924 248.307 844.917C248.568 844.4 248.594 843.754 248.725 843.198C248.885 842.521 249.031 841.758 249.011 841.057C248.998 840.597 248.384 841.078 248.161 841.183C247.407 841.539 246.653 841.895 245.899 842.252C245.558 842.413 246.56 841.718 246.679 841.645C246.86 841.533 248.59 840.608 248.552 840.528C248.541 840.504 247.867 840.629 247.806 840.62C247.195 840.53 246.731 840.161 246.193 839.906C246.015 839.821 245.684 839.58 246.115 839.599C246.793 839.629 247.416 840.028 248.062 840.201C248.43 840.299 248.073 839.766 248.02 839.654C247.729 839.037 247.354 838.528 247.075 837.938" stroke="#EA6626" stroke-width="2" stroke-linecap="round"/>
<path d="M101.991 940.623C97.1018 941.783 89.6267 946.015 90.5203 949.782C91.414 953.55 100.51 956.151 105.4 954.991C110.289 953.831 111.588 948.764 110.694 944.997C109.8 941.23 106.881 939.463 101.991 940.623Z" fill="#EFECDB"/>
<path d="M94.0799 960.663C97.0404 956.603 99.9672 948.527 96.8386 946.246C93.71 943.965 85.1081 947.903 82.1477 951.964C79.1872 956.024 81.4954 960.718 84.624 962.999C87.7526 965.28 91.1195 964.724 94.0799 960.663Z" fill="#EFECDB"/>
<path d="M104.735 954.338C101.009 950.967 93.2862 947.205 90.6884 950.076C88.0905 952.947 91.1012 961.916 94.8273 965.288C98.5534 968.66 103.464 966.859 106.062 963.988C108.66 961.117 108.461 957.71 104.735 954.338Z" fill="#EFECDB"/>
<path d="M87.0894 939.286C91.873 940.825 98.9937 945.63 97.8078 949.316C96.6219 953.001 87.35 954.882 82.5664 953.343C77.7828 951.804 76.885 946.651 78.0709 942.965C79.2568 939.279 82.3058 937.747 87.0894 939.286Z" fill="#F2EDE1"/>
<path d="M86.604 935.78C86.1079 940.781 87.6745 949.227 91.5275 949.609C95.3804 949.991 100.803 942.239 101.299 937.238C101.795 932.237 97.4274 929.359 93.5745 928.977C89.7216 928.595 87.1002 930.779 86.604 935.78Z" fill="#EFECDB"/>
<path d="M98.1754 951.033C97.1146 951.176 95.8799 950.491 94.8365 950.336C93.7628 950.176 94.7648 949.557 95.2071 949.299C95.5055 949.124 95.7903 948.972 96.096 948.81C96.1095 948.803 95.0746 949.45 94.754 949.579C93.6336 950.029 94.8282 947.576 94.9547 947.183C95.1017 946.726 95.627 945.404 95.354 945.799C95.0151 946.289 94.7222 946.837 94.5204 947.397C94.1793 948.342 94.1605 949.355 94.3902 950.324C94.5794 951.121 95.1963 953.47 95.1846 952.65C95.1752 951.988 94.874 951.136 94.6593 950.523C94.5982 950.349 94.1849 949.042 94.015 949.034C93.4304 949.007 92.8181 951.391 92.6857 951.726C92.6103 951.917 92.2862 952.726 92.2911 952.72C92.6538 952.269 92.8129 951.642 93.056 951.125C93.3522 950.496 93.6537 949.779 93.7788 949.09C93.8611 948.637 93.1612 948.98 92.921 949.037C92.1098 949.229 91.2985 949.422 90.4873 949.614C90.1194 949.702 91.2438 949.229 91.3756 949.182C91.5755 949.11 93.4598 948.563 93.4395 948.478C93.4334 948.451 92.7482 948.435 92.6898 948.413C92.1113 948.198 91.7334 947.742 91.26 947.38C91.1035 947.261 90.8296 946.957 91.2474 947.064C91.9047 947.234 92.4316 947.753 93.0277 948.056C93.3669 948.228 93.1283 947.633 93.0996 947.512C92.9421 946.848 92.681 946.273 92.5303 945.638" stroke="#EA6626" stroke-width="2" stroke-linecap="round"/>
<path d="M29.1178 592.94C21.819 604.659 15.4165 627.375 24.4461 632.999C33.4757 638.623 56.2573 626.108 63.5562 614.388C70.855 602.669 63.5901 590.27 54.5605 584.646C45.5309 579.022 36.4166 581.221 29.1178 592.94Z" fill="#EFECDB"/>
<path d="M52.4346 647.349C50.3592 633.699 40.4522 612.278 29.9354 613.877C19.4187 615.476 10.2488 639.798 12.3242 653.447C14.3995 667.097 27.9814 671.793 38.4981 670.194C49.0149 668.595 54.5099 660.998 52.4346 647.349Z" fill="#EFECDB"/>
<path d="M60.9952 614.402C47.2031 615.028 24.8576 622.623 25.3401 633.25C25.8225 643.877 49.0431 655.557 62.8352 654.931C76.6273 654.305 82.7277 641.293 82.2453 630.667C81.7629 620.04 74.7873 613.775 60.9952 614.402Z" fill="#EFECDB"/>
<path d="M-2.55102 619.151C9.76089 612.904 32.9494 608.51 37.763 617.996C42.5766 627.482 28.1198 649.084 15.8079 655.331C3.49594 661.579 -8.22149 653.259 -13.0351 643.773C-17.8487 634.286 -14.8629 625.399 -2.55102 619.151Z" fill="#F2EDE1"/>
<path d="M-10.2762 613.25C-1.57369 623.968 17.8179 637.421 26.0762 630.716C34.3345 624.011 29.923 598.395 21.2205 587.677C12.518 576.959 -1.57147 579.788 -9.82978 586.494C-18.0881 593.199 -18.9787 602.532 -10.2762 613.25Z" fill="#EFECDB"/>
<path d="M41.8047 620.637C40.0096 622.966 36.2759 624.017 33.9396 625.733C31.5356 627.497 32.2932 624.351 32.6571 622.992C32.9026 622.075 33.1634 621.226 33.448 620.32C33.4606 620.28 32.6924 623.545 32.3158 624.416C30.9992 627.46 28.5858 620.362 28.0727 619.351C27.4761 618.175 25.9459 614.58 26.1765 615.879C26.4629 617.491 26.9505 619.126 27.6389 620.608C28.8022 623.114 30.7244 625.127 33.0456 626.572C34.9569 627.763 40.7031 631.153 39.0956 629.577C37.7965 628.302 35.5605 627.222 33.9564 626.441C33.5006 626.22 30.1654 624.467 29.8189 624.781C28.6268 625.86 32.0412 631.695 32.4308 632.605C32.653 633.124 33.5859 635.33 33.5836 635.309C33.4184 633.726 32.5167 632.195 31.9919 630.717C31.3524 628.915 30.5555 626.934 29.4664 625.347C28.7504 624.303 28.0487 626.327 27.69 626.903C26.4791 628.847 25.2681 630.791 24.0572 632.736C23.508 633.618 24.789 630.522 24.9543 630.174C25.2051 629.647 27.8245 624.935 27.62 624.808C27.5575 624.769 26.1877 626.061 26.0317 626.132C24.4881 626.832 22.8674 626.671 21.2442 626.882C20.7078 626.951 19.5851 626.887 20.6091 626.29C22.22 625.35 24.2523 625.344 26.0001 624.781C26.9949 624.461 25.3793 623.762 25.0892 623.581C23.4978 622.59 21.876 621.972 20.3534 621.024" stroke="#EA6626" stroke-width="2" stroke-linecap="round"/>
<path d="M-4.97643 809.735C-7.79123 814.254 -10.2604 823.015 -6.77806 825.184C-3.29577 827.353 5.49003 822.526 8.30483 818.007C11.1196 813.487 8.31793 808.705 4.83564 806.536C1.35335 804.368 -2.16162 805.215 -4.97643 809.735Z" fill="#EFECDB"/>
<path d="M4.01715 830.718C3.21679 825.454 -0.603882 817.193 -4.6597 817.81C-8.71553 818.427 -12.2519 827.806 -11.4515 833.07C-10.6512 838.334 -5.41329 840.145 -1.35746 839.529C2.69836 838.912 4.81751 835.982 4.01715 830.718Z" fill="#EFECDB"/>
<path d="M7.31816 818.012C1.9992 818.254 -6.61839 821.183 -6.43234 825.281C-6.24629 829.379 2.70879 833.884 8.02775 833.643C13.3467 833.401 15.6994 828.383 15.5133 824.285C15.3273 820.187 12.6371 817.771 7.31816 818.012Z" fill="#EFECDB"/>
<path d="M-17.1895 819.843C-12.4414 817.434 -3.49866 815.739 -1.64228 819.398C0.214107 823.056 -5.36121 831.387 -10.1093 833.796C-14.8575 836.206 -19.3763 832.997 -21.2327 829.339C-23.0891 825.68 -21.9376 822.253 -17.1895 819.843Z" fill="#F2EDE1"/>
<path d="M-20.1677 817.567C-16.8116 821.701 -9.33316 826.889 -6.14832 824.303C-2.96349 821.717 -4.66479 811.839 -8.02093 807.705C-11.3771 803.572 -16.8107 804.663 -19.9956 807.249C-23.1804 809.835 -23.5239 813.434 -20.1677 817.567Z" fill="#EFECDB"/>
<path d="M-0.0823006 820.416C-0.774592 821.314 -2.2145 821.72 -3.1155 822.381C-4.04259 823.062 -3.75044 821.848 -3.61009 821.324C-3.51541 820.97 -3.41484 820.643 -3.30506 820.294C-3.30021 820.278 -3.59646 821.537 -3.74173 821.873C-4.24945 823.047 -5.18021 820.31 -5.37806 819.92C-5.60816 819.466 -6.19829 818.08 -6.10934 818.581C-5.99892 819.203 -5.81086 819.833 -5.54539 820.405C-5.09674 821.371 -4.35545 822.147 -3.46026 822.705C-2.72318 823.164 -0.507122 824.472 -1.12706 823.864C-1.62808 823.372 -2.4904 822.955 -3.10901 822.654C-3.2848 822.569 -4.57101 821.893 -4.70464 822.014C-5.16439 822.43 -3.84761 824.681 -3.69737 825.031C-3.61169 825.231 -3.25191 826.082 -3.25277 826.074C-3.31648 825.464 -3.66422 824.873 -3.86661 824.303C-4.11326 823.608 -4.42056 822.845 -4.84059 822.232C-5.11672 821.83 -5.38734 822.61 -5.52565 822.832C-5.99266 823.582 -6.45966 824.332 -6.92667 825.082C-7.13848 825.422 -6.64443 824.228 -6.58068 824.094C-6.48397 823.891 -5.47381 822.074 -5.55267 822.025C-5.57676 822.01 -6.10502 822.508 -6.16518 822.535C-6.76051 822.805 -7.38551 822.743 -8.01149 822.824C-8.21836 822.851 -8.65134 822.826 -8.25642 822.596C-7.63518 822.233 -6.85144 822.231 -6.17736 822.014C-5.79373 821.891 -6.41679 821.621 -6.52867 821.551C-7.14241 821.169 -7.76787 820.931 -8.35504 820.565" stroke="#EA6626" stroke-width="2" stroke-linecap="round"/>
<path d="M419.188 641.392C415.651 647.07 412.549 658.077 416.924 660.802C421.299 663.526 432.338 657.462 435.874 651.784C439.411 646.106 435.891 640.098 431.516 637.373C427.14 634.648 422.724 635.713 419.188 641.392Z" fill="#EFECDB"/>
<path d="M430.487 667.755C429.482 661.141 424.682 650.762 419.586 651.537C414.49 652.311 410.047 664.096 411.052 670.71C412.058 677.323 418.639 679.599 423.735 678.824C428.831 678.049 431.493 674.368 430.487 667.755Z" fill="#EFECDB"/>
<path d="M434.636 651.791C427.953 652.094 417.126 655.774 417.359 660.923C417.593 666.073 428.844 671.732 435.527 671.429C442.21 671.125 445.166 664.821 444.932 659.672C444.698 654.523 441.318 651.487 434.636 651.791Z" fill="#EFECDB"/>
<path d="M403.845 654.092C409.811 651.065 421.046 648.936 423.379 653.532C425.711 658.129 418.706 668.595 412.741 671.623C406.775 674.65 401.097 670.618 398.765 666.022C396.433 661.425 397.879 657.119 403.845 654.092Z" fill="#F2EDE1"/>
<path d="M400.1 651.233C404.317 656.426 413.713 662.945 417.714 659.696C421.716 656.447 419.578 644.035 415.362 638.842C411.145 633.648 404.318 635.019 400.317 638.268C396.315 641.517 395.884 646.039 400.1 651.233Z" fill="#EFECDB"/>
<path d="M425.337 654.812C424.468 655.941 422.658 656.45 421.526 657.281C420.362 658.136 420.729 656.612 420.905 655.953C421.024 655.509 421.15 655.098 421.288 654.659C421.294 654.639 420.922 656.221 420.74 656.643C420.102 658.118 418.932 654.679 418.684 654.189C418.395 653.619 417.653 651.877 417.765 652.507C417.904 653.288 418.14 654.08 418.474 654.798C419.037 656.012 419.969 656.988 421.093 657.688C422.019 658.265 424.804 659.908 424.025 659.144C423.395 658.526 422.312 658.003 421.535 657.625C421.314 657.517 419.698 656.668 419.53 656.82C418.952 657.343 420.607 660.17 420.795 660.611C420.903 660.862 421.355 661.931 421.354 661.921C421.274 661.154 420.837 660.412 420.583 659.696C420.273 658.823 419.887 657.863 419.359 657.094C419.012 656.589 418.672 657.569 418.498 657.848C417.912 658.79 417.325 659.732 416.738 660.674C416.472 661.102 417.093 659.602 417.173 659.433C417.294 659.178 418.563 656.895 418.464 656.833C418.434 656.814 417.77 657.44 417.695 657.475C416.947 657.814 416.162 657.736 415.375 657.838C415.115 657.871 414.571 657.841 415.067 657.551C415.848 657.096 416.833 657.093 417.68 656.82C418.162 656.665 417.379 656.326 417.238 656.239C416.467 655.758 415.681 655.459 414.943 655" stroke="#EA6626" stroke-width="2" stroke-linecap="round"/>
<path d="M573.703 629.258C570.453 634.476 567.602 644.59 571.623 647.094C575.643 649.598 585.786 644.026 589.036 638.808C592.286 633.59 589.051 628.069 585.031 625.565C581.011 623.061 576.952 624.04 573.703 629.258Z" fill="#EFECDB"/>
<path d="M584.085 653.484C583.161 647.406 578.75 637.869 574.068 638.581C569.385 639.293 565.302 650.122 566.226 656.199C567.15 662.276 573.198 664.367 577.88 663.655C582.563 662.943 585.009 659.561 584.085 653.484Z" fill="#EFECDB"/>
<path d="M587.895 638.814C581.754 639.093 571.805 642.475 572.02 647.207C572.234 651.938 582.573 657.139 588.714 656.86C594.855 656.581 597.571 650.788 597.356 646.056C597.142 641.325 594.036 638.536 587.895 638.814Z" fill="#EFECDB"/>
<path d="M559.602 640.929C565.084 638.147 575.409 636.191 577.552 640.414C579.695 644.638 573.258 654.256 567.776 657.038C562.295 659.819 557.078 656.115 554.934 651.891C552.791 647.667 554.12 643.71 559.602 640.929Z" fill="#F2EDE1"/>
<path d="M556.162 638.302C560.037 643.074 568.671 649.064 572.348 646.079C576.025 643.093 574.061 631.688 570.186 626.916C566.311 622.143 560.038 623.403 556.361 626.389C552.684 629.374 552.288 633.53 556.162 638.302Z" fill="#EFECDB"/>
<path d="M579.351 641.59C578.552 642.627 576.889 643.095 575.849 643.859C574.779 644.645 575.116 643.244 575.278 642.639C575.387 642.231 575.503 641.853 575.63 641.449C575.636 641.432 575.294 642.885 575.126 643.273C574.54 644.628 573.465 641.468 573.237 641.018C572.971 640.494 572.29 638.894 572.393 639.472C572.52 640.19 572.737 640.918 573.044 641.578C573.562 642.693 574.417 643.589 575.451 644.233C576.302 644.763 578.86 646.273 578.145 645.571C577.566 645.003 576.571 644.522 575.857 644.175C575.654 644.076 574.169 643.296 574.014 643.435C573.484 643.916 575.004 646.514 575.177 646.919C575.276 647.15 575.692 648.132 575.691 648.123C575.617 647.418 575.216 646.737 574.982 646.078C574.697 645.276 574.342 644.394 573.857 643.687C573.539 643.223 573.226 644.124 573.066 644.38C572.527 645.246 571.988 646.112 571.449 646.977C571.204 647.37 571.775 645.992 571.848 645.837C571.96 645.602 573.126 643.504 573.035 643.447C573.007 643.43 572.398 644.005 572.328 644.037C571.641 644.349 570.919 644.277 570.196 644.371C569.958 644.402 569.458 644.373 569.914 644.107C570.631 643.689 571.536 643.686 572.314 643.436C572.757 643.293 572.038 642.982 571.908 642.901C571.2 642.46 570.478 642.185 569.8 641.763" stroke="#EA6626" stroke-width="2" stroke-linecap="round"/>
</svg>
