<svg width="670" height="117" viewBox="0 0 670 117" fill="none" xmlns="http://www.w3.org/2000/svg">
<g clip-path="url(#clip0_400_35)">
<rect x="0.866211" width="669.082" height="116.65" rx="58.3248" fill="#EFECDB"/>
<path d="M23.5536 114.954C20.2624 115.452 17.4934 115 17.0679 113.896L4.25869 80.6475C3.47162 78.6046 10.5945 76.1535 15.1555 76.8979L127.053 95.16C131.614 95.9044 128.73 99.0473 122.642 99.9682L23.5536 114.954Z" fill="#EFECDB"/>
<path d="M646.126 111.882C649.417 112.38 652.186 111.928 652.612 110.824L665.421 77.5754C666.208 75.5324 659.085 73.0813 654.524 73.8257L542.627 92.0879C538.066 92.8322 540.949 95.9752 547.038 96.896L646.126 111.882Z" fill="#EFECDB"/>
</g>
<defs>
<clipPath id="clip0_400_35">
<rect width="670" height="117" fill="white"/>
</clipPath>
</defs>
</svg>
