<svg width="1255" height="233" viewBox="0 0 1255 233" fill="none" xmlns="http://www.w3.org/2000/svg">
<path d="M1206.34 20.1504C1219.41 20.1504 1229.33 12.5272 1230.06 3.08903L1250.14 6.71911C1247.24 28.1366 1226.31 38.6639 1206.34 38.6639C1191.09 38.6639 1169.07 32.8557 1163.26 5.63008L1182.14 2C1185.41 16.1573 1195.09 20.1504 1206.34 20.1504ZM1233.2 58.1453L1252.44 58.2663C1252.44 58.2663 1252.08 102.795 1252.08 130.868C1252.08 150.591 1252.32 168.621 1253.05 182.294H1234.05C1232.96 161.603 1232.96 153.375 1232.96 130.868C1232.96 120.22 1233.69 94.3251 1233.69 94.3251C1217.59 123.124 1192.18 159.667 1176.94 181.931L1157.7 182.415V58.5083H1176.94C1176.94 74.8437 1176.33 120.583 1176.33 150.107C1198.48 118.889 1212.15 91.7841 1233.2 58.1453Z" stroke="#EB662B" stroke-width="3"/>
<path d="M1104.94 58.1455L1124.18 58.2665C1124.18 58.2665 1123.82 102.796 1123.82 130.868C1123.82 150.592 1124.06 168.621 1124.78 182.294H1105.79C1104.7 161.603 1104.7 153.375 1104.7 130.868C1104.7 120.22 1105.42 94.3254 1105.42 94.3254C1089.33 123.124 1063.92 159.667 1048.67 181.931L1029.43 182.415V58.5085H1048.67C1048.67 74.8439 1048.07 120.583 1048.07 150.108C1070.21 118.889 1083.89 91.7843 1104.94 58.1455Z" stroke="#EB662B" stroke-width="3"/>
<path d="M912.788 163.418H937.594L937.715 58.1455H956.47L956.349 163.418H981.155L981.397 58.1455H1000.15L1000.03 162.692L1012.98 162.934C1012.86 166.201 1012.74 169.589 1012.74 173.219C1012.74 187.377 1013.7 203.591 1015.52 213.755L998.337 216.296C996.885 207.826 996.159 196.573 996.038 181.568H980.913L893.912 181.689L894.275 58.1455H912.788V163.418Z" stroke="#EB662B" stroke-width="3"/>
<path d="M839.823 164.628C852.045 164.628 860.273 150.591 860.273 123.85C860.273 88.3958 852.892 74.8435 841.034 74.8435C827.118 74.8435 819.979 91.2999 819.979 124.455C819.979 151.559 828.691 164.628 839.823 164.628ZM841.881 56.3301C868.864 56.3301 879.391 81.3777 879.391 123.729C879.391 153.495 868.985 183.141 837.766 183.141C818.648 183.141 804.249 168.863 801.224 127.843H782.71V181.568H763.471L763.834 58.0241H782.831V109.571H800.861C802.313 88.2748 811.146 56.3301 841.881 56.3301Z" stroke="#EB662B" stroke-width="3"/>
<path d="M658.562 143.936C658.562 156.642 665.338 163.902 676.591 163.902C702.002 163.902 714.707 144.783 717.853 139.822V128.327C710.956 124.092 702.002 120.583 689.417 120.583C672.961 120.704 658.562 129.658 658.562 143.936ZM736.85 143.089C736.85 147.324 736.85 158.578 738.423 160.635C739.997 162.813 744.474 165.596 747.983 168.379L737.939 182.778C731.647 177.938 724.387 174.913 722.209 162.692C712.771 171.767 700.429 182.294 676.591 182.294C655.9 182.294 639.685 165.233 639.685 145.146C639.685 135.95 643.315 125.181 650.454 117.8C661.95 106.062 674.171 103.158 688.449 103.158C703.696 103.158 711.319 105.336 717.853 109.329C717.853 86.4599 709.504 75.4487 688.933 75.4487C672.235 75.4487 664.612 79.0788 654.932 96.3822L639.201 86.4599C650.817 64.4374 667.032 57.1772 688.691 57.1772C717.974 57.1772 736.85 75.9327 736.85 103.158V143.089Z" stroke="#EB662B" stroke-width="3"/>
<path d="M552.32 182.657V76.9009C528.362 76.9009 517.472 77.0219 508.275 77.0219V58.2665C523.038 58.2665 577.973 58.1455 600.722 58.1455C609.555 58.1455 615.484 59.5975 617.662 59.9605L613.669 78.353C613.669 78.353 606.167 76.9009 600.117 76.9009H571.681V182.657H552.32Z" stroke="#EB662B" stroke-width="3"/>
<path d="M452.856 155.553C460.721 148.171 463.626 135.345 463.626 117.437V115.259C463.383 92.9942 455.639 75.3278 434.222 75.3278C409.053 75.3278 401.551 95.2933 401.551 124.818C401.551 148.413 412.078 162.692 432.286 162.692C441.482 162.571 446.806 160.635 452.856 155.553ZM432.044 181.447C399.131 181.326 382.433 159.304 382.433 125.423C382.433 90.0901 394.775 56.6934 430.108 56.6934C453.945 56.6934 467.256 65.0426 475.726 81.0149C480.687 90.5741 482.865 104.247 482.865 115.864C482.865 150.35 471.249 181.447 432.286 181.447H432.044Z" stroke="#EB662B" stroke-width="3"/>
<path d="M324.594 155.553C332.459 148.172 335.363 136.797 335.363 120.825V118.647C335.121 96.3824 327.377 81.0151 305.959 81.0151C294.464 81.0151 273.288 89.2433 273.288 120.583C273.288 148.051 283.816 162.692 304.023 162.692C313.219 162.571 318.543 160.635 324.594 155.553ZM274.498 77.022C283.09 66.7368 296.158 62.3806 310.678 62.3806C325.925 62.3806 338.993 69.8828 347.463 85.8552C352.424 95.4144 354.602 107.636 354.602 119.252C354.602 150.592 342.986 181.447 304.023 181.447H303.781C270.868 181.326 254.17 170.92 254.17 103.401C254.17 46.4083 267.601 24.7488 308.742 20.6347C334.032 18.0936 337.178 15.0685 345.648 8.17139L354.844 23.9018C347.1 29.7099 339.356 36.244 310.436 38.1801C283.816 39.9951 274.982 54.8785 274.498 77.022Z" stroke="#EB662B" stroke-width="3"/>
<path d="M145.509 143.936C145.509 156.642 152.285 163.902 163.538 163.902C188.949 163.902 201.654 144.783 204.8 139.822V128.327C197.903 124.092 188.949 120.583 176.365 120.583C159.908 120.704 145.509 129.658 145.509 143.936ZM223.798 143.089C223.798 147.324 223.798 158.578 225.371 160.635C226.944 162.813 231.421 165.596 234.93 168.379L224.887 182.778C218.595 177.938 211.334 174.913 209.156 162.692C199.718 171.767 187.376 182.294 163.538 182.294C142.847 182.294 126.632 165.233 126.632 145.146C126.632 135.95 130.263 125.181 137.402 117.8C148.897 106.062 161.118 103.158 175.397 103.158C190.643 103.158 198.266 105.336 204.8 109.329C204.8 86.4599 196.451 75.4487 175.881 75.4487C159.182 75.4487 151.559 79.0788 141.879 96.3822L126.148 86.4599C137.765 64.4374 153.979 57.1772 175.639 57.1772C204.921 57.1772 223.798 75.9327 223.798 103.158V143.089Z" stroke="#EB662B" stroke-width="3"/>
<path d="M81.2568 117.8C81.2568 93.115 74.7227 77.7477 54.1522 77.7477C37.5748 77.7477 31.7667 83.3138 23.1755 97.1081V149.865C29.4676 156.036 36.3648 163.66 47.3761 163.66C67.0995 163.66 81.2568 152.043 81.2568 117.8ZM4.29905 92.147V89.2429C4.29905 79.1997 3.21003 68.7934 2 60.8073L21.8445 58.3872C22.4495 62.2593 23.0545 64.9214 23.1755 70.0035C30.7987 63.2273 40.4789 58.9922 54.0312 58.9922C87.307 58.9922 100.254 83.0718 100.254 115.501C100.254 156.157 84.7659 182.415 45.682 182.415C33.5817 182.415 28.9836 178.543 23.1755 174.792V199.839C23.1755 211.214 24.2645 221.378 25.1115 229.606L5.87209 230.695C4.78306 221.862 4.17805 210.246 4.17805 199.234L4.29905 92.147Z" stroke="#EB662B" stroke-width="3"/>
</svg>
