<svg width="378" height="125" viewBox="0 0 378 125" fill="none" xmlns="http://www.w3.org/2000/svg">
<path d="M61.5098 59.123V43.3594C58.8027 43.3594 57.5723 43.373 56.5332 43.373V41.2539C58.2012 41.2539 64.4082 41.2402 66.9785 41.2402C67.9766 41.2402 68.6465 41.4043 68.8926 41.4453L68.4414 43.5234C68.4414 43.5234 67.5938 43.3594 66.9102 43.3594H63.6973V59.123H61.5098ZM73.6914 54.748C73.6914 56.1836 74.457 57.0039 75.7285 57.0039C78.5996 57.0039 80.0352 54.8438 80.3906 54.2832V52.9844C79.6113 52.5059 78.5996 52.1094 77.1777 52.1094C75.3184 52.123 73.6914 53.1348 73.6914 54.748ZM82.5371 54.6523C82.5371 55.1309 82.5371 56.4023 82.7148 56.6348C82.8926 56.8809 83.3984 57.1953 83.7949 57.5098L82.6602 59.1367C81.9492 58.5898 81.1289 58.248 80.8828 56.8672C79.8164 57.8926 78.4219 59.082 75.7285 59.082C73.3906 59.082 71.5586 57.1543 71.5586 54.8848C71.5586 53.8457 71.9688 52.6289 72.7754 51.7949C74.0742 50.4688 75.4551 50.1406 77.0684 50.1406C78.791 50.1406 79.6523 50.3867 80.3906 50.8379C80.3906 48.2539 79.4473 47.0098 77.123 47.0098C75.2363 47.0098 74.375 47.4199 73.2812 49.375L71.5039 48.2539C72.8164 45.7656 74.6484 44.9453 77.0957 44.9453C80.4043 44.9453 82.5371 47.0645 82.5371 50.1406V54.6523ZM90.6719 59.123V47.1738C87.9648 47.1738 86.7344 47.1875 85.6953 47.1875V45.0684C87.3633 45.0684 93.5703 45.0547 96.1406 45.0547C97.1387 45.0547 97.8086 45.2188 98.0547 45.2598L97.6035 47.3379C97.6035 47.3379 96.7559 47.1738 96.0723 47.1738H92.8594V59.123H90.6719ZM102.676 54.748C102.676 56.1836 103.441 57.0039 104.713 57.0039C107.584 57.0039 109.02 54.8438 109.375 54.2832V52.9844C108.596 52.5059 107.584 52.1094 106.162 52.1094C104.303 52.123 102.676 53.1348 102.676 54.748ZM111.521 54.6523C111.521 55.1309 111.521 56.4023 111.699 56.6348C111.877 56.8809 112.383 57.1953 112.779 57.5098L111.645 59.1367C110.934 58.5898 110.113 58.248 109.867 56.8672C108.801 57.8926 107.406 59.082 104.713 59.082C102.375 59.082 100.543 57.1543 100.543 54.8848C100.543 53.8457 100.953 52.6289 101.76 51.7949C103.059 50.4688 104.439 50.1406 106.053 50.1406C107.775 50.1406 108.637 50.3867 109.375 50.8379C109.375 48.2539 108.432 47.0098 106.107 47.0098C104.221 47.0098 103.359 47.4199 102.266 49.375L100.488 48.2539C101.801 45.7656 103.633 44.9453 106.08 44.9453C109.389 44.9453 111.521 47.0645 111.521 50.1406V54.6523ZM124.4 51.7949C124.4 49.0059 123.662 47.2695 121.338 47.2695C119.465 47.2695 118.809 47.8984 117.838 49.457V55.418C118.549 56.1152 119.328 56.9766 120.572 56.9766C122.801 56.9766 124.4 55.6641 124.4 51.7949ZM115.705 48.8965V48.5684C115.705 47.4336 115.582 46.2578 115.445 45.3555L117.688 45.082C117.756 45.5195 117.824 45.8203 117.838 46.3945C118.699 45.6289 119.793 45.1504 121.324 45.1504C125.084 45.1504 126.547 47.8711 126.547 51.5352C126.547 56.1289 124.797 59.0957 120.381 59.0957C119.014 59.0957 118.494 58.6582 117.838 58.2344V61.0645C117.838 62.3496 117.961 63.498 118.057 64.4277L115.883 64.5508C115.76 63.5527 115.691 62.2402 115.691 60.9961L115.705 48.8965ZM131.605 51.7949C131.605 56.8535 134.436 56.9492 135.939 56.9492H136.117C138.25 56.9492 139.275 56.0605 139.986 54.8711L141.709 56.1152C141.258 56.6895 139.986 59.0957 136.172 59.0957C134.75 59.0957 133.068 58.9863 131.756 58.002C129.979 56.6211 129.432 54.5156 129.432 51.7949C129.432 46.7773 131.865 45.082 136.172 45.082C137.471 45.082 138.482 45.4102 139.303 46.0391C140.137 46.6816 140.561 47.502 140.861 48.2129L138.756 49.0332C138.605 48.4727 138.209 47.1738 136.021 47.1738C133 47.1738 131.605 48.5273 131.605 51.7949ZM150.473 51.5762C152.113 53.1895 155.203 56.375 156.201 58.084L154.574 59.4102C153.699 58.043 150.842 54.8574 149.064 53.1211L147.232 54.8574V59H145.1V45.0547H147.232V51.7676C149.68 49.498 153.18 46.0254 155.053 44.6582L156.379 46.4219C154.328 47.6387 152.004 50.0039 150.473 51.5762ZM167.604 45.0547L169.777 45.0684C169.777 45.0684 169.736 50.0996 169.736 53.2715C169.736 55.5 169.764 57.5371 169.846 59.082H167.699C167.576 56.7441 167.576 55.8145 167.576 53.2715C167.576 52.0684 167.658 49.1426 167.658 49.1426C165.84 52.3965 162.969 56.5254 161.246 59.041L159.072 59.0957V45.0957H161.246C161.246 46.9414 161.178 52.1094 161.178 55.4453C163.68 51.918 165.225 48.8555 167.604 45.0547ZM179.061 40.7617C180.537 40.7617 181.658 39.9004 181.74 38.834L184.01 39.2441C183.682 41.6641 181.316 42.8535 179.061 42.8535C177.338 42.8535 174.85 42.1973 174.193 39.1211L176.326 38.7109C176.695 40.3105 177.789 40.7617 179.061 40.7617ZM182.096 45.0547L184.27 45.0684C184.27 45.0684 184.229 50.0996 184.229 53.2715C184.229 55.5 184.256 57.5371 184.338 59.082H182.191C182.068 56.7441 182.068 55.8145 182.068 53.2715C182.068 52.0684 182.15 49.1426 182.15 49.1426C180.332 52.3965 177.461 56.5254 175.738 59.041L173.564 59.0957V45.0957H175.738C175.738 46.9414 175.67 52.1094 175.67 55.4453C178.172 51.918 179.717 48.8555 182.096 45.0547Z" fill="white"/>
<path d="M74.36 46.5626C74.7776 43.7497 73.1885 43.0024 69.8737 42.4273C69.0488 42.3048 68.4322 42.2686 67.8216 42.1918L67.5687 43.8957C67.2012 46.3706 66.738 49.3979 66.738 49.3979C67.2228 49.4837 67.6826 49.5519 68.1289 49.6182C71.9967 50.1924 73.9022 49.646 74.36 46.5626ZM65.4736 57.8211L63.3389 57.4903L65.955 39.869C67.5508 40.1059 68.0807 40.074 69.8794 40.3411C72.9222 40.7928 74.7759 41.2477 76.054 43.3449C76.6538 44.3323 76.7436 45.5896 76.5629 46.8067C76.3802 48.0374 76.0712 49.3737 75.0851 50.4298C73.4787 52.1263 71.7321 52.254 68.4999 51.7742C67.8508 51.6778 67.1631 51.5619 66.4368 51.4264C65.9088 54.9831 65.7868 55.7114 65.4736 57.8211ZM80.3818 62.9784C81.8153 63.1913 82.917 60.7978 83.6437 59.4406C83.031 54.8161 82.0582 50.2902 80.4409 48.3362C80.0548 47.8642 79.5024 47.7684 79.0155 47.6961L79.3227 45.627C79.769 45.6932 80.4371 45.8477 80.8078 45.958C83.016 46.6314 84.4519 52.0416 85.3276 56.6636C86.764 53.8776 88.2368 50.1017 88.8008 47.0479L90.9375 47.3652C90.8171 48.1766 90.635 48.9374 90.4109 49.609C88.8231 54.2524 86.7947 58.5124 84.3851 62.4532C83.3973 64.1725 82.1437 65.3547 80.1287 65.0556C77.762 64.7042 76.5008 63.0519 77.0429 59.4005L79.1526 59.7137C78.7972 62.1074 79.2999 62.8178 80.3818 62.9784ZM94.7892 54.7511C94.0463 59.7549 96.8316 60.2651 98.3192 60.486L98.495 60.5121C100.605 60.8253 101.749 60.0968 102.627 59.0247L104.149 60.5083C103.618 61.0101 102.007 63.2035 98.2339 62.6433C96.8274 62.4345 95.1801 62.0794 94.0264 60.9129C92.4711 59.286 92.2393 57.1231 92.6389 54.4319C93.3757 49.4687 96.0319 48.1491 100.292 48.7816C101.577 48.9723 102.529 49.4455 103.248 50.188C103.979 50.9461 104.278 51.8198 104.471 52.5672L102.268 53.0694C102.201 52.4928 102 51.1499 99.8359 50.8286C96.8472 50.3849 95.269 51.519 94.7892 54.7511ZM109.124 56.8793C108.381 61.8831 111.167 62.3934 112.654 62.6142L112.83 62.6403C114.94 62.9535 116.085 62.2251 116.962 61.1529L118.484 62.6365C117.953 63.1383 116.342 65.3317 112.569 64.7716C111.163 64.5627 109.515 64.2076 108.361 63.0412C106.806 61.4143 106.574 59.2513 106.974 56.5601C107.711 51.5969 110.367 50.2774 114.627 50.9098C115.912 51.1006 116.864 51.5737 117.583 52.3162C118.314 53.0743 118.613 53.948 118.806 54.6954L116.603 55.1976C116.536 54.6211 116.335 53.2781 114.171 52.9568C111.182 52.5131 109.604 53.6472 109.124 56.8793ZM127.819 59.4337C129.205 61.2704 131.793 64.8752 132.53 66.7122L130.726 67.785C130.061 66.3042 127.702 62.7336 126.199 60.755L124.132 62.2035L123.524 66.3012L121.414 65.988L123.462 52.1938L125.572 52.5071L124.586 59.1472C127.34 57.2616 131.312 54.3406 133.365 53.2633L134.418 55.2026C132.211 56.105 129.565 58.1033 127.819 59.4337ZM145.722 55.4986L147.87 55.8314C147.87 55.8314 147.091 60.8021 146.625 63.9395C146.298 66.1439 146.025 68.1629 145.88 69.7032L143.757 69.3879C143.978 67.0573 144.115 66.1377 144.488 63.6223C144.665 62.4322 145.176 59.5502 145.176 59.5502C142.899 62.5018 139.453 66.1643 137.379 68.3997L135.221 68.1346L137.277 54.2863L139.427 54.6056C139.156 56.4313 138.33 61.5332 137.84 64.8329C140.833 61.7113 142.811 58.9088 145.722 55.4986ZM157.685 52.9347C159.146 53.1515 160.381 52.4642 160.619 51.4214L162.803 52.1604C162.124 54.5059 159.609 55.3351 157.378 55.0038C155.674 54.7508 153.309 53.7363 153.112 50.5971L155.282 50.5046C155.412 52.1411 156.427 52.748 157.685 52.9347ZM160.057 57.6269L162.205 57.9596C162.205 57.9596 161.426 62.9303 160.96 66.0678C160.633 68.2721 160.361 70.2912 160.215 71.8314L158.092 71.5162C158.313 69.1856 158.45 68.2659 158.823 65.7505C159 64.5605 159.511 61.6785 159.511 61.6785C157.234 64.63 153.788 68.2926 151.714 70.5279L149.556 70.2628L151.612 56.4146L153.762 56.7338C153.491 58.5595 152.665 63.6614 152.175 66.9612C155.168 63.8395 157.146 61.0371 160.057 57.6269Z" fill="white"/>
<rect x="1.82422" y="42.8682" width="209.712" height="55.1872" transform="rotate(-6.55537 1.82422 42.8682)" fill="#ECC7CF"/>
<path d="M210.164 18.9266L231.23 5.25682L237.657 61.1798L216.465 73.753L210.164 18.9266Z" fill="#E3B7C0"/>
<path d="M22.6159 29.2292L231.23 5.25637L210.212 19.3373L1.32308 43.3417L22.6159 29.2292Z" fill="#F8D1D9"/>
<ellipse cx="49.1577" cy="30.1517" rx="15.3624" ry="4.19364" transform="rotate(-6.55537 49.1577 30.1517)" fill="#E19DAC"/>
<rect x="33.0059" y="24.1685" width="9.58547" height="7.61702" transform="rotate(-6.55537 33.0059 24.1685)" fill="#E19DAC"/>
<rect x="54.0176" y="21.8398" width="9.58547" height="7.61702" transform="rotate(-6.55537 54.0176 21.8398)" fill="#E19DAC"/>
<ellipse cx="48.2876" cy="22.5843" rx="15.3624" ry="4.19364" transform="rotate(-6.55537 48.2876 22.5843)" fill="#ECC7CF"/>
<ellipse cx="95.4546" cy="24.5535" rx="15.3624" ry="4.19364" transform="rotate(-6.55537 95.4546 24.5535)" fill="#E19DAC"/>
<rect x="79.3027" y="18.5708" width="9.58547" height="7.61702" transform="rotate(-6.55537 79.3027 18.5708)" fill="#E19DAC"/>
<rect x="100.313" y="16.2422" width="9.58547" height="7.61702" transform="rotate(-6.55537 100.313 16.2422)" fill="#E19DAC"/>
<ellipse cx="94.5845" cy="16.9866" rx="15.3624" ry="4.19364" transform="rotate(-6.55537 94.5845 16.9866)" fill="#ECC7CF"/>
<ellipse cx="144.765" cy="18.6097" rx="15.3624" ry="4.19364" transform="rotate(-6.55537 144.765 18.6097)" fill="#E19DAC"/>
<rect x="128.613" y="12.6265" width="9.58547" height="7.61702" transform="rotate(-6.55537 128.613 12.6265)" fill="#E19DAC"/>
<rect x="149.625" y="10.2979" width="9.58547" height="7.61702" transform="rotate(-6.55537 149.625 10.2979)" fill="#E19DAC"/>
<ellipse cx="143.895" cy="11.0423" rx="15.3624" ry="4.19364" transform="rotate(-6.55537 143.895 11.0423)" fill="#ECC7CF"/>
<ellipse cx="194.173" cy="13.4871" rx="15.3624" ry="4.19364" transform="rotate(-6.55537 194.173 13.4871)" fill="#E19DAC"/>
<rect x="178.021" y="7.50391" width="9.58547" height="7.61702" transform="rotate(-6.55537 178.021 7.50391)" fill="#E19DAC"/>
<rect x="199.033" y="5.17578" width="9.58547" height="7.61702" transform="rotate(-6.55537 199.033 5.17578)" fill="#E19DAC"/>
<ellipse cx="193.303" cy="5.92021" rx="15.3624" ry="4.19364" transform="rotate(-6.55537 193.303 5.92021)" fill="#ECC7CF"/>
<path d="M168.389 58.8254C168.639 60.9593 169.921 62.0449 171.811 61.823C176.078 61.3217 177.835 57.8601 178.266 56.9648L178.039 55.0342C176.797 54.459 175.224 54.0463 173.11 54.2945C170.349 54.6395 168.107 56.4274 168.389 58.8254ZM181.521 57.1388C181.604 57.8501 181.826 59.74 182.131 60.0545C182.438 60.3893 183.245 60.7684 183.889 61.1666L182.487 63.783C181.334 63.0943 180.055 62.7294 179.448 60.7198C178.042 62.4302 176.177 64.4417 172.174 64.9119C168.698 65.3201 165.639 62.7745 165.242 59.401C165.061 57.8565 165.458 55.9762 166.512 54.5957C168.211 52.3977 170.206 51.6689 172.604 51.3872C175.165 51.0864 176.488 51.3019 177.664 51.8436C177.213 48.0027 175.593 46.3181 172.139 46.7238C169.334 47.0533 168.126 47.8133 166.841 50.9104L164.003 49.5542C165.52 45.6264 168.1 44.0872 171.738 43.6599C176.656 43.0823 180.196 45.8599 180.733 50.4324L181.521 57.1388Z" fill="#EB662B"/>
<path d="M146.109 48.7511C148.512 47.1091 150.312 46.3001 152.547 46.0375C154.986 45.7511 158.808 46.8886 159.163 49.9167L160.56 61.8052C160.717 63.1465 161.786 63.4743 162.996 63.9503L161.556 66.4269C159.665 65.7631 157.673 64.9462 157.365 62.3246L156.026 50.9238C155.85 49.42 153.8 48.9809 152.458 49.1384C151.158 49.2912 149.307 50.3739 146.507 52.1449L148.321 67.5899L145.113 67.9874L143.427 53.6398C143.003 50.0224 142.778 49.5131 142.066 47.6601L145.229 46.5263C145.49 46.9901 145.829 47.7744 146.109 48.7511Z" fill="#EB662B"/>
<path d="M124.297 41.4442L129.072 40.8833L129.61 45.4558L124.834 46.0167L124.297 41.4442ZM127.348 49.1826L129.706 48.9057C130.357 54.4537 131.643 65.2222 131.643 65.2222C131.94 66.8767 132.844 66.853 134.714 66.6334C136.604 66.4114 139.073 65.6886 140.351 64.4671L142.006 66.6216C140.427 68.2697 137.593 69.2208 135.073 69.5167C133.345 69.7196 131.767 69.6165 130.816 69.2338C128.976 68.4816 128.623 66.8749 128.482 65.6759L126.928 52.446C125.932 52.563 123.63 52.957 121.752 53.6309L120.824 50.8143C123.038 50.0186 125.235 49.4309 127.348 49.1826Z" fill="#EB662B"/>
<path d="M106.003 63.5571L106.099 64.37C106.416 67.0729 107.389 69.0395 109.671 68.9981C110.042 68.9958 111.609 68.8323 111.873 68.8013C113.194 68.6461 114.471 68.2901 114.945 67.946C116.032 67.2002 116.267 66.0395 116.364 65.6367L119.058 66.474C118.921 67.0669 118.671 68.9711 116.55 70.5594C115.453 71.3888 114.011 71.7436 112.284 71.9465C108.544 72.3857 106.02 72.2908 104.224 69.4525C103.34 68.0729 103.08 66.5583 102.875 64.8105L102.772 63.9367C102.605 61.8136 102.333 59.1466 101.994 55.2101L101.71 55.2435C101.141 55.3103 100.581 55.4584 100.07 55.6628L99.3147 52.7434C99.781 52.5032 100.688 52.3349 101.359 52.2561L101.664 52.2203C101.497 50.7977 101.293 48.885 101.126 47.4625L104.339 47.1057C104.496 48.4469 104.7 50.3596 104.842 51.7439L107.322 51.4527C110.266 51.0863 113.393 50.6983 113.393 50.6983L113.759 50.6554L114.11 53.6428L107.668 54.3994C106.733 54.5092 106.192 54.6347 105.257 54.7445C105.561 58.9117 105.846 61.5154 106.003 63.5571Z" fill="#EB662B"/>
<path d="M86.3124 53.0755L78.0341 47.4962L79.8922 45.0735L85.8386 48.8664L90.7037 43.8036L93.1133 45.7251L86.3124 53.0755ZM82.2975 63.6218C80.893 63.0657 79.6942 61.8055 79.4292 59.5498C79.0366 56.0316 82.1546 54.1614 85.711 53.7437C88.1903 53.4524 91.8625 53.8452 93.77 55.702L91.7386 58.2276C90.5135 57.0941 88.0965 56.5127 86.3488 56.7179C84.1946 56.971 82.4551 57.7728 82.6103 59.0937C82.7249 60.0692 83.1862 60.4889 84.0421 60.7592C89.8192 62.4087 95.0694 62.2041 95.7473 67.9756C96.134 71.2679 94.0345 73.3893 91.9268 74.2137C90.8198 74.6116 89.6172 74.8971 88.4588 75.0331C83.2563 75.6442 80.3328 73.2062 79.8196 68.8369L83.0126 68.4825C83.3324 71.2057 84.9066 72.5042 88.0565 72.1342C90.5562 71.8406 92.848 70.4795 92.5854 68.244C92.4351 66.9637 91.7335 66.428 90.5179 65.7261C88.8218 64.7922 84.5626 64.4889 82.2975 63.6218Z" fill="#EB662B"/>
<path d="M60.079 66.0049C62.6982 65.6767 67.8996 64.8803 70.7472 64.2162C70.0377 60.9825 67.7213 59.1531 64.9575 59.4777C61.5027 59.8835 59.7318 62.8729 60.079 66.0049ZM64.5744 56.3911C72.2359 55.4912 73.8949 63.1254 74.2243 65.9299C74.272 66.3363 74.3078 66.6412 74.3066 66.8061C68.6617 67.8606 64.0568 68.6487 60.4442 69.1142C60.8094 72.2236 62.8699 74.6805 67.0156 74.1936C69.9217 73.8522 71.4402 72.0462 72.1039 70.8557L74.8637 72.7773C74.1379 73.7897 72.1363 76.7443 67.2995 77.3124C61.2435 78.0238 57.768 74.0436 57.0209 67.6827C56.3382 61.8705 58.8231 57.0666 64.5744 56.3911Z" fill="#EB662B"/>
<path d="M43.5253 57.8539L35.247 52.2745L37.1051 49.8518L43.0515 53.6448L47.9166 48.5819L50.3262 50.5034L43.5253 57.8539ZM38.5419 69.6265C39.4251 77.1457 43.6485 76.7939 45.8839 76.5313L46.1481 76.5003C49.3184 76.1279 50.6874 74.6279 51.5365 72.7358L54.3144 74.2843C53.744 75.2167 52.2741 79.0154 46.6042 79.6814C44.4907 79.9296 41.9719 80.0606 39.8491 78.8266C36.9661 77.0843 35.7856 74.0502 35.3106 70.006C34.4346 62.5477 37.756 59.6029 44.1575 58.851C46.0881 58.6242 47.6493 58.9353 48.9784 59.7269C50.3303 60.5364 51.1035 61.6818 51.6747 62.686L48.6883 64.273C48.3669 63.466 47.5508 61.6046 44.2992 61.9865C39.8079 62.5141 37.9714 64.7694 38.5419 69.6265Z" fill="#EB662B"/>
</svg>
