<svg width="1192" height="415" viewBox="0 0 1192 415" fill="none" xmlns="http://www.w3.org/2000/svg">
<g clip-path="url(#clip0_456_69)">
<path d="M63.1016 380.672L64.9922 381.023V391.07H62.9766L62.9609 383.555C62.4297 384.219 61.6406 385.031 60.625 385.602L59.5 383.93C61.8984 382.727 63.0391 380.789 63.1016 380.672ZM71.3828 380.672L73.2734 381.023V391.07H71.2578L71.2422 383.555C70.7109 384.219 69.9219 385.031 68.9062 385.602L67.7812 383.93C70.1797 382.727 71.3203 380.789 71.3828 380.672ZM80.0391 386.289V383.75C79.4688 384.758 78.6797 385.625 78.0391 386.305L80.0391 386.289ZM75.8047 386.641C76.0703 386.281 79.4844 382.875 80.1016 380.797L82.0469 380.781V386.289H83.0391V387.93H82.0469V391H80.0391V387.953L76.5078 387.969L75.8047 386.641ZM89.1641 386.852C89.1641 385.344 88.875 384.664 88.1875 384.664C87.1797 384.664 86.8359 385.188 86.4844 385.875L86.5 388.57C86.7969 389.023 87.2188 389.492 87.8047 389.492C88.7031 389.492 89.1641 388.938 89.1641 386.852ZM84.5781 385.227V385.023C84.5781 384.375 84.4844 383.727 84.4062 383.219L86.1875 383.016C86.2578 383.203 86.3125 383.5 86.3438 383.805C86.7812 383.32 87.4375 383.102 88.3125 383.102C90.4609 383.102 91.1641 384.602 91.1641 386.695C91.1641 389.32 90.5938 391.062 87.7656 391.062C86.9844 391.062 86.6172 390.773 86.3906 390.531C86.4219 390.844 86.4766 391.133 86.5 391.477V392.188C86.5 392.922 86.5547 393.578 86.6094 394.109L84.6719 394.164C84.6016 393.594 84.5625 392.852 84.5625 392.141L84.5781 385.227ZM99.4219 384.445C99.1094 385.133 97.9688 386.391 97.2656 387.062C97.8906 387.867 98.8594 389 99.0312 389.102C99.0625 389.125 99.125 389.242 99.3906 389.242C99.5312 389.242 99.6719 389.219 99.7969 389.195L99.7812 390.984C99.6406 391.008 99.4531 391.031 99.3125 391.031C98.9844 391.031 98.5312 390.953 98.2188 390.734C97.6562 390.367 96.8281 389.336 96.1562 388.414L93.5625 391.328L92.2344 390.07L95.0781 386.992L92.5312 383.938L93.9531 382.836L96.2188 385.742C96.6875 385.211 97.0625 384.93 97.6094 383.969C97.7656 383.695 97.8438 383.211 97.875 383.078L99.7344 383.086C99.6875 383.469 99.6094 384.023 99.4219 384.445Z" fill="#EB662B"/>
<path d="M704.102 380.672L705.992 381.023V391.07H703.977L703.961 383.555C703.43 384.219 702.641 385.031 701.625 385.602L700.5 383.93C702.898 382.727 704.039 380.789 704.102 380.672ZM711.117 384.25L709.156 384.578C709.086 384.352 709.016 383.984 709 383.703V383.508C709 382.016 710.133 380.797 712.133 380.797C714.242 380.797 715.43 381.664 715.43 383.773C715.43 385.32 714.5 386.133 713.875 386.797C713.445 387.227 711.531 388.883 711.531 389.32H715.562V391H708.844C708.844 390.766 708.828 390.516 708.828 390.258C708.828 390.055 708.836 389.844 708.875 389.625C709.016 388.867 709.641 388.078 710.484 387.289C711.461 386.391 713.5 385.102 713.5 383.766C713.5 382.859 713.055 382.445 712.25 382.445C711.672 382.445 710.992 382.789 710.992 383.57C710.992 383.766 711.023 383.992 711.117 384.25ZM716.984 388.383H718.945C718.945 389.289 719.633 389.508 720.258 389.508C721.195 389.508 721.766 388.773 721.766 388.039C721.766 387.18 721.414 386.852 720.992 386.578C720.539 386.281 719.844 386.148 719.219 386.148V384.586H719.344C720.352 384.586 721.273 384.125 721.273 383.117C721.273 382.602 720.852 382.234 720.117 382.234C719.273 382.234 718.828 383.078 718.688 383.359L717.07 382.297C717.109 382.18 717.867 380.688 720.055 380.688H720.141C721.992 380.688 723.258 381.25 723.258 382.984C723.258 383.984 722.469 385.086 721.695 385.234C723.125 385.695 723.781 386.719 723.781 388.047C723.781 389.125 723.516 389.688 722.891 390.312C722.328 390.875 721.445 391.172 720.203 391.172C718 391.172 716.984 389.977 716.984 388.383ZM730.164 386.852C730.164 385.344 729.875 384.664 729.188 384.664C728.18 384.664 727.836 385.188 727.484 385.875L727.5 388.57C727.797 389.023 728.219 389.492 728.805 389.492C729.703 389.492 730.164 388.938 730.164 386.852ZM725.578 385.227V385.023C725.578 384.375 725.484 383.727 725.406 383.219L727.188 383.016C727.258 383.203 727.312 383.5 727.344 383.805C727.781 383.32 728.438 383.102 729.312 383.102C731.461 383.102 732.164 384.602 732.164 386.695C732.164 389.32 731.594 391.062 728.766 391.062C727.984 391.062 727.617 390.773 727.391 390.531C727.422 390.844 727.477 391.133 727.5 391.477V392.188C727.5 392.922 727.555 393.578 727.609 394.109L725.672 394.164C725.602 393.594 725.562 392.852 725.562 392.141L725.578 385.227ZM740.422 384.445C740.109 385.133 738.969 386.391 738.266 387.062C738.891 387.867 739.859 389 740.031 389.102C740.062 389.125 740.125 389.242 740.391 389.242C740.531 389.242 740.672 389.219 740.797 389.195L740.781 390.984C740.641 391.008 740.453 391.031 740.312 391.031C739.984 391.031 739.531 390.953 739.219 390.734C738.656 390.367 737.828 389.336 737.156 388.414L734.562 391.328L733.234 390.07L736.078 386.992L733.531 383.938L734.953 382.836L737.219 385.742C737.688 385.211 738.062 384.93 738.609 383.969C738.766 383.695 738.844 383.211 738.875 383.078L740.734 383.086C740.688 383.469 740.609 384.023 740.422 384.445Z" fill="#EB662B"/>
<path d="M838.102 24.6719L839.992 25.0234V35.0703H837.977L837.961 27.5547C837.43 28.2188 836.641 29.0312 835.625 29.6016L834.5 27.9297C836.898 26.7266 838.039 24.7891 838.102 24.6719ZM845.117 28.25L843.156 28.5781C843.086 28.3516 843.016 27.9844 843 27.7031V27.5078C843 26.0156 844.133 24.7969 846.133 24.7969C848.242 24.7969 849.43 25.6641 849.43 27.7734C849.43 29.3203 848.5 30.1328 847.875 30.7969C847.445 31.2266 845.531 32.8828 845.531 33.3203H849.562V35H842.844C842.844 34.7656 842.828 34.5156 842.828 34.2578C842.828 34.0547 842.836 33.8438 842.875 33.625C843.016 32.8672 843.641 32.0781 844.484 31.2891C845.461 30.3906 847.5 29.1016 847.5 27.7656C847.5 26.8594 847.055 26.4453 846.25 26.4453C845.672 26.4453 844.992 26.7891 844.992 27.5703C844.992 27.7656 845.023 27.9922 845.117 28.25ZM851.742 24.9062C852.398 24.9062 853.242 24.9531 853.844 24.9531C855.023 24.9531 856.312 24.8984 857.43 24.8984H857.75L858.531 26.1719C856.203 29.8281 854.898 31.4531 854.898 35H852.859C852.859 31.8203 854.117 29.7344 856.375 26.6172C855.695 26.6406 854.891 26.6406 854.18 26.6406C853.688 26.6406 853.492 26.6406 853 26.6172C852.984 26.625 852.875 27.1406 852.844 27.4297L850.859 26.9297C851.008 26.4688 851.492 25.4219 851.742 24.9062ZM864.164 30.8516C864.164 29.3438 863.875 28.6641 863.188 28.6641C862.18 28.6641 861.836 29.1875 861.484 29.875L861.5 32.5703C861.797 33.0234 862.219 33.4922 862.805 33.4922C863.703 33.4922 864.164 32.9375 864.164 30.8516ZM859.578 29.2266V29.0234C859.578 28.375 859.484 27.7266 859.406 27.2188L861.188 27.0156C861.258 27.2031 861.312 27.5 861.344 27.8047C861.781 27.3203 862.438 27.1016 863.312 27.1016C865.461 27.1016 866.164 28.6016 866.164 30.6953C866.164 33.3203 865.594 35.0625 862.766 35.0625C861.984 35.0625 861.617 34.7734 861.391 34.5312C861.422 34.8438 861.477 35.1328 861.5 35.4766V36.1875C861.5 36.9219 861.555 37.5781 861.609 38.1094L859.672 38.1641C859.602 37.5938 859.562 36.8516 859.562 36.1406L859.578 29.2266ZM874.422 28.4453C874.109 29.1328 872.969 30.3906 872.266 31.0625C872.891 31.8672 873.859 33 874.031 33.1016C874.062 33.125 874.125 33.2422 874.391 33.2422C874.531 33.2422 874.672 33.2188 874.797 33.1953L874.781 34.9844C874.641 35.0078 874.453 35.0312 874.312 35.0312C873.984 35.0312 873.531 34.9531 873.219 34.7344C872.656 34.3672 871.828 33.3359 871.156 32.4141L868.562 35.3281L867.234 34.0703L870.078 30.9922L867.531 27.9375L868.953 26.8359L871.219 29.7422C871.688 29.2109 872.062 28.9297 872.609 27.9688C872.766 27.6953 872.844 27.2109 872.875 27.0781L874.734 27.0859C874.688 27.4688 874.609 28.0234 874.422 28.4453Z" fill="#EB662B"/>
<path d="M1087.1 380.672L1088.99 381.023V391.07H1086.98L1086.96 383.555C1086.43 384.219 1085.64 385.031 1084.62 385.602L1083.5 383.93C1085.9 382.727 1087.04 380.789 1087.1 380.672ZM1094 386.461L1096.2 383.422C1095.95 382.641 1095.84 382.367 1095.29 382.367C1094.09 382.367 1093.98 384.641 1093.98 386.07C1093.98 386.25 1094 386.461 1094 386.461ZM1096.48 385.328L1094.23 388.406C1094.43 389.148 1094.65 389.508 1095.18 389.508C1096.41 389.508 1096.48 387.547 1096.48 385.711C1096.48 385.492 1096.48 385.328 1096.48 385.328ZM1095.3 380.75C1097.86 380.75 1098.47 383.375 1098.47 385.844C1098.47 388.375 1097.91 391.133 1095.28 391.133C1092.59 391.133 1091.99 388.766 1091.99 386.188C1091.99 383.57 1092.52 380.75 1095.3 380.75ZM1104.04 386.289V383.75C1103.47 384.758 1102.68 385.625 1102.04 386.305L1104.04 386.289ZM1099.8 386.641C1100.07 386.281 1103.48 382.875 1104.1 380.797L1106.05 380.781V386.289H1107.04V387.93H1106.05V391H1104.04V387.953L1100.51 387.969L1099.8 386.641ZM1113.16 386.852C1113.16 385.344 1112.88 384.664 1112.19 384.664C1111.18 384.664 1110.84 385.188 1110.48 385.875L1110.5 388.57C1110.8 389.023 1111.22 389.492 1111.8 389.492C1112.7 389.492 1113.16 388.938 1113.16 386.852ZM1108.58 385.227V385.023C1108.58 384.375 1108.48 383.727 1108.41 383.219L1110.19 383.016C1110.26 383.203 1110.31 383.5 1110.34 383.805C1110.78 383.32 1111.44 383.102 1112.31 383.102C1114.46 383.102 1115.16 384.602 1115.16 386.695C1115.16 389.32 1114.59 391.062 1111.77 391.062C1110.98 391.062 1110.62 390.773 1110.39 390.531C1110.42 390.844 1110.48 391.133 1110.5 391.477V392.188C1110.5 392.922 1110.55 393.578 1110.61 394.109L1108.67 394.164C1108.6 393.594 1108.56 392.852 1108.56 392.141L1108.58 385.227ZM1123.42 384.445C1123.11 385.133 1121.97 386.391 1121.27 387.062C1121.89 387.867 1122.86 389 1123.03 389.102C1123.06 389.125 1123.12 389.242 1123.39 389.242C1123.53 389.242 1123.67 389.219 1123.8 389.195L1123.78 390.984C1123.64 391.008 1123.45 391.031 1123.31 391.031C1122.98 391.031 1122.53 390.953 1122.22 390.734C1121.66 390.367 1120.83 389.336 1120.16 388.414L1117.56 391.328L1116.23 390.07L1119.08 386.992L1116.53 383.938L1117.95 382.836L1120.22 385.742C1120.69 385.211 1121.06 384.93 1121.61 383.969C1121.77 383.695 1121.84 383.211 1121.88 383.078L1123.73 383.086C1123.69 383.469 1123.61 384.023 1123.42 384.445Z" fill="#EB662B"/>
<path d="M22.6464 372.646C22.4512 372.842 22.4512 373.158 22.6464 373.354L25.8284 376.536C26.0237 376.731 26.3403 376.731 26.5355 376.536C26.7308 376.34 26.7308 376.024 26.5355 375.828L23.7071 373L26.5355 370.172C26.7308 369.976 26.7308 369.66 26.5355 369.464C26.3403 369.269 26.0237 369.269 25.8284 369.464L22.6464 372.646ZM136 372.5L23 372.5L23 373.5L136 373.5L136 372.5Z" fill="#EB662B"/>
<path d="M141.354 373.354C141.549 373.158 141.549 372.842 141.354 372.646L138.172 369.464C137.976 369.269 137.66 369.269 137.464 369.464C137.269 369.66 137.269 369.976 137.464 370.172L140.293 373L137.464 375.828C137.269 376.024 137.269 376.34 137.464 376.536C137.66 376.731 137.976 376.731 138.172 376.536L141.354 373.354ZM27 373.5H141V372.5H27V373.5Z" fill="#EB662B"/>
<path d="M23 147V367" stroke="#EFECDB" stroke-width="2" stroke-dasharray="6 6"/>
<path d="M140 147V367" stroke="#EFECDB" stroke-width="2" stroke-dasharray="6 6"/>
<path d="M281 149V369" stroke="#EFECDB" stroke-width="2" stroke-dasharray="6 6"/>
<path d="M386 149V369" stroke="#EFECDB" stroke-width="2" stroke-dasharray="6 6"/>
<path d="M661 148V368" stroke="#EFECDB" stroke-width="2" stroke-dasharray="6 6"/>
<path d="M783 147V367" stroke="#EFECDB" stroke-width="2" stroke-dasharray="6 6"/>
<path d="M792 59V279" stroke="#EFECDB" stroke-width="2" stroke-dasharray="6 6"/>
<path d="M917 59V279" stroke="#EFECDB" stroke-width="2" stroke-dasharray="6 6"/>
<path d="M1055 148V368" stroke="#EFECDB" stroke-width="2" stroke-dasharray="6 6"/>
<path d="M661.646 372.646C661.451 372.842 661.451 373.158 661.646 373.354L664.828 376.536C665.024 376.731 665.34 376.731 665.536 376.536C665.731 376.34 665.731 376.024 665.536 375.828L662.707 373L665.536 370.172C665.731 369.976 665.731 369.66 665.536 369.464C665.34 369.269 665.024 369.269 664.828 369.464L661.646 372.646ZM785.354 373.354C785.549 373.158 785.549 372.842 785.354 372.646L782.172 369.464C781.976 369.269 781.66 369.269 781.464 369.464C781.269 369.66 781.269 369.976 781.464 370.172L784.293 373L781.464 375.828C781.269 376.024 781.269 376.34 781.464 376.536C781.66 376.731 781.976 376.731 782.172 376.536L785.354 373.354ZM662 373.5H785V372.5H662V373.5Z" fill="#EB662B"/>
<path d="M280.646 372.646C280.451 372.842 280.451 373.158 280.646 373.354L283.828 376.536C284.024 376.731 284.34 376.731 284.536 376.536C284.731 376.34 284.731 376.024 284.536 375.828L281.707 373L284.536 370.172C284.731 369.976 284.731 369.66 284.536 369.464C284.34 369.269 284.024 369.269 283.828 369.464L280.646 372.646ZM386.354 373.354C386.549 373.158 386.549 372.842 386.354 372.646L383.172 369.464C382.976 369.269 382.66 369.269 382.464 369.464C382.269 369.66 382.269 369.976 382.464 370.172L385.293 373L382.464 375.828C382.269 376.024 382.269 376.34 382.464 376.536C382.66 376.731 382.976 376.731 383.172 376.536L386.354 373.354ZM281 373.5H386V372.5H281V373.5Z" fill="#EB662B"/>
<path d="M789.646 44.6464C789.451 44.8417 789.451 45.1583 789.646 45.3536L792.828 48.5355C793.024 48.7308 793.34 48.7308 793.536 48.5355C793.731 48.3403 793.731 48.0237 793.536 47.8284L790.707 45L793.536 42.1716C793.731 41.9763 793.731 41.6597 793.536 41.4645C793.34 41.2692 793.024 41.2692 792.828 41.4645L789.646 44.6464ZM917.354 45.3536C917.549 45.1583 917.549 44.8417 917.354 44.6464L914.172 41.4645C913.976 41.2692 913.66 41.2692 913.464 41.4645C913.269 41.6597 913.269 41.9763 913.464 42.1716L916.293 45L913.464 47.8284C913.269 48.0237 913.269 48.3403 913.464 48.5355C913.66 48.7308 913.976 48.7308 914.172 48.5355L917.354 45.3536ZM790 45.5L917 45.5V44.5L790 44.5V45.5Z" fill="#EB662B"/>
<path d="M1052.65 372.646C1052.45 372.842 1052.45 373.158 1052.65 373.354L1055.83 376.536C1056.02 376.731 1056.34 376.731 1056.54 376.536C1056.73 376.34 1056.73 376.024 1056.54 375.828L1053.71 373L1056.54 370.172C1056.73 369.976 1056.73 369.66 1056.54 369.464C1056.34 369.269 1056.02 369.269 1055.83 369.464L1052.65 372.646ZM1157.35 373.354C1157.55 373.158 1157.55 372.842 1157.35 372.646L1154.17 369.464C1153.98 369.269 1153.66 369.269 1153.46 369.464C1153.27 369.66 1153.27 369.976 1153.46 370.172L1156.29 373L1153.46 375.828C1153.27 376.024 1153.27 376.34 1153.46 376.536C1153.66 376.731 1153.98 376.731 1154.17 376.536L1157.35 373.354ZM1053 373.5H1157V372.5H1053V373.5Z" fill="#EB662B"/>
<path d="M316.102 380.672L317.992 381.023V391.07H315.977L315.961 383.555C315.43 384.219 314.641 385.031 313.625 385.602L312.5 383.93C314.898 382.727 316.039 380.789 316.102 380.672ZM323 386.461L325.195 383.422C324.953 382.641 324.844 382.367 324.289 382.367C323.086 382.367 322.984 384.641 322.984 386.07C322.984 386.25 323 386.461 323 386.461ZM325.477 385.328L323.227 388.406C323.43 389.148 323.648 389.508 324.18 389.508C325.406 389.508 325.484 387.547 325.484 385.711C325.484 385.492 325.477 385.328 325.477 385.328ZM324.305 380.75C326.859 380.75 327.469 383.375 327.469 385.844C327.469 388.375 326.906 391.133 324.281 391.133C321.586 391.133 320.992 388.766 320.992 386.188C320.992 383.57 321.516 380.75 324.305 380.75ZM332.242 385.461C331.305 385.461 330.875 386.172 330.766 386.328L329.281 385.703L329.75 380.938L335.031 380.953L335.023 382.492H331.594L331.469 384.047C331.469 384.047 331.781 383.969 332.391 383.969C332.836 383.969 333.438 384 333.969 384.258C334.836 384.719 335.781 385.469 335.781 387.5C335.781 389.984 334.125 391 332.25 391.016H332.234C330.766 391.016 329.734 390.422 329.109 389.172L330.891 388.312C331.109 388.922 331.594 389.359 332.234 389.359C332.938 389.359 333.734 388.859 333.734 387.484C333.734 386.234 333.039 385.461 332.242 385.461ZM342.164 386.852C342.164 385.344 341.875 384.664 341.188 384.664C340.18 384.664 339.836 385.188 339.484 385.875L339.5 388.57C339.797 389.023 340.219 389.492 340.805 389.492C341.703 389.492 342.164 388.938 342.164 386.852ZM337.578 385.227V385.023C337.578 384.375 337.484 383.727 337.406 383.219L339.188 383.016C339.258 383.203 339.312 383.5 339.344 383.805C339.781 383.32 340.438 383.102 341.312 383.102C343.461 383.102 344.164 384.602 344.164 386.695C344.164 389.32 343.594 391.062 340.766 391.062C339.984 391.062 339.617 390.773 339.391 390.531C339.422 390.844 339.477 391.133 339.5 391.477V392.188C339.5 392.922 339.555 393.578 339.609 394.109L337.672 394.164C337.602 393.594 337.562 392.852 337.562 392.141L337.578 385.227ZM352.422 384.445C352.109 385.133 350.969 386.391 350.266 387.062C350.891 387.867 351.859 389 352.031 389.102C352.062 389.125 352.125 389.242 352.391 389.242C352.531 389.242 352.672 389.219 352.797 389.195L352.781 390.984C352.641 391.008 352.453 391.031 352.312 391.031C351.984 391.031 351.531 390.953 351.219 390.734C350.656 390.367 349.828 389.336 349.156 388.414L346.562 391.328L345.234 390.07L348.078 386.992L345.531 383.938L346.953 382.836L349.219 385.742C349.688 385.211 350.062 384.93 350.609 383.969C350.766 383.695 350.844 383.211 350.875 383.078L352.734 383.086C352.688 383.469 352.609 384.023 352.422 384.445Z" fill="#EB662B"/>
</g>
<defs>
<clipPath id="clip0_456_69">
<rect width="1192" height="415" fill="white"/>
</clipPath>
</defs>
</svg>
