<svg width="180" height="86" viewBox="0 0 180 86" fill="none" xmlns="http://www.w3.org/2000/svg">
<rect x="8.92383" y="8.44727" width="155.758" height="40.9889" transform="rotate(12.5746 8.92383 8.44727)" fill="#EFECDB"/>
<path d="M160.945 42.358L179.054 37.8933L169.952 78.6991L152.021 82.3637L160.945 42.358Z" fill="#E2DFCD"/>
<path d="M26.8324 3.93885L179.054 37.8936L160.878 42.6584L8.4561 8.65901L26.8324 3.93885Z" fill="#FEF9E5"/>
<ellipse cx="45.2307" cy="11.0456" rx="11.41" ry="3.11472" transform="rotate(12.5746 45.2307 11.0456)" fill="#DDDACB"/>
<rect x="35.3535" y="2.91602" width="7.11935" height="5.65734" transform="rotate(12.5746 35.3535 2.91602)" fill="#DDDACB"/>
<rect x="50.6641" y="6.39648" width="7.11935" height="5.65734" transform="rotate(12.5746 50.6641 6.39648)" fill="#DDDACB"/>
<ellipse cx="46.4621" cy="5.52409" rx="11.41" ry="3.11472" transform="rotate(12.5746 46.4621 5.52409)" fill="#EFECDB"/>
<ellipse cx="79.0823" cy="18.3859" rx="11.41" ry="3.11472" transform="rotate(12.5746 79.0823 18.3859)" fill="#DDDACB"/>
<rect x="69.2051" y="10.2559" width="7.11935" height="5.65734" transform="rotate(12.5746 69.2051 10.2559)" fill="#DDDACB"/>
<rect x="84.5156" y="13.7363" width="7.11935" height="5.65734" transform="rotate(12.5746 84.5156 13.7363)" fill="#DDDACB"/>
<ellipse cx="80.3137" cy="12.8639" rx="11.41" ry="3.11472" transform="rotate(12.5746 80.3137 12.8639)" fill="#EFECDB"/>
<ellipse cx="115.131" cy="26.2179" rx="11.41" ry="3.11472" transform="rotate(12.5746 115.131 26.2179)" fill="#DDDACB"/>
<rect x="105.254" y="18.0879" width="7.11935" height="5.65734" transform="rotate(12.5746 105.254 18.0879)" fill="#DDDACB"/>
<rect x="120.564" y="21.5679" width="7.11935" height="5.65734" transform="rotate(12.5746 120.564 21.5679)" fill="#DDDACB"/>
<ellipse cx="116.363" cy="20.696" rx="11.41" ry="3.11472" transform="rotate(12.5746 116.363 20.696)" fill="#EFECDB"/>
<ellipse cx="151.047" cy="34.6496" rx="11.41" ry="3.11472" transform="rotate(12.5746 151.047 34.6496)" fill="#DDDACB"/>
<rect x="141.17" y="26.5195" width="7.11935" height="5.65734" transform="rotate(12.5746 141.17 26.5195)" fill="#DDDACB"/>
<rect x="156.48" y="30" width="7.11935" height="5.65734" transform="rotate(12.5746 156.48 30)" fill="#DDDACB"/>
<ellipse cx="152.279" cy="29.1276" rx="11.41" ry="3.11472" transform="rotate(12.5746 152.279 29.1276)" fill="#EFECDB"/>
<path d="M121.457 54.485C122.087 51.6599 121.816 50.7635 119.315 50.2055C118.058 49.9251 116.596 50.5657 116.038 51.2512L114.558 57.8846C114.339 58.8677 114.074 59.7624 113.884 60.321L111.94 59.7828C112.239 58.9089 112.407 58.3323 112.621 57.374C114.02 51.1016 115.934 42.4618 115.934 42.4618L117.913 42.9032L116.63 48.6529C117.553 48.3231 118.557 48.0376 119.827 48.3208C121.333 48.6567 122.677 49.0741 123.393 50.4881C124.053 51.7459 123.899 52.7305 123.594 54.0994L123.411 54.9208C122.955 56.9619 122.729 57.9174 122.418 59.3112C122.265 59.9957 122.509 60.4288 123.147 61.0807L121.727 62.2925C120.856 61.5104 120.082 60.6454 120.435 59.0648L121.457 54.485Z" fill="#EB662B"/>
<path d="M102.383 50.3219C101.671 49.7059 101.225 48.718 101.533 47.3366C102.026 45.1863 104.245 44.7275 106.423 45.2134C107.941 45.552 110.02 46.5384 110.76 48.023L109.046 49.0908C108.558 48.172 107.256 47.3329 106.186 47.0941C104.867 46.7999 103.679 46.9137 103.498 47.7226C103.365 48.32 103.55 48.6618 103.998 48.9968C107.057 51.1555 110.187 52.115 109.399 55.6495C108.949 57.6656 107.278 58.4817 105.868 58.5331C105.135 58.5394 104.369 58.46 103.66 58.3017C100.474 57.5911 99.2557 55.5556 99.8525 52.8799L101.804 53.3282C101.432 54.9959 102.09 56.0835 104.02 56.5137C105.55 56.8552 107.178 56.526 107.484 55.157C107.659 54.3729 107.356 53.9135 106.785 53.2506C105.98 52.3523 103.537 51.2979 102.383 50.3219Z" fill="#EB662B"/>
<path d="M92.0753 37.0875L95 37.7398L94.3754 40.54L91.4507 39.8877L92.0753 37.0875ZM92.2787 42.2672L93.7223 42.5892C92.9645 45.9868 91.5056 52.5855 91.5056 52.5855C91.3402 53.6199 91.8767 53.7918 93.0216 54.0472C94.179 54.3054 95.7806 54.3883 96.7836 53.9327L97.3134 55.5402C96.046 56.1851 94.1831 56.1615 92.6399 55.8172C91.582 55.5813 90.6751 55.1961 90.1941 54.7752C89.2667 53.9543 89.3892 52.9365 89.553 52.2022L91.3602 44.1004C90.7504 43.9643 89.315 43.7225 88.0716 43.7326L88.1049 41.8849C89.571 41.8722 90.9844 41.9785 92.2787 42.2672Z" fill="#EB662B"/>
<path d="M80.1992 34.2161L81.6429 34.5381C80.885 37.9357 78.3184 49.6176 78.3184 49.6176C78.153 50.652 78.6895 50.824 79.8344 51.0794C80.9918 51.3375 82.5934 51.4204 83.5964 50.9648L84.1262 52.5723C82.8588 53.2172 80.9959 53.1936 79.4527 52.8494C78.3948 52.6134 77.4879 52.2282 77.0069 51.8074C76.0795 50.9865 76.202 49.9686 76.3658 49.2344L79.2711 36.0341C79.0595 35.9869 78.7263 35.8995 78.3529 35.8162C77.6436 35.6579 76.7392 35.4954 75.9411 35.5003L75.9897 33.6429C77.4557 33.6302 78.9049 33.9274 80.1992 34.2161Z" fill="#EB662B"/>
<path d="M60.6313 49.4352C60.2815 51.0033 61.1317 51.5848 62.7744 51.9513L64.0812 52.2428C65.5124 52.562 67.3561 52.4376 67.8169 50.3717C68.0529 49.3139 66.2291 48.7633 64.7232 48.4274C64.6112 48.4024 63.9018 48.2442 62.0793 47.8638C61.3213 47.9821 60.8062 48.6511 60.6313 49.4352ZM65.363 42.2208C66.9684 42.5789 68.3449 42.2066 68.6141 40.9994C68.9723 39.394 68.0227 38.6726 66.4421 38.3201C64.7496 37.9425 63.2651 38.5651 63.0097 39.7101C62.6876 41.1537 63.7451 41.8599 65.363 42.2208ZM61.0155 39.3959C61.5985 36.7824 63.8025 35.7455 66.8641 36.4284C68.2953 36.7476 69.1607 37.202 69.8586 37.8802C70.6999 37.3885 71.3873 37.4112 72.7562 37.7166L72.301 39.7576C72.1572 39.6994 71.8917 39.601 71.7673 39.5732C71.3317 39.4761 70.8324 39.43 70.5737 39.5944C70.7668 40.2515 70.7 40.7853 70.5667 41.3827C70.042 43.7348 67.809 44.7261 65.0088 44.1015C64.1252 43.9044 63.3606 43.6424 62.621 43.1508C62.3235 43.3718 61.9277 43.7408 61.8138 44.2511C61.6029 45.1969 62.1583 45.8695 63.7264 46.2193C64.05 46.2915 65.6485 46.6219 65.9846 46.6969C68.3243 47.2188 70.3135 48.4333 69.7861 50.7979C69.0671 54.0212 66.6101 54.8449 63.5735 54.1676L62.2916 53.8816C59.6656 53.2959 58.0806 51.6751 58.6608 49.074C58.9384 47.8295 59.5337 47.0347 60.3515 46.59C59.7587 45.9091 59.6073 44.9477 59.8238 43.977C60.0765 42.8445 60.6413 42.1866 61.2972 41.7058C60.9796 41.1385 60.8157 40.292 61.0155 39.3959Z" fill="#EB662B"/>
<path d="M50.6349 34.1012C52.3862 33.6296 53.6117 33.5241 54.9807 33.8295C56.4741 34.1626 58.488 35.6178 58.0744 37.4722L56.4504 44.7526C56.2672 45.574 56.8284 45.9866 57.442 46.5154L56.0857 47.6761C55.1099 46.8967 54.1065 46.0066 54.4646 44.4011L56.022 37.4193C56.2274 36.4984 55.1118 35.8184 54.2905 35.6352C53.494 35.4575 52.1826 35.7137 50.1713 36.1796L48.0615 45.638L46.0924 45.2118L48.0523 36.4255C48.5464 34.2102 48.519 33.8644 48.4813 32.628L50.5752 32.6116C50.6331 32.9381 50.6714 33.4692 50.6349 34.1012Z" fill="#EB662B"/>
<path d="M36.0556 35.383C37.6638 35.7287 40.8872 36.3301 42.6989 36.5252C42.9467 34.4771 41.9604 32.9245 40.2679 32.547C38.1522 32.0751 36.4955 33.4692 36.0556 35.383ZM40.6774 30.6525C45.3692 31.6991 44.7748 36.531 44.3917 38.2485C44.3362 38.4974 44.2946 38.6841 44.2599 38.7808C40.7225 38.24 37.8517 37.7564 35.6309 37.2872C35.2061 39.1913 35.9127 41.0604 38.4516 41.6267C40.2313 42.0236 41.496 41.2737 42.1312 40.7099L43.3594 42.4079C42.7242 42.8541 40.939 44.1804 37.9771 43.5197C34.2684 42.6924 33.0427 39.6363 33.9116 35.7409C34.7055 32.1816 37.1554 29.8669 40.6774 30.6525Z" fill="#EB662B"/>
<rect x="8.92383" y="8.44727" width="155.758" height="40.9889" transform="rotate(12.5746 8.92383 8.44727)" fill="#EFECDB"/>
<path d="M26.8324 3.93885L179.054 37.8936L160.878 42.6584L8.4561 8.65901L26.8324 3.93885Z" fill="#FEF9E5"/>
<ellipse cx="45.2307" cy="11.0456" rx="11.41" ry="3.11472" transform="rotate(12.5746 45.2307 11.0456)" fill="#DDDACB"/>
<rect x="35.3535" y="2.91602" width="7.11935" height="5.65734" transform="rotate(12.5746 35.3535 2.91602)" fill="#DDDACB"/>
<rect x="50.6641" y="6.39648" width="7.11935" height="5.65734" transform="rotate(12.5746 50.6641 6.39648)" fill="#DDDACB"/>
<ellipse cx="46.4621" cy="5.52409" rx="11.41" ry="3.11472" transform="rotate(12.5746 46.4621 5.52409)" fill="#EFECDB"/>
<ellipse cx="79.0823" cy="18.3859" rx="11.41" ry="3.11472" transform="rotate(12.5746 79.0823 18.3859)" fill="#DDDACB"/>
<rect x="69.2051" y="10.2559" width="7.11935" height="5.65734" transform="rotate(12.5746 69.2051 10.2559)" fill="#DDDACB"/>
<rect x="84.5156" y="13.7363" width="7.11935" height="5.65734" transform="rotate(12.5746 84.5156 13.7363)" fill="#DDDACB"/>
<ellipse cx="80.3137" cy="12.8639" rx="11.41" ry="3.11472" transform="rotate(12.5746 80.3137 12.8639)" fill="#EFECDB"/>
<ellipse cx="115.131" cy="26.2179" rx="11.41" ry="3.11472" transform="rotate(12.5746 115.131 26.2179)" fill="#DDDACB"/>
<rect x="105.254" y="18.0879" width="7.11935" height="5.65734" transform="rotate(12.5746 105.254 18.0879)" fill="#DDDACB"/>
<rect x="120.564" y="21.5679" width="7.11935" height="5.65734" transform="rotate(12.5746 120.564 21.5679)" fill="#DDDACB"/>
<ellipse cx="116.363" cy="20.696" rx="11.41" ry="3.11472" transform="rotate(12.5746 116.363 20.696)" fill="#EFECDB"/>
<ellipse cx="151.047" cy="34.6496" rx="11.41" ry="3.11472" transform="rotate(12.5746 151.047 34.6496)" fill="#DDDACB"/>
<rect x="141.17" y="26.5195" width="7.11935" height="5.65734" transform="rotate(12.5746 141.17 26.5195)" fill="#DDDACB"/>
<rect x="156.48" y="30" width="7.11935" height="5.65734" transform="rotate(12.5746 156.48 30)" fill="#DDDACB"/>
<ellipse cx="152.279" cy="29.1276" rx="11.41" ry="3.11472" transform="rotate(12.5746 152.279 29.1276)" fill="#EFECDB"/>
<path d="M121.457 54.485C122.087 51.6599 121.816 50.7635 119.315 50.2055C118.058 49.9251 116.596 50.5657 116.038 51.2512L114.558 57.8846C114.339 58.8677 114.074 59.7624 113.884 60.321L111.94 59.7828C112.239 58.9089 112.407 58.3323 112.621 57.374C114.02 51.1016 115.934 42.4618 115.934 42.4618L117.913 42.9032L116.63 48.6529C117.553 48.3231 118.557 48.0376 119.827 48.3208C121.333 48.6567 122.677 49.0741 123.393 50.4881C124.053 51.7459 123.899 52.7305 123.594 54.0994L123.411 54.9208C122.955 56.9619 122.729 57.9174 122.418 59.3112C122.265 59.9957 122.509 60.4288 123.147 61.0807L121.727 62.2925C120.856 61.5104 120.082 60.6454 120.435 59.0648L121.457 54.485Z" fill="#EB662B"/>
<path d="M102.383 50.3219C101.671 49.7059 101.225 48.718 101.533 47.3366C102.026 45.1863 104.245 44.7275 106.423 45.2134C107.941 45.552 110.02 46.5384 110.76 48.023L109.046 49.0908C108.558 48.172 107.256 47.3329 106.186 47.0941C104.867 46.7999 103.679 46.9137 103.498 47.7226C103.365 48.32 103.55 48.6618 103.998 48.9968C107.057 51.1555 110.187 52.115 109.399 55.6495C108.949 57.6656 107.278 58.4817 105.868 58.5331C105.135 58.5394 104.369 58.46 103.66 58.3017C100.474 57.5911 99.2557 55.5556 99.8525 52.8799L101.804 53.3282C101.432 54.9959 102.09 56.0835 104.02 56.5137C105.55 56.8552 107.178 56.526 107.484 55.157C107.659 54.3729 107.356 53.9135 106.785 53.2506C105.98 52.3523 103.537 51.2979 102.383 50.3219Z" fill="#EB662B"/>
<path d="M92.0753 37.0875L95 37.7398L94.3754 40.54L91.4507 39.8877L92.0753 37.0875ZM92.2787 42.2672L93.7223 42.5892C92.9645 45.9868 91.5056 52.5855 91.5056 52.5855C91.3402 53.6199 91.8767 53.7918 93.0216 54.0472C94.179 54.3054 95.7806 54.3883 96.7836 53.9327L97.3134 55.5402C96.046 56.1851 94.1831 56.1615 92.6399 55.8172C91.582 55.5813 90.6751 55.1961 90.1941 54.7752C89.2667 53.9543 89.3892 52.9365 89.553 52.2022L91.3602 44.1004C90.7504 43.9643 89.315 43.7225 88.0716 43.7326L88.1049 41.8849C89.571 41.8722 90.9844 41.9785 92.2787 42.2672Z" fill="#EB662B"/>
<path d="M80.1992 34.2161L81.6429 34.5381C80.885 37.9357 78.3184 49.6176 78.3184 49.6176C78.153 50.652 78.6895 50.824 79.8344 51.0794C80.9918 51.3375 82.5934 51.4204 83.5964 50.9648L84.1262 52.5723C82.8588 53.2172 80.9959 53.1936 79.4527 52.8494C78.3948 52.6134 77.4879 52.2282 77.0069 51.8074C76.0795 50.9865 76.202 49.9686 76.3658 49.2344L79.2711 36.0341C79.0595 35.9869 78.7263 35.8995 78.3529 35.8162C77.6436 35.6579 76.7392 35.4954 75.9411 35.5003L75.9897 33.6429C77.4557 33.6302 78.9049 33.9274 80.1992 34.2161Z" fill="#EB662B"/>
<path d="M60.6313 49.4352C60.2815 51.0033 61.1317 51.5848 62.7744 51.9513L64.0812 52.2428C65.5124 52.562 67.3561 52.4376 67.8169 50.3717C68.0529 49.3139 66.2291 48.7633 64.7232 48.4274C64.6112 48.4024 63.9018 48.2442 62.0793 47.8638C61.3213 47.9821 60.8062 48.6511 60.6313 49.4352ZM65.363 42.2208C66.9684 42.5789 68.3449 42.2066 68.6141 40.9994C68.9723 39.394 68.0227 38.6726 66.4421 38.3201C64.7496 37.9425 63.2651 38.5651 63.0097 39.7101C62.6876 41.1537 63.7451 41.8599 65.363 42.2208ZM61.0155 39.3959C61.5985 36.7824 63.8025 35.7455 66.8641 36.4284C68.2953 36.7476 69.1607 37.202 69.8586 37.8802C70.6999 37.3885 71.3873 37.4112 72.7562 37.7166L72.301 39.7576C72.1572 39.6994 71.8917 39.601 71.7673 39.5732C71.3317 39.4761 70.8324 39.43 70.5737 39.5944C70.7668 40.2515 70.7 40.7853 70.5667 41.3827C70.042 43.7348 67.809 44.7261 65.0088 44.1015C64.1252 43.9044 63.3606 43.6424 62.621 43.1508C62.3235 43.3718 61.9277 43.7408 61.8138 44.2511C61.6029 45.1969 62.1583 45.8695 63.7264 46.2193C64.05 46.2915 65.6485 46.6219 65.9846 46.6969C68.3243 47.2188 70.3135 48.4333 69.7861 50.7979C69.0671 54.0212 66.6101 54.8449 63.5735 54.1676L62.2916 53.8816C59.6656 53.2959 58.0806 51.6751 58.6608 49.074C58.9384 47.8295 59.5337 47.0347 60.3515 46.59C59.7587 45.9091 59.6073 44.9477 59.8238 43.977C60.0765 42.8445 60.6413 42.1866 61.2972 41.7058C60.9796 41.1385 60.8157 40.292 61.0155 39.3959Z" fill="#EB662B"/>
<path d="M50.6349 34.1012C52.3862 33.6296 53.6117 33.5241 54.9807 33.8295C56.4741 34.1626 58.488 35.6178 58.0744 37.4722L56.4504 44.7526C56.2672 45.574 56.8284 45.9866 57.442 46.5154L56.0857 47.6761C55.1099 46.8967 54.1065 46.0066 54.4646 44.4011L56.022 37.4193C56.2274 36.4984 55.1118 35.8184 54.2905 35.6352C53.494 35.4575 52.1826 35.7137 50.1713 36.1796L48.0615 45.638L46.0924 45.2118L48.0523 36.4255C48.5464 34.2102 48.519 33.8644 48.4813 32.628L50.5752 32.6116C50.6331 32.9381 50.6714 33.4692 50.6349 34.1012Z" fill="#EB662B"/>
<path d="M36.0556 35.383C37.6638 35.7287 40.8872 36.3301 42.6989 36.5252C42.9467 34.4771 41.9604 32.9245 40.2679 32.547C38.1522 32.0751 36.4955 33.4692 36.0556 35.383ZM40.6774 30.6525C45.3692 31.6991 44.7748 36.531 44.3917 38.2485C44.3362 38.4974 44.2946 38.6841 44.2599 38.7808C40.7225 38.24 37.8517 37.7564 35.6309 37.2872C35.2061 39.1913 35.9127 41.0604 38.4516 41.6267C40.2313 42.0236 41.496 41.2737 42.1312 40.7099L43.3594 42.4079C42.7242 42.8541 40.939 44.1804 37.9771 43.5197C34.2684 42.6924 33.0427 39.6363 33.9116 35.7409C34.7055 32.1816 37.1554 29.8669 40.6774 30.6525Z" fill="#EB662B"/>
</svg>
