<svg width="276" height="294" viewBox="0 0 276 294" fill="none" xmlns="http://www.w3.org/2000/svg">
<path d="M46.176 126.719C80.6109 126.452 149.214 124.05 187.119 119.779C182.848 76.802 155.62 49.5744 119.317 49.5744C73.9375 49.5744 46.443 85.6109 46.176 126.719ZM119.05 9C219.685 9 229.562 110.436 229.562 147.273C229.562 152.612 229.562 156.616 229.295 158.752C154.552 163.823 93.6908 167.027 46.176 167.561C46.176 208.402 69.1326 243.371 123.588 243.371C161.76 243.371 184.182 222.283 194.593 207.868L227.426 236.964C216.482 248.976 186.051 284.212 122.52 284.212C42.9728 284.212 4 227.354 4 143.803C4 67.4592 43.5067 9 119.05 9Z" fill="#EFECDB"/>
<path d="M185.658 201L247.159 250.5" stroke="#EB662B" stroke-width="2"/>
<path d="M177 163.926L272 158.212" stroke="#EB662B" stroke-width="2"/>
</svg>
