<svg width="243" height="208" viewBox="0 0 243 208" fill="none" xmlns="http://www.w3.org/2000/svg">
<path d="M161.214 56.7795C157.848 81.7965 140.407 121.266 121.132 118.671C101.856 116.077 84.3325 71.9026 87.6994 46.8856C91.0662 21.8687 115.748 12.8591 135.023 15.4533C154.299 18.0474 164.581 31.7626 161.214 56.7795Z" fill="#EFECDB"/>
<path d="M64.9718 106.286C83.7968 89.4697 122.711 70.8248 135.669 85.3294C148.626 99.834 133.214 144.789 114.389 161.606C95.5643 178.423 70.9547 169.218 57.9976 154.714C45.0405 140.209 46.1467 123.103 64.9718 106.286Z" fill="#EFECDB"/>
<path d="M91.2967 49.888C110.003 66.8371 132.643 103.571 119.584 117.984C106.524 132.397 60.1958 121.807 41.4899 104.857C22.784 87.9083 29.3451 62.4661 42.4042 48.0534C55.4634 33.6406 72.5908 32.9389 91.2967 49.888Z" fill="#EFECDB"/>
<path d="M175.302 130.606C165.231 107.46 137.673 74.2549 119.839 82.015C102.005 89.7752 97.2129 137.057 107.285 160.203C117.356 183.349 143.56 185.275 161.394 177.515C179.228 169.754 185.374 153.752 175.302 130.606Z" fill="#F2EDE1"/>
<path d="M193.066 131.292C168.316 136.258 125.319 132.625 121.493 113.556C117.666 94.4871 153.723 63.5293 178.473 58.5634C203.222 53.5974 219.78 73.998 223.606 93.0671C227.432 112.136 217.815 126.326 193.066 131.292Z" fill="#EFECDB"/>
<path d="M111.07 81.0281C110.886 86.401 114.923 92.2323 116.217 97.3709C117.549 102.658 120.146 97.3421 121.217 95.0026C121.939 93.4244 122.56 91.9249 123.214 90.3167C123.243 90.2456 120.523 95.7405 120.039 97.4069C118.348 103.231 130.017 96.04 131.918 95.2127C134.129 94.2505 140.473 90.9678 138.635 92.5288C136.354 94.4667 133.762 96.2026 131.065 97.4898C126.507 99.6652 121.453 100.263 116.498 99.5957C112.418 99.0466 100.371 97.1304 104.473 96.7813C107.788 96.4992 112.198 97.581 115.368 98.35C116.268 98.5686 123.009 99.9847 123.132 100.83C123.555 103.739 111.946 107.985 110.337 108.813C109.42 109.285 105.535 111.307 105.563 111.28C107.639 109.242 110.693 108.135 113.155 106.663C116.155 104.869 119.586 103.006 122.97 102.038C125.194 101.402 123.826 105.071 123.66 106.3C123.102 110.451 122.543 114.601 121.984 118.752C121.731 120.634 123.532 114.779 123.704 114.097C123.965 113.062 125.763 103.371 126.199 103.43C126.333 103.448 126.758 106.864 126.895 107.146C128.255 109.93 130.726 111.592 132.768 113.779C133.443 114.502 135.1 115.72 134.353 113.685C133.178 110.484 130.321 108.108 128.513 105.279C127.485 103.669 130.576 104.566 131.195 104.649C134.592 105.106 137.597 106.126 140.847 106.563" stroke="#EA6626" stroke-width="2" stroke-linecap="round"/>
</svg>
