<svg width="259" height="231" viewBox="0 0 259 231" fill="none" xmlns="http://www.w3.org/2000/svg">
<path d="M147.931 56.0968C154.464 80.4792 153.579 123.621 134.793 128.655C116.006 133.688 82.8135 99.6779 76.2803 75.2955C69.747 50.9131 89.0508 33.0885 107.837 28.0547C126.624 23.0209 141.397 31.7144 147.931 56.0968Z" fill="#EFECDB"/>
<path d="M78.1979 138.867C89.089 116.095 117.814 83.8943 135.359 92.2858C152.905 100.677 156.007 148.1 145.116 170.872C134.225 193.644 107.969 194.633 90.4234 186.242C72.8777 177.85 67.3068 161.639 78.1979 138.867Z" fill="#EFECDB"/>
<path d="M80.758 76.6795C104.551 85.1115 139.597 110.285 133.101 128.617C126.604 146.949 79.7721 155.029 55.9796 146.597C32.1871 138.165 28.4375 112.159 34.9343 93.8269C41.4311 75.495 56.9655 68.2475 80.758 76.6795Z" fill="#EFECDB"/>
<path d="M189.38 118.793C171.167 101.316 132.942 81.294 119.476 95.327C106.009 109.36 119.807 154.837 138.02 172.314C156.233 189.792 181.155 181.472 194.622 167.439C208.088 153.405 207.593 136.271 189.38 118.793Z" fill="#F2EDE1"/>
<path d="M206.035 112.581C185.111 126.7 144.034 139.917 133.155 123.795C122.276 107.673 143.62 65.2118 164.544 51.0925C185.468 36.9731 208.609 49.4177 219.488 65.5397C230.366 81.6617 226.959 98.4616 206.035 112.581Z" fill="#EFECDB"/>
<path d="M111.002 97.7955C112.904 102.824 118.875 106.65 122.05 110.893C125.316 115.259 125.665 109.352 125.751 106.781C125.809 105.046 125.805 103.423 125.789 101.687C125.788 101.61 125.395 107.729 125.591 109.453C126.274 115.479 134.272 104.347 135.707 102.851C137.376 101.111 141.965 95.6374 140.871 97.786C139.513 100.453 137.79 103.054 135.797 105.281C132.429 109.045 127.996 111.543 123.167 112.837C119.19 113.903 107.335 116.777 110.986 114.874C113.936 113.336 118.422 112.635 121.643 112.124C122.559 111.978 129.325 110.687 129.764 111.42C131.275 113.941 122.199 122.333 121.033 123.717C120.369 124.506 117.563 127.869 117.578 127.833C118.709 125.152 121.101 122.954 122.805 120.647C124.882 117.836 127.33 114.795 130.08 112.598C131.887 111.153 132.038 115.066 132.359 116.264C133.443 120.31 134.527 124.355 135.611 128.4C136.103 130.235 135.509 124.138 135.404 123.442C135.246 122.386 133.171 112.751 133.596 112.637C133.726 112.602 135.435 115.591 135.67 115.798C137.998 117.844 140.918 118.425 143.646 119.656C144.547 120.063 146.545 120.548 145.072 118.958C142.754 116.457 139.202 115.366 136.444 113.452C134.874 112.362 138.072 111.999 138.676 111.837C141.987 110.95 145.152 110.733 148.32 109.884" stroke="#EA6626" stroke-width="2" stroke-linecap="round"/>
</svg>
