<svg width="181" height="165" viewBox="0 0 181 165" fill="none" xmlns="http://www.w3.org/2000/svg">
<path d="M123.489 58.2062C117.461 73.9354 100.075 96.889 87.9553 92.2447C75.8361 87.6003 71.2389 56.2221 77.2667 40.4928C83.2945 24.7636 100.706 22.7026 112.826 27.3469C124.945 31.9913 129.517 42.477 123.489 58.2062Z" fill="#EFECDB"/>
<path d="M53.3862 75.5784C68.1935 67.5481 96.3279 61.4152 102.515 72.8242C108.702 84.2331 91.7915 111.061 76.9841 119.091C62.1768 127.122 47.6084 117.366 41.4211 105.957C35.2338 94.5477 38.5788 83.6087 53.3862 75.5784Z" fill="#EFECDB"/>
<path d="M79.1425 42.995C88.6878 56.8742 97.7499 84.2062 87.0561 91.5607C76.3623 98.9152 47.9023 84.924 38.357 71.0448C28.8117 57.1656 36.9792 41.6507 47.673 34.2962C58.3668 26.9416 69.5973 29.1158 79.1425 42.995Z" fill="#EFECDB"/>
<path d="M121.302 108.313C118.315 91.7353 105.518 65.9403 92.7447 68.2414C79.9717 70.5425 69.5995 100.512 72.5861 117.089C75.5726 133.667 92.294 138.941 105.067 136.64C117.84 134.339 124.288 124.891 121.302 108.313Z" fill="#F2EDE1"/>
<path d="M132.732 111.486C115.897 110.911 88.5321 101.949 88.9754 88.9783C89.4187 76.0072 117.588 61.4394 134.423 62.0147C151.258 62.59 158.878 78.3808 158.435 91.3519C157.992 104.323 149.567 112.061 132.732 111.486Z" fill="#EFECDB"/>
<path d="M87.2012 66.2537C86.2571 69.7148 87.9829 74.1215 88.0344 77.6572C88.0873 81.2954 90.5906 78.2419 91.6451 76.887C92.3565 75.973 92.9901 75.0946 93.6618 74.1507C93.6915 74.109 91.0812 77.2597 90.511 78.2675C88.5183 81.79 97.2008 78.912 98.5624 78.6666C100.146 78.3812 104.77 77.2235 103.336 77.9551C101.557 78.8633 99.6077 79.5926 97.6586 80.0144C94.3646 80.7272 90.991 80.3392 87.8756 79.1453C85.3103 78.1622 77.7811 75.068 80.4985 75.4712C82.6946 75.797 85.3923 77.1766 87.3324 78.1627C87.8838 78.4429 92.044 80.3976 91.994 80.9656C91.8223 82.9195 83.6312 83.8941 82.4593 84.1848C81.791 84.3506 78.9577 85.0674 78.9801 85.0538C80.6413 84.0495 82.7946 83.7996 84.6193 83.2217C86.8429 82.5174 89.3567 81.8343 91.7029 81.7253C93.2453 81.6536 91.7933 83.826 91.4971 84.5989C90.497 87.2086 89.4969 89.8182 88.4969 92.4279C88.0433 93.6115 90.1121 90.0858 90.3286 89.669C90.657 89.0368 93.3122 83.0196 93.5867 83.1248C93.6705 83.1569 93.4221 85.4408 93.4681 85.6447C93.9235 87.6619 95.2728 89.1205 96.2635 90.8544C96.5909 91.4274 97.4796 92.4726 97.307 91.0364C97.0353 88.7772 95.5448 86.7958 94.8055 84.6809C94.3847 83.4773 96.2544 84.5343 96.6438 84.6836C98.7797 85.5021 100.574 86.6255 102.618 87.4086" stroke="#EA6626" stroke-width="2" stroke-linecap="round"/>
</svg>
