<svg width="179" height="146" viewBox="0 0 179 146" fill="none" xmlns="http://www.w3.org/2000/svg">
<path d="M115.802 30.8894C115.977 51.1061 106.638 84.381 91.0607 84.516C75.4839 84.6509 56.5679 51.6208 56.3928 31.4041C56.2176 11.1874 74.7612 1.23811 90.3381 1.10316C105.915 0.968209 115.627 10.6727 115.802 30.8894Z" fill="#EFECDB"/>
<path d="M45.1279 81.0823C58.1407 65.6093 86.8731 46.4026 98.7949 56.4288C110.717 66.4551 103.61 103.849 90.5971 119.322C77.5843 134.795 57.0268 130.296 45.105 120.269C33.1831 110.243 32.1151 96.5553 45.1279 81.0823Z" fill="#EFECDB"/>
<path d="M59.5869 33.3754C76.3445 44.6861 98.4706 71.2356 89.7558 84.1472C81.0411 97.0587 43.1067 93.9301 26.3492 82.6194C9.59164 71.3087 11.9006 50.3916 20.6154 37.4801C29.3302 24.5685 42.8294 22.0648 59.5869 33.3754Z" fill="#EFECDB"/>
<path d="M135.366 87.8186C124.749 70.6131 99.1258 47.4209 85.8691 55.601C72.6123 63.7811 74.1889 101.812 84.8057 119.017C95.4224 136.223 116.416 134.77 129.673 126.59C142.93 118.41 145.983 105.024 135.366 87.8186Z" fill="#F2EDE1"/>
<path d="M149.527 86.3426C130.47 93.0937 95.9679 95.1028 90.7662 80.4195C85.5645 65.7362 110.631 37.0925 129.688 30.3414C148.745 23.5903 164.192 37.8816 169.394 52.5649C174.596 67.2481 168.584 79.5915 149.527 86.3426Z" fill="#EFECDB"/>
<path d="M78.8042 55.8156C79.2697 60.0963 83.1328 64.2605 84.7432 68.1873C86.4001 72.2278 87.8552 67.7177 88.438 65.7412C88.8313 64.4078 89.1531 63.1484 89.4889 61.799C89.5037 61.7394 87.9719 66.4051 87.7776 67.7813C87.0987 72.591 95.5331 65.5631 96.9461 64.691C98.5895 63.6768 103.246 60.3529 101.966 61.7994C100.378 63.5952 98.5205 65.2662 96.5286 66.5933C93.1623 68.8363 89.2236 69.8845 85.2193 69.9192C81.9222 69.9477 72.1532 69.7983 75.3655 69.0552C77.9616 68.4546 81.5809 68.8108 84.1811 69.0602C84.92 69.131 90.4253 69.4873 90.619 70.1436C91.2854 72.4016 82.564 77.0876 81.3827 77.9271C80.709 78.4058 77.8591 80.4507 77.8781 80.4258C79.2926 78.5743 81.588 77.3495 83.3724 75.9026C85.5469 74.1393 88.0547 72.2723 90.6275 71.12C92.3188 70.3626 91.6511 73.4269 91.6597 74.4203C91.6888 77.7745 91.7178 81.1286 91.7469 84.4828C91.7601 86.0041 92.5224 81.1574 92.5812 80.5968C92.6704 79.7463 92.9936 71.859 93.3463 71.856C93.4541 71.855 94.1796 74.5153 94.3205 74.7228C95.7152 76.776 97.8629 77.8126 99.731 79.3142C100.348 79.8104 101.8 80.5876 100.977 79.0593C99.6809 76.6551 97.1457 75.0965 95.3911 73.0589C94.3925 71.8992 96.9452 72.2588 97.4456 72.2545C100.191 72.2307 102.689 72.6973 105.315 72.6745" stroke="#EA6626" stroke-width="2" stroke-linecap="round"/>
</svg>
