<svg width="165" height="155" viewBox="0 0 165 155" fill="none" xmlns="http://www.w3.org/2000/svg">
<path d="M84.0121 41.3681C91.2612 53.9238 97.0098 78.09 87.0545 83.8378C77.0991 89.5855 53.292 75.8454 46.0429 63.2896C38.7938 50.7338 47.1899 37.7812 57.1452 32.0334C67.1006 26.2857 76.763 28.8123 84.0121 41.3681Z" fill="#EFECDB"/>
<path d="M56.346 98.395C59.2404 84.0053 70.9114 61.5697 82.1066 63.4936C93.3018 65.4175 101.938 91.343 99.0438 105.733C96.1494 120.122 81.3597 124.788 70.1645 122.864C58.9693 120.94 53.4516 112.785 56.346 98.395Z" fill="#EFECDB"/>
<path d="M48.7906 63.3588C63.5446 64.3263 87.1255 72.854 86.087 84.0821C85.0484 95.3101 59.5836 107.15 44.8297 106.182C30.0757 105.215 24.1746 91.3185 25.2132 80.0904C26.2517 68.8623 34.0367 62.3914 48.7906 63.3588Z" fill="#EFECDB"/>
<path d="M116.672 69.7907C103.781 62.911 79.1389 57.7505 73.5135 67.6766C67.888 77.6026 82.3254 100.768 95.2168 107.648C108.108 114.528 121.077 105.988 126.703 96.0621C132.328 86.136 129.564 76.6705 116.672 69.7907Z" fill="#F2EDE1"/>
<path d="M125.244 63.7207C115.39 74.8636 93.9423 88.6622 85.4187 81.388C76.895 74.1138 82.8808 47.1203 92.7355 35.9773C102.59 24.8344 117.555 28.1388 126.078 35.413C134.602 42.6872 135.099 52.5777 125.244 63.7207Z" fill="#EFECDB"/>
<path d="M69.052 70.3793C70.8621 72.882 74.8129 74.0768 77.2332 75.9424C79.7235 77.8621 79.0658 74.5178 78.7424 73.0722C78.5242 72.0969 78.2863 71.1937 78.0256 70.2293C78.0141 70.1867 78.6774 73.6561 79.0385 74.5857C80.3003 77.8348 83.2358 70.3813 83.8353 69.3232C84.5326 68.0926 86.3493 64.3249 86.0384 65.693C85.6523 67.3915 85.0494 69.1099 84.2387 70.6625C82.8688 73.2865 80.7095 75.3728 78.1503 76.8504C76.0431 78.067 69.7169 81.5256 71.5175 79.8937C72.9726 78.575 75.4226 77.4814 77.1803 76.6917C77.6798 76.4672 81.341 74.688 81.6971 75.0272C82.9221 76.1944 78.9756 82.2904 78.5133 83.2439C78.2497 83.7877 77.1414 86.1004 77.1449 86.0778C77.3996 84.4078 78.4413 82.8087 79.0764 81.2568C79.8504 79.3655 80.8018 77.2883 82.0472 75.6336C82.8659 74.5459 83.5188 76.7014 83.875 77.3184C85.0777 79.4015 86.2804 81.4847 87.4831 83.5678C88.0286 84.5126 86.8073 81.2101 86.6471 80.8388C86.4042 80.2755 83.8275 75.2347 84.0529 75.1045C84.1218 75.0647 85.5268 76.4615 85.6905 76.5398C87.3109 77.3143 89.0561 77.1805 90.7858 77.4386C91.3574 77.5239 92.564 77.4812 91.4956 76.8266C89.8149 75.797 87.6367 75.7458 85.7907 75.1119C84.74 74.7511 86.5062 74.0475 86.826 73.8628C88.5806 72.8498 90.3494 72.2328 92.0281 71.2637" stroke="#EA6626" stroke-width="2" stroke-linecap="round"/>
</svg>
