<svg width="104" height="99" viewBox="0 0 104 99" fill="none" xmlns="http://www.w3.org/2000/svg">
<path d="M31.0699 58.8193C36.0855 51.0666 48.0119 40.7267 53.9853 44.5912C59.9587 48.4557 58.8678 65.8056 53.8521 73.5583C48.8365 81.311 39.2646 80.4429 33.2912 76.5784C27.3178 72.7139 26.0543 66.572 31.0699 58.8193Z" fill="#EFECDB"/>
<path d="M70.6368 57.4479C61.7851 60.0764 46.0009 60.1768 43.9757 53.3566C41.9504 46.5365 54.0609 34.0648 62.9126 31.4363C71.7643 28.8077 78.4718 35.6914 80.4971 42.5116C82.5223 49.3317 79.4885 54.8194 70.6368 57.4479Z" fill="#EFECDB"/>
<path d="M53.1288 72.0031C49.5826 63.4775 47.8203 47.7917 54.3892 45.0593C60.9581 42.327 74.636 53.0565 78.1822 61.5821C81.7284 70.1077 75.5895 77.503 69.0206 80.2353C62.4518 82.9676 56.675 80.5287 53.1288 72.0031Z" fill="#EFECDB"/>
<path d="M37.9216 32.1934C37.6444 41.4229 41.5843 56.7078 48.6955 56.9214C55.8068 57.135 64.7664 42.2376 65.0436 33.0081C65.3209 23.7785 56.9506 19.0546 49.8394 18.841C42.7281 18.6274 38.1988 22.9639 37.9216 32.1934Z" fill="#F2EDE1"/>
<path d="M32.1513 29.1966C41.115 31.4132 54.7759 39.3209 53.0679 46.2274C51.36 53.1338 34.6011 57.754 25.6374 55.5374C16.6737 53.3207 14.3765 43.9881 16.0844 37.0816C17.7923 30.1752 23.1876 26.9799 32.1513 29.1966Z" fill="#EFECDB"/>
<path d="M51.4431 58.616C52.3418 56.8668 51.9156 54.3078 52.2888 52.4057C52.6728 50.4484 50.9841 51.8024 50.265 52.4095C49.7798 52.8191 49.3405 53.2184 48.8732 53.6485C48.8526 53.6675 50.6096 52.2735 51.0297 51.7976C52.4977 50.1343 47.5148 50.6937 46.7568 50.671C45.8752 50.6446 43.2642 50.7415 44.1157 50.5115C45.1728 50.2261 46.3011 50.0559 47.3943 50.0506C49.2417 50.0417 51.007 50.6322 52.5426 51.6256C53.807 52.4436 57.4944 54.9565 56.0827 54.4322C54.9418 54.0086 53.6513 52.9629 52.7225 52.2141C52.4586 52.0014 50.449 50.4815 50.5401 50.1825C50.8537 49.154 55.3572 49.5598 56.0187 49.5367C56.3959 49.5235 57.9967 49.4602 57.9831 49.4649C56.9783 49.8153 55.7952 49.7053 54.7511 49.8084C53.4786 49.9341 52.053 50.0155 50.7823 49.8081C49.947 49.6717 50.972 48.6712 51.2184 48.2902C52.0506 47.0039 52.8827 45.7177 53.7149 44.4314C54.0923 43.848 52.5832 45.5045 52.4198 45.7034C52.172 46.0053 50.0659 48.9315 49.9307 48.844C49.8893 48.8172 50.2815 47.6205 50.2799 47.506C50.2643 46.3724 49.7059 45.4372 49.3711 44.395C49.2605 44.0506 48.9023 43.3893 48.8321 44.1791C48.7218 45.4216 49.2966 46.6532 49.4534 47.8713C49.5426 48.5645 48.6597 47.7856 48.4678 47.6615C47.415 46.9804 46.5798 46.1745 45.5726 45.5229" stroke="#EA6626" stroke-width="2" stroke-linecap="round"/>
</svg>
