<svg width="134" height="129" viewBox="0 0 134 129" fill="none" xmlns="http://www.w3.org/2000/svg">
<path d="M40.1205 77.9156C46.8962 67.4422 62.6347 53.2325 70.1007 58.0626C77.5667 62.8928 75.371 85.8641 68.5953 96.3374C61.8195 106.811 49.6105 106.105 42.1445 101.275C34.6785 96.4447 33.3447 88.3889 40.1205 77.9156Z" fill="#EFECDB"/>
<path d="M90.8156 74.2796C79.3671 78.1601 59.1636 79.0202 56.8863 70.1034C54.6089 61.1866 70.6813 44.152 82.1298 40.2714C93.5783 36.3909 101.845 45.1759 104.122 54.0927C106.399 63.0095 102.264 70.3991 90.8156 74.2796Z" fill="#EFECDB"/>
<path d="M67.7419 94.3163C63.5968 83.2166 62.0645 62.5751 70.5965 58.6627C79.1286 54.7502 96.1375 68.2947 100.283 79.3945C104.428 90.4942 96.231 100.547 87.699 104.46C79.167 108.372 71.887 105.416 67.7419 94.3163Z" fill="#EFECDB"/>
<path d="M50.1164 42.424C49.3363 54.63 53.6736 74.6414 62.764 74.5958C71.8543 74.5503 84.0064 54.4562 84.7865 42.2502C85.5666 30.0443 75.0731 24.1892 65.9828 24.2348C56.8924 24.2804 50.8965 30.218 50.1164 42.424Z" fill="#F2EDE1"/>
<path d="M42.8696 38.7306C54.2381 41.2459 71.3553 51.0632 68.8514 60.2661C66.3475 69.4689 44.6884 76.3451 33.3199 73.8298C21.9513 71.3145 19.4417 59.0909 21.9456 49.888C24.4495 40.6852 31.501 36.2152 42.8696 38.7306Z" fill="#EFECDB"/>
<path d="M66.2023 76.7081C67.4329 74.3557 67.0055 70.9946 67.5707 68.4645C68.1523 65.8611 65.9289 67.7276 64.9807 68.5628C64.341 69.1263 63.7604 69.6741 63.1426 70.2638C63.1153 70.2899 65.428 68.3673 65.9875 67.7193C67.9427 65.4542 61.5404 66.4229 60.5715 66.4278C59.4445 66.4336 56.0988 66.6819 57.199 66.3389C58.5649 65.913 60.0167 65.6362 61.4158 65.5788C63.7804 65.4819 66.0122 66.1806 67.9315 67.4223C69.5118 68.4446 74.1146 71.5945 72.3323 70.967C70.8918 70.4599 69.2886 69.1379 68.1346 68.1915C67.8067 67.9226 65.305 66.0073 65.4354 65.6081C65.8841 64.2349 71.6285 64.5634 72.476 64.5024C72.9593 64.4676 75.0108 64.3102 74.9932 64.3171C73.6912 64.8263 72.1822 64.7354 70.8413 64.9198C69.2073 65.1444 67.3792 65.3177 65.7627 65.1023C64.7 64.9606 66.0577 63.5915 66.3907 63.0769C67.5148 61.3392 68.639 59.6016 69.7632 57.864C70.273 57.0759 68.2655 59.3337 68.0473 59.6041C67.7162 60.0143 64.8863 63.9772 64.7172 63.8678C64.6656 63.8344 65.2225 62.2353 65.2258 62.0841C65.258 60.5873 64.5866 59.3775 64.2062 58.0161C64.0805 57.5662 63.6526 56.7091 63.5264 57.7557C63.3279 59.4022 64.0068 61.0028 64.1513 62.6047C64.2335 63.5165 63.1395 62.5282 62.8997 62.373C61.5838 61.5218 60.5522 60.4956 59.2933 59.6811" stroke="#EA6626" stroke-width="2" stroke-linecap="round"/>
</svg>
