<svg width="844" height="818" viewBox="0 0 844 818" fill="none" xmlns="http://www.w3.org/2000/svg">
<path d="M196.489 320.206C190.461 335.935 173.075 358.889 160.955 354.245C148.836 349.6 144.239 318.222 150.267 302.493C156.295 286.764 173.706 284.703 185.826 289.347C197.945 293.991 202.517 304.477 196.489 320.206Z" fill="#EFECDB"/>
<path d="M126.386 337.578C141.194 329.548 169.328 323.415 175.515 334.824C181.702 346.233 164.791 373.061 149.984 381.091C135.177 389.122 120.608 379.366 114.421 367.957C108.234 356.548 111.579 345.609 126.386 337.578Z" fill="#EFECDB"/>
<path d="M152.143 304.995C161.688 318.874 170.75 346.206 160.056 353.561C149.362 360.915 120.902 346.924 111.357 333.045C101.812 319.166 109.979 303.651 120.673 296.296C131.367 288.942 142.597 291.116 152.143 304.995Z" fill="#EFECDB"/>
<path d="M194.302 370.313C191.315 353.735 178.518 327.94 165.745 330.241C152.972 332.543 142.6 362.512 145.586 379.089C148.573 395.667 165.294 400.941 178.067 398.64C190.84 396.339 197.288 386.891 194.302 370.313Z" fill="#F2EDE1"/>
<path d="M205.732 373.486C188.897 372.911 161.532 363.949 161.975 350.978C162.419 338.007 190.588 323.439 207.423 324.015C224.258 324.59 231.878 340.381 231.435 353.352C230.992 366.323 222.567 374.061 205.732 373.486Z" fill="#EFECDB"/>
<path d="M160.201 328.254C159.257 331.715 160.983 336.122 161.034 339.657C161.087 343.295 163.591 340.242 164.645 338.887C165.357 337.973 165.99 337.095 166.662 336.151C166.691 336.109 164.081 339.26 163.511 340.268C161.518 343.79 170.201 340.912 171.562 340.667C173.146 340.381 177.77 339.223 176.336 339.955C174.557 340.863 172.608 341.593 170.659 342.014C167.365 342.727 163.991 342.339 160.876 341.145C158.31 340.162 150.781 337.068 153.498 337.471C155.695 337.797 158.392 339.177 160.332 340.163C160.884 340.443 165.044 342.398 164.994 342.966C164.822 344.92 156.631 345.894 155.459 346.185C154.791 346.351 151.958 347.067 151.98 347.054C153.641 346.049 155.795 345.8 157.619 345.222C159.843 344.517 162.357 343.834 164.703 343.725C166.245 343.654 164.793 345.826 164.497 346.599C163.497 349.209 162.497 351.818 161.497 354.428C161.043 355.612 163.112 352.086 163.329 351.669C163.657 351.037 166.312 345.02 166.587 345.125C166.671 345.157 166.422 347.441 166.468 347.645C166.924 349.662 168.273 351.121 169.263 352.854C169.591 353.427 170.48 354.473 170.307 353.036C170.035 350.777 168.545 348.796 167.805 346.681C167.385 345.477 169.254 346.534 169.644 346.684C171.78 347.502 173.574 348.625 175.618 349.409" stroke="#EA6626" stroke-width="2" stroke-linecap="round"/>
<path d="M287.214 491.78C283.848 516.796 266.407 556.266 247.132 553.671C227.856 551.077 210.332 506.903 213.699 481.886C217.066 456.869 241.748 447.859 261.023 450.453C280.299 453.047 290.581 466.763 287.214 491.78Z" fill="#EFECDB"/>
<path d="M190.972 541.286C209.797 524.47 248.711 505.825 261.669 520.329C274.626 534.834 259.214 579.789 240.389 596.606C221.564 613.423 196.955 604.218 183.998 589.714C171.041 575.209 172.147 558.103 190.972 541.286Z" fill="#EFECDB"/>
<path d="M217.297 484.888C236.003 501.837 258.643 538.571 245.584 552.984C232.524 567.397 186.196 556.807 167.49 539.857C148.784 522.908 155.345 497.466 168.404 483.053C181.463 468.641 198.591 467.939 217.297 484.888Z" fill="#EFECDB"/>
<path d="M301.302 565.606C291.231 542.46 263.673 509.255 245.839 517.015C228.005 524.775 223.213 572.057 233.285 595.203C243.356 618.349 269.56 620.275 287.394 612.515C305.228 604.754 311.374 588.752 301.302 565.606Z" fill="#F2EDE1"/>
<path d="M319.066 566.292C294.316 571.258 251.319 567.625 247.493 548.556C243.666 529.487 279.723 498.529 304.473 493.563C329.222 488.597 345.78 508.998 349.606 528.067C353.432 547.136 343.815 561.326 319.066 566.292Z" fill="#EFECDB"/>
<path d="M237.07 516.028C236.886 521.401 240.923 527.232 242.217 532.371C243.549 537.658 246.146 532.342 247.217 530.003C247.939 528.424 248.56 526.925 249.214 525.317C249.243 525.246 246.523 530.741 246.039 532.407C244.348 538.231 256.017 531.04 257.918 530.213C260.129 529.251 266.473 525.968 264.635 527.529C262.354 529.467 259.762 531.203 257.065 532.49C252.507 534.665 247.453 535.263 242.498 534.596C238.418 534.047 226.371 532.13 230.473 531.781C233.788 531.499 238.198 532.581 241.368 533.35C242.268 533.569 249.009 534.985 249.132 535.83C249.555 538.739 237.946 542.985 236.337 543.813C235.42 544.285 231.535 546.307 231.563 546.28C233.639 544.242 236.693 543.135 239.155 541.663C242.155 539.869 245.586 538.006 248.97 537.038C251.194 536.402 249.826 540.071 249.66 541.3C249.102 545.451 248.543 549.601 247.984 553.752C247.731 555.634 249.532 549.779 249.704 549.097C249.965 548.062 251.763 538.371 252.199 538.43C252.333 538.448 252.758 541.864 252.895 542.146C254.255 544.93 256.726 546.592 258.768 548.779C259.443 549.502 261.1 550.72 260.353 548.685C259.178 545.484 256.321 543.108 254.513 540.279C253.485 538.669 256.576 539.566 257.195 539.649C260.592 540.106 263.597 541.126 266.847 541.563" stroke="#EA6626" stroke-width="2" stroke-linecap="round"/>
<path d="M712.931 271.097C719.464 295.479 718.579 338.621 699.793 343.655C681.006 348.688 647.814 314.678 641.28 290.296C634.747 265.913 654.051 248.088 672.837 243.055C691.624 238.021 706.397 246.714 712.931 271.097Z" fill="#EFECDB"/>
<path d="M643.198 353.867C654.089 331.095 682.814 298.894 700.359 307.286C717.905 315.677 721.007 363.1 710.116 385.872C699.225 408.644 672.969 409.633 655.423 401.242C637.878 392.85 632.307 376.639 643.198 353.867Z" fill="#EFECDB"/>
<path d="M645.758 291.68C669.551 300.112 704.597 325.285 698.101 343.617C691.604 361.949 644.772 370.029 620.98 361.597C597.187 353.165 593.438 327.159 599.934 308.827C606.431 290.495 621.965 283.248 645.758 291.68Z" fill="#EFECDB"/>
<path d="M754.38 333.793C736.167 316.316 697.942 296.294 684.476 310.327C671.009 324.36 684.807 369.837 703.02 387.314C721.233 404.792 746.155 396.472 759.622 382.439C773.088 368.406 772.593 351.271 754.38 333.793Z" fill="#F2EDE1"/>
<path d="M771.035 327.581C750.111 341.7 709.034 354.917 698.155 338.795C687.276 322.673 708.62 280.212 729.544 266.092C750.468 251.973 773.609 264.418 784.488 280.54C795.366 296.662 791.959 313.462 771.035 327.581Z" fill="#EFECDB"/>
<path d="M676.002 312.796C677.904 317.824 683.875 321.65 687.05 325.893C690.316 330.259 690.665 324.352 690.751 321.781C690.809 320.046 690.805 318.423 690.789 316.687C690.788 316.61 690.395 322.729 690.591 324.453C691.274 330.479 699.272 319.347 700.707 317.851C702.376 316.111 706.965 310.637 705.871 312.786C704.513 315.453 702.79 318.054 700.797 320.281C697.429 324.045 692.996 326.543 688.167 327.837C684.19 328.903 672.335 331.777 675.986 329.874C678.936 328.336 683.422 327.635 686.643 327.124C687.559 326.978 694.325 325.687 694.764 326.42C696.275 328.941 687.199 337.333 686.033 338.717C685.369 339.506 682.563 342.869 682.578 342.833C683.709 340.153 686.101 337.954 687.805 335.647C689.882 332.836 692.33 329.795 695.08 327.598C696.887 326.153 697.038 330.066 697.359 331.264C698.443 335.31 699.527 339.355 700.611 343.4C701.103 345.235 700.509 339.138 700.404 338.442C700.246 337.386 698.171 327.751 698.596 327.637C698.726 327.602 700.435 330.591 700.67 330.798C702.998 332.844 705.918 333.425 708.646 334.656C709.547 335.063 711.545 335.548 710.072 333.958C707.754 331.458 704.202 330.366 701.444 328.452C699.874 327.362 703.072 326.999 703.676 326.837C706.987 325.95 710.152 325.733 713.32 324.884" stroke="#EA6626" stroke-width="2" stroke-linecap="round"/>
<path d="M393.802 302.889C393.977 323.106 384.638 356.381 369.061 356.516C353.484 356.651 334.568 323.621 334.393 303.404C334.218 283.187 352.761 273.238 368.338 273.103C383.915 272.968 393.627 282.673 393.802 302.889Z" fill="#EFECDB"/>
<path d="M323.128 353.082C336.141 337.609 364.873 318.403 376.795 328.429C388.717 338.455 381.61 375.849 368.597 391.322C355.584 406.795 335.027 402.296 323.105 392.269C311.183 382.243 310.115 368.555 323.128 353.082Z" fill="#EFECDB"/>
<path d="M337.587 305.375C354.344 316.686 376.471 343.236 367.756 356.147C359.041 369.059 321.107 365.93 304.349 354.619C287.592 343.309 289.901 322.392 298.615 309.48C307.33 296.569 320.829 294.065 337.587 305.375Z" fill="#EFECDB"/>
<path d="M413.366 359.819C402.749 342.613 377.126 319.421 363.869 327.601C350.612 335.781 352.189 373.812 362.806 391.017C373.422 408.223 394.416 406.77 407.673 398.59C420.93 390.41 423.983 377.024 413.366 359.819Z" fill="#F2EDE1"/>
<path d="M427.527 358.343C408.47 365.094 373.968 367.103 368.766 352.42C363.565 337.736 388.631 309.093 407.688 302.341C426.745 295.59 442.192 309.882 447.394 324.565C452.596 339.248 446.584 351.591 427.527 358.343Z" fill="#EFECDB"/>
<path d="M356.804 327.816C357.27 332.096 361.133 336.261 362.743 340.187C364.4 344.228 365.855 339.718 366.438 337.741C366.831 336.408 367.153 335.148 367.489 333.799C367.504 333.739 365.972 338.405 365.778 339.781C365.099 344.591 373.533 337.563 374.946 336.691C376.589 335.677 381.246 332.353 379.966 333.799C378.378 335.595 376.52 337.266 374.529 338.593C371.162 340.836 367.224 341.884 363.219 341.919C359.922 341.948 350.153 341.798 353.366 341.055C355.962 340.455 359.581 340.811 362.181 341.06C362.92 341.131 368.425 341.487 368.619 342.144C369.285 344.402 360.564 349.088 359.383 349.927C358.709 350.406 355.859 352.451 355.878 352.426C357.293 350.574 359.588 349.35 361.372 347.903C363.547 346.139 366.055 344.272 368.627 343.12C370.319 342.363 369.651 345.427 369.66 346.42C369.689 349.775 369.718 353.129 369.747 356.483C369.76 358.004 370.522 353.157 370.581 352.597C370.67 351.746 370.994 343.859 371.346 343.856C371.454 343.855 372.18 346.515 372.321 346.723C373.715 348.776 375.863 349.813 377.731 351.314C378.348 351.81 379.8 352.588 378.977 351.059C377.681 348.655 375.146 347.096 373.391 345.059C372.392 343.899 374.945 344.259 375.446 344.254C378.191 344.231 380.689 344.697 383.315 344.675" stroke="#EA6626" stroke-width="2" stroke-linecap="round"/>
<path d="M513.012 491.368C520.261 503.924 526.01 528.09 516.054 533.838C506.099 539.586 482.292 525.845 475.043 513.29C467.794 500.734 476.19 487.781 486.145 482.033C496.101 476.286 505.763 478.812 513.012 491.368Z" fill="#EFECDB"/>
<path d="M485.346 548.395C488.24 534.005 499.911 511.57 511.107 513.494C522.302 515.418 530.938 541.343 528.044 555.733C525.149 570.122 510.36 574.788 499.164 572.864C487.969 570.94 482.452 562.785 485.346 548.395Z" fill="#EFECDB"/>
<path d="M477.791 513.359C492.545 514.326 516.126 522.854 515.087 534.082C514.048 545.31 488.584 557.15 473.83 556.182C459.076 555.215 453.175 541.319 454.213 530.09C455.252 518.862 463.037 512.391 477.791 513.359Z" fill="#EFECDB"/>
<path d="M545.672 519.791C532.781 512.911 508.139 507.751 502.513 517.677C496.888 527.603 511.325 550.768 524.217 557.648C537.108 564.528 550.077 555.988 555.703 546.062C561.328 536.136 558.564 526.671 545.672 519.791Z" fill="#F2EDE1"/>
<path d="M554.244 513.721C544.39 524.864 522.942 538.662 514.419 531.388C505.895 524.114 511.881 497.12 521.736 485.977C531.59 474.834 546.555 478.139 555.078 485.413C563.602 492.687 564.099 502.578 554.244 513.721Z" fill="#EFECDB"/>
<path d="M498.052 520.379C499.862 522.882 503.813 524.077 506.233 525.942C508.724 527.862 508.066 524.518 507.742 523.072C507.524 522.097 507.286 521.194 507.026 520.229C507.014 520.187 507.677 523.656 508.038 524.586C509.3 527.835 512.236 520.381 512.835 519.323C513.533 518.093 515.349 514.325 515.038 515.693C514.652 517.391 514.049 519.11 513.239 520.663C511.869 523.287 509.709 525.373 507.15 526.85C505.043 528.067 498.717 531.526 500.517 529.894C501.973 528.575 504.423 527.481 506.18 526.692C506.68 526.467 510.341 524.688 510.697 525.027C511.922 526.194 507.976 532.29 507.513 533.244C507.25 533.788 506.141 536.1 506.145 536.078C506.4 534.408 507.441 532.809 508.076 531.257C508.85 529.366 509.802 527.288 511.047 525.634C511.866 524.546 512.519 526.701 512.875 527.318C514.078 529.402 515.28 531.485 516.483 533.568C517.029 534.513 515.807 531.21 515.647 530.839C515.404 530.276 512.827 525.235 513.053 525.105C513.122 525.065 514.527 526.462 514.691 526.54C516.311 527.314 518.056 527.181 519.786 527.439C520.357 527.524 521.564 527.481 520.496 526.827C518.815 525.797 516.637 525.746 514.791 525.112C513.74 524.751 515.506 524.047 515.826 523.863C517.581 522.85 519.349 522.233 521.028 521.264" stroke="#EA6626" stroke-width="2" stroke-linecap="round"/>
</svg>
