<svg width="162" height="155" viewBox="0 0 162 155" fill="none" xmlns="http://www.w3.org/2000/svg">
<path d="M48.5475 91.9049C56.3845 79.7913 75.0195 63.6352 84.3529 69.6735C93.6864 75.7118 91.9818 102.821 84.1449 114.935C76.3079 127.048 61.3517 125.692 52.0182 119.654C42.6848 113.615 40.7106 104.019 48.5475 91.9049Z" fill="#EFECDB"/>
<path d="M110.37 89.7617C96.5395 93.8688 71.8767 94.0256 68.7122 83.3691C65.5477 72.7126 84.4705 53.2255 98.3012 49.1184C112.132 45.0114 122.613 55.7671 125.777 66.4236C128.941 77.0801 124.201 85.6546 110.37 89.7617Z" fill="#EFECDB"/>
<path d="M83.0151 112.505C77.4742 99.184 74.7206 74.6748 84.9845 70.4056C95.2484 66.1363 116.62 82.9012 122.161 96.2225C127.702 109.544 118.11 121.099 107.846 125.368C97.5823 129.637 88.5561 125.827 83.0151 112.505Z" fill="#EFECDB"/>
<path d="M59.2542 50.3021C58.8211 64.7233 64.9772 88.606 76.0886 88.9398C87.2 89.2735 101.199 65.9962 101.633 51.575C102.066 37.1539 88.9872 29.7727 77.8758 29.439C66.7644 29.1052 59.6874 35.8809 59.2542 50.3021Z" fill="#F2EDE1"/>
<path d="M50.2381 45.6195C64.2438 49.083 85.589 61.4388 82.9204 72.2302C80.2518 83.0215 54.0659 90.2406 40.0601 86.7771C26.0543 83.3136 22.4649 68.7313 25.1335 57.9399C27.8021 47.1486 36.2323 42.156 50.2381 45.6195Z" fill="#EFECDB"/>
<path d="M80.383 91.5873C81.7871 88.8541 81.1213 84.8556 81.7043 81.8835C82.3043 78.8254 79.6658 80.9409 78.5421 81.8895C77.7841 82.5295 77.0976 83.1534 76.3675 83.8254C76.3353 83.8551 79.0806 81.6771 79.737 80.9335C82.0307 78.3346 74.245 79.2087 73.0606 79.1732C71.6831 79.1319 67.6034 79.2833 68.9338 78.924C70.5855 78.478 72.3486 78.2121 74.0566 78.2038C76.9433 78.1898 79.7016 79.1124 82.1009 80.6647C84.0765 81.9428 89.8381 85.8692 87.6323 85.0501C85.8497 84.3881 83.8332 82.7542 82.3821 81.5843C81.9697 81.2518 78.8296 78.877 78.972 78.4099C79.462 76.8029 86.4988 77.4369 87.5323 77.4007C88.1217 77.3801 90.623 77.2813 90.6018 77.2887C89.0318 77.8361 87.1831 77.6642 85.5516 77.8253C83.5635 78.0217 81.3359 78.149 79.3505 77.8248C78.0453 77.6118 79.6468 76.0484 80.0319 75.4531C81.3322 73.4433 82.6324 71.4336 83.9326 69.4238C84.5223 68.5122 82.1643 71.1004 81.9091 71.4113C81.5219 71.883 78.2311 76.4552 78.0198 76.3184C77.9552 76.2766 78.5679 74.4067 78.5654 74.2277C78.541 72.4566 77.6686 70.9954 77.1455 69.3669C76.9726 68.8288 76.4129 67.7955 76.3033 69.0296C76.1308 70.9709 77.029 72.8953 77.274 74.7985C77.4135 75.8817 76.0339 74.6648 75.734 74.4708C74.089 73.4065 72.7841 72.1473 71.2103 71.1292" stroke="#EA6626" stroke-width="2" stroke-linecap="round"/>
</svg>
