<svg width="65" height="70" viewBox="0 0 65 70" fill="none" xmlns="http://www.w3.org/2000/svg">
<path d="M24.5152 47.7579C30.1057 44.8972 37.9219 37.5384 35.7177 33.2309C33.5136 28.9234 21.6992 28.4688 16.1087 31.3295C10.5182 34.1902 10.4475 40.7265 12.6516 45.034C14.8558 49.3414 18.9247 50.6186 24.5152 47.7579Z" fill="#EFECDB"/>
<path d="M28.1635 21.0802C25.7764 26.8887 24.6233 37.5618 29.0988 39.4011C33.5742 41.2403 42.8455 33.9035 45.2326 28.0949C47.6197 22.2863 43.4232 17.2746 38.9477 15.4353C34.4723 13.5961 30.5506 15.2716 28.1635 21.0802Z" fill="#EFECDB"/>
<path d="M17.1117 31.9252C22.6365 34.9108 33.1288 37.1816 35.4292 32.9248C37.7296 28.668 31.41 18.6755 25.8852 15.6899C20.3604 12.7043 14.9345 16.3496 12.6341 20.6064C10.3337 24.8632 11.5868 28.9396 17.1117 31.9252Z" fill="#EFECDB"/>
<path d="M43.0021 44.9521C36.7381 44.5052 26.6668 40.7885 27.0112 35.9621C27.3556 31.1358 38.0516 26.0977 44.3156 26.5447C50.5796 26.9916 53.2005 32.9799 52.8561 37.8063C52.5117 42.6326 49.2662 45.3991 43.0021 44.9521Z" fill="#F2EDE1"/>
<path d="M44.6332 49.0626C43.7496 42.8451 39.3382 33.0581 34.5477 33.7389C29.7572 34.4197 25.4789 45.4416 26.3625 51.6591C27.246 57.8765 33.4028 60.0726 38.1933 59.3918C42.9838 58.711 45.5168 55.28 44.6332 49.0626Z" fill="#EFECDB"/>
<path d="M26.0535 33.9862C27.2989 33.4984 29.0011 33.9627 30.3138 33.8409C31.6645 33.7157 30.6323 34.7652 30.1721 35.21C29.8616 35.5102 29.5612 35.78 29.238 36.0665C29.2238 36.0792 30.2877 34.9862 30.6386 34.7347C31.865 33.8557 31.1439 37.1888 31.1071 37.7033C31.0644 38.3016 30.8194 40.0616 31.0335 39.5013C31.2993 38.8057 31.492 38.0539 31.5708 37.3146C31.7038 36.0652 31.4257 34.8301 30.859 33.7228C30.3925 32.8111 28.9457 30.1433 29.2034 31.1346C29.4116 31.9356 30.0304 32.8807 30.4732 33.5606C30.599 33.7538 31.4892 35.2181 31.6978 35.177C32.4152 35.0355 32.4503 31.9604 32.5114 31.5144C32.5463 31.2601 32.6992 30.1813 32.695 30.1902C32.3889 30.8459 32.382 31.6541 32.2404 32.3535C32.0679 33.2058 31.9148 34.1648 31.9678 35.0388C32.0026 35.6134 32.7501 34.9887 33.0248 34.8481C33.9523 34.3735 34.8799 33.8989 35.8074 33.4242C36.2281 33.209 35.0035 34.1162 34.8577 34.2131C34.6364 34.36 32.5117 35.5838 32.5616 35.6814C32.5768 35.7112 33.4135 35.5281 33.4909 35.5371C34.2568 35.6256 34.8512 36.0676 35.5334 36.3658C35.7588 36.4644 36.1816 36.7522 35.6424 36.7454C34.7942 36.7346 34.0003 36.261 33.1869 36.0712C32.724 35.9631 33.1903 36.6141 33.2611 36.7525C33.6496 37.5117 34.1375 38.1322 34.5091 38.8585" stroke="#EA6626" stroke-width="2" stroke-linecap="round"/>
</svg>
