<svg width="56" height="59" viewBox="0 0 56 59" fill="none" xmlns="http://www.w3.org/2000/svg">
<path d="M15.4482 29.6787C19.7353 26.8541 28.1187 24.2584 30.295 27.5615C32.4713 30.8647 28.0355 39.4522 23.7484 42.2767C19.4613 45.1013 14.7831 42.5185 12.6068 39.2153C10.4306 35.9122 11.1611 32.5032 15.4482 29.6787Z" fill="#EFECDB"/>
<path d="M35.8961 37.8301C30.8025 37.1883 22.7455 33.7091 23.24 29.7845C23.7345 25.8599 32.6885 22.2201 37.7821 22.8619C42.8757 23.5037 44.7504 28.5079 44.2559 32.4325C43.7614 36.3571 40.9897 38.4719 35.8961 37.8301Z" fill="#EFECDB"/>
<path d="M23.7275 41.3238C23.8293 36.1909 26.4405 27.8122 30.3954 27.8906C34.3502 27.969 38.9129 36.4898 38.8111 41.6227C38.7094 46.7556 33.9305 49.147 29.9757 49.0686C26.0208 48.9902 23.6258 46.4567 23.7275 41.3238Z" fill="#EFECDB"/>
<path d="M24.8913 17.6581C22.6859 22.2941 21.2728 30.9558 24.8448 32.655C28.4169 34.3543 36.3095 28.775 38.5149 24.1389C40.7203 19.5028 37.5162 15.2262 33.9442 13.5269C30.3721 11.8277 27.0967 13.022 24.8913 17.6581Z" fill="#F2EDE1"/>
<path d="M22.624 14.8419C26.691 17.9751 31.8761 25.0557 29.462 28.1893C27.0479 31.3228 17.4838 29.9263 13.4168 26.7931C9.34987 23.66 10.2679 18.3956 12.682 15.262C15.096 12.1285 18.557 11.7087 22.624 14.8419Z" fill="#EFECDB"/>
<path d="M25.8641 34.132C26.7128 33.4425 27.0682 32.0446 27.6836 31.1598C28.3168 30.2494 27.1544 30.561 26.6526 30.7091C26.314 30.8091 26.0011 30.9141 25.667 31.0285C25.6523 31.0336 26.8584 30.717 27.1787 30.5687C28.298 30.0504 25.6364 29.2207 25.2557 29.0396C24.8128 28.829 23.4621 28.2943 23.9469 28.3677C24.5489 28.4588 25.1613 28.6246 25.7189 28.8664C26.6613 29.275 27.4278 29.9704 27.9873 30.8196C28.4479 31.5187 29.7629 33.6226 29.1615 33.04C28.6755 32.5692 28.2525 31.7482 27.9472 31.1594C27.8605 30.992 27.1775 29.7689 27.2907 29.6371C27.6804 29.1837 29.882 30.3975 30.2239 30.5337C30.4189 30.6114 31.2479 30.9372 31.2399 30.9366C30.6501 30.8902 30.0724 30.5695 29.5179 30.3885C28.8421 30.1679 28.0982 29.8905 27.4978 29.5007C27.1031 29.2444 27.8486 28.9644 28.0592 28.8256C28.7705 28.357 29.4818 27.8883 30.1931 27.4197C30.5157 27.2072 29.377 27.7128 29.2493 27.7776C29.0557 27.8758 27.3292 28.8942 27.2799 28.8194C27.2648 28.7966 27.7321 28.2751 27.7569 28.2165C28.0025 27.636 27.9274 27.0351 27.9901 26.4297C28.0108 26.2296 27.9764 25.8129 27.764 26.1992C27.43 26.807 27.4471 27.5625 27.2545 28.2175C27.1449 28.5904 26.8696 27.9965 26.7997 27.8903C26.4161 27.3082 26.1713 26.7111 25.8043 26.1542" stroke="#EA6626" stroke-width="2" stroke-linecap="round"/>
</svg>
