<svg width="133" height="129" viewBox="0 0 133 129" fill="none" xmlns="http://www.w3.org/2000/svg">
<path d="M39.5853 77.9161C46.361 67.4427 62.0996 53.233 69.5655 58.0631C77.0315 62.8932 74.8358 85.8645 68.0601 96.3379C61.2844 106.811 49.0753 106.105 41.6093 101.275C34.1434 96.4452 32.8096 88.3894 39.5853 77.9161Z" fill="#EFECDB"/>
<path d="M90.2804 74.2801C78.8319 78.1606 58.6285 79.0206 56.3511 70.1038C54.0737 61.187 70.1462 44.1524 81.5947 40.2719C93.0432 36.3914 101.309 45.1764 103.587 54.0931C105.864 63.0099 101.729 70.3996 90.2804 74.2801Z" fill="#EFECDB"/>
<path d="M67.2077 94.3168C63.0626 83.2171 61.5303 62.5756 70.0623 58.6632C78.5944 54.7507 95.6033 68.2952 99.7484 79.395C103.894 90.4947 95.6969 100.548 87.1648 104.46C78.6328 108.372 71.3528 105.417 67.2077 94.3168Z" fill="#EFECDB"/>
<path d="M49.5803 42.4245C48.8001 54.6305 53.1375 74.6419 62.2279 74.5963C71.3182 74.5508 83.4702 54.4567 84.2504 42.2507C85.0305 30.0448 74.537 24.1897 65.4466 24.2353C56.3563 24.2808 50.3604 30.2185 49.5803 42.4245Z" fill="#F2EDE1"/>
<path d="M42.3344 38.731C53.7029 41.2464 70.8201 51.0637 68.3162 60.2666C65.8123 69.4694 44.1532 76.3456 32.7847 73.8303C21.4162 71.315 18.9065 59.0914 21.4104 49.8885C23.9143 40.6857 30.9659 36.2157 42.3344 38.731Z" fill="#EFECDB"/>
<path d="M65.6672 76.7085C66.8977 74.3562 66.4704 70.9951 67.0355 68.465C67.6171 65.8616 65.3938 67.7281 64.4455 68.5633C63.8058 69.1268 63.2252 69.6746 62.6074 70.2643C62.5801 70.2904 64.8928 68.3678 65.4523 67.7197C67.4076 65.4547 61.0053 66.4234 60.0363 66.4283C58.9094 66.4341 55.5636 66.6824 56.6639 66.3393C58.0297 65.9135 59.4815 65.6367 60.8806 65.5793C63.2452 65.4823 65.4771 66.1811 67.3963 67.4228C68.9766 68.4451 73.5795 71.595 71.7971 70.9675C70.3567 70.4604 68.7534 69.1383 67.5994 68.192C67.2715 67.923 64.7698 66.0077 64.9003 65.6086C65.3489 64.2354 71.0933 64.5639 71.9409 64.5029C72.4242 64.4681 74.4756 64.3107 74.4581 64.3176C73.1561 64.8268 71.6471 64.7359 70.3062 64.9203C68.6721 65.1449 66.844 65.3182 65.2275 65.1028C64.1648 64.9611 65.5226 63.592 65.8555 63.0774C66.9797 61.3397 68.1039 59.6021 69.228 57.8645C69.7379 57.0763 67.7303 59.3342 67.5121 59.6046C67.1811 60.0148 64.3511 63.9777 64.182 63.8683C64.1304 63.8349 64.6874 62.2358 64.6906 62.0845C64.7229 60.5878 64.0515 59.378 63.6711 58.0166C63.5454 57.5667 63.1175 56.7095 62.9913 57.7562C62.7928 59.4027 63.4716 61.0033 63.6161 62.6052C63.6984 63.517 62.6044 62.5287 62.3645 62.3735C61.0487 61.5222 60.0171 60.4961 58.7582 59.6816" stroke="#EA6626" stroke-width="2" stroke-linecap="round"/>
</svg>
