<svg width="70" height="73" viewBox="0 0 70 73" fill="none" xmlns="http://www.w3.org/2000/svg">
<path d="M19.5462 36.6513C24.8978 33.1254 35.3629 29.8851 38.0795 34.0084C40.7962 38.1317 35.2589 48.8516 29.9074 52.3774C24.5558 55.9033 18.716 52.6792 15.9993 48.5559C13.2827 44.4326 14.1946 40.1771 19.5462 36.6513Z" fill="#EFECDB"/>
<path d="M45.0214 46.8547C38.663 46.0535 28.6054 41.7104 29.2227 36.8113C29.84 31.9122 41.0173 27.3687 47.3757 28.1699C53.7341 28.971 56.0743 35.2177 55.457 40.1168C54.8397 45.0159 51.3798 47.6559 45.0214 46.8547Z" fill="#EFECDB"/>
<path d="M29.883 51.1881C30.01 44.7807 33.2696 34.3216 38.2065 34.4194C43.1434 34.5173 48.8389 45.1539 48.7119 51.5613C48.5849 57.9687 42.6194 60.9538 37.6826 60.8559C32.7457 60.7581 29.756 57.5955 29.883 51.1881Z" fill="#EFECDB"/>
<path d="M31.2847 21.6743C28.5317 27.4615 26.7676 38.2739 31.2266 40.395C35.6856 42.5162 45.5381 35.5516 48.2911 29.7644C51.0441 23.9772 47.0444 18.6386 42.5854 16.5174C38.1264 14.3962 34.0377 15.8871 31.2847 21.6743Z" fill="#F2EDE1"/>
<path d="M28.5046 18.1306C33.5814 22.0417 40.054 30.8805 37.0405 34.7921C34.027 38.7038 22.0881 36.9605 17.0113 33.0493C11.9345 29.1382 13.0804 22.5667 16.0939 18.655C19.1074 14.7434 23.4278 14.2194 28.5046 18.1306Z" fill="#EFECDB"/>
<path d="M32.5497 42.2104C33.609 41.3498 34.0527 39.6048 34.8209 38.5003C35.6114 37.3639 34.1603 37.7527 33.5339 37.9377C33.1113 38.0625 32.7206 38.1936 32.3036 38.3364C32.2852 38.3427 33.7908 37.9475 34.1906 37.7624C35.5878 37.1154 32.2654 36.0796 31.7901 35.8536C31.2373 35.5907 29.5512 34.9232 30.1564 35.0149C30.9078 35.1286 31.6723 35.3355 32.3684 35.6373C33.5448 36.1475 34.5016 37.0155 35.2 38.0755C35.775 38.9483 37.4165 41.5745 36.6658 40.8473C36.0592 40.2596 35.5311 39.2348 35.15 38.4997C35.0417 38.2908 34.1891 36.764 34.3305 36.5995C34.8169 36.0335 37.5652 37.5487 37.992 37.7187C38.2354 37.8156 39.2702 38.2224 39.2603 38.2216C38.524 38.1637 37.8029 37.7634 37.1106 37.5374C36.267 37.262 35.3384 36.9157 34.5889 36.4292C34.0962 36.1093 35.0269 35.7597 35.2898 35.5864C36.1777 35.0015 37.0656 34.4165 37.9535 33.8315C38.3562 33.5662 36.9348 34.1974 36.7754 34.2782C36.5337 34.4008 34.3785 35.6722 34.3169 35.5788C34.2982 35.5502 34.8814 34.8993 34.9124 34.8261C35.219 34.1015 35.1253 33.3513 35.2035 32.5956C35.2294 32.3459 35.1864 31.8257 34.9213 32.3079C34.5043 33.0666 34.5257 34.0097 34.2853 34.8274C34.1484 35.2928 33.8048 34.5514 33.7175 34.419C33.2387 33.6922 32.9331 32.947 32.475 32.2517" stroke="#EA6626" stroke-width="2" stroke-linecap="round"/>
</svg>
