<svg width="387" height="83" viewBox="0 0 387 83" fill="none" xmlns="http://www.w3.org/2000/svg">
<path d="M37.3092 46.7028L34.3245 38.795L32.1298 47.1926C32.942 46.9808 33.707 46.9489 34.8385 46.8469L37.3092 46.7028ZM33.0033 35.9902L35.3391 35.8927L41.1463 51.0993C41.3177 51.5984 41.6097 52.6946 41.6678 53.4311L39.4276 53.5246C39.4145 53.2105 39.2095 52.2338 39.0848 51.8695L38.0089 49.0408C36.0846 49.1622 33.0668 49.3155 31.566 49.7477L30.8621 52.2264C30.742 52.6283 30.5873 53.5105 30.6033 53.893L28.3903 53.9853C28.388 53.6023 28.5837 52.3899 28.7368 51.7952L33.0033 35.9902ZM45.4683 39.2466L45.7129 45.4352C46.9576 45.0959 48.2377 44.9466 49.8769 44.8782L51.9805 44.7904C51.8243 41.0476 51.8198 41.2667 51.7274 39.0538L53.8993 38.9631L54.4809 52.8963L52.3226 52.9864L52.0672 46.8667L51.3159 46.8981C49.2532 46.9842 47.3972 47.1027 45.7996 47.5115C45.9951 52.1969 45.9631 50.7751 46.0663 53.2475L43.8671 53.3393L43.2838 39.3652L45.4683 39.2466ZM59.1584 38.7436L66.9992 38.4163C68.0237 38.3736 68.5508 38.5431 69.2019 38.7349L68.7251 40.7526C68.1155 40.5728 67.8674 40.5285 67.0597 40.5211L61.4455 40.7555L61.9392 52.585L59.74 52.6768L59.1584 38.7436ZM71.5803 52.1142L71.7515 49.986C71.9445 50.019 72.1374 50.052 72.3423 50.0435C73.5307 49.9939 74.8551 48.6113 74.4155 38.0794L78.5949 37.8913L80.2204 37.8234C81.2859 37.779 82.2421 37.739 83.0093 37.7618L83.5903 51.6813L81.3774 51.7736C81.2924 49.4099 81.0141 42.087 81.0278 42.0864L80.936 39.8872L76.6604 40.0656C76.6535 46.1278 76.3386 52.025 72.5274 52.1841C72.2406 52.1961 71.911 52.1688 71.5803 52.1142ZM95.3027 37.2349L97.4752 37.1579C97.4752 37.1579 97.6441 42.1865 97.7764 45.3556C97.8693 47.5822 97.9816 49.6164 98.128 51.1566L95.9833 51.2461C95.7629 48.9154 95.7241 47.9865 95.6181 45.4457C95.5679 44.2436 95.5278 41.317 95.5278 41.317C93.8468 44.6439 91.1504 48.889 89.5341 51.4742L87.3645 51.6195L86.7806 37.6317L88.9525 37.541C89.0295 39.3851 89.1767 44.5515 89.3159 47.8845C91.6685 44.2559 93.0844 41.1316 95.3027 37.2349ZM106.571 32.4679C108.046 32.4063 109.13 31.499 109.168 30.4301L111.452 30.7452C111.225 33.1767 108.912 34.4638 106.658 34.5579C104.937 34.6297 102.423 34.0778 101.639 31.0317L103.753 30.5329C104.189 32.1158 105.3 32.5209 106.571 32.4679ZM109.782 36.6306L111.955 36.5536C111.955 36.5536 112.124 41.5821 112.256 44.7513C112.349 46.9778 112.461 49.012 112.608 50.5522L110.463 50.6417C110.242 48.311 110.204 47.3821 110.098 44.8413C110.047 43.6393 110.007 40.7126 110.007 40.7126C108.326 44.0395 105.63 48.2846 104.014 50.8698L101.844 51.0151L101.26 37.0273L103.432 36.9367C103.509 38.7808 103.656 43.9471 103.795 47.2801C106.148 43.6515 107.564 40.5272 109.782 36.6306ZM117.535 43.053C117.746 48.1072 120.578 48.0848 122.081 48.0221L122.258 48.0147C124.389 47.9258 125.377 46.9951 126.037 45.777L127.81 46.9482C127.383 47.5408 126.213 49.998 122.402 50.157C120.982 50.2163 119.297 50.1772 117.945 49.2484C116.111 47.9429 115.477 45.862 115.363 43.1437C115.154 38.1305 117.515 36.3352 121.818 36.1556C123.116 36.1014 124.14 36.387 124.986 36.9812C125.846 37.5884 126.304 38.3903 126.634 39.0881L124.564 39.9955C124.391 39.4417 123.94 38.1606 121.755 38.2518C118.736 38.3778 117.399 39.7883 117.535 43.053ZM136.377 42.0476C138.084 43.5911 141.304 46.645 142.372 48.3109L140.802 49.7038C139.871 48.3743 136.883 45.3106 135.035 43.65L133.276 45.4612L133.449 49.6001L131.318 49.6891L130.737 35.7559L132.868 35.667L133.148 42.374C135.498 40.0044 138.85 36.3888 140.665 34.9447L142.063 36.6515C140.065 37.9528 137.841 40.4129 136.377 42.0476ZM153.221 34.8174L155.394 34.7404C155.394 34.7404 155.562 39.769 155.695 42.9381C155.788 45.1647 155.9 47.1989 156.046 48.739L153.902 48.8286C153.681 46.4978 153.642 45.569 153.536 43.0282C153.486 41.8261 153.446 38.8995 153.446 38.8995C151.765 42.2264 149.069 46.4714 147.452 49.0567L145.283 49.202L144.699 35.2142L146.871 35.1235C146.948 36.9676 147.095 42.1339 147.234 45.467C149.587 41.8384 151.003 38.7141 153.221 34.8174ZM164.489 30.0504C165.964 29.9888 167.049 29.0815 167.086 28.0126L169.371 28.3277C169.144 30.7592 166.83 32.0463 164.576 32.1403C162.855 32.2122 160.342 31.6603 159.558 28.6142L161.672 28.1154C162.107 29.6982 163.219 30.1034 164.489 30.0504ZM167.701 34.213L169.873 34.136C169.873 34.136 170.042 39.1646 170.174 42.3337C170.267 44.5603 170.379 46.5945 170.526 48.1347L168.381 48.2242C168.161 45.8935 168.122 44.9646 168.016 42.4238C167.966 41.2217 167.926 38.2951 167.926 38.2951C166.245 41.622 163.548 45.867 161.932 48.4523L159.762 48.5976L159.179 34.6098L161.35 34.5191C161.427 36.3632 161.575 41.5296 161.714 44.8626C164.066 41.234 165.482 38.1097 167.701 34.213Z" fill="white"/>
<rect x="7.43848" y="9.82227" width="159.863" height="42.0693" transform="rotate(10.1844 7.43848 9.82227)" fill="#EFECDB"/>
<path d="M164.783 38.0899L183.162 32.7363L175.575 74.9709L157.344 79.4963L164.783 38.0899Z" fill="#E2DFCD"/>
<path d="M25.6114 4.4317L183.163 32.7355L164.728 38.3997L6.96915 10.0586L25.6114 4.4317Z" fill="#FEF9E5"/>
<ellipse cx="44.7813" cy="10.932" rx="11.7108" ry="3.19682" transform="rotate(10.1844 44.7813 10.932)" fill="#DDDACB"/>
<rect x="34.3047" y="3.01807" width="7.30701" height="5.80646" transform="rotate(10.1844 34.3047 3.01807)" fill="#DDDACB"/>
<rect x="50.1543" y="5.93164" width="7.30701" height="5.80646" transform="rotate(10.1844 50.1543 5.93164)" fill="#DDDACB"/>
<ellipse cx="45.8077" cy="5.21712" rx="11.7108" ry="3.19682" transform="rotate(10.1844 45.8077 5.21712)" fill="#EFECDB"/>
<ellipse cx="79.8096" cy="17.0101" rx="11.7108" ry="3.19682" transform="rotate(10.1844 79.8096 17.0101)" fill="#DDDACB"/>
<rect x="69.333" y="9.09619" width="7.30701" height="5.80646" transform="rotate(10.1844 69.333 9.09619)" fill="#DDDACB"/>
<rect x="85.1826" y="12.0098" width="7.30701" height="5.80646" transform="rotate(10.1844 85.1826 12.0098)" fill="#DDDACB"/>
<ellipse cx="80.836" cy="11.2952" rx="11.7108" ry="3.19682" transform="rotate(10.1844 80.836 11.2952)" fill="#EFECDB"/>
<ellipse cx="117.112" cy="23.4984" rx="11.7108" ry="3.19682" transform="rotate(10.1844 117.112 23.4984)" fill="#DDDACB"/>
<rect x="106.636" y="15.5845" width="7.30701" height="5.80646" transform="rotate(10.1844 106.636 15.5845)" fill="#DDDACB"/>
<rect x="122.485" y="18.498" width="7.30701" height="5.80646" transform="rotate(10.1844 122.485 18.498)" fill="#DDDACB"/>
<ellipse cx="118.139" cy="17.7835" rx="11.7108" ry="3.19682" transform="rotate(10.1844 118.139 17.7835)" fill="#EFECDB"/>
<ellipse cx="154.304" cy="30.6077" rx="11.7108" ry="3.19682" transform="rotate(10.1844 154.304 30.6077)" fill="#DDDACB"/>
<rect x="143.827" y="22.6938" width="7.30701" height="5.80646" transform="rotate(10.1844 143.827 22.6938)" fill="#DDDACB"/>
<rect x="159.677" y="25.6074" width="7.30701" height="5.80646" transform="rotate(10.1844 159.677 25.6074)" fill="#DDDACB"/>
<ellipse cx="155.33" cy="24.8929" rx="11.7108" ry="3.19682" transform="rotate(10.1844 155.33 24.8929)" fill="#EFECDB"/>
<path d="M136.015 52.7198C135.126 52.0388 134.527 50.8977 134.795 49.2362C135.228 46.649 137.83 45.9477 140.449 46.3707C142.275 46.6655 144.813 47.6896 145.797 49.3996L143.837 50.788C143.193 49.7319 141.588 48.8277 140.301 48.6199C138.714 48.3637 137.312 48.5827 137.155 49.5557C137.039 50.2742 137.283 50.6668 137.838 51.0329C141.622 53.3793 145.405 54.2973 144.719 58.5485C144.328 60.9734 142.401 62.0601 140.732 62.2206C139.862 62.2799 138.947 62.2397 138.094 62.102C134.262 61.4833 132.672 59.1532 133.192 55.9349L135.539 56.3293C135.216 58.3351 136.074 59.5796 138.395 59.9542C140.236 60.2514 142.145 59.7456 142.411 58.0991C142.563 57.156 142.172 56.632 141.447 55.8854C140.428 54.876 137.453 53.7969 136.015 52.7198Z" fill="#EB662B"/>
<path d="M122.844 37.7381L126.361 38.306L125.818 41.674L122.3 41.1061L122.844 37.7381ZM123.451 43.8722L125.187 44.1525C124.527 48.239 123.261 56.1749 123.261 56.1749C123.138 57.4145 123.787 57.5807 125.164 57.803C126.556 58.0277 128.463 58.013 129.622 57.4014L130.364 59.2722C128.905 60.1271 126.692 60.2306 124.836 59.931C123.564 59.7256 122.46 59.3323 121.859 58.8668C120.7 57.9578 120.774 56.741 120.917 55.8578L122.49 46.1131C121.756 45.9947 120.035 45.809 118.56 45.9088L118.469 43.7131C120.209 43.5946 121.894 43.6209 123.451 43.8722Z" fill="#EB662B"/>
<path d="M103.148 51.3766C102.894 52.9484 103.587 53.9818 104.979 54.2066C108.123 54.714 110.076 52.6027 110.565 52.0518L110.794 50.6298C110.025 49.9681 108.988 49.3552 107.431 49.1039C105.393 48.7902 103.433 49.6103 103.148 51.3766ZM112.849 52.8354C112.765 53.3593 112.54 54.7514 112.694 55.0373C112.845 55.3381 113.343 55.7718 113.721 56.1862L112.191 57.7669C111.51 57.0425 110.672 56.5233 110.647 54.9679C109.298 55.9021 107.561 56.9579 104.612 56.4818C102.052 56.0686 100.387 53.6342 100.788 51.1493C100.972 50.0117 101.636 48.752 102.667 47.9814C104.323 46.759 105.893 46.6439 107.659 46.929C109.545 47.2335 110.445 47.6552 111.174 48.2797C111.63 45.4506 110.817 43.9217 108.273 43.5108C106.207 43.1773 105.191 43.4742 103.648 45.4214L101.901 43.8798C103.777 41.3874 105.928 40.8131 108.608 41.2457C112.23 41.8305 114.191 44.5277 113.647 47.8957L112.849 52.8354Z" fill="#EB662B"/>
<path d="M87.7433 45.5718C86.8492 51.1103 89.9308 51.7153 91.5774 51.9811L91.772 52.0125C94.1071 52.3895 95.3868 51.5978 96.3755 50.4212L98.0416 52.0878C97.4983 52.5991 95.9011 54.6912 92.3728 54.4748L92.3365 54.6994C93.7764 55.0086 94.4948 56.0768 94.2435 57.6336C93.9994 59.1454 92.3406 59.9067 91.0832 59.7037C90.0953 59.5442 89.0779 58.996 88.3267 58.3218L89.1516 56.8269C89.6021 57.1761 90.1429 57.632 90.9063 57.7553C91.4452 57.8423 92.1072 57.642 92.2439 57.0804L92.2488 57.0505C92.3189 56.6164 91.8105 56.1503 91.092 56.0343C90.3735 55.9183 90.3266 56.0183 89.8833 56.1003L90.2023 54.1244C88.9894 53.8364 87.7455 53.3592 86.8108 52.3943C85.109 50.5682 84.8824 48.1664 85.3633 45.1876C86.2501 39.694 89.2143 38.268 93.9294 39.0293C95.3515 39.2588 96.4012 39.7969 97.1881 40.6305C97.9877 41.4814 98.3067 42.4545 98.5103 43.286L96.0601 43.812C95.9946 43.1717 95.7901 41.6796 93.395 41.2929C90.0869 40.7589 88.3209 41.9943 87.7433 45.5718Z" fill="#EB662B"/>
<path d="M73.4421 37.1199C75.4877 36.4364 76.9349 36.2246 78.5814 36.4905C80.3777 36.7805 82.871 38.3656 82.511 40.596L81.0973 49.3528C80.9378 50.3407 81.6331 50.7908 82.3988 51.3752L80.8708 52.8487C79.6574 51.9924 78.4035 51.0067 78.7153 49.0757L80.071 40.6782C80.2498 39.5705 78.8776 38.8421 77.8896 38.6826C76.9316 38.528 75.3931 38.9247 73.0385 39.6197L71.2019 50.996L68.8344 50.6291L70.5405 40.0611C70.9707 37.3967 70.9138 36.9882 70.7817 35.5231L73.2661 35.3559C73.3578 35.7393 73.4408 36.3671 73.4421 37.1199Z" fill="#EB662B"/>
<path d="M55.5471 43.6921C55.2933 45.2638 55.9866 46.2972 57.3787 46.522C60.5222 47.0295 62.4757 44.9181 62.964 44.3672L63.1935 42.9452C62.4249 42.2836 61.3873 41.6706 59.8305 41.4193C57.7924 41.1056 55.8322 41.9257 55.5471 43.6921ZM65.2488 45.1508C65.1642 45.6747 64.9395 47.0668 65.093 47.3527C65.2441 47.6536 65.7424 48.0873 66.1209 48.5016L64.5909 50.0823C63.9092 49.3579 63.0715 48.8387 63.0461 47.2834C61.6973 48.2175 59.9602 49.2733 57.0114 48.7972C54.4517 48.384 52.7866 45.9496 53.1878 43.4648C53.3714 42.3271 54.0356 41.0674 55.0662 40.2969C56.7226 39.0745 58.2925 38.9593 60.0588 39.2445C61.9448 39.549 62.8444 39.9706 63.573 40.5951C64.0297 37.766 63.2167 36.2371 60.672 35.8263C58.6063 35.4928 57.5908 35.7896 56.0477 37.7368L54.3 36.1952C56.1768 33.7029 58.3276 33.1286 61.007 33.5611C64.6295 34.146 66.59 36.8431 66.0463 40.2111L65.2488 45.1508Z" fill="#EB662B"/>
<path d="M43.0789 33.0161C44.7465 31.5344 46.3903 31.2468 48.7104 31.6214C51.2102 32.0249 51.6083 33.8401 51.1685 36.5645L51.154 36.6543L48.8189 36.2773C48.9547 35.0551 49.2818 34.171 47.9046 33.9487C46.3928 33.7046 44.4048 33.9366 42.369 37.033L40.9045 46.1041L38.5718 45.7122L40.4157 34.2909C40.5534 33.4377 40.0247 32.907 39.2296 31.9338L41.1271 30.0746C41.9218 30.9555 42.7281 31.6693 43.0789 33.0161Z" fill="#EB662B"/>
<path d="M31.1206 25.0804C28.9202 24.7251 28.5486 26.1703 28.2876 27.7869L28.1934 28.3707C29.2112 28.5351 31.1548 28.8642 32.2475 29.0406C33.797 29.3368 34.1818 29.5218 34.6092 29.729L33.8222 31.8444C33.5248 31.6889 33.225 31.5483 32.3867 31.413L27.8212 30.6759C27.464 32.9835 25.7806 43.6013 25.7709 43.6611L23.4208 43.2817C23.4812 42.9075 25.1458 32.5018 25.4711 30.2965L23.3306 29.9509L23.7003 27.6607L25.8558 28.0087C25.8945 27.7692 25.9013 27.6321 25.9472 27.3477C26.2928 25.2071 27.2218 22.1164 31.3681 22.7858C34.6463 23.315 36.7989 24.0618 37.6527 26.7646L35.5805 27.6127C35.0689 26.025 34.1892 25.5758 31.1206 25.0804Z" fill="#EB662B"/>
</svg>
