<svg width="213" height="149" viewBox="0 0 213 149" fill="none" xmlns="http://www.w3.org/2000/svg">
<rect x="22.7861" y="9.13672" width="188.26" height="49.5422" transform="rotate(27.3829 22.7861 9.13672)" fill="#ECC7CF"/>
<path d="M189.953 95.7236L212.494 96.1008L189.252 140.972L167.167 139.715L189.953 95.7236Z" fill="#E3B7C0"/>
<path d="M45.1073 9.39929L212.493 96.1006L189.782 96.0534L22.1758 9.23813L45.1073 9.39929Z" fill="#F8D1D9"/>
<ellipse cx="64.4127" cy="23.3884" rx="13.791" ry="3.76467" transform="rotate(27.3829 64.4127 23.3884)" fill="#E19DAC"/>
<rect x="55.3828" y="10.8374" width="8.60497" height="6.83788" transform="rotate(27.3829 55.3828 10.8374)" fill="#E19DAC"/>
<rect x="72.1982" y="19.6338" width="8.60497" height="6.83788" transform="rotate(27.3829 72.1982 19.6338)" fill="#E19DAC"/>
<ellipse cx="67.5572" cy="17.3167" rx="13.791" ry="3.76467" transform="rotate(27.3829 67.5572 17.3167)" fill="#ECC7CF"/>
<ellipse cx="101.698" cy="42.4226" rx="13.791" ry="3.76467" transform="rotate(27.3829 101.698 42.4226)" fill="#E19DAC"/>
<rect x="92.668" y="29.8716" width="8.60497" height="6.83788" transform="rotate(27.3829 92.668 29.8716)" fill="#E19DAC"/>
<rect x="109.482" y="38.6675" width="8.60497" height="6.83788" transform="rotate(27.3829 109.482 38.6675)" fill="#E19DAC"/>
<ellipse cx="104.842" cy="36.3508" rx="13.791" ry="3.76467" transform="rotate(27.3829 104.842 36.3508)" fill="#ECC7CF"/>
<ellipse cx="141.404" cy="62.7107" rx="13.791" ry="3.76467" transform="rotate(27.3829 141.404 62.7107)" fill="#E19DAC"/>
<rect x="132.374" y="50.1597" width="8.60497" height="6.83788" transform="rotate(27.3829 132.374 50.1597)" fill="#E19DAC"/>
<rect x="149.189" y="58.9561" width="8.60497" height="6.83788" transform="rotate(27.3829 149.189 58.9561)" fill="#E19DAC"/>
<ellipse cx="144.548" cy="56.6389" rx="13.791" ry="3.76467" transform="rotate(27.3829 144.548 56.6389)" fill="#ECC7CF"/>
<ellipse cx="180.768" cy="83.658" rx="13.791" ry="3.76467" transform="rotate(27.3829 180.768 83.658)" fill="#E19DAC"/>
<rect x="171.738" y="71.1069" width="8.60497" height="6.83788" transform="rotate(27.3829 171.738 71.1069)" fill="#E19DAC"/>
<rect x="188.554" y="79.9033" width="8.60497" height="6.83788" transform="rotate(27.3829 188.554 79.9033)" fill="#E19DAC"/>
<ellipse cx="183.913" cy="77.5862" rx="13.791" ry="3.76467" transform="rotate(27.3829 183.913 77.5862)" fill="#ECC7CF"/>
<path d="M157.604 108.502C159.741 104.503 159.71 103.037 156.169 101.145C154.39 100.194 151.914 100.547 150.785 101.347L145.767 110.736C145.023 112.127 144.248 113.366 143.727 114.129L141.019 112.501C141.838 111.308 142.333 110.509 143.058 109.152C147.802 100.274 154.318 88.0399 154.318 88.0399L157.119 89.5367L152.77 97.6748C154.3 97.5645 155.936 97.5553 157.733 98.5155C159.864 99.6545 161.717 100.848 162.205 103.283C162.673 105.458 162.027 106.879 160.991 108.817L160.37 109.98C158.826 112.868 158.084 114.215 157.029 116.188C156.512 117.157 156.697 117.913 157.387 119.164L154.735 120.397C153.749 118.851 152.945 117.221 154.14 114.984L157.604 108.502Z" fill="#EB662B"/>
<path d="M129.505 94.595C126.022 101.113 129.602 103.184 131.54 104.22L131.769 104.342C134.517 105.811 136.45 105.372 138.185 104.329L139.548 107.118C138.571 107.547 135.276 109.772 130.362 107.146C128.53 106.167 126.438 104.868 125.425 102.696C124.086 99.6929 124.831 96.6036 126.704 93.0982C130.159 86.6335 134.462 86.1248 140.01 89.0901C141.684 89.9843 142.761 91.1037 143.385 92.4788C144.017 93.8809 143.999 95.2296 143.897 96.3527L140.619 95.96C140.811 95.1342 141.195 93.1878 138.376 91.6816C134.483 89.6012 131.755 90.385 129.505 94.595Z" fill="#EB662B"/>
<path d="M111.898 84.2347C111.082 83.0063 110.824 81.3284 111.869 79.3731C113.515 76.3351 117.056 76.5742 120.139 78.2215C122.288 79.37 125.011 81.7313 125.505 84.2824L122.47 85.1739C122.12 83.5829 120.507 81.7699 118.992 80.9604C117.125 79.9625 115.284 79.6356 114.672 80.7805C114.221 81.6261 114.356 82.2195 114.891 82.9131C118.601 87.4546 122.923 90.2168 120.249 95.2195C118.724 98.0731 115.859 98.603 113.711 98.0889C112.602 97.7908 111.479 97.3493 110.475 96.8127C105.966 94.4029 104.982 90.8199 107.006 87.0327L109.762 88.5282C108.501 90.8886 109.038 92.8064 111.769 94.2655C113.935 95.4234 116.53 95.61 117.566 93.6723C118.159 92.5626 117.895 91.7423 117.312 90.5023C116.474 88.8087 113.23 86.1919 111.898 84.2347Z" fill="#EB662B"/>
<path d="M93.5856 77.4382L93.2091 78.1428C91.9571 80.4857 91.6405 82.6037 93.4922 83.8423C93.7905 84.047 95.1374 84.7894 95.3664 84.9118C96.5114 85.5237 97.7329 85.95 98.305 85.9387C99.5915 85.9468 100.426 85.1475 100.728 84.8787L102.421 87.0512C101.981 87.4503 100.719 88.8368 98.1346 88.9274C96.7928 88.9804 95.4398 88.4611 93.9425 87.661C90.7014 85.9289 88.7312 84.4458 88.8737 81.1704C88.935 79.5726 89.5705 78.2139 90.3801 76.699L90.7848 75.9415C91.8343 74.1472 93.1027 71.8584 95.0252 68.5152L94.7786 68.3834C94.2853 68.1199 93.7545 67.9267 93.2306 67.8053L94.2526 65.0452C94.7601 65.1126 95.581 65.4834 96.1623 65.794L96.4266 65.9352C97.0855 64.7022 97.988 63.0558 98.6469 61.8227L101.421 63.3276C100.799 64.4902 99.8969 66.1366 99.2392 67.3251L101.388 68.4735C103.952 69.8208 106.674 71.2529 106.674 71.2529L106.991 71.4223L105.607 74.0117L100.023 71.0277C99.213 70.5947 98.7092 70.3933 97.8989 69.9603C95.82 73.4691 94.5974 75.7144 93.5856 77.4382Z" fill="#EB662B"/>
<path d="M80.3414 80.483C79.7233 79.2242 79.1581 77.9937 79.5801 76.2717C77.2909 76.9959 74.9515 77.263 72.281 75.9038L72.1225 75.8191C71.0303 75.2354 69.5425 74.4177 68.8715 73.1306C68.3707 72.161 67.727 70.5262 68.4989 69.0818C70.9689 64.3327 75.1306 56.8417 75.4363 55.1255L78.5088 56.1561C78.0303 57.9837 74.9958 63.4502 71.5857 69.9161C71.3714 70.5715 71.5142 71.2366 71.7511 71.7256C71.9036 72.0335 72.7266 72.6545 73.4488 73.0404C74.6573 73.6183 75.4548 73.8633 76.645 73.7974C77.7365 73.7466 79.2343 73.8676 80.7321 72.6752L87.0956 60.7674L89.8788 62.2548L82.5268 76.0121C82.0726 76.9469 82.4839 78.2537 82.8872 79.194L80.3414 80.483Z" fill="#EB662B"/>
<path d="M55.4209 53.8049C57.7027 55.0016 62.3145 57.2623 64.9664 58.3172C66.2001 55.3306 65.3636 52.5737 62.9679 51.2934C59.9734 49.6931 56.8882 51.1016 55.4209 53.8049ZM64.3812 48.6065C71.022 52.1554 68.0967 59.1974 66.7976 61.6283C66.6094 61.9806 66.4682 62.2448 66.3752 62.3763C61.2642 60.0752 57.135 58.1404 53.9806 56.5C52.5404 59.1951 52.8221 62.3122 56.4156 64.2326C58.9346 65.5787 61.1579 64.9778 62.3532 64.3938L63.4938 67.4717C62.348 67.8784 59.0973 69.1304 54.9049 66.89C49.6556 64.0848 49.0889 58.9584 52.0353 53.4449C54.7275 48.407 59.3961 45.9425 64.3812 48.6065Z" fill="#EB662B"/>
<path d="M35.7016 45.5765C33.7812 49.17 33.5193 51.906 36.5139 53.5063C38.9272 54.7959 40.2057 54.4375 42.5295 53.0977L46.6432 45.3999C46.2073 44.0121 44.9744 41.7001 43.3715 40.8435C40.5002 39.3091 38.3656 40.5914 35.7016 45.5765ZM44.9185 55.2802L44.6738 55.7382C43.8925 57.2003 43.2238 58.7905 42.7881 60.0296L39.7204 58.8205C39.9335 58.2097 40.0526 57.7751 40.4303 57.0259C38.7934 57.4193 37.0371 57.2733 35.0642 56.219C30.2201 53.6303 30.2167 49.1447 32.7396 44.4238C35.9025 38.5052 39.3875 35.2044 45.0772 38.2449C46.8387 39.1863 48.0016 40.7815 48.5553 41.7794L50.5039 38.1331C51.3888 36.4773 52.048 34.9047 52.5648 33.641L55.4585 35.0062C54.9299 36.3768 54.1237 38.0973 53.2671 39.7003L44.9185 55.2802Z" fill="#EB662B"/>
</svg>
