<svg width="416" height="95" viewBox="0 0 416 95" fill="none" xmlns="http://www.w3.org/2000/svg">
<path d="M39.7891 49.0957L37.1367 41.0703L34.5938 49.3691C35.4141 49.1914 36.1797 49.1914 37.3145 49.1367L39.7891 49.0957ZM35.9336 38.2129H38.2715L43.4395 53.6484C43.5898 54.1543 43.8359 55.2617 43.8633 56H41.6211C41.6211 55.6855 41.457 54.7012 41.3477 54.332L40.3906 51.4609C38.4629 51.502 35.4414 51.5293 33.9238 51.8984L33.1172 54.3457C32.9805 54.7422 32.7891 55.6172 32.7891 56H30.5742C30.5879 55.6172 30.834 54.4141 31.0117 53.8262L35.9336 38.2129ZM48.252 41.9863L48.2383 48.1797C49.4961 47.8926 50.7812 47.7969 52.4219 47.7969H54.5273C54.5273 44.0508 54.5137 44.2695 54.5137 42.0547H56.6875V56H54.5273V49.875H53.7754C51.7109 49.875 49.8516 49.916 48.2383 50.2578C48.2383 54.9473 48.2656 53.5254 48.2656 56H46.0645V42.0137L48.252 41.9863ZM61.9512 42.0547H69.7988C70.8242 42.0547 71.3438 42.2461 71.9863 42.4648L71.4258 44.4609C70.8242 44.2559 70.5781 44.2012 69.7715 44.1602H64.1523V56H61.9512V42.0547ZM73.8047 55.9316L74.0645 53.8125C74.2559 53.8535 74.4473 53.8945 74.6523 53.8945C75.8418 53.8945 77.2227 52.5684 77.2227 42.0273L81.4062 42.0137H83.0332C84.0996 42.0137 85.0566 42.0137 85.8223 42.0684V56H83.6074C83.6211 53.6348 83.6484 46.3066 83.6621 46.3066V44.1055H79.3828C79.123 50.1621 78.5625 56.041 74.748 56.041C74.4609 56.041 74.1328 56 73.8047 55.9316ZM98.127 42.0547L100.301 42.0684C100.301 42.0684 100.26 47.0996 100.26 50.2715C100.26 52.5 100.287 54.5371 100.369 56.082H98.2227C98.0996 53.7441 98.0996 52.8145 98.0996 50.2715C98.0996 49.0684 98.1816 46.1426 98.1816 46.1426C96.3633 49.3965 93.4922 53.5254 91.7695 56.041L89.5957 56.0957V42.0957H91.7695C91.7695 43.9414 91.7012 49.1094 91.7012 52.4453C94.2031 48.918 95.748 45.8555 98.127 42.0547ZM109.584 37.7617C111.061 37.7617 112.182 36.9004 112.264 35.834L114.533 36.2441C114.205 38.6641 111.84 39.8535 109.584 39.8535C107.861 39.8535 105.373 39.1973 104.717 36.1211L106.85 35.7109C107.219 37.3105 108.312 37.7617 109.584 37.7617ZM112.619 42.0547L114.793 42.0684C114.793 42.0684 114.752 47.0996 114.752 50.2715C114.752 52.5 114.779 54.5371 114.861 56.082H112.715C112.592 53.7441 112.592 52.8145 112.592 50.2715C112.592 49.0684 112.674 46.1426 112.674 46.1426C110.855 49.3965 107.984 53.5254 106.262 56.041L104.088 56.0957V42.0957H106.262C106.262 43.9414 106.193 49.1094 106.193 52.4453C108.695 48.918 110.24 45.8555 112.619 42.0547ZM120.098 48.7949C120.098 53.8535 122.928 53.9492 124.432 53.9492H124.609C126.742 53.9492 127.768 53.0605 128.479 51.8711L130.201 53.1152C129.75 53.6895 128.479 56.0957 124.664 56.0957C123.242 56.0957 121.561 55.9863 120.248 55.002C118.471 53.6211 117.924 51.5156 117.924 48.7949C117.924 43.7773 120.357 42.082 124.664 42.082C125.963 42.082 126.975 42.4102 127.795 43.0391C128.629 43.6816 129.053 44.502 129.354 45.2129L127.248 46.0332C127.098 45.4727 126.701 44.1738 124.514 44.1738C121.492 44.1738 120.098 45.5273 120.098 48.7949ZM138.965 48.5762C140.605 50.1895 143.695 53.375 144.693 55.084L143.066 56.4102C142.191 55.043 139.334 51.8574 137.557 50.1211L135.725 51.8574V56H133.592V42.0547H135.725V48.7676C138.172 46.498 141.672 43.0254 143.545 41.6582L144.871 43.4219C142.82 44.6387 140.496 47.0039 138.965 48.5762ZM156.096 42.0547L158.27 42.0684C158.27 42.0684 158.229 47.0996 158.229 50.2715C158.229 52.5 158.256 54.5371 158.338 56.082H156.191C156.068 53.7441 156.068 52.8145 156.068 50.2715C156.068 49.0684 156.15 46.1426 156.15 46.1426C154.332 49.3965 151.461 53.5254 149.738 56.041L147.564 56.0957V42.0957H149.738C149.738 43.9414 149.67 49.1094 149.67 52.4453C152.172 48.918 153.717 45.8555 156.096 42.0547ZM167.553 37.7617C169.029 37.7617 170.15 36.9004 170.232 35.834L172.502 36.2441C172.174 38.6641 169.809 39.8535 167.553 39.8535C165.83 39.8535 163.342 39.1973 162.686 36.1211L164.818 35.7109C165.188 37.3105 166.281 37.7617 167.553 37.7617ZM170.588 42.0547L172.762 42.0684C172.762 42.0684 172.721 47.0996 172.721 50.2715C172.721 52.5 172.748 54.5371 172.83 56.082H170.684C170.561 53.7441 170.561 52.8145 170.561 50.2715C170.561 49.0684 170.643 46.1426 170.643 46.1426C168.824 49.3965 165.953 53.5254 164.23 56.041L162.057 56.0957V42.0957H164.23C164.23 43.9414 164.162 49.1094 164.162 52.4453C166.664 48.918 168.209 45.8555 170.588 42.0547Z" fill="white"/>
<rect x="9.85156" y="9.32617" width="171.963" height="45.2535" transform="rotate(12.5746 9.85156 9.32617)" fill="#EFECDB"/>
<path d="M177.69 46.7643L197.684 41.8351L187.635 86.8865L167.838 90.9324L177.69 46.7643Z" fill="#E2DFCD"/>
<path d="M29.6256 4.3482L197.685 41.8357L177.618 47.0963L9.33729 9.55947L29.6256 4.3482Z" fill="#FEF9E5"/>
<ellipse cx="49.937" cy="12.195" rx="12.5972" ry="3.43879" transform="rotate(12.5746 49.937 12.195)" fill="#DDDACB"/>
<rect x="39.0322" y="3.21924" width="7.86008" height="6.24596" transform="rotate(12.5746 39.0322 3.21924)" fill="#DDDACB"/>
<rect x="55.9355" y="7.06201" width="7.86008" height="6.24596" transform="rotate(12.5746 55.9355 7.06201)" fill="#DDDACB"/>
<ellipse cx="51.2964" cy="6.09884" rx="12.5972" ry="3.43879" transform="rotate(12.5746 51.2964 6.09884)" fill="#EFECDB"/>
<ellipse cx="87.31" cy="20.2985" rx="12.5972" ry="3.43879" transform="rotate(12.5746 87.31 20.2985)" fill="#DDDACB"/>
<rect x="76.4053" y="11.3232" width="7.86008" height="6.24596" transform="rotate(12.5746 76.4053 11.3232)" fill="#DDDACB"/>
<rect x="93.3086" y="15.1655" width="7.86008" height="6.24596" transform="rotate(12.5746 93.3086 15.1655)" fill="#DDDACB"/>
<ellipse cx="88.6694" cy="14.2024" rx="12.5972" ry="3.43879" transform="rotate(12.5746 88.6694 14.2024)" fill="#EFECDB"/>
<ellipse cx="127.111" cy="28.945" rx="12.5972" ry="3.43879" transform="rotate(12.5746 127.111 28.945)" fill="#DDDACB"/>
<rect x="116.206" y="19.9692" width="7.86008" height="6.24596" transform="rotate(12.5746 116.206 19.9692)" fill="#DDDACB"/>
<rect x="133.109" y="23.8115" width="7.86008" height="6.24596" transform="rotate(12.5746 133.109 23.8115)" fill="#DDDACB"/>
<ellipse cx="128.47" cy="22.8488" rx="12.5972" ry="3.43879" transform="rotate(12.5746 128.47 22.8488)" fill="#EFECDB"/>
<ellipse cx="166.763" cy="38.2536" rx="12.5972" ry="3.43879" transform="rotate(12.5746 166.763 38.2536)" fill="#DDDACB"/>
<rect x="155.858" y="29.2778" width="7.86008" height="6.24596" transform="rotate(12.5746 155.858 29.2778)" fill="#DDDACB"/>
<rect x="172.762" y="33.1206" width="7.86008" height="6.24596" transform="rotate(12.5746 172.762 33.1206)" fill="#DDDACB"/>
<ellipse cx="168.123" cy="32.1574" rx="12.5972" ry="3.43879" transform="rotate(12.5746 168.123 32.1574)" fill="#EFECDB"/>
<path d="M134.094 60.1529C134.79 57.0339 134.491 56.0442 131.729 55.4281C130.342 55.1186 128.727 55.8258 128.111 56.5827L126.478 63.9061C126.235 64.9916 125.943 65.9793 125.733 66.596L123.587 66.0019C123.918 65.0371 124.103 64.4005 124.339 63.3425C125.883 56.4175 127.997 46.8788 127.997 46.8788L130.181 47.3661L128.765 53.714C129.784 53.3499 130.893 53.0347 132.295 53.3473C133.957 53.7182 135.441 54.179 136.232 55.7402C136.961 57.1288 136.791 58.2158 136.453 59.7272L136.251 60.6341C135.749 62.8874 135.499 63.9424 135.156 65.4813C134.987 66.237 135.255 66.7151 135.96 67.4349L134.392 68.7728C133.431 67.9093 132.577 66.9542 132.966 65.2092L134.094 60.1529Z" fill="#EB662B"/>
<path d="M113.037 55.5566C112.251 54.8764 111.759 53.7858 112.099 52.2606C112.643 49.8867 115.093 49.3801 117.497 49.9165C119.173 50.2904 121.469 51.3794 122.286 53.0185L120.393 54.1973C119.855 53.183 118.417 52.2565 117.236 51.993C115.779 51.6681 114.468 51.7938 114.268 52.6869C114.121 53.3464 114.326 53.7237 114.82 54.0936C118.197 56.4769 121.653 57.5363 120.783 61.4385C120.287 63.6644 118.441 64.5653 116.885 64.6221C116.076 64.6291 115.23 64.5414 114.447 64.3667C110.929 63.5821 109.584 61.3348 110.243 58.3807L112.398 58.8756C111.987 60.7168 112.714 61.9176 114.844 62.3926C116.534 62.7696 118.331 62.4061 118.669 60.8947C118.862 60.0291 118.528 59.5219 117.898 58.7899C117.008 57.7982 114.311 56.6341 113.037 55.5566Z" fill="#EB662B"/>
<path d="M101.656 40.9451L104.885 41.6653L104.195 44.7568L100.966 44.0366L101.656 40.9451ZM101.88 46.6637L103.474 47.0192C102.637 50.7702 101.027 58.0556 101.027 58.0556C100.844 59.1976 101.436 59.3874 102.701 59.6694C103.978 59.9544 105.746 60.0459 106.854 59.5429L107.439 61.3177C106.04 62.0297 103.983 62.0036 102.279 61.6235C101.111 61.363 100.11 60.9377 99.5788 60.4731C98.5549 59.5668 98.6902 58.4431 98.871 57.6324L100.866 48.6876C100.193 48.5374 98.6082 48.2705 97.2355 48.2816L97.2722 46.2416C98.8908 46.2276 100.451 46.3449 101.88 46.6637Z" fill="#EB662B"/>
<path d="M88.5441 37.7754L90.138 38.1309C89.3013 41.8819 86.4676 54.7794 86.4676 54.7794C86.285 55.9214 86.8773 56.1112 88.1414 56.3932C89.4192 56.6782 91.1874 56.7697 92.2948 56.2667L92.8798 58.0415C91.4805 58.7534 89.4237 58.7274 87.7199 58.3473C86.552 58.0868 85.5507 57.6615 85.0197 57.1969C83.9958 56.2906 84.1311 55.1669 84.3119 54.3562L87.5195 39.7825C87.2859 39.7304 86.918 39.6339 86.5058 39.5419C85.7226 39.3672 84.7241 39.1878 83.843 39.1932L83.8966 37.1425C85.5152 37.1286 87.1152 37.4566 88.5441 37.7754Z" fill="#EB662B"/>
<path d="M66.9396 54.5775C66.5534 56.3088 67.492 56.9508 69.3057 57.3554L70.7484 57.6772C72.3285 58.0297 74.364 57.8924 74.8728 55.6115C75.1333 54.4436 73.1197 53.8358 71.4572 53.4649C71.3335 53.4373 70.5503 53.2627 68.5382 52.8427C67.7013 52.9733 67.1327 53.7119 66.9396 54.5775ZM72.1635 46.6125C73.936 47.0079 75.4557 46.5968 75.753 45.2641C76.1483 43.4916 75.0999 42.6952 73.355 42.306C71.4863 41.8891 69.8473 42.5765 69.5654 43.8406C69.2098 45.4344 70.3773 46.2141 72.1635 46.6125ZM67.3638 43.4937C68.0074 40.6083 70.4407 39.4635 73.8208 40.2175C75.4009 40.5699 76.3564 41.0715 77.1269 41.8203C78.0557 41.2775 78.8146 41.3025 80.326 41.6397L79.8234 43.8931C79.6646 43.8288 79.3715 43.7201 79.2341 43.6895C78.7532 43.5822 78.202 43.5314 77.9164 43.7129C78.1296 44.4383 78.0558 45.0277 77.9087 45.6872C77.3294 48.2841 74.864 49.3785 71.7725 48.6889C70.797 48.4713 69.9528 48.182 69.1363 47.6393C68.8078 47.8833 68.3708 48.2907 68.2451 48.854C68.0122 49.8983 68.6254 50.6409 70.3567 51.027C70.7139 51.1067 72.4788 51.4716 72.8498 51.5543C75.4329 52.1305 77.6291 53.4714 77.0468 56.082C76.253 59.6407 73.5404 60.5501 70.1878 59.8023L68.7726 59.4866C65.8734 58.8399 64.1234 57.0505 64.764 54.1788C65.0705 52.8048 65.7278 51.9273 66.6306 51.4363C65.9761 50.6846 65.809 49.6232 66.0481 48.5515C66.327 47.3011 66.9506 46.5748 67.6748 46.044C67.3241 45.4176 67.1431 44.483 67.3638 43.4937Z" fill="#EB662B"/>
<path d="M55.903 37.6481C57.8365 37.1275 59.1895 37.011 60.7009 37.3481C62.3497 37.7159 64.5732 39.3225 64.1165 41.3698L62.3236 49.4078C62.1213 50.3146 62.7409 50.7701 63.4184 51.354L61.9209 52.6354C60.8436 51.7749 59.7358 50.7922 60.1312 49.0197L61.8506 41.3115C62.0774 40.2947 60.8457 39.544 59.9389 39.3417C59.0595 39.1456 57.6117 39.4284 55.3911 39.9427L53.0618 50.3852L50.8878 49.9147L53.0516 40.2142C53.5972 37.7685 53.5669 37.3867 53.5253 36.0216L55.8371 36.0036C55.9009 36.364 55.9432 36.9504 55.903 37.6481Z" fill="#EB662B"/>
<path d="M39.8076 39.0637C41.5831 39.4453 45.1419 40.1093 47.1421 40.3247C47.4157 38.0635 46.3268 36.3494 44.4582 35.9325C42.1223 35.4115 40.2933 36.9508 39.8076 39.0637ZM44.9103 33.841C50.0903 34.9964 49.434 40.3311 49.0111 42.2272C48.9498 42.502 48.9038 42.7081 48.8655 42.815C44.9601 42.2179 41.7905 41.684 39.3387 41.1659C38.8697 43.2681 39.6499 45.3317 42.4529 45.9569C44.4177 46.3952 45.814 45.5672 46.5154 44.9447L47.8713 46.8194C47.1701 47.312 45.1991 48.7763 41.929 48.0469C37.8344 47.1336 36.4812 43.7594 37.4405 39.4588C38.3171 35.5291 41.0218 32.9736 44.9103 33.841Z" fill="#EB662B"/>
<path d="M39.7891 49.0957L37.1367 41.0703L34.5938 49.3691C35.4141 49.1914 36.1797 49.1914 37.3145 49.1367L39.7891 49.0957ZM35.9336 38.2129H38.2715L43.4395 53.6484C43.5898 54.1543 43.8359 55.2617 43.8633 56H41.6211C41.6211 55.6855 41.457 54.7012 41.3477 54.332L40.3906 51.4609C38.4629 51.502 35.4414 51.5293 33.9238 51.8984L33.1172 54.3457C32.9805 54.7422 32.7891 55.6172 32.7891 56H30.5742C30.5879 55.6172 30.834 54.4141 31.0117 53.8262L35.9336 38.2129ZM48.252 41.9863L48.2383 48.1797C49.4961 47.8926 50.7812 47.7969 52.4219 47.7969H54.5273C54.5273 44.0508 54.5137 44.2695 54.5137 42.0547H56.6875V56H54.5273V49.875H53.7754C51.7109 49.875 49.8516 49.916 48.2383 50.2578C48.2383 54.9473 48.2656 53.5254 48.2656 56H46.0645V42.0137L48.252 41.9863ZM61.9512 42.0547H69.7988C70.8242 42.0547 71.3438 42.2461 71.9863 42.4648L71.4258 44.4609C70.8242 44.2559 70.5781 44.2012 69.7715 44.1602H64.1523V56H61.9512V42.0547ZM73.8047 55.9316L74.0645 53.8125C74.2559 53.8535 74.4473 53.8945 74.6523 53.8945C75.8418 53.8945 77.2227 52.5684 77.2227 42.0273L81.4062 42.0137H83.0332C84.0996 42.0137 85.0566 42.0137 85.8223 42.0684V56H83.6074C83.6211 53.6348 83.6484 46.3066 83.6621 46.3066V44.1055H79.3828C79.123 50.1621 78.5625 56.041 74.748 56.041C74.4609 56.041 74.1328 56 73.8047 55.9316ZM98.127 42.0547L100.301 42.0684C100.301 42.0684 100.26 47.0996 100.26 50.2715C100.26 52.5 100.287 54.5371 100.369 56.082H98.2227C98.0996 53.7441 98.0996 52.8145 98.0996 50.2715C98.0996 49.0684 98.1816 46.1426 98.1816 46.1426C96.3633 49.3965 93.4922 53.5254 91.7695 56.041L89.5957 56.0957V42.0957H91.7695C91.7695 43.9414 91.7012 49.1094 91.7012 52.4453C94.2031 48.918 95.748 45.8555 98.127 42.0547ZM109.584 37.7617C111.061 37.7617 112.182 36.9004 112.264 35.834L114.533 36.2441C114.205 38.6641 111.84 39.8535 109.584 39.8535C107.861 39.8535 105.373 39.1973 104.717 36.1211L106.85 35.7109C107.219 37.3105 108.312 37.7617 109.584 37.7617ZM112.619 42.0547L114.793 42.0684C114.793 42.0684 114.752 47.0996 114.752 50.2715C114.752 52.5 114.779 54.5371 114.861 56.082H112.715C112.592 53.7441 112.592 52.8145 112.592 50.2715C112.592 49.0684 112.674 46.1426 112.674 46.1426C110.855 49.3965 107.984 53.5254 106.262 56.041L104.088 56.0957V42.0957H106.262C106.262 43.9414 106.193 49.1094 106.193 52.4453C108.695 48.918 110.24 45.8555 112.619 42.0547ZM120.098 48.7949C120.098 53.8535 122.928 53.9492 124.432 53.9492H124.609C126.742 53.9492 127.768 53.0605 128.479 51.8711L130.201 53.1152C129.75 53.6895 128.479 56.0957 124.664 56.0957C123.242 56.0957 121.561 55.9863 120.248 55.002C118.471 53.6211 117.924 51.5156 117.924 48.7949C117.924 43.7773 120.357 42.082 124.664 42.082C125.963 42.082 126.975 42.4102 127.795 43.0391C128.629 43.6816 129.053 44.502 129.354 45.2129L127.248 46.0332C127.098 45.4727 126.701 44.1738 124.514 44.1738C121.492 44.1738 120.098 45.5273 120.098 48.7949ZM138.965 48.5762C140.605 50.1895 143.695 53.375 144.693 55.084L143.066 56.4102C142.191 55.043 139.334 51.8574 137.557 50.1211L135.725 51.8574V56H133.592V42.0547H135.725V48.7676C138.172 46.498 141.672 43.0254 143.545 41.6582L144.871 43.4219C142.82 44.6387 140.496 47.0039 138.965 48.5762ZM156.096 42.0547L158.27 42.0684C158.27 42.0684 158.229 47.0996 158.229 50.2715C158.229 52.5 158.256 54.5371 158.338 56.082H156.191C156.068 53.7441 156.068 52.8145 156.068 50.2715C156.068 49.0684 156.15 46.1426 156.15 46.1426C154.332 49.3965 151.461 53.5254 149.738 56.041L147.564 56.0957V42.0957H149.738C149.738 43.9414 149.67 49.1094 149.67 52.4453C152.172 48.918 153.717 45.8555 156.096 42.0547ZM167.553 37.7617C169.029 37.7617 170.15 36.9004 170.232 35.834L172.502 36.2441C172.174 38.6641 169.809 39.8535 167.553 39.8535C165.83 39.8535 163.342 39.1973 162.686 36.1211L164.818 35.7109C165.188 37.3105 166.281 37.7617 167.553 37.7617ZM170.588 42.0547L172.762 42.0684C172.762 42.0684 172.721 47.0996 172.721 50.2715C172.721 52.5 172.748 54.5371 172.83 56.082H170.684C170.561 53.7441 170.561 52.8145 170.561 50.2715C170.561 49.0684 170.643 46.1426 170.643 46.1426C168.824 49.3965 165.953 53.5254 164.23 56.041L162.057 56.0957V42.0957H164.23C164.23 43.9414 164.162 49.1094 164.162 52.4453C166.664 48.918 168.209 45.8555 170.588 42.0547Z" fill="white"/>
<rect x="9.85156" y="9.32617" width="171.963" height="45.2535" transform="rotate(12.5746 9.85156 9.32617)" fill="#EFECDB"/>
<path d="M29.6256 4.3482L197.685 41.8357L177.618 47.0963L9.33729 9.55947L29.6256 4.3482Z" fill="#FEF9E5"/>
<ellipse cx="49.937" cy="12.195" rx="12.5972" ry="3.43879" transform="rotate(12.5746 49.937 12.195)" fill="#DDDACB"/>
<rect x="39.0322" y="3.21924" width="7.86008" height="6.24596" transform="rotate(12.5746 39.0322 3.21924)" fill="#DDDACB"/>
<rect x="55.9355" y="7.06201" width="7.86008" height="6.24596" transform="rotate(12.5746 55.9355 7.06201)" fill="#DDDACB"/>
<ellipse cx="51.2964" cy="6.09884" rx="12.5972" ry="3.43879" transform="rotate(12.5746 51.2964 6.09884)" fill="#EFECDB"/>
<ellipse cx="87.31" cy="20.2985" rx="12.5972" ry="3.43879" transform="rotate(12.5746 87.31 20.2985)" fill="#DDDACB"/>
<rect x="76.4053" y="11.3232" width="7.86008" height="6.24596" transform="rotate(12.5746 76.4053 11.3232)" fill="#DDDACB"/>
<rect x="93.3086" y="15.1655" width="7.86008" height="6.24596" transform="rotate(12.5746 93.3086 15.1655)" fill="#DDDACB"/>
<ellipse cx="88.6694" cy="14.2024" rx="12.5972" ry="3.43879" transform="rotate(12.5746 88.6694 14.2024)" fill="#EFECDB"/>
<ellipse cx="127.111" cy="28.945" rx="12.5972" ry="3.43879" transform="rotate(12.5746 127.111 28.945)" fill="#DDDACB"/>
<rect x="116.206" y="19.9692" width="7.86008" height="6.24596" transform="rotate(12.5746 116.206 19.9692)" fill="#DDDACB"/>
<rect x="133.109" y="23.8115" width="7.86008" height="6.24596" transform="rotate(12.5746 133.109 23.8115)" fill="#DDDACB"/>
<ellipse cx="128.47" cy="22.8488" rx="12.5972" ry="3.43879" transform="rotate(12.5746 128.47 22.8488)" fill="#EFECDB"/>
<ellipse cx="166.763" cy="38.2536" rx="12.5972" ry="3.43879" transform="rotate(12.5746 166.763 38.2536)" fill="#DDDACB"/>
<rect x="155.858" y="29.2778" width="7.86008" height="6.24596" transform="rotate(12.5746 155.858 29.2778)" fill="#DDDACB"/>
<rect x="172.762" y="33.1206" width="7.86008" height="6.24596" transform="rotate(12.5746 172.762 33.1206)" fill="#DDDACB"/>
<ellipse cx="168.123" cy="32.1574" rx="12.5972" ry="3.43879" transform="rotate(12.5746 168.123 32.1574)" fill="#EFECDB"/>
<path d="M148.189 55.1754C150.088 53.6867 151.275 51.7896 152.428 49.5398L155.064 50.9447C154.001 53.2315 151.907 55.5788 150.011 57.0519L148.189 55.1754ZM143.874 65.1782C142.559 70.9543 145.484 71.7355 145.765 71.7995L145.968 71.8458C147.295 72.148 148.821 70.0651 150.517 67.2329C150.254 63.0515 149.931 61.0075 148.105 60.5915C146.887 60.3142 144.724 61.4472 143.874 65.1782ZM153.011 67.8174C153.112 69.1048 153.208 70.5554 153.363 72.1834C153.453 73.1564 153.686 73.8662 154.624 74.5067L153.064 76.4505C151.18 75.4958 150.92 73.4661 150.852 72.4654C150.824 72.0815 150.797 71.6975 150.766 71.3292C149.225 73.4085 147.518 74.7767 145.473 74.3109C140.977 73.2869 140.439 68.7966 141.392 64.6129C142.697 58.8837 146.088 57.6199 148.82 58.2421C151.396 58.8288 152.196 60.2918 152.62 63.6231C153.455 62.1879 154.307 60.7562 155.2 59.4323L157.23 61.0442C155.767 62.7801 154.42 65.3797 153.011 67.8174Z" fill="#EB662B"/>
<path d="M132.724 61.3578C133.989 63.7315 137.085 69.2477 137.401 71.5365L135.039 72.2465C134.708 70.3814 131.976 65.1449 130.606 62.5831C130.606 62.5831 128.385 63.7523 127.26 64.7276L126.108 69.7855L123.673 69.2309L127.299 53.3077L129.735 53.8624L128.063 61.1995C129.842 60.094 131.777 59.1716 133.781 58.0846C137.646 56.0419 138.981 55.804 139.407 55.5892L140.463 57.9479C137.037 59.0725 133.996 60.5309 132.724 61.3578Z" fill="#EB662B"/>
<path d="M115.426 50.7182L117.299 51.1449C116.329 55.4066 114.634 62.9191 114.634 62.9191C114.215 64.7612 114.857 65.1865 116.293 65.5137C117.745 65.8443 119.398 65.2192 120.584 63.6173L122.086 65.2403C120.46 67.333 118.676 68.3882 115.804 67.734C114.477 67.4317 113.34 66.943 112.738 66.4119C111.579 65.3759 111.912 63.3337 112.122 62.4126L114.263 53.0148C113.498 52.8406 111.697 52.5289 110.135 52.5346L110.188 50.2147C112.028 50.2071 113.803 50.3484 115.426 50.7182Z" fill="#EB662B"/>
<path d="M94.8814 45.4645C95.7075 46.8842 95.9938 47.5734 96.1331 48.8367C96.3876 50.9637 97.3263 59.0266 97.1282 60.6893C101.18 60.5613 102.543 57.7516 103.585 53.1776C103.99 51.398 103.943 50.09 103.332 48.7357L106.016 47.984C106.578 49.6229 106.624 51.0784 105.981 53.904C104.957 58.4 103.56 60.4957 101.293 61.8678C100.039 62.6166 98.2425 63.439 94.4852 62.6325C94.983 60.447 93.7936 51.1775 93.3733 48.553C93.3231 48.1967 92.8432 46.9872 92.5262 46.5045L94.8814 45.4645Z" fill="#EB662B"/>
<path d="M79.6499 44.4255C81.6168 43.5763 83.565 43.3139 85.2822 43.705C87.1711 44.1352 89.52 45.9346 88.9902 48.2606L85.8791 61.9202C85.6444 62.9505 85.3603 65.1355 85.4706 65.9488L82.8903 65.8866C82.8902 64.5893 82.9134 63.478 83.3721 61.4642L86.3978 48.1792C86.6609 47.024 85.4513 46.2066 84.4054 45.9684C83.4219 45.7444 81.4261 46.1437 79.0718 47.0361L76.45 58.4754L73.9799 57.9292L76.4901 46.9079C77.123 44.1291 77.0905 43.6948 77.0501 42.1421L79.6794 42.1333C79.7502 42.5436 79.7149 43.6357 79.6499 44.4255Z" fill="#EB662B"/>
<path d="M58.3578 54.6338L56.471 52.8247C58.355 51.5461 64.2399 43.0832 66.99 39.588C67.1934 37.2533 67.2282 35.5863 66.1198 35.3339C65.3081 35.149 64.5754 35.7703 64.3478 36.7694L61.9125 36.2147C62.3712 34.2009 64.1107 32.3311 66.6085 32.8999C68.9345 33.4297 69.547 34.85 69.6262 36.9535C69.7167 39.2238 69.2796 48.3527 69.6517 52.559C69.7533 53.6988 69.7289 54.3829 70.1348 54.4753C70.5406 54.5678 70.9986 53.9988 70.9986 53.9988L72.1842 56.0752C71.0321 56.8801 70.6885 57.1631 69.3459 56.8573C68.1127 56.5764 67.3269 55.4122 67.1673 53.7338C66.8566 50.4117 66.8737 45.5058 66.9434 43.8303C63.8417 47.7874 62.1677 50.7395 58.3578 54.6338Z" fill="#EB662B"/>
<path d="M41.8109 50.8653L39.9241 49.0562C41.8081 47.7775 47.693 39.3147 50.4432 35.8194C50.6465 33.4847 50.6813 31.8177 49.573 31.5653C48.7612 31.3804 48.0285 32.0017 47.801 33.0008L45.3657 32.4462C45.8243 30.4324 47.5639 28.5625 50.0616 29.1314C52.3876 29.6612 53.0001 31.0815 53.0794 33.185C53.1699 35.4552 52.7327 44.5841 53.1048 48.7905C53.2064 49.9302 53.182 50.6143 53.5879 50.7068C53.9938 50.7992 54.4518 50.2303 54.4518 50.2303L55.6374 52.3066C54.4852 53.1115 54.1416 53.3945 52.7991 53.0888C51.5658 52.8079 50.78 51.6437 50.6204 49.9652C50.3097 46.6432 50.3269 41.7373 50.3965 40.0618C47.2948 44.0188 45.6208 46.971 41.8109 50.8653Z" fill="#EB662B"/>
<path d="M38.5901 47.7012C37.2933 48.2761 34.7694 49.0478 31.2881 48.2549C28.4469 47.6078 27.3069 46.7734 26.3458 45.5857C25.3607 44.3596 25.46 42.9865 25.6911 41.9718C26.1533 39.9424 27.584 38.347 30.0849 38.3254C27.6106 37.5813 27.0777 35.8835 27.4262 34.3536C27.9453 32.0744 30.416 31.1757 35.2554 32.2779L35.474 32.3277C39.0957 33.1526 40.0348 34.2204 40.2732 34.4717L38.7494 36.2594C38.4281 35.9399 37.0218 35.1926 34.7426 34.6735C31.558 33.9482 30.0641 34.0185 29.8401 35.002C29.4348 36.7816 33.8087 37.9092 35.5415 38.3038L35.6195 38.3216L35.9005 38.3856L35.3601 40.7585C34.9542 40.666 34.5519 40.558 34.146 40.4655C33.1625 40.2415 32.1804 40.0835 30.9256 40.2575C29.047 40.5029 28.3731 41.5153 28.1349 42.5612C27.8042 44.013 29.0257 45.2108 31.8513 45.8544C34.4739 46.4517 36.7181 46.0433 37.6778 45.5065L38.5901 47.7012Z" fill="#EB662B"/>
</svg>
