<svg width="90" height="90" viewBox="0 0 90 90" fill="none" xmlns="http://www.w3.org/2000/svg">
<g clip-path="url(#clip0_514_3)">
<rect width="90" height="90" fill="#EA6626"/>
<path d="M21.5873 57.9161C28.363 47.4427 44.1015 33.233 51.5675 38.0631C59.0335 42.8932 56.8378 65.8645 50.0621 76.3379C43.2863 86.8112 31.0773 86.1055 23.6113 81.2753C16.1453 76.4452 14.8115 68.3894 21.5873 57.9161Z" fill="#EFECDB"/>
<path d="M72.2824 54.2801C60.8339 58.1606 40.6304 59.0206 38.3531 50.1038C36.0757 41.187 52.1481 24.1524 63.5966 20.2719C75.0451 16.3914 83.3114 25.1764 85.5888 34.0931C87.8661 43.0099 83.7308 50.3996 72.2824 54.2801Z" fill="#EFECDB"/>
<path d="M49.2097 74.3168C45.0645 63.2171 43.5323 42.5756 52.0643 38.6632C60.5963 34.7507 77.6052 48.2952 81.7504 59.395C85.8955 70.4947 77.6988 80.5476 69.1668 84.46C60.6347 88.3725 53.3548 85.4166 49.2097 74.3168Z" fill="#EFECDB"/>
<path d="M31.5822 22.4245C30.8021 34.6305 35.1394 54.6419 44.2298 54.5963C53.3202 54.5508 65.4722 34.4567 66.2523 22.2507C67.0325 10.0448 56.5389 4.18973 47.4486 4.23529C38.3582 4.28084 32.3623 10.2185 31.5822 22.4245Z" fill="#F2EDE1"/>
<path d="M24.3364 18.731C35.7049 21.2464 52.8221 31.0637 50.3182 40.2666C47.8143 49.4694 26.1552 56.3456 14.7866 53.8303C3.41811 51.315 0.908484 39.0914 3.41238 29.8885C5.91627 20.6857 12.9678 16.2157 24.3364 18.731Z" fill="#EFECDB"/>
<path d="M47.6691 56.7085C48.8997 54.3562 48.4723 50.9951 49.0375 48.465C49.6191 45.8616 47.3957 47.7281 46.4475 48.5633C45.8078 49.1268 45.2272 49.6746 44.6094 50.2643C44.5821 50.2904 46.8948 48.3678 47.4543 47.7197C49.4095 45.4547 43.0072 46.4234 42.0383 46.4283C40.9113 46.4341 37.5656 46.6824 38.6658 46.3393C40.0317 45.9135 41.4835 45.6367 42.8826 45.5793C45.2472 45.4823 47.479 46.1811 49.3983 47.4228C50.9786 48.4451 55.5814 51.595 53.7991 50.9675C52.3586 50.4604 50.7554 49.1383 49.6014 48.192C49.2734 47.923 46.7718 46.0077 46.9022 45.6086C47.3509 44.2354 53.0953 44.5639 53.9428 44.5029C54.4261 44.4681 56.4776 44.3107 56.46 44.3176C55.158 44.8268 53.649 44.7359 52.3081 44.9203C50.6741 45.1449 48.8459 45.3182 47.2295 45.1028C46.1668 44.9611 47.5245 43.592 47.8575 43.0774C48.9816 41.3397 50.1058 39.6021 51.23 37.8645C51.7398 37.0763 49.7323 39.3342 49.5141 39.6046C49.183 40.0148 46.3531 43.9777 46.184 43.8683C46.1324 43.8349 46.6893 42.2358 46.6926 42.0845C46.7248 40.5878 46.0534 39.378 45.673 38.0166C45.5473 37.5667 45.1194 36.7095 44.9932 37.7562C44.7947 39.4027 45.4735 41.0033 45.6181 42.6052C45.7003 43.517 44.6063 42.5287 44.3665 42.3735C43.0506 41.5222 42.019 40.4961 40.7601 39.6816" stroke="#EA6626" stroke-width="2" stroke-linecap="round"/>
</g>
<defs>
<clipPath id="clip0_514_3">
<rect width="90" height="90" fill="white"/>
</clipPath>
</defs>
</svg>
