<svg width="378" height="125" viewBox="0 0 378 125" fill="none" xmlns="http://www.w3.org/2000/svg">
<path d="M74.36 47.1154C74.4631 46.4211 74.4482 45.8384 74.3155 45.3672C74.1827 44.896 73.9083 44.5097 73.4924 44.2084C73.0777 43.898 72.5931 43.6556 72.0385 43.4811C71.4942 43.299 70.7726 43.1319 69.8737 42.9801C69.5582 42.9332 69.164 42.8885 68.6912 42.846C68.2287 42.7957 67.9388 42.7619 67.8216 42.7445L67.5687 44.4485L66.738 49.9506C67.0612 50.0078 67.5248 50.0812 68.1289 50.1709C70.1484 50.4707 71.6363 50.4106 72.5925 49.9905C73.55 49.5613 74.1392 48.603 74.36 47.1154ZM65.4736 58.3738L63.3389 58.0431L65.955 40.4218C66.4689 40.4981 67.0982 40.5731 67.8428 40.6467C68.5875 40.7204 69.2663 40.8028 69.8794 40.8938C70.5646 40.9955 71.1306 41.0934 71.5774 41.1874C72.0255 41.2723 72.4914 41.3922 72.9752 41.5469C73.4694 41.694 73.8816 41.8658 74.2118 42.0622C74.551 42.26 74.8777 42.5113 75.1918 42.8159C75.515 43.1219 75.8024 43.4824 76.054 43.8976C76.6021 44.7991 76.7717 45.953 76.5629 47.3595C76.3233 48.9733 75.8307 50.181 75.0851 50.9825C74.3188 51.7994 73.4576 52.2935 72.5015 52.4649C71.5468 52.6272 70.2129 52.5812 68.4999 52.3269C67.8508 52.2305 67.1631 52.1146 66.4368 51.9791C66.2427 53.2864 66.0528 54.5344 65.8671 55.7232C65.6918 56.9043 65.5606 57.7878 65.4736 58.3738ZM80.3818 63.5312C80.535 63.5539 80.6878 63.549 80.8401 63.5163C80.9924 63.4836 81.1403 63.418 81.284 63.3196C81.4366 63.2224 81.5757 63.1233 81.7013 63.0222C81.8269 62.921 81.9592 62.7748 82.0981 62.5835C82.2371 62.3922 82.3534 62.2298 82.4469 62.0962C82.5481 61.973 82.6626 61.7919 82.7902 61.5529C82.9269 61.3151 83.0271 61.1365 83.0909 61.017C83.1637 60.8988 83.2646 60.7157 83.3936 60.4676C83.5226 60.2195 83.606 60.0614 83.6437 59.9933C82.8838 54.2505 81.8162 50.549 80.4409 48.8889C80.1758 48.5639 79.7007 48.3506 79.0155 48.2488L79.3227 46.1797C79.8186 46.2533 80.3136 46.3637 80.8078 46.5108C82.5708 47.0489 84.0774 50.6175 85.3276 57.2164C86.0911 55.7356 86.7908 54.1256 87.4268 52.3863C88.0719 50.6484 88.5298 49.0532 88.8008 47.6007L90.9375 47.9179C90.8184 48.7203 90.6428 49.4683 90.4109 50.1618C88.8637 54.6867 86.8551 58.9681 84.3851 63.006C83.8385 63.9568 83.2269 64.6631 82.5502 65.1247C81.8825 65.5877 81.0753 65.7489 80.1287 65.6083C77.5682 65.2282 76.5396 63.3431 77.0429 59.9532L79.1526 60.2664C78.9826 61.4114 79.0007 62.2204 79.2069 62.6933C79.4131 63.1662 79.8048 63.4455 80.3818 63.5312ZM94.7892 55.3038C94.6874 55.989 94.6498 56.6146 94.6764 57.1807C94.7119 57.748 94.7847 58.2196 94.8948 58.5953C95.0049 58.971 95.1719 59.3045 95.3959 59.5957C95.6303 59.8793 95.8507 60.1009 96.0574 60.2606C96.2731 60.4216 96.5378 60.5623 96.8517 60.6826C97.1669 60.7939 97.4178 60.8726 97.6045 60.9188C97.8015 60.9572 98.0397 60.9972 98.3192 61.0387L98.495 61.0648C99.4777 61.2107 100.288 61.1514 100.926 60.8867C101.566 60.6131 102.133 60.1767 102.627 59.5774L104.149 61.061C104.128 61.0764 104.03 61.1771 103.855 61.363C103.69 61.5413 103.535 61.6887 103.389 61.8051C103.251 61.923 103.053 62.0824 102.792 62.2833C102.532 62.4843 102.255 62.6458 101.96 62.7679C101.676 62.8824 101.346 62.9947 100.97 63.1047C100.605 63.2071 100.186 63.2693 99.7125 63.2912C99.2407 63.3041 98.7478 63.2724 98.2339 63.1961C97.3413 63.0635 96.5451 62.8716 95.8453 62.6203C95.1545 62.3703 94.5482 61.9854 94.0264 61.4657C93.2843 60.692 92.8117 59.7788 92.6087 58.7258C92.416 57.6652 92.4261 56.4181 92.6389 54.9846C92.8209 53.7585 93.1198 52.7386 93.5354 51.9249C93.9524 51.1022 94.4914 50.4819 95.1524 50.064C95.8147 49.6372 96.5593 49.3699 97.3862 49.2623C98.2234 49.147 99.1919 49.171 100.292 49.3343C101.536 49.519 102.521 49.9878 103.248 50.7408C103.799 51.3109 104.207 52.104 104.471 53.1199L102.268 53.6221C102.247 53.4531 102.222 53.3112 102.193 53.1963C102.174 53.0738 102.112 52.9033 102.006 52.6849C101.9 52.4664 101.766 52.2852 101.603 52.1413C101.45 51.9896 101.219 51.8401 100.909 51.6927C100.599 51.5454 100.242 51.4416 99.8359 51.3814C98.3303 51.1578 97.1723 51.3545 96.362 51.9713C95.5517 52.5882 95.0274 53.699 94.7892 55.3038ZM109.124 57.4321C109.022 58.1173 108.985 58.7429 109.011 59.3089C109.047 59.8763 109.12 60.3478 109.23 60.7235C109.34 61.0992 109.507 61.4327 109.731 61.724C109.965 62.0075 110.186 62.2292 110.392 62.3889C110.608 62.5499 110.873 62.6905 111.187 62.8109C111.502 62.9222 111.753 63.0009 111.94 63.047C112.137 63.0855 112.375 63.1255 112.654 63.1669L112.83 63.193C113.813 63.3389 114.623 63.2796 115.262 63.015C115.901 62.7413 116.468 62.3049 116.962 61.7056L118.484 63.1893C118.463 63.2046 118.365 63.3053 118.19 63.4912C118.025 63.6695 117.87 63.8169 117.724 63.9334C117.586 64.0512 117.388 64.2106 117.127 64.4116C116.867 64.6125 116.59 64.774 116.295 64.8962C116.011 65.0106 115.681 65.1229 115.305 65.233C114.94 65.3354 114.521 65.3975 114.048 65.4194C113.576 65.4323 113.083 65.4006 112.569 65.3243C111.676 65.1918 110.88 64.9999 110.18 64.7485C109.49 64.4985 108.883 64.1136 108.361 63.5939C107.619 62.8203 107.147 61.907 106.944 60.854C106.751 59.7934 106.761 58.5463 106.974 57.1128C107.156 55.8867 107.455 54.8668 107.871 54.0531C108.288 53.2304 108.827 52.6102 109.487 52.1923C110.15 51.7654 110.894 51.4981 111.721 51.3905C112.558 51.2752 113.527 51.2993 114.627 51.4626C115.871 51.6473 116.857 52.1161 117.583 52.869C118.134 53.4392 118.542 54.2322 118.806 55.2481L116.603 55.7504C116.582 55.5814 116.557 55.4394 116.528 55.3246C116.509 55.202 116.447 55.0315 116.341 54.8131C116.235 54.5947 116.101 54.4135 115.938 54.2695C115.785 54.1178 115.554 53.9683 115.244 53.821C114.934 53.6736 114.577 53.5698 114.171 53.5096C112.665 53.2861 111.507 53.4827 110.697 54.0996C109.887 54.7164 109.362 55.8273 109.124 57.4321ZM127.819 59.9864C130.367 63.3686 131.937 65.7948 132.53 67.2649L130.726 68.3378C130.407 67.6271 129.771 66.5421 128.818 65.0829C127.865 63.6146 126.993 62.3562 126.199 61.3078L124.132 62.7562L123.524 66.8539L121.414 66.5407L123.462 52.7466L125.572 53.0598L124.586 59.6999C124.996 59.4199 125.931 58.7663 127.392 57.7392C128.864 56.7045 130.07 55.8746 131.01 55.2494C131.961 54.6165 132.746 54.1388 133.365 53.816L134.418 55.7553C132.908 56.3696 130.708 57.78 127.819 59.9864ZM145.722 56.0514L147.87 56.3841C147.35 59.6979 146.935 62.4006 146.625 64.4923C146.258 66.9626 146.01 68.8838 145.88 70.2559L143.757 69.9407C143.904 68.3869 144.148 66.4651 144.488 64.1751L145.176 60.103C144.902 60.4585 144.591 60.8454 144.243 61.2638C143.904 61.6834 143.595 62.0613 143.315 62.3975C143.036 62.7247 142.674 63.141 142.231 63.6464C141.788 64.1428 141.452 64.5167 141.221 64.7681C140.999 65.0208 140.635 65.4229 140.13 65.9744C139.624 66.5259 139.305 66.8748 139.173 67.021C139.042 67.1582 138.713 67.5103 138.187 68.0771C137.669 68.6453 137.4 68.9371 137.379 68.9524L135.221 68.6873L137.277 54.8391L139.427 55.1583C139.355 55.6452 139.115 57.1668 138.708 59.7233C138.311 62.2721 138.022 64.1595 137.84 65.3857C139.007 64.1675 140.504 62.4317 142.331 60.1782C144.167 57.9261 145.298 56.5505 145.722 56.0514ZM157.687 53.4739C158.408 53.581 159.044 53.4865 159.595 53.1905C160.155 52.8958 160.497 52.4858 160.621 51.9606L162.805 52.6996C162.639 53.2646 162.363 53.758 161.978 54.18C161.603 54.5943 161.164 54.9116 160.661 55.1318C160.168 55.3534 159.639 55.5006 159.075 55.5736C158.513 55.6375 157.948 55.6274 157.38 55.543C157.001 55.4868 156.636 55.4049 156.283 55.2973C155.941 55.1819 155.579 55.013 155.197 54.7905C154.817 54.559 154.484 54.2884 154.198 53.9787C153.921 53.6704 153.681 53.2708 153.478 52.7799C153.274 52.2889 153.153 51.7411 153.114 51.1363L155.284 51.0438C155.398 52.443 156.199 53.2531 157.687 53.4739ZM160.057 58.1796L162.205 58.5123C161.686 61.8261 161.27 64.5289 160.96 66.6205C160.593 69.0908 160.345 71.012 160.215 72.3841L158.092 72.0689C158.239 70.5152 158.483 68.5933 158.823 66.3033L159.511 62.2312C159.237 62.5867 158.926 62.9737 158.578 63.392C158.239 63.8116 157.93 64.1895 157.65 64.5257C157.371 64.8529 157.009 65.2692 156.566 65.7746C156.123 66.2711 155.787 66.645 155.556 66.8963C155.334 67.1491 154.971 67.5512 154.465 68.1027C153.959 68.6542 153.64 69.003 153.508 69.1493C153.377 69.2865 153.048 69.6385 152.522 70.2053C152.004 70.7735 151.735 71.0653 151.714 71.0807L149.556 70.8155L151.612 56.9673L153.762 57.2865C153.69 57.7734 153.45 59.2951 153.043 61.8515C152.646 64.4003 152.357 66.2878 152.175 67.5139C153.342 66.2957 154.839 64.5599 156.666 62.3064C158.502 60.0543 159.633 58.6787 160.057 58.1796Z" fill="white"/>
<rect x="1.82422" y="43.4209" width="209.712" height="55.1872" transform="rotate(-6.55537 1.82422 43.4209)" fill="#ECC7CF"/>
<path d="M210.164 19.4793L231.23 5.80956L237.657 61.7325L216.465 74.3057L210.164 19.4793Z" fill="#E3B7C0"/>
<path d="M22.6159 29.782L231.23 5.8091L210.212 19.8901L1.32308 43.8944L22.6159 29.782Z" fill="#F8D1D9"/>
<ellipse cx="49.1577" cy="30.7044" rx="15.3624" ry="4.19364" transform="rotate(-6.55537 49.1577 30.7044)" fill="#E19DAC"/>
<rect x="33.0059" y="24.7212" width="9.58547" height="7.61702" transform="rotate(-6.55537 33.0059 24.7212)" fill="#E19DAC"/>
<rect x="54.0176" y="22.3926" width="9.58547" height="7.61702" transform="rotate(-6.55537 54.0176 22.3926)" fill="#E19DAC"/>
<ellipse cx="48.2876" cy="23.137" rx="15.3624" ry="4.19364" transform="rotate(-6.55537 48.2876 23.137)" fill="#ECC7CF"/>
<ellipse cx="95.4546" cy="25.1062" rx="15.3624" ry="4.19364" transform="rotate(-6.55537 95.4546 25.1062)" fill="#E19DAC"/>
<rect x="79.3027" y="19.1235" width="9.58547" height="7.61702" transform="rotate(-6.55537 79.3027 19.1235)" fill="#E19DAC"/>
<rect x="100.313" y="16.7949" width="9.58547" height="7.61702" transform="rotate(-6.55537 100.313 16.7949)" fill="#E19DAC"/>
<ellipse cx="94.5845" cy="17.5394" rx="15.3624" ry="4.19364" transform="rotate(-6.55537 94.5845 17.5394)" fill="#ECC7CF"/>
<ellipse cx="144.765" cy="19.1624" rx="15.3624" ry="4.19364" transform="rotate(-6.55537 144.765 19.1624)" fill="#E19DAC"/>
<rect x="128.613" y="13.1792" width="9.58547" height="7.61702" transform="rotate(-6.55537 128.613 13.1792)" fill="#E19DAC"/>
<rect x="149.625" y="10.8506" width="9.58547" height="7.61702" transform="rotate(-6.55537 149.625 10.8506)" fill="#E19DAC"/>
<ellipse cx="143.895" cy="11.595" rx="15.3624" ry="4.19364" transform="rotate(-6.55537 143.895 11.595)" fill="#ECC7CF"/>
<ellipse cx="194.173" cy="14.0398" rx="15.3624" ry="4.19364" transform="rotate(-6.55537 194.173 14.0398)" fill="#E19DAC"/>
<rect x="178.021" y="8.05664" width="9.58547" height="7.61702" transform="rotate(-6.55537 178.021 8.05664)" fill="#E19DAC"/>
<rect x="199.033" y="5.72852" width="9.58547" height="7.61702" transform="rotate(-6.55537 199.033 5.72852)" fill="#E19DAC"/>
<ellipse cx="193.303" cy="6.47295" rx="15.3624" ry="4.19364" transform="rotate(-6.55537 193.303 6.47295)" fill="#ECC7CF"/>
<path d="M180.609 58.3223C180.83 60.3252 182.025 61.3516 183.799 61.1555C187.804 60.7128 189.474 57.4775 189.884 56.6407L189.683 54.8285C188.522 54.2811 187.05 53.8839 185.066 54.1032C182.474 54.409 180.36 56.0715 180.609 58.3223ZM192.935 56.8247C193.009 57.4923 193.205 59.2663 193.489 59.5631C193.775 59.8791 194.529 60.2398 195.131 60.6174L193.799 63.0623C192.722 62.4089 191.525 62.0585 190.969 60.1699C189.639 61.765 187.877 63.6396 184.119 64.0549C180.857 64.4155 178.004 62.0084 177.654 58.842C177.494 57.3923 177.878 55.6313 178.875 54.3434C180.483 52.2928 182.359 51.6221 184.61 51.3733C187.013 51.1076 188.253 51.3182 189.352 51.8338C188.954 48.2286 187.446 46.6383 184.203 46.9967C181.571 47.2876 180.432 47.9927 179.208 50.8891L176.555 49.599C178.003 45.925 180.432 44.498 183.847 44.1206C188.463 43.6104 191.765 46.2381 192.24 50.5299L192.935 56.8247Z" fill="#EB662B"/>
<path d="M159.777 48.731C162.041 47.2064 163.735 46.4592 165.833 46.2273C168.122 45.9743 171.699 47.0657 172.013 49.9078L173.246 61.0667C173.385 62.3256 174.385 62.6398 175.517 63.094L174.151 65.4075C172.381 64.7728 170.519 63.994 170.247 61.5333L169.064 50.8323C168.908 49.4207 166.988 48.9958 165.729 49.1349C164.509 49.2698 162.766 50.2734 160.129 51.9165L161.731 66.4134L158.719 66.7656L157.231 53.2987C156.855 49.9034 156.648 49.4243 155.992 47.6818L158.966 46.6387C159.207 47.0755 159.521 47.8131 159.777 48.731Z" fill="#EB662B"/>
<path d="M140.169 62.792C140.391 64.7949 141.585 65.8213 143.359 65.6253C147.365 65.1825 149.035 61.9473 149.444 61.1104L149.244 59.2983C148.083 58.7508 146.61 58.3537 144.626 58.5729C142.034 58.8787 139.92 60.5412 140.169 62.792ZM152.496 61.2944C152.57 61.962 152.766 63.736 153.05 64.0329C153.336 64.3488 154.09 64.7095 154.691 65.0871L153.359 67.532C152.283 66.8786 151.086 66.5283 150.529 64.6396C149.2 66.2347 147.437 68.1093 143.68 68.5246C140.418 68.8852 137.565 66.4781 137.215 63.3117C137.054 61.862 137.439 60.1011 138.436 58.8131C140.043 56.7625 141.919 56.0918 144.17 55.843C146.574 55.5774 147.813 55.7879 148.913 56.3035C148.514 52.6983 147.006 51.108 143.764 51.4664C141.131 51.7574 139.993 52.4624 138.768 55.3588L136.116 54.0688C137.563 50.3947 139.993 48.9677 143.407 48.5903C148.023 48.0801 151.326 50.7078 151.8 54.9997L152.496 61.2944Z" fill="#EB662B"/>
<path d="M119.149 43.9733L123.631 43.4779L124.106 47.7697L119.623 48.2652L119.149 43.9733ZM121.961 51.2505L124.174 51.006C124.749 56.2134 125.886 66.321 125.886 66.321C126.154 67.8746 127.002 67.8582 128.757 67.6642C130.531 67.4681 132.852 66.8061 134.058 65.6687L135.596 67.6999C134.105 69.2356 131.441 70.1093 129.075 70.3707C127.454 70.5499 125.975 70.4431 125.085 70.0781C123.364 69.3608 123.043 67.8517 122.919 66.7262L121.546 54.3085C120.611 54.4118 118.45 54.7666 116.684 55.3865L115.831 52.739C117.913 52.0069 119.977 51.4698 121.961 51.2505Z" fill="#EB662B"/>
<path d="M100.839 45.6692L103.051 45.4246C103.627 50.6321 105.662 68.518 105.662 68.518C105.93 70.0716 106.778 70.0552 108.533 69.8612C110.307 69.6651 112.628 69.0031 113.834 67.8657L115.372 69.8969C113.881 71.4325 111.217 72.3063 108.851 72.5677C107.23 72.7469 105.751 72.6401 104.861 72.2751C103.14 71.5578 102.819 70.0487 102.695 68.9232L100.403 48.7101C100.078 48.746 99.5611 48.7838 98.9889 48.8471C97.9016 48.9672 96.5345 49.1763 95.4005 49.5719L94.5649 46.9032C96.6465 46.1712 98.8549 45.8884 100.839 45.6692Z" fill="#EB662B"/>
<path d="M79.511 69.4966C79.7323 71.4995 80.927 72.5259 82.701 72.3298C86.7067 71.8871 88.3765 68.6519 88.786 67.815L88.5857 66.0029C87.4246 65.4554 85.9519 65.0583 83.9682 65.2775C81.3761 65.5833 79.2622 67.2458 79.511 69.4966ZM91.8377 67.999C91.9115 68.6666 92.1076 70.4406 92.3914 70.7374C92.6773 71.0534 93.4316 71.4141 94.0332 71.7917L92.7009 74.2366C91.6247 73.5832 90.4275 73.2329 89.8712 71.3442C88.5415 72.9393 86.7792 74.8139 83.0215 75.2292C79.7597 75.5898 76.9063 73.1827 76.5563 70.0163C76.3961 68.5666 76.7807 66.8057 77.7775 65.5177C79.3851 63.4671 81.2611 62.7964 83.512 62.5476C85.9154 62.2819 87.1551 62.4925 88.2547 63.0081C87.8562 59.4029 86.3482 57.8126 83.1054 58.171C80.4731 58.462 79.3346 59.167 78.1101 62.0634L75.4575 60.7734C76.905 57.0993 79.3345 55.6723 82.7489 55.2949C87.3651 54.7847 90.6675 57.4124 91.1419 61.7043L91.8377 67.999Z" fill="#EB662B"/>
<path d="M61.4109 69.0646L61.4952 69.8276C61.7756 72.3646 62.6752 74.2153 64.8158 74.1911C65.1633 74.1913 66.6342 74.048 66.8822 74.0206C68.1221 73.8835 69.3218 73.5579 69.7691 73.2381C70.7931 72.5457 71.0205 71.4586 71.114 71.0814L73.6355 71.884C73.5038 72.4391 73.2569 74.2235 71.2576 75.6995C70.2229 76.4703 68.8685 76.7938 67.2471 76.973C63.7373 77.3609 61.3701 77.2557 59.7038 74.5823C58.8843 73.2827 58.6499 71.8605 58.4686 70.2201L58.3779 69.3999C58.235 67.4076 57.9969 64.9046 57.7045 61.2105L57.4374 61.24C56.9033 61.299 56.3776 61.4344 55.8965 61.6227L55.2071 58.8799C55.646 58.6577 56.498 58.5056 57.1275 58.436L57.4136 58.4044C57.266 57.0691 57.0869 55.274 56.9393 53.9387L59.9553 53.6247C60.0944 54.8836 60.2735 56.6788 60.3978 57.978L62.725 57.7207C65.4887 57.396 68.4242 57.0522 68.4242 57.0522L68.7675 57.0142L69.0774 59.8183L63.0307 60.4866C62.1532 60.5836 61.6445 60.6978 60.7671 60.7947C61.0255 64.705 61.2763 67.1487 61.4109 69.0646Z" fill="#EB662B"/>
<path d="M38.2708 52.9128L42.7534 52.4173L43.2278 56.7092L38.7452 57.2047L38.2708 52.9128ZM41.0832 60.19L43.2958 59.9454C43.8714 65.1529 45.0079 75.2605 45.0079 75.2605C45.2762 76.8141 46.1239 76.7976 47.8788 76.6037C49.6528 76.4076 51.9738 75.7456 53.1804 74.6082L54.7178 76.6394C53.2271 78.175 50.5626 79.0488 48.1973 79.3102C46.5759 79.4894 45.0967 79.3826 44.2068 79.0176C42.4863 78.3002 42.1651 76.7911 42.0407 75.6657L40.6681 63.2479C39.7335 63.3512 37.5716 63.706 35.8058 64.326L34.9533 61.6785C37.0348 60.9464 39.0994 60.4093 41.0832 60.19Z" fill="#EB662B"/>
</svg>
