<svg width="405" height="147" viewBox="0 0 405 147" fill="none" xmlns="http://www.w3.org/2000/svg">
<path d="M52.4727 107.401V123.069H50.3125L50.2715 105.336L59.4453 105.35H61.5918L61.6055 123.069H59.459L59.4316 107.401H52.4727ZM72.4336 120.061C73.3223 119.227 73.6504 117.778 73.6504 115.754V115.508C73.623 112.993 72.748 110.997 70.3281 110.997C67.4844 110.997 66.6367 113.252 66.6367 116.588C66.6367 119.254 67.8262 120.868 70.1094 120.868C71.1484 120.854 71.75 120.635 72.4336 120.061ZM70.082 122.987C66.3633 122.973 64.4766 120.485 64.4766 116.657C64.4766 112.665 65.8711 108.891 69.8633 108.891C72.5566 108.891 74.0605 109.834 75.0176 111.639C75.5781 112.719 75.8242 114.264 75.8242 115.577C75.8242 119.473 74.5117 122.987 70.1094 122.987H70.082ZM78.3125 122.932L78.5723 120.813C78.7637 120.854 78.9551 120.895 79.1602 120.895C80.3496 120.895 81.7305 119.569 81.7305 109.028L85.9141 109.014H87.541C88.6074 109.014 89.5645 109.014 90.3301 109.069V123H88.1152C88.1289 120.635 88.1562 113.307 88.1699 113.307V111.106H83.8906C83.6309 117.163 83.0703 123.042 79.2559 123.042C78.9688 123.042 78.6406 123 78.3125 122.932ZM99.0938 116.26C98.3418 116.26 96.6465 116.383 96.6465 116.383C96.6191 119.624 96.6055 119.911 96.5918 120.95C98.0684 120.95 98 121.004 99.0254 121.004C101.486 121.004 103.113 120.813 103.113 118.571C103.113 116.657 101.213 116.26 99.0938 116.26ZM94.4727 109.055H96.6602C96.6738 110.149 96.6738 110.86 96.6738 111.571V114.469C97.7402 114.278 98.4648 114.223 99.3262 114.223C102.689 114.223 105.287 115.208 105.287 118.79C105.287 121.961 102.867 123.069 99.4766 123.069C98.1777 123.069 95.9492 123 94.3633 123C94.3633 120.348 94.4863 118.639 94.4863 112.952C94.4863 111.461 94.4727 110.313 94.4727 109.055ZM110.113 115.795C110.113 120.854 112.943 120.95 114.447 120.95H114.625C116.758 120.95 117.783 120.061 118.494 118.872L120.217 120.116C119.766 120.69 118.494 123.096 114.68 123.096C113.258 123.096 111.576 122.987 110.264 122.002C108.486 120.622 107.939 118.516 107.939 115.795C107.939 110.778 110.373 109.083 114.68 109.083C115.979 109.083 116.99 109.411 117.811 110.04C118.645 110.682 119.068 111.502 119.369 112.213L117.264 113.034C117.113 112.473 116.717 111.174 114.529 111.174C111.508 111.174 110.113 112.528 110.113 115.795ZM128.98 115.577C130.621 117.19 133.711 120.375 134.709 122.084L133.082 123.411C132.207 122.043 129.35 118.858 127.572 117.122L125.74 118.858V123H123.607V109.055H125.74V115.768C128.188 113.499 131.688 110.026 133.561 108.659L134.887 110.422C132.836 111.639 130.512 114.004 128.98 115.577ZM146.111 109.055L148.285 109.069C148.285 109.069 148.244 114.1 148.244 117.272C148.244 119.5 148.271 121.538 148.354 123.083H146.207C146.084 120.745 146.084 119.815 146.084 117.272C146.084 116.069 146.166 113.143 146.166 113.143C144.348 116.397 141.477 120.526 139.754 123.042L137.58 123.096V109.096H139.754C139.754 110.942 139.686 116.11 139.686 119.446C142.188 115.918 143.732 112.856 146.111 109.055ZM157.568 104.762C159.045 104.762 160.166 103.901 160.248 102.834L162.518 103.245C162.189 105.665 159.824 106.854 157.568 106.854C155.846 106.854 153.357 106.198 152.701 103.122L154.834 102.711C155.203 104.311 156.297 104.762 157.568 104.762ZM160.604 109.055L162.777 109.069C162.777 109.069 162.736 114.1 162.736 117.272C162.736 119.5 162.764 121.538 162.846 123.083H160.699C160.576 120.745 160.576 119.815 160.576 117.272C160.576 116.069 160.658 113.143 160.658 113.143C158.84 116.397 155.969 120.526 154.246 123.042L152.072 123.096V109.096H154.246C154.246 110.942 154.178 116.11 154.178 119.446C156.68 115.918 158.225 112.856 160.604 109.055Z" fill="white"/>
<path d="M41.0344 124.689L36.1551 117.787L36.1451 126.466C36.8778 126.057 37.6101 125.834 38.6795 125.45L41.0344 124.689ZM34.1704 115.405L36.4065 114.723L45.8546 127.978C46.1461 128.418 46.7047 129.405 46.9464 130.103L44.8018 130.757C44.71 130.457 44.2658 129.563 44.0534 129.242L42.3001 126.775C40.4683 127.377 37.5863 128.285 36.2426 129.081L36.1853 131.657C36.1703 132.076 36.2426 132.969 36.3544 133.335L34.236 133.982C34.1373 133.612 34.0215 132.389 34.0199 131.775L34.1704 115.405ZM47.0537 115.419L48.8483 121.346C49.9676 120.705 51.1688 120.238 52.738 119.759L54.7518 119.145C53.6584 115.562 53.7092 115.775 53.0627 113.656L55.1419 113.022L59.2122 126.36L57.1461 126.99L55.3584 121.132L54.6391 121.352C52.6646 121.954 50.8981 122.536 49.4549 123.334C50.8236 127.819 50.4347 126.451 51.157 128.818L49.0517 129.461L44.9694 116.083L47.0537 115.419ZM60.1764 111.486L67.6823 109.195C68.6631 108.896 69.2158 108.927 69.8943 108.949L69.9408 111.022C69.3055 111.001 69.0542 111.021 68.2707 111.217L62.8962 112.857L66.352 124.181L64.2467 124.824L60.1764 111.486ZM75.5641 121.299L75.194 119.196C75.3891 119.179 75.5841 119.163 75.7802 119.103C76.9179 118.756 77.8516 117.084 74.7749 107.002L78.7723 105.768L80.3285 105.293C81.3484 104.982 82.2638 104.702 83.012 104.531L87.0783 117.856L84.9599 118.503C84.2826 116.237 82.1699 109.22 82.183 109.216L81.5405 107.11L77.4476 108.359C78.9669 114.228 80.1466 120.014 76.4983 121.128C76.2237 121.212 75.8979 121.268 75.5641 121.299ZM94.7769 100.927L96.8601 100.305C96.8601 100.305 98.2894 105.13 99.2152 108.163C99.8656 110.295 100.486 112.235 101.016 113.689L98.9627 114.315C98.1626 112.115 97.8913 111.226 97.1491 108.794C96.7979 107.643 96.0224 104.821 96.0224 104.821C95.233 108.464 93.692 113.251 92.7786 116.16L90.7154 116.846L86.6291 103.456L88.7083 102.822C89.247 104.587 90.69 109.55 91.6637 112.741C93.0272 108.636 93.611 105.256 94.7769 100.927ZM104.482 93.4768C105.894 93.0458 106.715 91.8947 106.482 90.8508L108.773 90.5807C109.165 92.991 107.25 94.819 105.093 95.4775C103.445 95.9803 100.874 96.0789 99.348 93.3282L101.268 92.3134C102.088 93.7356 103.266 93.8479 104.482 93.4768ZM108.638 96.6969L110.721 96.0755C110.721 96.0755 112.151 100.9 113.076 103.933C113.727 106.065 114.347 108.005 114.877 109.459L112.824 110.086C112.024 107.885 111.752 106.996 111.01 104.564C110.659 103.413 109.884 100.591 109.884 100.591C109.094 104.234 107.553 109.021 106.64 111.93L104.577 112.617L100.49 99.2262L102.569 98.5917C103.108 100.357 104.551 105.32 105.525 108.511C106.888 104.407 107.472 101.027 108.638 96.6969ZM117.758 100.961C119.235 105.799 121.97 105.065 123.408 104.626L123.578 104.574C125.618 103.951 126.339 102.802 126.672 101.457L128.683 102.144C128.419 102.825 127.905 105.498 124.257 106.611C122.897 107.026 121.256 107.412 119.714 106.854C117.611 106.052 116.473 104.198 115.679 101.595C114.215 96.7963 116.047 94.4645 120.167 93.2075C121.409 92.8284 122.472 92.8469 123.44 93.209C124.426 93.5802 125.07 94.2411 125.566 94.8333L123.791 96.2324C123.484 95.7401 122.725 94.6136 120.633 95.2521C117.743 96.134 116.805 97.8356 117.758 100.961ZM135.74 95.2448C137.78 96.309 141.665 98.454 143.119 99.7972L141.95 101.541C140.714 100.488 137.051 98.2754 134.844 97.1335L133.599 99.3289L134.808 103.291L132.768 103.914L128.698 90.5755L130.737 89.953L132.697 96.3736C134.375 93.4886 136.709 89.1456 138.102 87.2912L139.885 88.5911C138.278 90.3534 136.746 93.2941 135.74 95.2448ZM150.222 84.0072L152.305 83.3858C152.305 83.3858 153.734 88.21 154.66 91.2437C155.31 93.3752 155.931 95.3156 156.46 96.7693L154.407 97.3958C153.607 95.1957 153.336 94.3065 152.594 91.8742C152.243 90.7235 151.467 87.9012 151.467 87.9012C150.678 91.5441 149.137 96.3312 148.223 99.2401L146.16 99.9269L142.074 86.5365L144.153 85.902C144.692 87.6674 146.135 92.6302 147.108 95.8209C148.472 91.7169 149.056 88.3368 150.222 84.0072ZM159.927 76.5572C161.339 76.1262 162.16 74.9752 161.927 73.9312L164.217 73.6611C164.61 76.0714 162.695 77.8995 160.537 78.5579C158.89 79.0607 156.318 79.1593 154.793 76.4086L156.713 75.3938C157.533 76.816 158.711 76.9283 159.927 76.5572ZM164.083 79.7773L166.166 79.1559C166.166 79.1559 167.595 83.9801 168.521 87.0138C169.171 89.1453 169.792 91.0857 170.321 92.5394L168.268 93.1659C167.468 90.9658 167.197 90.0766 166.455 87.6443C166.104 86.4936 165.328 83.6713 165.328 83.6713C164.539 87.3142 162.998 92.1013 162.084 95.0102L160.021 95.697L155.935 82.3066L158.014 81.6721C158.553 83.4375 159.996 88.4003 160.969 91.591C162.333 87.487 162.917 84.107 164.083 79.7773Z" fill="white"/>
<rect x="1.14746" y="95.4185" width="171.08" height="45.021" transform="rotate(-4.39559 1.14746 95.4185)" fill="#EFECDB"/>
<path d="M171.724 82.3062L189.317 71.8102L192.837 117.597L175.175 127.195L171.724 82.3062Z" fill="#E2DFCD"/>
<path d="M18.5165 84.9404L189.318 71.8112L171.75 82.6439L0.724607 95.7904L18.5165 84.9404Z" fill="#FEF9E5"/>
<ellipse cx="40.124" cy="86.5077" rx="12.5325" ry="3.42112" transform="rotate(-4.39559 40.124 86.5077)" fill="#DDDACB"/>
<rect x="27.1416" y="81.1338" width="7.81969" height="6.21386" transform="rotate(-4.39559 27.1416 81.1338)" fill="#DDDACB"/>
<rect x="44.3418" y="79.8813" width="7.81969" height="6.21386" transform="rotate(-4.39559 44.3418 79.8813)" fill="#DDDACB"/>
<ellipse cx="39.6474" cy="80.3124" rx="12.5325" ry="3.42112" transform="rotate(-4.39559 39.6474 80.3124)" fill="#EFECDB"/>
<ellipse cx="78.0381" cy="83.3675" rx="12.5325" ry="3.42112" transform="rotate(-4.39559 78.0381 83.3675)" fill="#DDDACB"/>
<rect x="65.0557" y="77.9932" width="7.81969" height="6.21386" transform="rotate(-4.39559 65.0557 77.9932)" fill="#DDDACB"/>
<rect x="82.2549" y="76.7407" width="7.81969" height="6.21386" transform="rotate(-4.39559 82.2549 76.7407)" fill="#DDDACB"/>
<ellipse cx="77.5615" cy="77.1717" rx="12.5325" ry="3.42112" transform="rotate(-4.39559 77.5615 77.1717)" fill="#EFECDB"/>
<ellipse cx="118.421" cy="80.0375" rx="12.5325" ry="3.42112" transform="rotate(-4.39559 118.421 80.0375)" fill="#DDDACB"/>
<rect x="105.438" y="74.6631" width="7.81969" height="6.21386" transform="rotate(-4.39559 105.438 74.6631)" fill="#DDDACB"/>
<rect x="122.639" y="73.4106" width="7.81969" height="6.21386" transform="rotate(-4.39559 122.639 73.4106)" fill="#DDDACB"/>
<ellipse cx="117.944" cy="73.8417" rx="12.5325" ry="3.42112" transform="rotate(-4.39559 117.944 73.8417)" fill="#EFECDB"/>
<ellipse cx="158.854" cy="77.3812" rx="12.5325" ry="3.42112" transform="rotate(-4.39559 158.854 77.3812)" fill="#DDDACB"/>
<rect x="145.872" y="72.0068" width="7.81969" height="6.21386" transform="rotate(-4.39559 145.872 72.0068)" fill="#DDDACB"/>
<rect x="163.072" y="70.7544" width="7.81969" height="6.21386" transform="rotate(-4.39559 163.072 70.7544)" fill="#DDDACB"/>
<ellipse cx="158.378" cy="71.1854" rx="12.5325" ry="3.42112" transform="rotate(-4.39559 158.378 71.1854)" fill="#EFECDB"/>
<path d="M124.628 93.6528L128.107 93.3819L128.366 96.7127L124.888 96.9836L124.628 93.6528ZM126.621 99.3507L128.338 99.217C128.653 103.258 129.279 111.103 129.279 111.103C129.447 112.311 130.103 112.32 131.465 112.214C132.842 112.107 134.653 111.653 135.615 110.803L136.753 112.413C135.561 113.563 133.479 114.172 131.643 114.315C130.385 114.413 129.244 114.293 128.565 113.989C127.252 113.391 127.042 112.216 126.974 111.342L126.223 101.705C125.498 101.762 123.817 101.982 122.436 102.417L121.843 100.348C123.471 99.8343 125.081 99.4706 126.621 99.3507Z" fill="#EB662B"/>
<path d="M113.947 106.995C115.442 106.879 116.151 105.468 116.05 104.165C116.029 103.899 115.98 103.65 115.889 103.433C115.702 102.956 115.178 102.342 114.245 102.414C113.89 102.442 113.483 102.563 113.012 102.838C111.601 103.648 110.483 104.405 109.446 105.231L109.549 106.563C110.808 106.659 111.787 106.806 112.525 106.912C113.082 106.988 113.547 107.026 113.947 106.995ZM109.247 102.685C110.257 101.876 112.377 100.415 113.946 100.293C115.959 100.136 117.876 101.223 118.22 102.969C118.291 103.306 118.356 103.748 118.389 104.177C118.427 104.665 118.422 105.172 118.378 105.563C118.328 106.073 117.676 107.643 116.208 108.487C117.743 109.455 117.851 111.234 118.737 112.475C119.138 113.025 119.547 113.306 120.063 113.623L118.944 115.319C117.054 114.572 116.4 112.866 115.909 111.727C115.002 109.639 111.588 108.832 109.736 108.768C109.736 108.768 109.925 111.583 110.098 113.803C110.156 114.543 110.224 115.223 110.262 115.712L107.938 115.893L106.522 97.7138C106.452 96.8108 106.243 96.0378 106.003 95.4458L108.217 94.6181C108.377 94.9482 108.695 95.5936 108.771 96.5706L109.247 102.685Z" fill="#EB662B"/>
<path d="M93.5438 108.54C92.5412 108.096 91.7078 107.149 91.5799 105.505C91.3952 102.943 93.7093 101.676 96.2999 101.474C98.106 101.333 100.758 101.723 102.088 103.123L100.543 104.897C99.6869 104.04 97.9509 103.55 96.6778 103.649C95.1086 103.771 93.8245 104.303 93.8994 105.265C93.9548 105.976 94.2774 106.293 94.8902 106.514C99.0323 107.874 102.845 107.875 103.172 112.079C103.359 114.477 101.777 115.956 100.225 116.494C99.4108 116.751 98.5306 116.924 97.6868 116.989C93.8971 117.284 91.8466 115.433 91.5987 112.251L93.9241 112.084C94.0785 114.068 95.183 115.054 97.4776 114.876C99.2984 114.734 100.999 113.812 100.872 112.184C100.8 111.251 100.306 110.843 99.4446 110.299C98.2413 109.574 95.1616 109.233 93.5438 108.54Z" fill="#EB662B"/>
<path d="M79.0437 96.9493L80.7609 96.8156C81.0756 100.857 82.2013 114.739 82.2013 114.739C82.3699 115.948 83.0258 115.956 84.3878 115.85C85.7645 115.743 87.576 115.289 88.5375 114.44L89.6755 116.049C88.4843 117.199 86.4019 117.808 84.5663 117.951C83.308 118.049 82.1667 117.929 81.4877 117.625C80.1752 117.027 79.9646 115.852 79.8966 114.978L78.6303 99.29C78.3786 99.3096 77.9777 99.3259 77.5336 99.3605C76.6898 99.4262 75.6274 99.5536 74.7405 99.8312L74.1612 97.7465C75.7892 97.2325 77.5041 97.0692 79.0437 96.9493Z" fill="#EB662B"/>
<path d="M68.2821 115.779C69.1741 114.801 69.4072 113.204 69.2365 111.013L69.2158 110.746C68.9741 108.025 67.8584 105.937 65.2381 106.141C62.1589 106.381 61.4313 108.895 61.7126 112.507C61.9374 115.394 63.3613 117.041 65.8335 116.848C66.9574 116.746 67.5904 116.458 68.2821 115.779ZM65.9826 119.145C61.9548 119.444 59.7021 116.908 59.3794 112.763C59.0428 108.441 60.2346 104.237 64.5573 103.901C67.4736 103.674 69.1815 104.568 70.3699 106.442C71.068 107.564 71.4647 109.216 71.5753 110.637C71.9039 114.856 70.779 118.771 66.0122 119.143L65.9826 119.145Z" fill="#EB662B"/>
<path d="M53.8444 112.256C53.6093 109.236 52.6635 107.418 50.1469 107.614C48.1187 107.772 47.4612 108.509 46.5416 110.278L47.0441 116.733C47.8727 117.428 48.7892 118.294 50.1363 118.19C52.5493 118.002 54.1707 116.446 53.8444 112.256ZM44.1849 109.851L44.1573 109.496C44.0616 108.267 43.8292 107.004 43.6051 106.039L46.0098 105.554C46.1207 106.022 46.2201 106.341 46.2833 106.962C47.1514 106.06 48.2954 105.45 49.9534 105.321C54.0244 105.004 55.8378 107.827 56.1467 111.794C56.534 116.768 54.8893 120.128 50.1077 120.5C48.6274 120.616 48.0279 120.186 47.2816 119.782L47.5202 122.846C47.6286 124.238 47.8587 125.471 48.0407 126.47L45.6973 126.786C45.4799 125.716 45.2952 124.301 45.1903 122.953L44.1849 109.851Z" fill="#EB662B"/>
<path d="M52.4727 107.401V123.069H50.3125L50.2715 105.336L59.4453 105.35H61.5918L61.6055 123.069H59.459L59.4316 107.401H52.4727ZM72.4336 120.061C73.3223 119.227 73.6504 117.778 73.6504 115.754V115.508C73.623 112.993 72.748 110.997 70.3281 110.997C67.4844 110.997 66.6367 113.252 66.6367 116.588C66.6367 119.254 67.8262 120.868 70.1094 120.868C71.1484 120.854 71.75 120.635 72.4336 120.061ZM70.082 122.987C66.3633 122.973 64.4766 120.485 64.4766 116.657C64.4766 112.665 65.8711 108.891 69.8633 108.891C72.5566 108.891 74.0605 109.834 75.0176 111.639C75.5781 112.719 75.8242 114.264 75.8242 115.577C75.8242 119.473 74.5117 122.987 70.1094 122.987H70.082ZM78.3125 122.932L78.5723 120.813C78.7637 120.854 78.9551 120.895 79.1602 120.895C80.3496 120.895 81.7305 119.569 81.7305 109.028L85.9141 109.014H87.541C88.6074 109.014 89.5645 109.014 90.3301 109.069V123H88.1152C88.1289 120.635 88.1562 113.307 88.1699 113.307V111.106H83.8906C83.6309 117.163 83.0703 123.042 79.2559 123.042C78.9688 123.042 78.6406 123 78.3125 122.932ZM99.0938 116.26C98.3418 116.26 96.6465 116.383 96.6465 116.383C96.6191 119.624 96.6055 119.911 96.5918 120.95C98.0684 120.95 98 121.004 99.0254 121.004C101.486 121.004 103.113 120.813 103.113 118.571C103.113 116.657 101.213 116.26 99.0938 116.26ZM94.4727 109.055H96.6602C96.6738 110.149 96.6738 110.86 96.6738 111.571V114.469C97.7402 114.278 98.4648 114.223 99.3262 114.223C102.689 114.223 105.287 115.208 105.287 118.79C105.287 121.961 102.867 123.069 99.4766 123.069C98.1777 123.069 95.9492 123 94.3633 123C94.3633 120.348 94.4863 118.639 94.4863 112.952C94.4863 111.461 94.4727 110.313 94.4727 109.055ZM110.113 115.795C110.113 120.854 112.943 120.95 114.447 120.95H114.625C116.758 120.95 117.783 120.061 118.494 118.872L120.217 120.116C119.766 120.69 118.494 123.096 114.68 123.096C113.258 123.096 111.576 122.987 110.264 122.002C108.486 120.622 107.939 118.516 107.939 115.795C107.939 110.778 110.373 109.083 114.68 109.083C115.979 109.083 116.99 109.411 117.811 110.04C118.645 110.682 119.068 111.502 119.369 112.213L117.264 113.034C117.113 112.473 116.717 111.174 114.529 111.174C111.508 111.174 110.113 112.528 110.113 115.795ZM128.98 115.577C130.621 117.19 133.711 120.375 134.709 122.084L133.082 123.411C132.207 122.043 129.35 118.858 127.572 117.122L125.74 118.858V123H123.607V109.055H125.74V115.768C128.188 113.499 131.688 110.026 133.561 108.659L134.887 110.422C132.836 111.639 130.512 114.004 128.98 115.577ZM146.111 109.055L148.285 109.069C148.285 109.069 148.244 114.1 148.244 117.272C148.244 119.5 148.271 121.538 148.354 123.083H146.207C146.084 120.745 146.084 119.815 146.084 117.272C146.084 116.069 146.166 113.143 146.166 113.143C144.348 116.397 141.477 120.526 139.754 123.042L137.58 123.096V109.096H139.754C139.754 110.942 139.686 116.11 139.686 119.446C142.188 115.918 143.732 112.856 146.111 109.055ZM157.568 104.762C159.045 104.762 160.166 103.901 160.248 102.834L162.518 103.245C162.189 105.665 159.824 106.854 157.568 106.854C155.846 106.854 153.357 106.198 152.701 103.122L154.834 102.711C155.203 104.311 156.297 104.762 157.568 104.762ZM160.604 109.055L162.777 109.069C162.777 109.069 162.736 114.1 162.736 117.272C162.736 119.5 162.764 121.538 162.846 123.083H160.699C160.576 120.745 160.576 119.815 160.576 117.272C160.576 116.069 160.658 113.143 160.658 113.143C158.84 116.397 155.969 120.526 154.246 123.042L152.072 123.096V109.096H154.246C154.246 110.942 154.178 116.11 154.178 119.446C156.68 115.918 158.225 112.856 160.604 109.055Z" fill="white"/>
<path d="M41.0344 124.689L36.1551 117.787L36.1451 126.466C36.8778 126.057 37.6101 125.834 38.6795 125.45L41.0344 124.689ZM34.1704 115.405L36.4065 114.723L45.8546 127.978C46.1461 128.418 46.7047 129.405 46.9464 130.103L44.8018 130.757C44.71 130.457 44.2658 129.563 44.0534 129.242L42.3001 126.775C40.4683 127.377 37.5863 128.285 36.2426 129.081L36.1853 131.657C36.1703 132.076 36.2426 132.969 36.3544 133.335L34.236 133.982C34.1373 133.612 34.0215 132.389 34.0199 131.775L34.1704 115.405ZM47.0537 115.419L48.8483 121.346C49.9676 120.705 51.1688 120.238 52.738 119.759L54.7518 119.145C53.6584 115.562 53.7092 115.775 53.0627 113.656L55.1419 113.022L59.2122 126.36L57.1461 126.99L55.3584 121.132L54.6391 121.352C52.6646 121.954 50.8981 122.536 49.4549 123.334C50.8236 127.819 50.4347 126.451 51.157 128.818L49.0517 129.461L44.9694 116.083L47.0537 115.419ZM60.1764 111.486L67.6823 109.195C68.6631 108.896 69.2158 108.927 69.8943 108.949L69.9408 111.022C69.3055 111.001 69.0542 111.021 68.2707 111.217L62.8962 112.857L66.352 124.181L64.2467 124.824L60.1764 111.486ZM75.5641 121.299L75.194 119.196C75.3891 119.179 75.5841 119.163 75.7802 119.103C76.9179 118.756 77.8516 117.084 74.7749 107.002L78.7723 105.768L80.3285 105.293C81.3484 104.982 82.2638 104.702 83.012 104.531L87.0783 117.856L84.9599 118.503C84.2826 116.237 82.1699 109.22 82.183 109.216L81.5405 107.11L77.4476 108.359C78.9669 114.228 80.1466 120.014 76.4983 121.128C76.2237 121.212 75.8979 121.268 75.5641 121.299ZM94.7769 100.927L96.8601 100.305C96.8601 100.305 98.2894 105.13 99.2152 108.163C99.8656 110.295 100.486 112.235 101.016 113.689L98.9627 114.315C98.1626 112.115 97.8913 111.226 97.1491 108.794C96.7979 107.643 96.0224 104.821 96.0224 104.821C95.233 108.464 93.692 113.251 92.7786 116.16L90.7154 116.846L86.6291 103.456L88.7083 102.822C89.247 104.587 90.69 109.55 91.6637 112.741C93.0272 108.636 93.611 105.256 94.7769 100.927ZM104.482 93.4768C105.894 93.0458 106.715 91.8947 106.482 90.8508L108.773 90.5807C109.165 92.991 107.25 94.819 105.093 95.4775C103.445 95.9803 100.874 96.0789 99.348 93.3282L101.268 92.3134C102.088 93.7356 103.266 93.8479 104.482 93.4768ZM108.638 96.6969L110.721 96.0755C110.721 96.0755 112.151 100.9 113.076 103.933C113.727 106.065 114.347 108.005 114.877 109.459L112.824 110.086C112.024 107.885 111.752 106.996 111.01 104.564C110.659 103.413 109.884 100.591 109.884 100.591C109.094 104.234 107.553 109.021 106.64 111.93L104.577 112.617L100.49 99.2262L102.569 98.5917C103.108 100.357 104.551 105.32 105.525 108.511C106.888 104.407 107.472 101.027 108.638 96.6969ZM117.758 100.961C119.235 105.799 121.97 105.065 123.408 104.626L123.578 104.574C125.618 103.951 126.339 102.802 126.672 101.457L128.683 102.144C128.419 102.825 127.905 105.498 124.257 106.611C122.897 107.026 121.256 107.412 119.714 106.854C117.611 106.052 116.473 104.198 115.679 101.595C114.215 96.7963 116.047 94.4645 120.167 93.2075C121.409 92.8284 122.472 92.8469 123.44 93.209C124.426 93.5802 125.07 94.2411 125.566 94.8333L123.791 96.2324C123.484 95.7401 122.725 94.6136 120.633 95.2521C117.743 96.134 116.805 97.8356 117.758 100.961ZM135.74 95.2448C137.78 96.309 141.665 98.454 143.119 99.7972L141.95 101.541C140.714 100.488 137.051 98.2754 134.844 97.1335L133.599 99.3289L134.808 103.291L132.768 103.914L128.698 90.5755L130.737 89.953L132.697 96.3736C134.375 93.4886 136.709 89.1456 138.102 87.2912L139.885 88.5911C138.278 90.3534 136.746 93.2941 135.74 95.2448ZM150.222 84.0072L152.305 83.3858C152.305 83.3858 153.734 88.21 154.66 91.2437C155.31 93.3752 155.931 95.3156 156.46 96.7693L154.407 97.3958C153.607 95.1957 153.336 94.3065 152.594 91.8742C152.243 90.7235 151.467 87.9012 151.467 87.9012C150.678 91.5441 149.137 96.3312 148.223 99.2401L146.16 99.9269L142.074 86.5365L144.153 85.902C144.692 87.6674 146.135 92.6302 147.108 95.8209C148.472 91.7169 149.056 88.3368 150.222 84.0072ZM159.927 76.5572C161.339 76.1262 162.16 74.9752 161.927 73.9312L164.217 73.6611C164.61 76.0714 162.695 77.8995 160.537 78.5579C158.89 79.0607 156.318 79.1593 154.793 76.4086L156.713 75.3938C157.533 76.816 158.711 76.9283 159.927 76.5572ZM164.083 79.7773L166.166 79.1559C166.166 79.1559 167.595 83.9801 168.521 87.0138C169.171 89.1453 169.792 91.0857 170.321 92.5394L168.268 93.1659C167.468 90.9658 167.197 90.0766 166.455 87.6443C166.104 86.4936 165.328 83.6713 165.328 83.6713C164.539 87.3142 162.998 92.1013 162.084 95.0102L160.021 95.697L155.935 82.3066L158.014 81.6721C158.553 83.4375 159.996 88.4003 160.969 91.591C162.333 87.487 162.917 84.107 164.083 79.7773Z" fill="white"/>
<rect x="1.14746" y="95.4185" width="171.08" height="45.021" transform="rotate(-4.39559 1.14746 95.4185)" fill="#EFECDB"/>
<path d="M18.5165 84.9404L189.318 71.8112L171.75 82.6439L0.724607 95.7904L18.5165 84.9404Z" fill="#FEF9E5"/>
<ellipse cx="40.124" cy="86.5077" rx="12.5325" ry="3.42112" transform="rotate(-4.39559 40.124 86.5077)" fill="#DDDACB"/>
<rect x="27.1416" y="81.1338" width="7.81969" height="6.21386" transform="rotate(-4.39559 27.1416 81.1338)" fill="#DDDACB"/>
<rect x="44.3418" y="79.8813" width="7.81969" height="6.21386" transform="rotate(-4.39559 44.3418 79.8813)" fill="#DDDACB"/>
<ellipse cx="39.6474" cy="80.3124" rx="12.5325" ry="3.42112" transform="rotate(-4.39559 39.6474 80.3124)" fill="#EFECDB"/>
<ellipse cx="78.0381" cy="83.3675" rx="12.5325" ry="3.42112" transform="rotate(-4.39559 78.0381 83.3675)" fill="#DDDACB"/>
<rect x="65.0557" y="77.9932" width="7.81969" height="6.21386" transform="rotate(-4.39559 65.0557 77.9932)" fill="#DDDACB"/>
<rect x="82.2549" y="76.7407" width="7.81969" height="6.21386" transform="rotate(-4.39559 82.2549 76.7407)" fill="#DDDACB"/>
<ellipse cx="77.5615" cy="77.1717" rx="12.5325" ry="3.42112" transform="rotate(-4.39559 77.5615 77.1717)" fill="#EFECDB"/>
<ellipse cx="118.421" cy="80.0375" rx="12.5325" ry="3.42112" transform="rotate(-4.39559 118.421 80.0375)" fill="#DDDACB"/>
<rect x="105.438" y="74.6631" width="7.81969" height="6.21386" transform="rotate(-4.39559 105.438 74.6631)" fill="#DDDACB"/>
<rect x="122.639" y="73.4106" width="7.81969" height="6.21386" transform="rotate(-4.39559 122.639 73.4106)" fill="#DDDACB"/>
<ellipse cx="117.944" cy="73.8417" rx="12.5325" ry="3.42112" transform="rotate(-4.39559 117.944 73.8417)" fill="#EFECDB"/>
<ellipse cx="158.854" cy="77.3812" rx="12.5325" ry="3.42112" transform="rotate(-4.39559 158.854 77.3812)" fill="#DDDACB"/>
<rect x="145.872" y="72.0068" width="7.81969" height="6.21386" transform="rotate(-4.39559 145.872 72.0068)" fill="#DDDACB"/>
<rect x="163.072" y="70.7544" width="7.81969" height="6.21386" transform="rotate(-4.39559 163.072 70.7544)" fill="#DDDACB"/>
<ellipse cx="158.378" cy="71.1854" rx="12.5325" ry="3.42112" transform="rotate(-4.39559 158.378 71.1854)" fill="#EFECDB"/>
<path d="M140.845 117.592C139.478 115.737 135.219 111.915 132.539 109.622L130.107 112.253L130.495 118.12L127.474 118.32L126.169 98.5684L129.19 98.3688L129.818 107.877C133.072 104.433 137.704 99.1871 140.229 97.0755L142.272 99.4493C139.481 101.365 136.411 104.932 134.389 107.302C136.843 109.416 140.953 112.742 142.243 114.602L144.623 114.425L145.15 122.403L142.111 122.623L141.766 117.395L140.845 117.592Z" fill="#EB662B"/>
<path d="M108.041 113.555C108.175 115.589 109.336 116.679 111.137 116.56C115.204 116.291 117.035 113.097 117.486 112.27L117.364 110.43C116.216 109.826 114.746 109.359 112.732 109.492C110.1 109.685 107.89 111.27 108.041 113.555ZM120.561 112.592C120.605 113.27 120.724 115.071 120.998 115.383C121.273 115.715 122.018 116.113 122.609 116.521L121.154 118.932C120.096 118.224 118.902 117.817 118.425 115.884C117.01 117.436 115.146 119.251 111.332 119.503C108.02 119.722 105.245 117.163 105.033 113.949C104.936 112.477 105.403 110.715 106.467 109.458C108.183 107.459 110.108 106.865 112.393 106.714C114.833 106.552 116.076 106.82 117.163 107.39C116.922 103.73 115.469 102.057 112.177 102.274C109.505 102.451 108.323 103.112 106.957 105.984L104.335 104.562C105.961 100.915 108.479 99.5817 111.945 99.3527C116.631 99.0431 119.85 101.845 120.138 106.202L120.561 112.592Z" fill="#EB662B"/>
<path d="M83.7948 118.657L85.3053 116.204C86.3517 117.03 88.9601 117.947 92.2132 117.732C95.7181 117.5 97.7791 116.314 97.6601 114.513C97.6 113.603 96.6401 112.616 94.4383 111.964C92.9695 111.516 91.7638 111.518 90.5439 111.599C90.0404 111.632 89.5382 111.685 89.0348 111.718L88.8403 108.775L89.1889 108.752L89.2857 108.745C91.4351 108.603 96.8906 108.165 96.7269 105.686C96.622 104.099 94.8344 103.536 90.8842 103.797C88.057 103.984 86.0633 105.01 85.6177 105.331L84.1347 102.901C84.4679 102.646 86.2541 101.127 90.7271 100.832C96.73 100.435 99.5353 102.272 99.74 105.371C99.8449 106.959 98.9166 109.393 95.8131 109.812C98.8024 110.314 100.579 112.472 100.698 114.273C100.781 115.532 100.638 117.194 99.2249 118.474C97.8481 119.713 95.9539 120.48 92.4296 120.712C88.1114 120.998 85.2375 119.593 83.7948 118.657Z" fill="#EB662B"/>
<path d="M66.9892 116.267C67.1235 118.3 68.2847 119.391 70.0855 119.272C74.152 119.003 75.983 115.809 76.4341 114.982L76.3125 113.142C75.164 112.538 73.694 112.071 71.6801 112.204C69.0479 112.397 66.8382 113.982 66.9892 116.267ZM79.5088 115.304C79.5535 115.982 79.6725 117.783 79.946 118.095C80.2208 118.427 80.9667 118.825 81.5576 119.233L80.1027 121.644C79.0446 120.936 77.8507 120.528 77.373 118.596C75.9585 120.148 74.0947 121.963 70.28 122.215C66.9687 122.434 64.1936 119.875 63.9812 116.66C63.884 115.189 64.351 113.427 65.4155 112.17C67.1309 110.17 69.056 109.576 71.341 109.426C73.7808 109.264 75.0238 109.532 76.1117 110.102C75.8699 106.442 74.4173 104.769 71.1254 104.986C68.4532 105.163 67.2716 105.824 65.9055 108.696L63.2832 107.274C64.9093 103.627 67.4274 102.294 70.8935 102.065C75.5796 101.755 78.7987 104.557 79.0866 108.914L79.5088 115.304Z" fill="#EB662B"/>
<path d="M58.7418 123.016C57.3746 121.162 53.1156 117.339 50.4358 115.046L48.0035 117.677L48.3912 123.544L45.3704 123.744L44.0654 103.993L47.0862 103.793L47.7144 113.301C50.9682 109.857 55.6004 104.611 58.1253 102.5L60.1687 104.874C57.3779 106.789 54.3074 110.356 52.2857 112.727C54.7397 114.84 58.8492 118.166 60.139 120.026L62.5195 119.849L63.0466 127.827L60.0077 128.047L59.6623 122.819L58.7418 123.016Z" fill="#EB662B"/>
</svg>
