<svg width="365" height="178" viewBox="0 0 365 178" fill="none" xmlns="http://www.w3.org/2000/svg">
<path d="M60.6677 44.4464L64.1975 29.083C61.5592 28.4769 60.3569 28.2146 59.3443 27.982L59.8188 25.9166C61.4444 26.2901 67.4969 27.6667 70.0019 28.2423C70.9746 28.4657 71.5908 28.7756 71.8215 28.8707L70.9164 30.7951C70.9164 30.7951 70.127 30.4454 69.4608 30.2923L66.3295 29.5728L62.7996 44.9362L60.6677 44.4464ZM73.5197 42.9102C73.1982 44.3093 73.7607 45.2802 74.9999 45.565C77.7981 46.2079 79.6809 44.424 80.1529 43.9573L80.4437 42.6914C79.7913 42.0506 78.8941 41.4376 77.5083 41.1192C75.6931 40.7162 73.8809 41.3379 73.5197 42.9102ZM82.1622 44.7977C82.055 45.2641 81.7703 46.5033 81.8915 46.7696C82.0096 47.0492 82.4322 47.469 82.7482 47.8642L81.2779 49.1958C80.7075 48.5036 79.9846 47.9868 80.0539 46.5859C78.785 47.3464 77.1595 48.1934 74.5346 47.5903C72.256 47.0668 70.9022 44.7778 71.4104 42.5659C71.6431 41.5532 72.3153 40.4592 73.2882 39.827C74.851 38.8253 76.2702 38.8147 77.8426 39.176C79.5215 39.5617 80.3058 39.9944 80.9243 40.5995C81.5029 38.0811 80.8621 36.6573 78.5969 36.1369C76.7581 35.7144 75.8268 35.9213 74.3231 37.5818L72.8419 36.0912C74.6782 33.96 76.6474 33.5707 79.0326 34.1187C82.2571 34.8596 83.8613 37.4025 83.1724 40.4006L82.1622 44.7977ZM89.0893 50.9764L91.765 39.3306C89.1267 38.7245 87.9244 38.4623 86.9117 38.2296L87.3862 36.1643C89.0119 36.5378 95.0643 37.9143 97.5694 38.4899C98.5421 38.7134 99.1583 39.0233 99.3889 39.1184L98.4839 41.0427C98.4839 41.0427 97.6945 40.693 97.0282 40.5399L93.8969 39.8205L91.2212 51.4663L89.0893 50.9764ZM101.768 49.4005C101.447 50.7996 102.009 51.7705 103.248 52.0552C106.046 52.6981 107.929 50.9142 108.401 50.4475L108.692 49.1817C108.04 48.5408 107.142 47.9279 105.757 47.6095C103.941 47.2064 102.129 47.8281 101.768 49.4005ZM110.411 51.2879C110.303 51.7543 110.019 52.9935 110.14 53.2598C110.258 53.5395 110.681 53.9592 110.997 54.3545L109.526 55.686C108.956 54.9938 108.233 54.477 108.302 53.0761C107.033 53.8367 105.408 54.6837 102.783 54.0806C100.504 53.557 99.1506 51.268 99.6588 49.0561C99.8914 48.0435 100.564 46.9494 101.537 46.3172C103.099 45.3156 104.519 45.305 106.091 45.6662C107.77 46.052 108.554 46.4847 109.173 47.0897C109.751 44.5713 109.111 43.1475 106.845 42.6271C105.006 42.2046 104.075 42.4115 102.571 44.072L101.09 42.5814C102.927 40.4502 104.896 40.061 107.281 40.6089C110.506 41.3498 112.11 43.8927 111.421 46.8908L110.411 51.2879ZM123.602 51.3869C124.227 48.6687 123.896 46.8111 121.631 46.2907C119.805 45.8713 119.025 46.3373 117.73 47.6389L116.395 53.4485C116.932 54.2873 117.499 55.3012 118.711 55.5798C120.883 56.0788 122.736 55.1578 123.602 51.3869ZM115.777 46.615L115.85 46.2952C116.104 45.1893 116.248 44.0158 116.317 43.1058L118.563 43.3413C118.532 43.783 118.531 44.0915 118.416 44.6542C119.427 44.1009 120.6 43.8794 122.092 44.2223C125.756 45.0642 126.573 48.0434 125.752 51.6144C124.724 56.0915 122.354 58.5911 118.05 57.6023C116.718 57.2961 116.309 56.7534 115.764 56.1934L115.131 58.9516C114.843 60.2041 114.706 61.351 114.591 62.2785L112.445 61.9116C112.548 60.9114 112.775 59.6169 113.054 58.4043L115.777 46.615ZM130.624 53.0003C129.492 57.9305 132.228 58.6574 133.694 58.9942L133.867 59.034C135.946 59.5116 137.144 58.8751 138.104 57.875L139.504 59.4733C138.936 59.9319 137.158 61.9924 133.44 61.1382C132.054 60.8198 130.44 60.3367 129.381 59.0834C127.958 57.3396 127.897 55.1652 128.506 52.5135C129.629 47.6234 132.381 46.5161 136.578 47.4804C137.844 47.7712 138.756 48.3176 139.415 49.1142C140.084 49.9272 140.313 50.8216 140.447 51.5818L138.212 51.9099C138.191 51.3299 138.095 49.9752 135.963 49.4854C133.018 48.8088 131.356 49.8157 130.624 53.0003ZM149.061 57.0119C150.299 58.9516 152.597 62.7481 153.187 64.6372L151.305 65.5654C150.758 64.037 148.686 60.2925 147.343 58.2023L145.169 59.4843L144.241 63.5217L142.162 63.0441L145.285 49.4529L147.364 49.9305L145.861 56.4729C148.754 54.809 152.943 52.2082 155.074 51.2952L155.972 53.311C153.701 54.0377 150.906 55.8224 149.061 57.0119ZM167.218 54.492L169.333 54.9921C169.333 54.9921 168.167 59.8864 167.456 62.9777C166.957 65.1496 166.528 67.1411 166.262 68.6652L164.17 68.1846C164.573 65.8785 164.782 64.9724 165.351 62.494C165.62 61.3214 166.356 58.4883 166.356 58.4883C163.855 61.2524 160.132 64.6336 157.89 66.6996L155.759 66.2661L158.894 52.6216L161.012 53.1084C160.599 54.9072 159.375 59.9287 158.628 63.1799C161.857 60.3024 164.048 57.6636 167.218 54.492ZM179.345 52.8735C180.784 53.2041 182.07 52.6157 182.388 51.5948L184.508 52.5027C183.647 54.7877 181.075 55.4173 178.877 54.9122C177.198 54.5264 174.92 53.3297 174.969 50.1847L177.139 50.2625C177.141 51.9042 178.106 52.5888 179.345 52.8735ZM181.342 57.7371L183.457 58.2372C183.457 58.2372 182.291 63.1315 181.581 66.2228C181.082 68.3948 180.652 70.3863 180.386 71.9103L178.294 71.4297C178.698 69.1236 178.906 68.2175 179.475 65.7391C179.745 64.5666 180.48 61.7334 180.48 61.7334C177.979 64.4975 174.256 67.8787 172.014 69.9447L169.883 69.5112L173.018 55.8667L175.137 56.3535C174.723 58.1523 173.5 63.1738 172.753 66.425C175.981 63.5475 178.172 60.9087 181.342 57.7371Z" fill="white"/>
<path d="M76.005 35.0821C77.0418 32.4341 75.6604 31.3499 72.5586 30.0472C71.782 29.7432 71.1892 29.5698 70.6113 29.3582L69.9832 30.9622C69.071 33.2919 67.9416 36.1386 67.9416 36.1386C68.3949 36.3308 68.8277 36.5003 69.2479 36.6648C72.8888 38.0905 74.8684 37.9847 76.005 35.0821ZM64.8232 44.0648L62.8167 43.2645L69.3122 26.6764C70.8144 27.2647 71.3381 27.3522 73.0312 28.0152C75.8956 29.1369 77.6004 29.9953 78.3765 32.3254C78.7399 33.4221 78.5459 34.6675 78.0972 35.8133C77.6436 36.9718 77.0432 38.205 75.8457 39.0134C73.9002 40.3072 72.1693 40.0405 69.1267 38.8491C68.5156 38.6098 67.8713 38.3429 67.1938 38.0482C65.8828 41.3964 65.6008 42.0789 64.8232 44.0648ZM78.1979 52.4295C79.5474 52.9579 81.1571 50.8719 82.1693 49.7119C82.6077 45.0676 82.673 40.4388 81.5343 38.1723C81.2637 37.6258 80.7467 37.4087 80.2884 37.2293L81.0511 35.2815C81.4713 35.446 82.0878 35.7462 82.4244 35.9367C84.4258 37.0874 84.6138 42.6817 84.4322 47.3825C86.456 44.9888 88.7369 41.6387 89.9704 38.7887L91.9818 39.5763C91.6827 40.3402 91.3349 41.0409 90.9661 41.6453C88.3789 45.8152 85.448 49.5128 82.2172 52.814C80.8695 54.2685 79.383 55.14 77.4862 54.3972C75.2583 53.5248 74.3991 51.632 75.745 48.1947L77.731 48.9724C76.8486 51.2257 77.1795 52.0307 78.1979 52.4295ZM94.0818 47.6372C92.2373 52.3475 94.8376 53.4686 96.238 54.0169L96.4035 54.0817C98.3895 54.8594 99.6683 54.4058 100.764 53.5574L101.914 55.344C101.285 55.7142 99.2236 57.4912 95.6718 56.1004C94.3478 55.5819 92.8218 54.8669 91.9586 53.4717C90.8071 51.5379 91.0656 49.378 92.0576 46.8446C93.8871 42.1724 96.7713 41.4812 100.781 43.0514C101.991 43.525 102.813 44.1994 103.348 45.0842C103.89 45.9866 103.986 46.905 104.006 47.6766L101.747 47.6728C101.811 47.096 101.916 45.742 99.8787 44.9444C97.0652 43.8427 95.2732 44.5946 94.0818 47.6372ZM107.576 52.9213C105.732 57.6317 108.332 58.7527 109.733 59.301L109.898 59.3658C111.884 60.1435 113.163 59.6899 114.259 58.8415L115.409 60.6281C114.779 60.9983 112.718 62.7753 109.166 61.3845C107.842 60.866 106.316 60.151 105.453 58.7559C104.302 56.822 104.56 54.6621 105.552 52.1287C107.382 47.4565 110.266 46.7653 114.276 48.3356C115.485 48.8091 116.308 49.4836 116.842 50.3683C117.385 51.2707 117.48 52.1891 117.501 52.9607L115.241 52.9569C115.306 52.3801 115.41 51.0261 113.373 50.2285C110.56 49.1268 108.768 49.8787 107.576 52.9213ZM125.224 59.597C126.164 61.6974 127.879 65.7902 128.186 67.7455L126.187 68.3871C125.871 66.795 124.372 62.7869 123.35 60.5221L121.011 61.4709L119.5 65.3283L117.514 64.5506L122.599 51.5653L124.585 52.343L122.137 58.5937C125.244 57.3728 129.769 55.4153 132.012 54.8252L132.603 56.951C130.25 57.3363 127.223 58.6913 125.224 59.597ZM143.554 59.7707L145.573 60.576C145.573 60.576 143.7 65.2459 142.544 68.1995C141.731 70.2746 141.014 72.1814 140.527 73.6499L138.528 72.8672C139.266 70.6454 139.605 69.7797 140.532 67.4118C140.971 66.2915 142.114 63.5971 142.114 63.5971C139.234 65.964 135.056 68.7618 132.534 70.4761L130.49 69.7344L135.595 56.6982L137.619 57.4908C136.946 59.2095 134.998 63.9967 133.782 67.103C137.398 64.7308 139.953 62.4424 143.554 59.7707ZM155.787 59.9507C157.162 60.4891 158.52 60.0958 158.985 59.1327L160.949 60.3422C159.761 62.4758 157.125 62.721 155.025 61.8985C153.421 61.2704 151.343 59.752 151.853 56.6483L153.989 57.0441C153.749 58.6682 154.603 59.4871 155.787 59.9507ZM157.048 65.0548L159.067 65.8601C159.067 65.8601 157.195 70.5301 156.038 73.4836C155.226 75.5587 154.508 77.4655 154.021 78.934L152.023 78.1513C152.761 75.9295 153.1 75.0638 154.027 72.6959C154.465 71.5756 155.609 68.8812 155.609 68.8812C152.729 71.2481 148.55 74.0459 146.029 75.7602L143.985 75.0185L149.089 61.9823L151.113 62.7749C150.441 64.4936 148.493 69.2808 147.276 72.3871C150.892 70.0149 153.447 67.7265 157.048 65.0548Z" fill="white"/>
<rect x="6.13672" y="15.2402" width="209.712" height="55.1872" transform="rotate(6.38412 6.13672 15.2402)" fill="#ECC7CF"/>
<path d="M214.548 38.5573L238.14 29.9518L231.881 85.8937L208.412 93.4023L214.548 38.5573Z" fill="#E3B7C0"/>
<path d="M29.4546 6.60258L238.14 29.9518L214.502 38.9687L5.5424 15.5887L29.4546 6.60258Z" fill="#F8D1D9"/>
<ellipse cx="55.1163" cy="13.4457" rx="15.3624" ry="4.19364" transform="rotate(6.38412 55.1163 13.4457)" fill="#E19DAC"/>
<rect x="40.7148" y="3.99756" width="9.58547" height="7.61702" transform="rotate(6.38412 40.7148 3.99756)" fill="#E19DAC"/>
<rect x="61.7139" y="6.43311" width="9.58547" height="7.61702" transform="rotate(6.38412 61.7139 6.43311)" fill="#E19DAC"/>
<ellipse cx="55.963" cy="5.87584" rx="15.3624" ry="4.19364" transform="rotate(6.38412 55.963 5.87584)" fill="#ECC7CF"/>
<ellipse cx="101.489" cy="18.3558" rx="15.3624" ry="4.19364" transform="rotate(6.38412 101.489 18.3558)" fill="#E19DAC"/>
<rect x="87.0879" y="8.90771" width="9.58547" height="7.61702" transform="rotate(6.38412 87.0879 8.90771)" fill="#E19DAC"/>
<rect x="108.086" y="11.3433" width="9.58547" height="7.61702" transform="rotate(6.38412 108.086 11.3433)" fill="#E19DAC"/>
<ellipse cx="102.336" cy="10.786" rx="15.3624" ry="4.19364" transform="rotate(6.38412 102.336 10.786)" fill="#ECC7CF"/>
<ellipse cx="150.88" cy="23.6039" rx="15.3624" ry="4.19364" transform="rotate(6.38412 150.88 23.6039)" fill="#E19DAC"/>
<rect x="136.479" y="14.1558" width="9.58547" height="7.61702" transform="rotate(6.38412 136.479 14.1558)" fill="#E19DAC"/>
<rect x="157.478" y="16.5913" width="9.58547" height="7.61702" transform="rotate(6.38412 157.478 16.5913)" fill="#E19DAC"/>
<ellipse cx="151.727" cy="16.034" rx="15.3624" ry="4.19364" transform="rotate(6.38412 151.727 16.034)" fill="#ECC7CF"/>
<ellipse cx="200.18" cy="29.6761" rx="15.3624" ry="4.19364" transform="rotate(6.38412 200.18 29.6761)" fill="#E19DAC"/>
<rect x="185.778" y="20.228" width="9.58547" height="7.61702" transform="rotate(6.38412 185.778 20.228)" fill="#E19DAC"/>
<rect x="206.777" y="22.6636" width="9.58547" height="7.61702" transform="rotate(6.38412 206.777 22.6636)" fill="#E19DAC"/>
<ellipse cx="201.026" cy="22.1063" rx="15.3624" ry="4.19364" transform="rotate(6.38412 201.026 22.1063)" fill="#ECC7CF"/>
<path d="M172.36 62.5655C171.165 61.7448 170.313 60.3095 170.548 58.1427C170.933 54.7676 174.25 53.6852 177.666 54.0552C180.048 54.3132 183.399 55.4663 184.786 57.6113L182.345 59.5392C181.442 58.2168 179.305 57.1559 177.626 56.974C175.557 56.7498 173.759 57.1277 173.621 58.3966C173.52 59.3336 173.861 59.8249 174.604 60.2609C179.655 63.0398 184.61 63.9716 184.01 69.5156C183.667 72.6781 181.249 74.2134 179.101 74.5337C177.981 74.6691 176.795 74.6788 175.682 74.5583C170.685 74.0169 168.471 71.1109 168.926 66.9138L171.989 67.2654C171.705 69.8812 172.9 71.4326 175.926 71.7604C178.327 72.0205 180.762 71.2376 180.995 69.0903C181.128 67.8604 180.586 67.2092 179.599 66.2926C178.212 65.0561 174.293 63.8612 172.36 62.5655Z" fill="#EB662B"/>
<path d="M162.897 72.9758C161.871 72.0549 160.904 71.1403 160.656 69.415C158.835 70.9162 156.799 72.0189 153.865 71.7603L153.689 71.7413C152.479 71.6101 150.822 71.4109 149.737 70.4836C148.924 69.7833 147.737 68.5289 147.91 66.9282C148.419 61.6902 149.462 53.3304 149.111 51.653L152.291 51.4643C152.526 53.3068 151.767 59.4063 151.032 66.5553C151.077 67.2317 151.451 67.7858 151.847 68.1447C152.099 68.3695 153.078 68.6335 153.878 68.7202C155.193 68.8033 156.01 68.7339 157.071 68.2366C158.048 67.7894 159.458 67.3496 160.386 65.7122L161.816 52.5159L164.9 52.85L163.248 68.096C163.177 69.1153 164.032 70.156 164.746 70.8652L162.897 72.9758Z" fill="#EB662B"/>
<path d="M131.771 51.0979C134.37 50.076 136.227 49.7044 138.375 49.9371C140.717 50.1908 144.049 52.0725 143.734 54.9812L142.496 66.401C142.357 67.6894 143.286 68.2246 144.316 68.9287L142.439 70.9374C140.813 69.9119 139.124 68.7218 139.397 66.2035L140.584 55.2522C140.74 53.8076 138.916 52.9583 137.628 52.8187C136.379 52.6834 134.416 53.3002 131.418 54.358L129.81 69.194L126.724 68.8794L128.217 55.0975C128.593 51.6227 128.492 51.0983 128.223 49.2125L131.424 48.8286C131.569 49.3183 131.718 50.1245 131.771 51.0979Z" fill="#EB662B"/>
<path d="M112.931 39.5964L117.519 40.0934L117.043 44.4857L112.456 43.9887L112.931 39.5964ZM114.13 47.4882L116.395 47.7335C115.818 53.0628 114.716 63.4111 114.716 63.4111C114.64 65.0224 115.491 65.1935 117.287 65.3881C119.102 65.5847 121.567 65.437 123.024 64.5678L124.111 66.9371C122.282 68.1412 119.427 68.4244 117.006 68.1622C115.347 67.9824 113.893 67.5484 113.085 66.9868C111.525 65.8896 111.538 64.311 111.663 63.1592L113.039 50.451C112.083 50.3474 109.845 50.2234 107.944 50.452L107.678 47.6186C109.919 47.3479 112.1 47.2682 114.13 47.4882Z" fill="#EB662B"/>
<path d="M91.0873 56.3683L91.0027 57.1492C90.7214 59.7455 91.2106 61.7932 93.3542 62.2427C93.7013 62.3198 95.2023 62.5022 95.4561 62.5297C96.725 62.6671 97.9955 62.6073 98.5131 62.3868C99.6893 61.9217 100.157 60.8861 100.334 60.53L102.675 61.8897C102.421 62.4151 101.779 64.1429 99.4553 65.1749C98.2512 65.716 96.8267 65.7394 95.1674 65.5597C91.5755 65.1705 89.2341 64.5416 88.1611 61.5024C87.6301 60.0228 87.7106 58.5503 87.8925 56.8715L87.9834 56.0321C88.2814 54.0103 88.5975 51.4573 89.1228 47.7024L88.8495 47.6728C88.3029 47.6136 87.7478 47.6324 87.2255 47.7141L87.1438 44.8217C87.6314 44.6968 88.5162 44.7334 89.1604 44.8032L89.4532 44.8349C89.6012 43.4684 89.8195 41.6356 89.9676 40.2691L93.0498 40.6227C92.9102 41.9111 92.6919 43.744 92.5286 45.0693L94.9101 45.3273C97.7428 45.6144 100.751 45.9206 100.751 45.9206L101.103 45.9587L100.792 48.8283L94.6035 48.1579C93.7055 48.0606 93.1721 48.0621 92.2741 47.9648C91.667 51.9281 91.3768 54.4247 91.0873 56.3683Z" fill="#EB662B"/>
<path d="M67.6881 56.3218C67.4661 58.3715 68.4324 59.6612 70.2479 59.8579C74.3473 60.302 76.7311 57.4397 77.3254 56.6943L77.5263 54.8398C76.4876 54.0361 75.1044 53.3135 73.0742 53.0935C70.4172 52.8254 67.9377 54.0183 67.6881 56.3218ZM80.3331 57.5534C80.2591 58.2367 80.0624 60.0521 80.2803 60.4115C80.496 60.7904 81.1696 61.3176 81.6871 61.8279L79.8152 63.9754C78.8847 63.0846 77.7663 62.4697 77.6285 60.46C75.9472 61.7591 73.7721 63.2417 69.9264 62.8251C66.5883 62.4635 64.2707 59.4276 64.6217 56.1871C64.7824 54.7035 65.5563 53.0296 66.837 51.9636C68.8967 50.2709 70.919 50.016 73.2225 50.2656C75.6822 50.532 76.874 51.0166 77.8583 51.775C78.258 48.0855 77.1035 46.1632 73.7849 45.8037C71.091 45.5118 69.7977 45.9642 67.9336 48.5866L65.5693 46.7109C67.8282 43.3611 70.5709 42.4732 74.0652 42.8518C78.7893 43.3635 81.5068 46.7192 81.031 51.1115L80.3331 57.5534Z" fill="#EB662B"/>
<path d="M44.5163 60.0132L47.2676 34.6162L50.4105 34.9567L47.9848 57.3474L58.1554 58.4492C59.3134 58.5154 59.6733 58.4754 60.5639 58.2756L61.0555 61.2124C60.1042 61.4254 59.3328 61.6183 57.8687 61.4597L44.5163 60.0132Z" fill="#EB662B"/>
</svg>
