<svg width="269" height="286" viewBox="0 0 269 286" fill="none" xmlns="http://www.w3.org/2000/svg">
<g clip-path="url(#clip0_451_2)">
<path d="M51.6715 136.732C51.6715 236 107.225 237.878 136.746 237.878H140.235C182.101 237.878 202.229 220.439 216.185 197.098L250 221.512C241.144 232.78 216.185 280 141.308 280C113.398 280 80.3875 277.854 54.6236 258.537C19.735 231.439 9 190.122 9 136.732C9 38.2683 56.7706 5 141.308 5C166.804 5 186.664 11.439 202.766 23.7805C219.137 36.3902 227.457 52.4878 233.361 66.439L192.031 82.5366C189.079 71.5366 181.296 46.0488 138.356 46.0488C79.0457 46.0488 51.6715 72.6098 51.6715 136.732Z" fill="#EFECDB"/>
<path d="M175.528 89.032L255 58.5" stroke="#EB662B" stroke-width="2"/>
<path d="M192.91 181L266 231" stroke="#EB662B" stroke-width="2"/>
</g>
<defs>
<clipPath id="clip0_451_2">
<rect width="269" height="286" fill="white"/>
</clipPath>
</defs>
</svg>
