<svg width="409" height="226" viewBox="0 0 409 226" fill="none" xmlns="http://www.w3.org/2000/svg">
<path d="M49.5123 201.752L43.3741 195.941L45.0666 204.455C45.7048 203.909 46.3791 203.547 47.3525 202.961L49.5123 201.752ZM40.9608 193.995L43.0196 192.888L54.884 204.032C55.2561 204.406 55.9975 205.265 56.3714 205.902L54.3968 206.964C54.2478 206.688 53.637 205.898 53.3658 205.625L51.1627 203.55C49.4845 204.5 46.8366 205.955 45.6751 206.999L46.1242 209.537C46.1916 209.951 46.4377 210.812 46.619 211.149L44.6686 212.198C44.4992 211.855 44.1459 210.679 44.0239 210.077L40.9608 193.995ZM53.5966 191.482L56.519 196.942C57.4906 196.094 58.577 195.4 60.0218 194.623L61.876 193.626C60.1011 190.327 60.1927 190.526 59.1433 188.575L61.0576 187.545L67.6649 199.826L65.7625 200.85L62.8606 195.456L62.1984 195.812C60.3803 196.79 58.7623 197.707 57.5036 198.772C59.7254 202.902 59.0758 201.637 60.2482 203.816L58.3098 204.859L51.6832 192.542L53.5966 191.482ZM65.693 185.051L72.604 181.333C73.507 180.847 74.0552 180.77 74.7247 180.658L75.1768 182.681C74.5499 182.786 74.3072 182.854 73.5774 183.2L68.629 185.863L74.2387 196.289L72.3002 197.332L65.693 185.051ZM82.7065 191.656L81.9312 189.667C82.1192 189.612 82.3072 189.557 82.4878 189.46C83.5353 188.897 84.123 187.075 79.1287 177.792L82.8064 175.798L84.2392 175.027C85.1783 174.522 86.0211 174.068 86.7212 173.754L93.322 186.022L91.3715 187.072C90.2629 184.982 86.815 178.516 86.827 178.509L85.7841 176.571L82.0156 178.598C84.6564 184.055 86.9482 189.498 83.589 191.305C83.3362 191.441 83.0278 191.561 82.7065 191.656ZM97.5507 167.912L99.4715 166.894C99.4715 166.894 101.819 171.344 103.322 174.137C104.378 176.1 105.367 177.881 106.171 179.202L104.281 180.219C103.065 178.219 102.625 177.4 101.42 175.161C100.85 174.101 99.5357 171.486 99.5357 171.486C99.4761 175.213 98.9039 180.209 98.5788 183.241L96.6903 184.319L90.0572 171.99L91.9716 170.96C92.8461 172.585 95.2344 177.169 96.815 180.106C97.347 175.815 97.2566 172.386 97.5507 167.912ZM105.606 158.703C106.907 158.003 107.486 156.713 107.053 155.736L109.246 155.021C110.103 157.308 108.584 159.476 106.597 160.545C105.08 161.361 102.578 161.962 100.543 159.564L102.227 158.192C103.31 159.426 104.486 159.305 105.606 158.703ZM110.313 161.045L112.234 160.027C112.234 160.027 114.582 164.477 116.084 167.271C117.14 169.233 118.129 171.014 118.934 172.336L117.043 173.353C115.827 171.352 115.387 170.534 114.182 168.294C113.612 167.235 112.298 164.619 112.298 164.619C112.238 168.346 111.666 173.343 111.341 176.374L109.453 177.452L102.82 165.123L104.734 164.093C105.608 165.719 107.997 170.302 109.577 173.24C110.109 168.948 110.019 165.519 110.313 161.045ZM120.092 163.438C122.489 167.892 125.027 166.636 126.351 165.923L126.508 165.839C128.386 164.829 128.868 163.56 128.93 162.176L131.037 162.455C130.912 163.175 130.932 165.896 127.573 167.703C126.321 168.377 124.788 169.078 123.166 168.833C120.946 168.459 119.467 166.864 118.178 164.468C115.801 160.049 117.141 157.403 120.933 155.363C122.077 154.747 123.123 154.557 124.144 154.722C125.183 154.893 125.945 155.414 126.546 155.898L125.081 157.618C124.683 157.195 123.718 156.239 121.792 157.276C119.131 158.707 118.544 160.56 120.092 163.438ZM136.604 154.306C138.813 154.949 143.043 156.291 144.732 157.323L143.928 159.261C142.509 158.472 138.484 157.021 136.096 156.334L135.305 158.731L137.268 162.379L135.39 163.389L128.782 151.109L130.661 150.098L133.841 156.01C134.921 152.852 136.358 148.135 137.36 146.044L139.363 146.968C138.134 149.012 137.207 152.196 136.604 154.306ZM148.6 140.446L150.521 139.428C150.521 139.428 152.869 143.879 154.371 146.672C155.427 148.634 156.416 150.415 157.221 151.737L155.33 152.754C154.114 150.753 153.674 149.935 152.469 147.695C151.899 146.636 150.585 144.02 150.585 144.02C150.525 147.747 149.953 152.744 149.628 155.775L147.74 156.853L141.107 144.525L143.021 143.495C143.895 145.12 146.284 149.703 147.864 152.641C148.396 148.349 148.306 144.921 148.6 140.446ZM156.656 131.238C157.956 130.538 158.535 129.248 158.102 128.27L160.295 127.556C161.153 129.843 159.633 132.011 157.647 133.08C156.13 133.896 153.627 134.497 151.592 132.099L153.276 130.727C154.359 131.961 155.536 131.84 156.656 131.238ZM161.362 133.58L163.283 132.562C163.283 132.562 165.631 137.012 167.134 139.806C168.19 141.768 169.179 143.549 169.983 144.871L168.093 145.888C166.877 143.887 166.436 143.068 165.231 140.829C164.661 139.769 163.347 137.154 163.347 137.154C163.288 140.881 162.716 145.877 162.39 148.909L160.502 149.987L153.869 137.658L155.783 136.628C156.658 138.254 159.046 142.837 160.627 145.775C161.159 141.483 161.068 138.054 161.362 133.58Z" fill="white"/>
<rect x="3.0625" y="180.24" width="180.631" height="47.5345" transform="rotate(-15.7062 3.0625 180.24)" fill="#EFECDB"/>
<path d="M176.949 131.343L192.991 116.833L206.116 163.507L189.817 177.102L176.949 131.343Z" fill="#E2DFCD"/>
<path d="M18.8759 165.795L192.991 116.832L177.047 131.686L2.70225 180.712L18.8759 165.795Z" fill="#FEF9E5"/>
<ellipse cx="41.5704" cy="162.944" rx="13.2321" ry="3.61211" transform="rotate(-15.7062 41.5704 162.944)" fill="#DDDACB"/>
<rect x="27.0156" y="160.068" width="8.25626" height="6.56078" transform="rotate(-15.7062 27.0156 160.068)" fill="#DDDACB"/>
<rect x="44.5645" y="155.209" width="8.25626" height="6.56078" transform="rotate(-15.7062 44.5645 155.209)" fill="#DDDACB"/>
<ellipse cx="39.794" cy="156.628" rx="13.2321" ry="3.61211" transform="rotate(-15.7062 39.794 156.628)" fill="#EFECDB"/>
<ellipse cx="80.1739" cy="151.841" rx="13.2321" ry="3.61211" transform="rotate(-15.7062 80.1739 151.841)" fill="#DDDACB"/>
<rect x="65.6201" y="148.965" width="8.25626" height="6.56078" transform="rotate(-15.7062 65.6201 148.965)" fill="#DDDACB"/>
<rect x="83.168" y="144.107" width="8.25626" height="6.56078" transform="rotate(-15.7062 83.168 144.107)" fill="#DDDACB"/>
<ellipse cx="78.3975" cy="145.525" rx="13.2321" ry="3.61211" transform="rotate(-15.7062 78.3975 145.525)" fill="#EFECDB"/>
<ellipse cx="121.293" cy="140.031" rx="13.2321" ry="3.61211" transform="rotate(-15.7062 121.293 140.031)" fill="#DDDACB"/>
<rect x="106.739" y="137.156" width="8.25626" height="6.56078" transform="rotate(-15.7062 106.739 137.156)" fill="#DDDACB"/>
<rect x="124.287" y="132.297" width="8.25626" height="6.56078" transform="rotate(-15.7062 124.287 132.297)" fill="#DDDACB"/>
<ellipse cx="119.517" cy="133.716" rx="13.2321" ry="3.61211" transform="rotate(-15.7062 119.517 133.716)" fill="#EFECDB"/>
<ellipse cx="162.606" cy="128.908" rx="13.2321" ry="3.61211" transform="rotate(-15.7062 162.606 128.908)" fill="#DDDACB"/>
<rect x="148.052" y="126.032" width="8.25626" height="6.56078" transform="rotate(-15.7062 148.052 126.032)" fill="#DDDACB"/>
<rect x="165.6" y="121.174" width="8.25626" height="6.56078" transform="rotate(-15.7062 165.6 121.174)" fill="#DDDACB"/>
<ellipse cx="160.829" cy="122.593" rx="13.2321" ry="3.61211" transform="rotate(-15.7062 160.829 122.593)" fill="#EFECDB"/>
<path d="M143.285 165.423C142.376 162.191 141.608 161.424 138.746 162.229C137.309 162.633 136.167 164.091 135.974 165.098L138.108 172.685C138.424 173.81 138.645 174.869 138.758 175.544L136.477 176.062C136.302 175.005 136.157 174.324 135.849 173.228C133.831 166.053 131.039 156.178 131.039 156.178L133.302 155.542L135.152 162.118C135.913 161.275 136.782 160.431 138.234 160.023C139.956 159.539 141.558 159.226 143.067 160.277C144.432 161.198 144.815 162.289 145.256 163.855L145.52 164.794C146.176 167.129 146.47 168.229 146.919 169.823C147.139 170.606 147.625 170.915 148.635 171.23L147.851 173.248C146.532 172.927 145.267 172.469 144.758 170.661L143.285 165.423Z" fill="#EB662B"/>
<path d="M121.519 171.651C120.453 171.413 119.455 170.649 119.011 169.069C118.332 166.602 120.346 164.915 122.838 164.214C124.574 163.726 127.24 163.591 128.811 164.7L127.647 166.732C126.644 166.062 124.853 165.921 123.629 166.265C122.12 166.689 120.969 167.458 121.23 168.383C121.422 169.067 121.799 169.314 122.44 169.41C126.75 169.934 130.474 169.194 131.611 173.237C132.26 175.543 131.001 177.295 129.59 178.122C128.845 178.531 128.019 178.871 127.207 179.099C123.563 180.124 121.201 178.714 120.34 175.654L122.579 175.039C123.115 176.947 124.386 177.696 126.592 177.075C128.343 176.583 129.825 175.352 129.385 173.786C129.133 172.889 128.571 172.586 127.624 172.223C126.308 171.748 123.234 172.014 121.519 171.651Z" fill="#EB662B"/>
<path d="M103.72 163.799L107.065 162.858L107.966 166.061L104.62 167.002L103.72 163.799ZM106.773 168.977L108.425 168.513C109.518 172.399 111.653 179.94 111.653 179.94C112.053 181.087 112.695 180.968 114.005 180.599C115.329 180.227 117.01 179.432 117.784 178.415L119.208 179.766C118.268 181.121 116.353 182.12 114.587 182.617C113.377 182.957 112.24 183.062 111.517 182.896C110.119 182.568 109.685 181.461 109.449 180.621L106.843 171.354C106.145 171.55 104.546 172.092 103.282 172.785L102.301 170.88C103.791 170.061 105.293 169.393 106.773 168.977Z" fill="#EB662B"/>
<path d="M90.0142 167.392L91.6655 166.928C92.7583 170.814 96.5558 184.155 96.5558 184.155C96.9553 185.302 97.5976 185.183 98.9073 184.815C100.231 184.442 101.912 183.647 102.686 182.63L104.111 183.981C103.171 185.336 101.255 186.336 99.4899 186.832C98.2799 187.172 97.142 187.277 96.4196 187.112C95.0215 186.783 94.5873 185.676 94.3512 184.836L90.0652 169.759C89.8232 169.827 89.4349 169.921 89.0078 170.041C88.1964 170.269 87.1835 170.6 86.3712 171.043L85.4002 169.12C86.8904 168.301 88.5337 167.809 90.0142 167.392Z" fill="#EB662B"/>
<path d="M78.3916 193.686C78.896 195.48 80.0837 195.607 81.9627 195.078L83.4574 194.658C85.0945 194.198 86.9091 193.058 86.2446 190.695C85.9043 189.485 83.7392 189.925 82.0168 190.409C81.8886 190.445 81.0772 190.673 79.0069 191.286C78.2978 191.823 78.1394 192.79 78.3916 193.686ZM79.2599 183.719C81.0962 183.202 82.2974 182.066 81.9091 180.685C81.3927 178.849 80.0266 178.634 78.2187 179.142C76.2827 179.687 75.1087 181.138 75.477 182.448C75.9413 184.099 77.4093 184.239 79.2599 183.719ZM73.2678 183.222C72.4272 180.233 74.1084 177.963 77.6102 176.978C79.2473 176.518 80.3808 176.506 81.4662 176.816C82.0552 175.851 82.7696 175.497 84.3355 175.056L84.992 177.391C84.8132 177.411 84.488 177.456 84.3456 177.496C83.8474 177.636 83.3122 177.863 83.1383 178.173C83.6965 178.738 83.9216 179.32 84.1138 180.004C84.8703 182.694 83.1344 184.933 79.9315 185.834C78.9208 186.118 77.996 186.271 76.9706 186.175C76.7882 186.564 76.5867 187.159 76.7508 187.742C77.055 188.824 77.9918 189.206 79.7855 188.701C80.1556 188.597 81.9697 188.057 82.3541 187.948C85.0303 187.196 87.7292 187.343 88.4897 190.048C89.5265 193.735 87.4699 195.926 83.9965 196.903L82.5303 197.315C79.5266 198.16 77.0173 197.375 76.1807 194.4C75.7804 192.977 75.9517 191.838 76.5425 190.934C75.5629 190.565 74.8801 189.666 74.5679 188.556C74.2036 187.26 74.419 186.278 74.8247 185.427C74.1886 185.022 73.556 184.247 73.2678 183.222Z" fill="#EB662B"/>
<path d="M59.7576 183.519C61.2871 182.075 62.4806 181.294 64.0465 180.854C65.7547 180.373 68.6111 180.753 69.2075 182.874L71.5493 191.201C71.8135 192.141 72.6133 192.254 73.5306 192.457L72.7832 194.387C71.3583 194.128 69.8445 193.77 69.3281 191.934L67.0824 183.948C66.7862 182.894 65.2733 182.813 64.3338 183.077C63.4227 183.333 62.2243 184.315 60.4261 185.896L63.4684 196.715L61.2233 197.362L58.3971 187.312C57.6846 184.778 57.4666 184.44 56.7487 183.198L58.8782 182.03C59.1166 182.332 59.4476 182.853 59.7576 183.519Z" fill="#EB662B"/>
<path d="M45.5731 192.838C47.4054 192.308 51.0279 191.151 52.9852 190.354C52.113 188.127 50.2527 187.083 48.3167 187.627C45.8967 188.308 44.9709 190.642 45.5731 192.838ZM47.694 185.468C53.0607 183.958 55.1085 189.22 55.6609 191.184C55.741 191.469 55.801 191.682 55.8188 191.8C51.909 193.192 48.7114 194.275 46.1856 195.016C46.798 197.194 48.5466 198.715 51.4506 197.898C53.4863 197.326 54.3658 195.865 54.7048 194.94L56.8921 195.999C56.4886 196.804 55.3941 199.139 52.0062 200.092C47.7641 201.285 44.8331 198.837 43.5801 194.382C42.4353 190.31 43.6654 186.6 47.694 185.468Z" fill="#EB662B"/>
<path d="M49.5123 201.752L43.3741 195.941L45.0666 204.455C45.7048 203.909 46.3791 203.547 47.3525 202.961L49.5123 201.752ZM40.9608 193.995L43.0196 192.888L54.884 204.032C55.2561 204.406 55.9975 205.265 56.3714 205.902L54.3968 206.964C54.2478 206.688 53.637 205.898 53.3658 205.625L51.1627 203.55C49.4845 204.5 46.8366 205.955 45.6751 206.999L46.1242 209.537C46.1916 209.951 46.4377 210.812 46.619 211.149L44.6686 212.198C44.4992 211.855 44.1459 210.679 44.0239 210.077L40.9608 193.995ZM53.5966 191.482L56.519 196.942C57.4906 196.094 58.577 195.4 60.0218 194.623L61.876 193.626C60.1011 190.327 60.1927 190.526 59.1433 188.575L61.0576 187.545L67.6649 199.826L65.7625 200.85L62.8606 195.456L62.1984 195.812C60.3803 196.79 58.7623 197.707 57.5036 198.772C59.7254 202.902 59.0758 201.637 60.2482 203.816L58.3098 204.859L51.6832 192.542L53.5966 191.482ZM65.693 185.051L72.604 181.333C73.507 180.847 74.0552 180.77 74.7247 180.658L75.1768 182.681C74.5499 182.786 74.3072 182.854 73.5774 183.2L68.629 185.863L74.2387 196.289L72.3002 197.332L65.693 185.051ZM82.7065 191.656L81.9312 189.667C82.1192 189.612 82.3072 189.557 82.4878 189.46C83.5353 188.897 84.123 187.075 79.1287 177.792L82.8064 175.798L84.2392 175.027C85.1783 174.522 86.0211 174.068 86.7212 173.754L93.322 186.022L91.3715 187.072C90.2629 184.982 86.815 178.516 86.827 178.509L85.7841 176.571L82.0156 178.598C84.6564 184.055 86.9482 189.498 83.589 191.305C83.3362 191.441 83.0278 191.561 82.7065 191.656ZM97.5507 167.912L99.4715 166.894C99.4715 166.894 101.819 171.344 103.322 174.137C104.378 176.1 105.367 177.881 106.171 179.202L104.281 180.219C103.065 178.219 102.625 177.4 101.42 175.161C100.85 174.101 99.5357 171.486 99.5357 171.486C99.4761 175.213 98.9039 180.209 98.5788 183.241L96.6903 184.319L90.0572 171.99L91.9716 170.96C92.8461 172.585 95.2344 177.169 96.815 180.106C97.347 175.815 97.2566 172.386 97.5507 167.912ZM105.606 158.703C106.907 158.003 107.486 156.713 107.053 155.736L109.246 155.021C110.103 157.308 108.584 159.476 106.597 160.545C105.08 161.361 102.578 161.962 100.543 159.564L102.227 158.192C103.31 159.426 104.486 159.305 105.606 158.703ZM110.313 161.045L112.234 160.027C112.234 160.027 114.582 164.477 116.084 167.271C117.14 169.233 118.129 171.014 118.934 172.336L117.043 173.353C115.827 171.352 115.387 170.534 114.182 168.294C113.612 167.235 112.298 164.619 112.298 164.619C112.238 168.346 111.666 173.343 111.341 176.374L109.453 177.452L102.82 165.123L104.734 164.093C105.608 165.719 107.997 170.302 109.577 173.24C110.109 168.948 110.019 165.519 110.313 161.045ZM120.092 163.438C122.489 167.892 125.027 166.636 126.351 165.923L126.508 165.839C128.386 164.829 128.868 163.56 128.93 162.176L131.037 162.455C130.912 163.175 130.932 165.896 127.573 167.703C126.321 168.377 124.788 169.078 123.166 168.833C120.946 168.459 119.467 166.864 118.178 164.468C115.801 160.049 117.141 157.403 120.933 155.363C122.077 154.747 123.123 154.557 124.144 154.722C125.183 154.893 125.945 155.414 126.546 155.898L125.081 157.618C124.683 157.195 123.718 156.239 121.792 157.276C119.131 158.707 118.544 160.56 120.092 163.438ZM136.604 154.306C138.813 154.949 143.043 156.291 144.732 157.323L143.928 159.261C142.509 158.472 138.484 157.021 136.096 156.334L135.305 158.731L137.268 162.379L135.39 163.389L128.782 151.109L130.661 150.098L133.841 156.01C134.921 152.852 136.358 148.135 137.36 146.044L139.363 146.968C138.134 149.012 137.207 152.196 136.604 154.306ZM148.6 140.446L150.521 139.428C150.521 139.428 152.869 143.879 154.371 146.672C155.427 148.634 156.416 150.415 157.221 151.737L155.33 152.754C154.114 150.753 153.674 149.935 152.469 147.695C151.899 146.636 150.585 144.02 150.585 144.02C150.525 147.747 149.953 152.744 149.628 155.775L147.74 156.853L141.107 144.525L143.021 143.495C143.895 145.12 146.284 149.703 147.864 152.641C148.396 148.349 148.306 144.921 148.6 140.446ZM156.656 131.238C157.956 130.538 158.535 129.248 158.102 128.27L160.295 127.556C161.153 129.843 159.633 132.011 157.647 133.08C156.13 133.896 153.627 134.497 151.592 132.099L153.276 130.727C154.359 131.961 155.536 131.84 156.656 131.238ZM161.362 133.58L163.283 132.562C163.283 132.562 165.631 137.012 167.134 139.806C168.19 141.768 169.179 143.549 169.983 144.871L168.093 145.888C166.877 143.887 166.436 143.068 165.231 140.829C164.661 139.769 163.347 137.154 163.347 137.154C163.288 140.881 162.716 145.877 162.39 148.909L160.502 149.987L153.869 137.658L155.783 136.628C156.658 138.254 159.046 142.837 160.627 145.775C161.159 141.483 161.068 138.054 161.362 133.58Z" fill="white"/>
<rect x="3.0625" y="180.24" width="180.631" height="47.5345" transform="rotate(-15.7062 3.0625 180.24)" fill="#EFECDB"/>
<path d="M18.8759 165.795L192.991 116.832L177.047 131.686L2.70225 180.712L18.8759 165.795Z" fill="#FEF9E5"/>
<ellipse cx="41.5704" cy="162.944" rx="13.2321" ry="3.61211" transform="rotate(-15.7062 41.5704 162.944)" fill="#DDDACB"/>
<rect x="27.0156" y="160.068" width="8.25626" height="6.56078" transform="rotate(-15.7062 27.0156 160.068)" fill="#DDDACB"/>
<rect x="44.5645" y="155.209" width="8.25626" height="6.56078" transform="rotate(-15.7062 44.5645 155.209)" fill="#DDDACB"/>
<ellipse cx="39.794" cy="156.628" rx="13.2321" ry="3.61211" transform="rotate(-15.7062 39.794 156.628)" fill="#EFECDB"/>
<ellipse cx="80.1739" cy="151.841" rx="13.2321" ry="3.61211" transform="rotate(-15.7062 80.1739 151.841)" fill="#DDDACB"/>
<rect x="65.6201" y="148.965" width="8.25626" height="6.56078" transform="rotate(-15.7062 65.6201 148.965)" fill="#DDDACB"/>
<rect x="83.168" y="144.107" width="8.25626" height="6.56078" transform="rotate(-15.7062 83.168 144.107)" fill="#DDDACB"/>
<ellipse cx="78.3975" cy="145.525" rx="13.2321" ry="3.61211" transform="rotate(-15.7062 78.3975 145.525)" fill="#EFECDB"/>
<ellipse cx="121.293" cy="140.031" rx="13.2321" ry="3.61211" transform="rotate(-15.7062 121.293 140.031)" fill="#DDDACB"/>
<rect x="106.739" y="137.156" width="8.25626" height="6.56078" transform="rotate(-15.7062 106.739 137.156)" fill="#DDDACB"/>
<rect x="124.287" y="132.297" width="8.25626" height="6.56078" transform="rotate(-15.7062 124.287 132.297)" fill="#DDDACB"/>
<ellipse cx="119.517" cy="133.716" rx="13.2321" ry="3.61211" transform="rotate(-15.7062 119.517 133.716)" fill="#EFECDB"/>
<ellipse cx="162.606" cy="128.908" rx="13.2321" ry="3.61211" transform="rotate(-15.7062 162.606 128.908)" fill="#DDDACB"/>
<rect x="148.052" y="126.032" width="8.25626" height="6.56078" transform="rotate(-15.7062 148.052 126.032)" fill="#DDDACB"/>
<rect x="165.6" y="121.174" width="8.25626" height="6.56078" transform="rotate(-15.7062 165.6 121.174)" fill="#DDDACB"/>
<ellipse cx="160.829" cy="122.593" rx="13.2321" ry="3.61211" transform="rotate(-15.7062 160.829 122.593)" fill="#EFECDB"/>
<path d="M137.778 159.375C138.774 157.127 140.291 156.089 142.789 155.405C145.48 154.669 146.708 156.308 147.51 159.241L147.537 159.338L145.023 160.025C144.601 158.738 144.526 157.702 143.043 158.107C141.415 158.553 139.528 159.693 138.899 163.727L141.571 173.493L139.053 174.164L135.689 161.869C135.437 160.95 134.665 160.659 133.423 160.046L134.478 157.315C135.677 157.836 136.811 158.184 137.778 159.375Z" fill="#EB662B"/>
<path d="M120.99 173.737C121.453 175.429 122.62 176.149 124.119 175.739C127.503 174.813 128.499 171.804 128.737 171.029L128.318 169.498C127.245 169.185 125.925 169.044 124.249 169.502C122.062 170.118 120.47 171.835 120.99 173.737ZM131.386 170.772C131.54 171.336 131.95 172.834 132.235 173.051C132.524 173.284 133.221 173.491 133.79 173.734L132.977 176.018C131.963 175.602 130.886 175.464 130.15 173.916C129.224 175.468 127.964 177.32 124.789 178.188C122.033 178.942 119.252 177.261 118.521 174.586C118.185 173.361 118.277 171.794 118.958 170.551C120.062 168.569 121.584 167.737 123.485 167.217C125.516 166.662 126.61 166.674 127.626 166.968C126.793 163.922 125.279 162.76 122.54 163.509C120.316 164.117 119.433 164.879 118.774 167.536L116.318 166.788C117.063 163.431 118.957 161.874 121.842 161.085C125.742 160.018 128.939 161.828 129.931 165.454L131.386 170.772Z" fill="#EB662B"/>
<path d="M107.906 186.566C109.614 186.099 109.669 182.879 109.814 181.004C106.853 176.132 103.538 171.549 100.767 170.159C100.103 169.821 99.4378 169.985 98.8577 170.144L98.1831 167.678C98.7149 167.533 99.5383 167.377 100.007 167.318C102.809 166.985 107.077 172.33 110.331 177.069C110.567 173.246 110.356 168.297 109.484 164.604L112.03 163.908C112.295 164.874 112.466 165.815 112.545 166.677C113.054 172.652 112.881 178.415 112.125 184.009C111.866 186.418 111.046 188.357 108.645 189.014C105.825 189.786 103.601 188.558 102.41 184.207L104.924 183.519C105.705 186.371 106.617 186.919 107.906 186.566Z" fill="#EB662B"/>
<path d="M88.5808 189.306C89.1363 191.336 90.4772 191.489 92.6044 190.907L94.2964 190.444C96.1497 189.937 98.2089 188.664 97.4771 185.989C97.1023 184.619 94.6527 185.099 92.7028 185.632C92.5577 185.672 91.6392 185.923 89.2952 186.599C88.4898 187.2 88.3031 188.291 88.5808 189.306ZM89.6416 178.051C91.7204 177.483 93.0866 176.208 92.6589 174.645C92.0902 172.566 90.5485 172.312 88.5019 172.872C86.3103 173.472 84.9723 175.102 85.3779 176.585C85.8893 178.454 87.5467 178.624 89.6416 178.051ZM82.8758 177.443C81.9499 174.059 83.8675 171.507 87.8318 170.423C89.685 169.916 90.9657 169.912 92.1895 170.27C92.8627 169.185 93.6727 168.79 95.4454 168.305L96.1684 170.948C95.9662 170.969 95.5984 171.018 95.4373 171.062C94.8733 171.216 94.2668 171.468 94.0678 171.817C94.694 172.46 94.9436 173.119 95.1552 173.893C95.9885 176.939 94.0094 179.455 90.3835 180.447C89.2393 180.76 88.1932 180.925 87.0355 180.808C86.8263 181.247 86.5939 181.916 86.7746 182.577C87.1097 183.802 88.1651 184.241 90.1956 183.685C90.6145 183.57 92.6684 182.974 93.1035 182.855C96.1332 182.026 99.1812 182.214 100.019 185.276C101.161 189.45 98.8196 191.909 94.8875 192.985L93.2277 193.439C89.8274 194.369 86.9986 193.463 86.0772 190.095C85.6363 188.483 85.839 187.198 86.5137 186.182C85.41 185.756 84.6458 184.736 84.3019 183.479C83.9007 182.012 84.1519 180.904 84.6171 179.946C83.9016 179.483 83.1932 178.603 82.8758 177.443Z" fill="#EB662B"/>
<path d="M69.7443 187.756C70.2072 189.448 71.3742 190.168 72.8729 189.758C76.257 188.833 77.2525 185.823 77.4907 185.048L77.0719 183.517C75.9991 183.204 74.6787 183.063 73.0027 183.522C70.8155 184.138 69.2241 185.855 69.7443 187.756ZM80.1398 184.791C80.2941 185.355 80.7041 186.854 80.9886 187.07C81.2774 187.303 81.9751 187.511 82.5438 187.754L81.7309 190.037C80.7166 189.622 79.6395 189.483 78.9041 187.935C77.9778 189.488 76.7176 191.339 73.543 192.208C70.7873 192.962 68.0063 191.28 67.2744 188.605C66.9394 187.38 67.0305 185.814 67.7123 184.571C68.8156 182.589 70.3374 181.757 72.239 181.237C74.2695 180.681 75.3641 180.693 76.3798 180.987C75.5465 177.941 74.0334 176.779 71.2939 177.529C69.07 178.137 68.187 178.898 67.5282 181.555L65.0718 180.807C65.8164 177.451 67.7113 175.893 70.5959 175.104C74.4957 174.037 77.693 175.847 78.685 179.473L80.1398 184.791Z" fill="#EB662B"/>
<path d="M58.0675 178.566C60.4042 177.927 61.6535 180.911 62.0723 182.442L64.378 190.87C64.6029 191.692 65.5879 192.063 66.3191 192.14L65.9225 194.553C64.7166 194.64 62.8538 194.162 62.2322 191.89L62.2233 191.858L59.7236 182.721L59.6663 182.511C59.512 181.947 59.161 180.917 58.1941 181.182C57.4206 181.393 56.7854 182.364 56.3814 184.813L59.4322 195.964L57.16 196.586L53.6066 183.597C53.4832 183.146 53.279 182.526 52.5377 182.729C51.7642 182.941 50.8551 183.986 50.4555 186.451L53.5019 197.587L51.2297 198.208L47.5883 185.088C47.1783 183.589 46.7484 182.841 46.2584 182.126L48.4993 180.82C48.8821 181.27 49.5133 182.691 49.7483 183.423C50.1369 181.931 51.2347 180.436 52.4111 180.114C53.9743 179.686 55.2411 180.708 55.5497 181.836C55.8944 180.373 56.5849 178.972 58.0675 178.566Z" fill="#EB662B"/>
</svg>
