<svg width="506" height="184" viewBox="0 0 506 184" fill="none" xmlns="http://www.w3.org/2000/svg">
<path d="M69.1806 141.606C69.9351 142.286 70.6562 142.721 71.1876 142.678C72.5367 142.569 73.2436 140.455 73.4823 139.846C72.0295 139.181 70.4155 138.05 66.2376 127.607L68.3993 126.691C70.0443 131.935 73.0143 137.62 74.1542 137.638L74.1678 137.637C74.2301 137.22 75.2043 133.493 75.8478 130.766C76.4914 128.039 76.6957 126.665 76.8454 125.802L79.0625 126.418C78.619 128.567 78.0577 130.615 77.4554 133.173C76.8531 135.732 76.3849 137.745 75.9806 139.191C74.8433 143.274 73.045 144.613 71.3416 144.751C70.0197 144.858 68.7632 144.246 67.9029 143.616L69.1806 141.606ZM88.4888 135.614C90.2542 137.09 93.5908 140.016 94.7234 141.639L93.2087 143.092C92.2263 141.8 89.1213 138.855 87.2098 137.267L85.5237 139.146L85.8577 143.275L83.7318 143.447L82.6075 129.547L84.7334 129.375L85.2746 136.066C87.5309 133.607 90.7395 129.863 92.4963 128.349L93.9603 130C92.0143 131.379 89.8884 133.923 88.4888 135.614ZM105.854 134.429C105.629 131.649 104.753 129.978 102.437 130.165C100.57 130.316 99.9664 130.996 99.1245 132.628L99.6051 138.569C100.37 139.207 101.216 140.003 102.456 139.902C104.677 139.723 106.166 138.285 105.854 134.429ZM96.9534 132.241L96.927 131.914C96.8355 130.783 96.618 129.621 96.409 128.732L98.6219 128.279C98.7253 128.71 98.8177 129.004 98.8776 129.575C99.6744 128.743 100.726 128.177 102.252 128.054C106 127.751 107.677 130.345 107.973 133.997C108.343 138.576 106.838 141.674 102.436 142.03C101.074 142.14 100.52 141.746 99.8322 141.376L100.06 144.197C100.164 145.478 100.379 146.613 100.55 147.532L98.3927 147.83C98.1896 146.845 98.0156 145.542 97.9153 144.302L96.9534 132.241ZM113.328 136.787C113.444 138.218 114.273 138.974 115.541 138.871C118.402 138.64 119.659 136.371 119.968 135.784L119.864 134.489C119.048 134.075 118.008 133.761 116.591 133.876C114.738 134.039 113.198 135.179 113.328 136.787ZM122.138 135.979C122.176 136.455 122.279 137.723 122.475 137.94C122.672 138.171 123.201 138.444 123.622 138.725L122.622 140.438C121.869 139.951 121.024 139.676 120.667 138.32C119.687 139.428 118.393 140.726 115.708 140.943C113.378 141.131 111.396 139.357 111.214 137.095C111.13 136.06 111.44 134.814 112.177 133.917C113.365 132.491 114.715 132.052 116.323 131.922C118.04 131.784 118.918 131.959 119.691 132.35C119.482 129.774 118.442 128.61 116.125 128.797C114.244 128.949 113.419 129.428 112.486 131.465L110.624 130.49C111.732 127.904 113.492 126.939 115.931 126.742C119.229 126.475 121.526 128.415 121.774 131.481L122.138 135.979ZM133.928 125.396L136.096 125.234C136.096 125.234 136.461 130.252 136.717 133.414C136.896 135.635 137.088 137.663 137.294 139.197L135.155 139.37C134.843 137.049 134.768 136.123 134.563 133.588C134.466 132.389 134.312 129.466 134.312 129.466C132.762 132.856 130.233 137.203 128.719 139.849L126.557 140.079L125.428 126.125L127.595 125.949C127.744 127.789 128.092 132.946 128.361 136.271C130.57 132.553 131.863 129.376 133.928 125.396ZM141.99 124.675L142.476 130.849C143.706 130.462 144.98 130.263 146.615 130.131L148.713 129.961C148.411 126.227 148.415 126.446 148.237 124.238L150.404 124.063L151.528 137.963L149.375 138.137L148.881 132.032L148.132 132.093C146.074 132.259 144.224 132.45 142.643 132.921C143.021 137.595 142.934 136.176 143.134 138.642L140.94 138.82L139.812 124.879L141.99 124.675ZM156.371 130.343C156.779 135.385 159.607 135.252 161.106 135.131L161.283 135.116C163.409 134.945 164.36 133.976 164.972 132.733L166.79 133.834C166.386 134.443 165.313 136.944 161.511 137.252C160.094 137.366 158.409 137.393 157.021 136.517C155.138 135.284 154.423 133.23 154.204 130.518C153.799 125.517 156.088 123.631 160.381 123.284C161.676 123.179 162.711 123.424 163.579 123.985C164.462 124.558 164.951 125.342 165.308 126.026L163.275 127.013C163.08 126.467 162.58 125.204 160.4 125.381C157.388 125.624 156.107 127.086 156.371 130.343ZM175.159 128.604C176.924 130.079 180.261 133.005 181.393 134.628L179.879 136.081C178.896 134.789 175.791 131.844 173.88 130.257L172.194 132.135L172.528 136.264L170.402 136.436L169.278 122.536L171.403 122.365L171.945 129.056C174.201 126.596 177.41 122.853 179.166 121.339L180.63 122.99C178.684 124.368 176.558 126.913 175.159 128.604ZM191.708 120.722L193.876 120.56C193.876 120.56 194.241 125.579 194.497 128.74C194.676 130.961 194.868 132.99 195.074 134.523L192.935 134.696C192.623 132.376 192.548 131.449 192.343 128.914C192.246 127.715 192.092 124.792 192.092 124.792C190.542 128.182 188.013 132.529 186.499 135.175L184.337 135.405L183.208 121.451L185.375 121.276C185.524 123.115 185.872 128.272 186.141 131.597C188.35 127.879 189.643 124.702 191.708 120.722ZM202.782 115.519C204.254 115.4 205.302 114.451 205.297 113.382L207.593 113.608C207.461 116.046 205.199 117.423 202.95 117.604C201.233 117.743 198.7 117.29 197.798 114.277L199.891 113.696C200.388 115.26 201.514 115.622 202.782 115.519ZM206.153 119.554L208.321 119.392C208.321 119.392 208.686 124.41 208.942 127.572C209.121 129.793 209.313 131.821 209.519 133.355L207.38 133.528C207.068 131.207 206.993 130.281 206.788 127.746C206.691 126.547 206.537 123.624 206.537 123.624C204.987 127.014 202.458 131.361 200.944 134.007L198.782 134.237L197.653 120.282L199.82 120.107C199.969 121.947 200.317 127.103 200.586 130.429C202.796 126.711 204.088 123.534 206.153 119.554Z" fill="white"/>
<path d="M47.756 152.637L42.8768 145.735L42.8668 154.415C43.5995 154.006 44.3318 153.782 45.4012 153.399L47.756 152.637ZM40.892 143.354L43.1281 142.671L52.5763 155.926C52.8678 156.366 53.4264 157.354 53.668 158.052L51.5235 158.706C51.4317 158.405 50.9875 157.512 50.7751 157.191L49.0218 154.724C47.1899 155.326 44.308 156.234 42.9642 157.03L42.907 159.606C42.892 160.025 42.9643 160.918 43.076 161.284L40.9576 161.931C40.859 161.56 40.7432 160.338 40.7416 159.724L40.892 143.354ZM53.7754 143.367L55.57 149.295C56.6892 148.653 57.8905 148.187 59.4597 147.708L61.4735 147.093C60.3801 143.51 60.4309 143.724 59.7844 141.605L61.8636 140.971L65.9339 154.309L63.8678 154.939L62.08 149.081L61.3608 149.3C59.3863 149.903 57.6198 150.485 56.1765 151.283C57.5453 155.768 57.1564 154.4 57.8787 156.767L55.7734 157.409L51.6911 144.032L53.7754 143.367ZM66.8981 139.434L74.404 137.144C75.3847 136.844 75.9375 136.876 76.616 136.898L76.6624 138.97C76.0272 138.95 75.7759 138.969 74.9924 139.166L69.6179 140.806L73.0737 152.13L70.9683 152.772L66.8981 139.434ZM82.2858 149.247L81.9157 147.145C82.1107 147.128 82.3058 147.111 82.5019 147.051C83.6396 146.704 84.5732 145.033 81.4966 134.951L85.494 133.717L87.0501 133.242C88.0701 132.931 88.9855 132.651 89.7337 132.48L93.8 145.805L91.6816 146.451C91.0043 144.185 88.8916 137.168 88.9047 137.164L88.2622 135.059L84.1692 136.308C85.6886 142.177 86.8683 147.963 83.22 149.077C82.9454 149.16 82.6195 149.217 82.2858 149.247ZM101.499 128.876L103.582 128.254C103.582 128.254 105.011 133.078 105.937 136.112C106.587 138.244 107.208 140.184 107.737 141.638L105.684 142.264C104.884 140.064 104.613 139.175 103.871 136.743C103.52 135.592 102.744 132.769 102.744 132.769C101.955 136.412 100.414 141.2 99.5003 144.108L97.4371 144.795L93.3508 131.405L95.43 130.77C95.9687 132.536 97.4117 137.499 98.3854 140.689C99.7489 136.585 100.333 133.205 101.499 128.876ZM111.204 121.425C112.616 120.995 113.437 119.843 113.204 118.8L115.495 118.529C115.887 120.94 113.972 122.768 111.814 123.426C110.167 123.929 107.595 124.028 106.07 121.277L107.99 120.262C108.81 121.684 109.988 121.797 111.204 121.425ZM115.36 124.646L117.443 124.024C117.443 124.024 118.872 128.848 119.798 131.882C120.448 134.014 121.069 135.954 121.599 137.408L119.546 138.034C118.745 135.834 118.474 134.945 117.732 132.513C117.381 131.362 116.605 128.54 116.605 128.54C115.816 132.183 114.275 136.97 113.361 139.879L111.298 140.565L107.212 127.175L109.291 126.54C109.83 128.306 111.273 133.269 112.247 136.459C113.61 132.355 114.194 128.975 115.36 124.646ZM124.48 128.91C125.956 133.748 128.691 133.013 130.13 132.574L130.3 132.523C132.34 131.9 133.061 130.751 133.394 129.406L135.405 130.093C135.141 130.774 134.627 133.446 130.978 134.56C129.618 134.975 127.978 135.361 126.435 134.802C124.332 134 123.195 132.146 122.401 129.544C120.936 124.745 122.769 122.413 126.888 121.156C128.13 120.777 129.194 120.796 130.162 121.158C131.147 121.529 131.792 122.19 132.287 122.782L130.513 124.181C130.205 123.689 129.447 122.562 127.355 123.201C124.465 124.083 123.526 125.784 124.48 128.91ZM142.462 123.194C144.502 124.258 148.387 126.403 149.84 127.746L148.671 129.489C147.435 128.437 143.773 126.224 141.566 125.082L140.32 127.278L141.529 131.24L139.489 131.862L135.419 118.524L137.459 117.902L139.418 124.322C141.097 121.437 143.431 117.094 144.823 115.24L146.606 116.54C145 118.302 143.467 121.243 142.462 123.194ZM156.943 111.956L159.026 111.335C159.026 111.335 160.456 116.159 161.381 119.192C162.032 121.324 162.653 123.264 163.182 124.718L161.129 125.345C160.329 123.144 160.058 122.255 159.315 119.823C158.964 118.672 158.189 115.85 158.189 115.85C157.399 119.493 155.858 124.28 154.945 127.189L152.882 127.876L148.795 114.485L150.875 113.851C151.413 115.616 152.856 120.579 153.83 123.77C155.193 119.666 155.777 116.286 156.943 111.956ZM166.648 104.506C168.061 104.075 168.882 102.924 168.649 101.88L170.939 101.61C171.332 104.02 169.417 105.848 167.259 106.507C165.611 107.009 163.04 107.108 161.514 104.357L163.434 103.343C164.254 104.765 165.432 104.877 166.648 104.506ZM170.804 107.726L172.888 107.105C172.888 107.105 174.317 111.929 175.243 114.963C175.893 117.094 176.514 119.034 177.043 120.488L174.99 121.115C174.19 118.914 173.919 118.025 173.177 115.593C172.825 114.442 172.05 111.62 172.05 111.62C171.26 115.263 169.719 120.05 168.806 122.959L166.743 123.646L162.657 110.255L164.736 109.621C165.274 111.386 166.717 116.349 167.691 119.54C169.055 115.436 169.638 112.056 170.804 107.726Z" fill="white"/>
<rect x="1.43359" y="119.197" width="213.714" height="56.2406" transform="rotate(-4.39559 1.43359 119.197)" fill="#EFECDB"/>
<path d="M214.873 102.112L236.851 89.0003L241.247 146.197L219.183 158.187L214.873 102.112Z" fill="#E2DFCD"/>
<path d="M23.131 106.107L236.497 89.7056L214.552 103.238L0.905185 119.661L23.131 106.107Z" fill="#FEF9E5"/>
<ellipse cx="50.1237" cy="108.066" rx="15.6556" ry="4.27368" transform="rotate(-4.39559 50.1237 108.066)" fill="#DDDACB"/>
<rect x="33.9053" y="101.352" width="9.76842" height="7.7624" transform="rotate(-4.39559 33.9053 101.352)" fill="#DDDACB"/>
<rect x="55.3916" y="99.7876" width="9.76842" height="7.7624" transform="rotate(-4.39559 55.3916 99.7876)" fill="#DDDACB"/>
<ellipse cx="49.528" cy="100.326" rx="15.6556" ry="4.27368" transform="rotate(-4.39559 49.528 100.326)" fill="#EFECDB"/>
<ellipse cx="97.486" cy="104.143" rx="15.6556" ry="4.27368" transform="rotate(-4.39559 97.486 104.143)" fill="#DDDACB"/>
<rect x="81.2676" y="97.4292" width="9.76842" height="7.7624" transform="rotate(-4.39559 81.2676 97.4292)" fill="#DDDACB"/>
<rect x="102.754" y="95.8647" width="9.76842" height="7.7624" transform="rotate(-4.39559 102.754 95.8647)" fill="#DDDACB"/>
<ellipse cx="96.8903" cy="96.403" rx="15.6556" ry="4.27368" transform="rotate(-4.39559 96.8903 96.403)" fill="#EFECDB"/>
<ellipse cx="147.932" cy="99.9826" rx="15.6556" ry="4.27368" transform="rotate(-4.39559 147.932 99.9826)" fill="#DDDACB"/>
<rect x="131.715" y="93.269" width="9.76842" height="7.7624" transform="rotate(-4.39559 131.715 93.269)" fill="#DDDACB"/>
<rect x="153.201" y="91.7046" width="9.76842" height="7.7624" transform="rotate(-4.39559 153.201 91.7046)" fill="#DDDACB"/>
<ellipse cx="147.338" cy="92.2429" rx="15.6556" ry="4.27368" transform="rotate(-4.39559 147.338 92.2429)" fill="#EFECDB"/>
<ellipse cx="198.442" cy="96.6643" rx="15.6556" ry="4.27368" transform="rotate(-4.39559 198.442 96.6643)" fill="#DDDACB"/>
<rect x="182.224" y="89.9507" width="9.76842" height="7.7624" transform="rotate(-4.39559 182.224 89.9507)" fill="#DDDACB"/>
<rect x="203.71" y="88.3862" width="9.76842" height="7.7624" transform="rotate(-4.39559 203.71 88.3862)" fill="#DDDACB"/>
<ellipse cx="197.846" cy="88.9245" rx="15.6556" ry="4.27368" transform="rotate(-4.39559 197.846 88.9245)" fill="#EFECDB"/>
<path d="M155.687 116.991L160.033 116.653L160.357 120.814L156.011 121.152L155.687 116.991ZM158.177 124.109L160.322 123.942C160.715 128.991 161.497 138.791 161.497 138.791C161.707 140.3 162.527 140.31 164.228 140.178C165.948 140.044 168.211 139.477 169.412 138.416L170.833 140.426C169.345 141.863 166.744 142.624 164.451 142.802C162.879 142.925 161.453 142.775 160.605 142.395C158.966 141.648 158.702 140.18 158.617 139.089L157.68 127.05C156.774 127.121 154.674 127.396 152.949 127.94L152.208 125.355C154.242 124.713 156.253 124.259 158.177 124.109Z" fill="#EB662B"/>
<path d="M142.343 133.659C144.211 133.513 145.097 131.751 144.971 130.124C144.945 129.791 144.883 129.479 144.769 129.209C144.537 128.613 143.882 127.846 142.716 127.937C142.273 127.971 141.763 128.122 141.176 128.466C139.413 129.477 138.017 130.423 136.721 131.455L136.85 133.119C138.422 133.238 139.646 133.422 140.568 133.555C141.264 133.65 141.844 133.698 142.343 133.659ZM136.473 128.274C137.734 127.264 140.382 125.439 142.343 125.287C144.858 125.091 147.252 126.448 147.682 128.629C147.771 129.05 147.851 129.602 147.893 130.138C147.94 130.748 147.934 131.381 147.879 131.87C147.817 132.507 147.002 134.468 145.168 135.523C147.085 136.731 147.221 138.953 148.328 140.504C148.828 141.191 149.339 141.542 149.984 141.938L148.586 144.057C146.225 143.124 145.408 140.992 144.794 139.57C143.661 136.961 139.396 135.953 137.083 135.873C137.083 135.873 137.32 139.39 137.536 142.163C137.608 143.088 137.693 143.937 137.74 144.548L134.837 144.774L133.068 122.064C132.981 120.936 132.719 119.971 132.42 119.231L135.186 118.197C135.385 118.61 135.783 119.416 135.878 120.636L136.473 128.274Z" fill="#EB662B"/>
<path d="M116.856 135.588C115.604 135.034 114.563 133.85 114.403 131.797C114.172 128.596 117.063 127.013 120.299 126.761C122.555 126.586 125.868 127.072 127.53 128.821L125.6 131.037C124.53 129.967 122.362 129.354 120.771 129.478C118.811 129.631 117.207 130.295 117.301 131.497C117.37 132.385 117.773 132.781 118.538 133.057C123.713 134.756 128.476 134.757 128.884 140.009C129.118 143.005 127.141 144.852 125.202 145.524C124.185 145.845 123.086 146.061 122.032 146.143C117.298 146.512 114.736 144.199 114.426 140.223L117.331 140.016C117.524 142.494 118.904 143.726 121.77 143.503C124.045 143.326 126.169 142.174 126.011 140.14C125.92 138.975 125.304 138.465 124.228 137.786C122.724 136.88 118.877 136.453 116.856 135.588Z" fill="#EB662B"/>
<path d="M98.7422 121.109L100.887 120.942C101.28 125.991 102.687 143.333 102.687 143.333C102.897 144.842 103.717 144.853 105.418 144.72C107.138 144.586 109.401 144.019 110.602 142.958L112.024 144.969C110.535 146.405 107.934 147.166 105.641 147.345C104.069 147.467 102.643 147.318 101.795 146.937C100.156 146.19 99.8925 144.722 99.8075 143.631L98.2257 124.033C97.9113 124.058 97.4105 124.078 96.8557 124.121C95.8016 124.203 94.4745 124.363 93.3666 124.709L92.6429 122.105C94.6766 121.463 96.8189 121.259 98.7422 121.109Z" fill="#EB662B"/>
<path d="M85.2997 144.631C86.4139 143.409 86.7051 141.414 86.4919 138.678L86.466 138.345C86.1641 134.945 84.7703 132.337 81.4971 132.592C77.6505 132.891 76.7416 136.032 77.093 140.544C77.3738 144.15 79.1526 146.207 82.2409 145.967C83.6449 145.839 84.4355 145.48 85.2997 144.631ZM82.4271 148.836C77.3956 149.209 74.5815 146.042 74.1783 140.864C73.7578 135.464 75.2466 130.213 80.6465 129.793C84.2896 129.509 86.4232 130.627 87.9078 132.967C88.7797 134.369 89.2753 136.433 89.4136 138.208C89.824 143.479 88.4188 148.37 82.4641 148.833L82.4271 148.836Z" fill="#EB662B"/>
<path d="M67.2632 140.231C66.9695 136.458 65.788 134.187 62.6442 134.432C60.1107 134.629 59.2892 135.549 58.1404 137.759L58.7683 145.822C59.8033 146.691 60.9481 147.774 62.631 147.643C65.6453 147.408 67.6707 145.464 67.2632 140.231ZM55.1965 137.226L55.1619 136.782C55.0424 135.247 54.7521 133.67 54.4722 132.464L57.4762 131.858C57.6147 132.442 57.7389 132.842 57.8178 133.617C58.9023 132.491 60.3313 131.728 62.4025 131.567C67.488 131.171 69.7533 134.697 70.1392 139.653C70.6231 145.867 68.5685 150.064 62.5953 150.529C60.746 150.673 59.9972 150.136 59.0649 149.632L59.363 153.46C59.4983 155.198 59.7857 156.739 60.0131 157.986L57.0857 158.381C56.8142 157.044 56.5835 155.276 56.4524 153.594L55.1965 137.226Z" fill="#EB662B"/>
<path d="M64.4727 132.4V148.068H62.3125L62.2715 130.336L71.4453 130.35H73.5918L73.6055 148.068H71.459L71.4316 132.4H64.4727ZM84.4336 145.061C85.3223 144.227 85.6504 142.777 85.6504 140.754V140.508C85.623 137.992 84.748 135.996 82.3281 135.996C79.4844 135.996 78.6367 138.252 78.6367 141.588C78.6367 144.254 79.8262 145.867 82.1094 145.867C83.1484 145.854 83.75 145.635 84.4336 145.061ZM82.082 147.986C78.3633 147.973 76.4766 145.484 76.4766 141.656C76.4766 137.664 77.8711 133.891 81.8633 133.891C84.5566 133.891 86.0605 134.834 87.0176 136.639C87.5781 137.719 87.8242 139.264 87.8242 140.576C87.8242 144.473 86.5117 147.986 82.1094 147.986H82.082ZM90.3125 147.932L90.5723 145.812C90.7637 145.854 90.9551 145.895 91.1602 145.895C92.3496 145.895 93.7305 144.568 93.7305 134.027L97.9141 134.014H99.541C100.607 134.014 101.564 134.014 102.33 134.068V148H100.115C100.129 145.635 100.156 138.307 100.17 138.307V136.105H95.8906C95.6309 142.162 95.0703 148.041 91.2559 148.041C90.9688 148.041 90.6406 148 90.3125 147.932ZM111.094 141.26C110.342 141.26 108.646 141.383 108.646 141.383C108.619 144.623 108.605 144.91 108.592 145.949C110.068 145.949 110 146.004 111.025 146.004C113.486 146.004 115.113 145.812 115.113 143.57C115.113 141.656 113.213 141.26 111.094 141.26ZM106.473 134.055H108.66C108.674 135.148 108.674 135.859 108.674 136.57V139.469C109.74 139.277 110.465 139.223 111.326 139.223C114.689 139.223 117.287 140.207 117.287 143.789C117.287 146.961 114.867 148.068 111.477 148.068C110.178 148.068 107.949 148 106.363 148C106.363 145.348 106.486 143.639 106.486 137.951C106.486 136.461 106.473 135.312 106.473 134.055ZM122.113 140.795C122.113 145.854 124.943 145.949 126.447 145.949H126.625C128.758 145.949 129.783 145.061 130.494 143.871L132.217 145.115C131.766 145.689 130.494 148.096 126.68 148.096C125.258 148.096 123.576 147.986 122.264 147.002C120.486 145.621 119.939 143.516 119.939 140.795C119.939 135.777 122.373 134.082 126.68 134.082C127.979 134.082 128.99 134.41 129.811 135.039C130.645 135.682 131.068 136.502 131.369 137.213L129.264 138.033C129.113 137.473 128.717 136.174 126.529 136.174C123.508 136.174 122.113 137.527 122.113 140.795ZM140.98 140.576C142.621 142.189 145.711 145.375 146.709 147.084L145.082 148.41C144.207 147.043 141.35 143.857 139.572 142.121L137.74 143.857V148H135.607V134.055H137.74V140.768C140.188 138.498 143.688 135.025 145.561 133.658L146.887 135.422C144.836 136.639 142.512 139.004 140.98 140.576ZM158.111 134.055L160.285 134.068C160.285 134.068 160.244 139.1 160.244 142.271C160.244 144.5 160.271 146.537 160.354 148.082H158.207C158.084 145.744 158.084 144.814 158.084 142.271C158.084 141.068 158.166 138.143 158.166 138.143C156.348 141.396 153.477 145.525 151.754 148.041L149.58 148.096V134.096H151.754C151.754 135.941 151.686 141.109 151.686 144.445C154.188 140.918 155.732 137.855 158.111 134.055ZM169.568 129.762C171.045 129.762 172.166 128.9 172.248 127.834L174.518 128.244C174.189 130.664 171.824 131.854 169.568 131.854C167.846 131.854 165.357 131.197 164.701 128.121L166.834 127.711C167.203 129.311 168.297 129.762 169.568 129.762ZM172.604 134.055L174.777 134.068C174.777 134.068 174.736 139.1 174.736 142.271C174.736 144.5 174.764 146.537 174.846 148.082H172.699C172.576 145.744 172.576 144.814 172.576 142.271C172.576 141.068 172.658 138.143 172.658 138.143C170.84 141.396 167.969 145.525 166.246 148.041L164.072 148.096V134.096H166.246C166.246 135.941 166.178 141.109 166.178 144.445C168.68 140.918 170.225 137.855 172.604 134.055Z" fill="white"/>
<path d="M69.1806 141.606C69.9351 142.286 70.6562 142.721 71.1876 142.678C72.5367 142.569 73.2436 140.455 73.4823 139.846C72.0295 139.181 70.4155 138.05 66.2376 127.607L68.3993 126.691C70.0443 131.935 73.0143 137.62 74.1542 137.638L74.1678 137.637C74.2301 137.22 75.2043 133.493 75.8478 130.766C76.4914 128.039 76.6957 126.665 76.8454 125.802L79.0625 126.418C78.619 128.567 78.0577 130.615 77.4554 133.173C76.8531 135.732 76.3849 137.745 75.9806 139.191C74.8433 143.274 73.045 144.613 71.3416 144.751C70.0197 144.858 68.7632 144.246 67.9029 143.616L69.1806 141.606ZM88.4888 135.614C90.2542 137.09 93.5908 140.016 94.7234 141.639L93.2087 143.092C92.2263 141.8 89.1213 138.855 87.2098 137.267L85.5237 139.146L85.8577 143.275L83.7318 143.447L82.6075 129.547L84.7334 129.375L85.2746 136.066C87.5309 133.607 90.7395 129.863 92.4963 128.349L93.9603 130C92.0143 131.379 89.8884 133.923 88.4888 135.614ZM105.854 134.429C105.629 131.649 104.753 129.978 102.437 130.165C100.57 130.316 99.9664 130.996 99.1245 132.628L99.6051 138.569C100.37 139.207 101.216 140.003 102.456 139.902C104.677 139.723 106.166 138.285 105.854 134.429ZM96.9534 132.241L96.927 131.914C96.8355 130.783 96.618 129.621 96.409 128.732L98.6219 128.279C98.7253 128.71 98.8177 129.004 98.8776 129.575C99.6744 128.743 100.726 128.177 102.252 128.054C106 127.751 107.677 130.345 107.973 133.997C108.343 138.576 106.838 141.674 102.436 142.03C101.074 142.14 100.52 141.746 99.8322 141.376L100.06 144.197C100.164 145.478 100.379 146.613 100.55 147.532L98.3927 147.83C98.1896 146.845 98.0156 145.542 97.9153 144.302L96.9534 132.241ZM113.328 136.787C113.444 138.218 114.273 138.974 115.541 138.871C118.402 138.64 119.659 136.371 119.968 135.784L119.864 134.489C119.048 134.075 118.008 133.761 116.591 133.876C114.738 134.039 113.198 135.179 113.328 136.787ZM122.138 135.979C122.176 136.455 122.279 137.723 122.475 137.94C122.672 138.171 123.201 138.444 123.622 138.725L122.622 140.438C121.869 139.951 121.024 139.676 120.667 138.32C119.687 139.428 118.393 140.726 115.708 140.943C113.378 141.131 111.396 139.357 111.214 137.095C111.13 136.06 111.44 134.814 112.177 133.917C113.365 132.491 114.715 132.052 116.323 131.922C118.04 131.784 118.918 131.959 119.691 132.35C119.482 129.774 118.442 128.61 116.125 128.797C114.244 128.949 113.419 129.428 112.486 131.465L110.624 130.49C111.732 127.904 113.492 126.939 115.931 126.742C119.229 126.475 121.526 128.415 121.774 131.481L122.138 135.979ZM133.928 125.396L136.096 125.234C136.096 125.234 136.461 130.252 136.717 133.414C136.896 135.635 137.088 137.663 137.294 139.197L135.155 139.37C134.843 137.049 134.768 136.123 134.563 133.588C134.466 132.389 134.312 129.466 134.312 129.466C132.762 132.856 130.233 137.203 128.719 139.849L126.557 140.079L125.428 126.125L127.595 125.949C127.744 127.789 128.092 132.946 128.361 136.271C130.57 132.553 131.863 129.376 133.928 125.396ZM141.99 124.675L142.476 130.849C143.706 130.462 144.98 130.263 146.615 130.131L148.713 129.961C148.411 126.227 148.415 126.446 148.237 124.238L150.404 124.063L151.528 137.963L149.375 138.137L148.881 132.032L148.132 132.093C146.074 132.259 144.224 132.45 142.643 132.921C143.021 137.595 142.934 136.176 143.134 138.642L140.94 138.82L139.812 124.879L141.99 124.675ZM156.371 130.343C156.779 135.385 159.607 135.252 161.106 135.131L161.283 135.116C163.409 134.945 164.36 133.976 164.972 132.733L166.79 133.834C166.386 134.443 165.313 136.944 161.511 137.252C160.094 137.366 158.409 137.393 157.021 136.517C155.138 135.284 154.423 133.23 154.204 130.518C153.799 125.517 156.088 123.631 160.381 123.284C161.676 123.179 162.711 123.424 163.579 123.985C164.462 124.558 164.951 125.342 165.308 126.026L163.275 127.013C163.08 126.467 162.58 125.204 160.4 125.381C157.388 125.624 156.107 127.086 156.371 130.343ZM175.159 128.604C176.924 130.079 180.261 133.005 181.393 134.628L179.879 136.081C178.896 134.789 175.791 131.844 173.88 130.257L172.194 132.135L172.528 136.264L170.402 136.436L169.278 122.536L171.403 122.365L171.945 129.056C174.201 126.596 177.41 122.853 179.166 121.339L180.63 122.99C178.684 124.368 176.558 126.913 175.159 128.604ZM191.708 120.722L193.876 120.56C193.876 120.56 194.241 125.579 194.497 128.74C194.676 130.961 194.868 132.99 195.074 134.523L192.935 134.696C192.623 132.376 192.548 131.449 192.343 128.914C192.246 127.715 192.092 124.792 192.092 124.792C190.542 128.182 188.013 132.529 186.499 135.175L184.337 135.405L183.208 121.451L185.375 121.276C185.524 123.115 185.872 128.272 186.141 131.597C188.35 127.879 189.643 124.702 191.708 120.722ZM202.782 115.519C204.254 115.4 205.302 114.451 205.297 113.382L207.593 113.608C207.461 116.046 205.199 117.423 202.95 117.604C201.233 117.743 198.7 117.29 197.798 114.277L199.891 113.696C200.388 115.26 201.514 115.622 202.782 115.519ZM206.153 119.554L208.321 119.392C208.321 119.392 208.686 124.41 208.942 127.572C209.121 129.793 209.313 131.821 209.519 133.355L207.38 133.528C207.068 131.207 206.993 130.281 206.788 127.746C206.691 126.547 206.537 123.624 206.537 123.624C204.987 127.014 202.458 131.361 200.944 134.007L198.782 134.237L197.653 120.282L199.82 120.107C199.969 121.947 200.317 127.103 200.586 130.429C202.796 126.711 204.088 123.534 206.153 119.554Z" fill="white"/>
<path d="M47.756 152.637L42.8768 145.735L42.8668 154.415C43.5995 154.006 44.3318 153.782 45.4012 153.399L47.756 152.637ZM40.892 143.354L43.1281 142.671L52.5763 155.926C52.8678 156.366 53.4264 157.354 53.668 158.052L51.5235 158.706C51.4317 158.405 50.9875 157.512 50.7751 157.191L49.0218 154.724C47.1899 155.326 44.308 156.234 42.9642 157.03L42.907 159.606C42.892 160.025 42.9643 160.918 43.076 161.284L40.9576 161.931C40.859 161.56 40.7432 160.338 40.7416 159.724L40.892 143.354ZM53.7754 143.367L55.57 149.295C56.6892 148.653 57.8905 148.187 59.4597 147.708L61.4735 147.093C60.3801 143.51 60.4309 143.724 59.7844 141.605L61.8636 140.971L65.9339 154.309L63.8678 154.939L62.08 149.081L61.3608 149.3C59.3863 149.903 57.6198 150.485 56.1765 151.283C57.5453 155.768 57.1564 154.4 57.8787 156.767L55.7734 157.409L51.6911 144.032L53.7754 143.367ZM66.8981 139.434L74.404 137.144C75.3847 136.844 75.9375 136.876 76.616 136.898L76.6624 138.97C76.0272 138.95 75.7759 138.969 74.9924 139.166L69.6179 140.806L73.0737 152.13L70.9683 152.772L66.8981 139.434ZM82.2858 149.247L81.9157 147.145C82.1107 147.128 82.3058 147.111 82.5019 147.051C83.6396 146.704 84.5732 145.033 81.4966 134.951L85.494 133.717L87.0501 133.242C88.0701 132.931 88.9855 132.651 89.7337 132.48L93.8 145.805L91.6816 146.451C91.0043 144.185 88.8916 137.168 88.9047 137.164L88.2622 135.059L84.1692 136.308C85.6886 142.177 86.8683 147.963 83.22 149.077C82.9454 149.16 82.6195 149.217 82.2858 149.247ZM101.499 128.876L103.582 128.254C103.582 128.254 105.011 133.078 105.937 136.112C106.587 138.244 107.208 140.184 107.737 141.638L105.684 142.264C104.884 140.064 104.613 139.175 103.871 136.743C103.52 135.592 102.744 132.769 102.744 132.769C101.955 136.412 100.414 141.2 99.5003 144.108L97.4371 144.795L93.3508 131.405L95.43 130.77C95.9687 132.536 97.4117 137.499 98.3854 140.689C99.7489 136.585 100.333 133.205 101.499 128.876ZM111.204 121.425C112.616 120.995 113.437 119.843 113.204 118.8L115.495 118.529C115.887 120.94 113.972 122.768 111.814 123.426C110.167 123.929 107.595 124.028 106.07 121.277L107.99 120.262C108.81 121.684 109.988 121.797 111.204 121.425ZM115.36 124.646L117.443 124.024C117.443 124.024 118.872 128.848 119.798 131.882C120.448 134.014 121.069 135.954 121.599 137.408L119.546 138.034C118.745 135.834 118.474 134.945 117.732 132.513C117.381 131.362 116.605 128.54 116.605 128.54C115.816 132.183 114.275 136.97 113.361 139.879L111.298 140.565L107.212 127.175L109.291 126.54C109.83 128.306 111.273 133.269 112.247 136.459C113.61 132.355 114.194 128.975 115.36 124.646ZM124.48 128.91C125.956 133.748 128.691 133.013 130.13 132.574L130.3 132.523C132.34 131.9 133.061 130.751 133.394 129.406L135.405 130.093C135.141 130.774 134.627 133.446 130.978 134.56C129.618 134.975 127.978 135.361 126.435 134.802C124.332 134 123.195 132.146 122.401 129.544C120.936 124.745 122.769 122.413 126.888 121.156C128.13 120.777 129.194 120.796 130.162 121.158C131.147 121.529 131.792 122.19 132.287 122.782L130.513 124.181C130.205 123.689 129.447 122.562 127.355 123.201C124.465 124.083 123.526 125.784 124.48 128.91ZM142.462 123.194C144.502 124.258 148.387 126.403 149.84 127.746L148.671 129.489C147.435 128.437 143.773 126.224 141.566 125.082L140.32 127.278L141.529 131.24L139.489 131.862L135.419 118.524L137.459 117.902L139.418 124.322C141.097 121.437 143.431 117.094 144.823 115.24L146.606 116.54C145 118.302 143.467 121.243 142.462 123.194ZM156.943 111.956L159.026 111.335C159.026 111.335 160.456 116.159 161.381 119.192C162.032 121.324 162.653 123.264 163.182 124.718L161.129 125.345C160.329 123.144 160.058 122.255 159.315 119.823C158.964 118.672 158.189 115.85 158.189 115.85C157.399 119.493 155.858 124.28 154.945 127.189L152.882 127.876L148.795 114.485L150.875 113.851C151.413 115.616 152.856 120.579 153.83 123.77C155.193 119.666 155.777 116.286 156.943 111.956ZM166.648 104.506C168.061 104.075 168.882 102.924 168.649 101.88L170.939 101.61C171.332 104.02 169.417 105.848 167.259 106.507C165.611 107.009 163.04 107.108 161.514 104.357L163.434 103.343C164.254 104.765 165.432 104.877 166.648 104.506ZM170.804 107.726L172.888 107.105C172.888 107.105 174.317 111.929 175.243 114.963C175.893 117.094 176.514 119.034 177.043 120.488L174.99 121.115C174.19 118.914 173.919 118.025 173.177 115.593C172.825 114.442 172.05 111.62 172.05 111.62C171.26 115.263 169.719 120.05 168.806 122.959L166.743 123.646L162.657 110.255L164.736 109.621C165.274 111.386 166.717 116.349 167.691 119.54C169.055 115.436 169.638 112.056 170.804 107.726Z" fill="white"/>
<rect x="1.43359" y="119.197" width="213.714" height="56.2406" transform="rotate(-4.39559 1.43359 119.197)" fill="#EFECDB"/>
<path d="M23.131 106.107L236.497 89.7056L214.552 103.238L0.905185 119.661L23.131 106.107Z" fill="#FEF9E5"/>
<ellipse cx="50.1237" cy="108.066" rx="15.6556" ry="4.27368" transform="rotate(-4.39559 50.1237 108.066)" fill="#DDDACB"/>
<rect x="33.9053" y="101.352" width="9.76842" height="7.7624" transform="rotate(-4.39559 33.9053 101.352)" fill="#DDDACB"/>
<rect x="55.3916" y="99.7876" width="9.76842" height="7.7624" transform="rotate(-4.39559 55.3916 99.7876)" fill="#DDDACB"/>
<ellipse cx="49.528" cy="100.326" rx="15.6556" ry="4.27368" transform="rotate(-4.39559 49.528 100.326)" fill="#EFECDB"/>
<ellipse cx="97.486" cy="104.143" rx="15.6556" ry="4.27368" transform="rotate(-4.39559 97.486 104.143)" fill="#DDDACB"/>
<rect x="81.2676" y="97.4292" width="9.76842" height="7.7624" transform="rotate(-4.39559 81.2676 97.4292)" fill="#DDDACB"/>
<rect x="102.754" y="95.8647" width="9.76842" height="7.7624" transform="rotate(-4.39559 102.754 95.8647)" fill="#DDDACB"/>
<ellipse cx="96.8903" cy="96.403" rx="15.6556" ry="4.27368" transform="rotate(-4.39559 96.8903 96.403)" fill="#EFECDB"/>
<ellipse cx="147.932" cy="99.9826" rx="15.6556" ry="4.27368" transform="rotate(-4.39559 147.932 99.9826)" fill="#DDDACB"/>
<rect x="131.715" y="93.269" width="9.76842" height="7.7624" transform="rotate(-4.39559 131.715 93.269)" fill="#DDDACB"/>
<rect x="153.201" y="91.7046" width="9.76842" height="7.7624" transform="rotate(-4.39559 153.201 91.7046)" fill="#DDDACB"/>
<ellipse cx="147.338" cy="92.2429" rx="15.6556" ry="4.27368" transform="rotate(-4.39559 147.338 92.2429)" fill="#EFECDB"/>
<ellipse cx="198.442" cy="96.6643" rx="15.6556" ry="4.27368" transform="rotate(-4.39559 198.442 96.6643)" fill="#DDDACB"/>
<rect x="182.224" y="89.9507" width="9.76842" height="7.7624" transform="rotate(-4.39559 182.224 89.9507)" fill="#DDDACB"/>
<rect x="203.71" y="88.3862" width="9.76842" height="7.7624" transform="rotate(-4.39559 203.71 88.3862)" fill="#DDDACB"/>
<ellipse cx="197.846" cy="88.9245" rx="15.6556" ry="4.27368" transform="rotate(-4.39559 197.846 88.9245)" fill="#EFECDB"/>
<path d="M155.687 116.991L160.033 116.653L160.357 120.814L156.011 121.152L155.687 116.991ZM158.177 124.109L160.322 123.942C160.715 128.991 161.497 138.791 161.497 138.791C161.707 140.3 162.527 140.31 164.228 140.178C165.948 140.044 168.211 139.477 169.412 138.416L170.833 140.426C169.345 141.863 166.744 142.624 164.451 142.802C162.879 142.925 161.453 142.775 160.605 142.395C158.966 141.648 158.702 140.18 158.617 139.089L157.68 127.05C156.774 127.121 154.674 127.396 152.949 127.94L152.208 125.355C154.242 124.713 156.253 124.259 158.177 124.109Z" fill="#EB662B"/>
<path d="M142.343 133.659C144.211 133.513 145.097 131.751 144.971 130.124C144.945 129.791 144.883 129.479 144.769 129.209C144.537 128.613 143.882 127.846 142.716 127.937C142.273 127.971 141.763 128.122 141.176 128.466C139.413 129.477 138.017 130.423 136.721 131.455L136.85 133.119C138.422 133.238 139.646 133.422 140.568 133.555C141.264 133.65 141.844 133.698 142.343 133.659ZM136.473 128.274C137.734 127.264 140.382 125.439 142.343 125.287C144.858 125.091 147.252 126.448 147.682 128.629C147.771 129.05 147.851 129.602 147.893 130.138C147.94 130.748 147.934 131.381 147.879 131.87C147.817 132.507 147.002 134.468 145.168 135.523C147.085 136.731 147.221 138.953 148.328 140.504C148.828 141.191 149.339 141.542 149.984 141.938L148.586 144.057C146.225 143.124 145.408 140.992 144.794 139.57C143.661 136.961 139.396 135.953 137.083 135.873C137.083 135.873 137.32 139.39 137.536 142.163C137.608 143.088 137.693 143.937 137.74 144.548L134.837 144.774L133.068 122.064C132.981 120.936 132.719 119.971 132.42 119.231L135.186 118.197C135.385 118.61 135.783 119.416 135.878 120.636L136.473 128.274Z" fill="#EB662B"/>
<path d="M116.856 135.588C115.604 135.034 114.563 133.85 114.403 131.797C114.172 128.596 117.063 127.013 120.299 126.761C122.555 126.586 125.868 127.072 127.53 128.821L125.6 131.037C124.53 129.967 122.362 129.354 120.771 129.478C118.811 129.631 117.207 130.295 117.301 131.497C117.37 132.385 117.773 132.781 118.538 133.057C123.713 134.756 128.476 134.757 128.884 140.009C129.118 143.005 127.141 144.852 125.202 145.524C124.185 145.845 123.086 146.061 122.032 146.143C117.298 146.512 114.736 144.199 114.426 140.223L117.331 140.016C117.524 142.494 118.904 143.726 121.77 143.503C124.045 143.326 126.169 142.174 126.011 140.14C125.92 138.975 125.304 138.465 124.228 137.786C122.724 136.88 118.877 136.453 116.856 135.588Z" fill="#EB662B"/>
<path d="M98.7422 121.109L100.887 120.942C101.28 125.991 102.687 143.333 102.687 143.333C102.897 144.842 103.717 144.853 105.418 144.72C107.138 144.586 109.401 144.019 110.602 142.958L112.024 144.969C110.535 146.405 107.934 147.166 105.641 147.345C104.069 147.467 102.643 147.318 101.795 146.937C100.156 146.19 99.8925 144.722 99.8075 143.631L98.2257 124.033C97.9113 124.058 97.4105 124.078 96.8557 124.121C95.8016 124.203 94.4745 124.363 93.3666 124.709L92.6429 122.105C94.6766 121.463 96.8189 121.259 98.7422 121.109Z" fill="#EB662B"/>
<path d="M85.2997 144.631C86.4139 143.409 86.7051 141.414 86.4919 138.678L86.466 138.345C86.1641 134.945 84.7703 132.337 81.4971 132.592C77.6505 132.891 76.7416 136.032 77.093 140.544C77.3738 144.15 79.1526 146.207 82.2409 145.967C83.6449 145.839 84.4355 145.48 85.2997 144.631ZM82.4271 148.836C77.3956 149.209 74.5815 146.042 74.1783 140.864C73.7578 135.464 75.2466 130.213 80.6465 129.793C84.2896 129.509 86.4232 130.627 87.9078 132.967C88.7797 134.369 89.2753 136.433 89.4136 138.208C89.824 143.479 88.4188 148.37 82.4641 148.833L82.4271 148.836Z" fill="#EB662B"/>
<path d="M67.2632 140.231C66.9695 136.458 65.788 134.187 62.6442 134.432C60.1107 134.629 59.2892 135.549 58.1404 137.759L58.7683 145.822C59.8033 146.691 60.9481 147.774 62.631 147.643C65.6453 147.408 67.6707 145.464 67.2632 140.231ZM55.1965 137.226L55.1619 136.782C55.0424 135.247 54.7521 133.67 54.4722 132.464L57.4762 131.858C57.6147 132.442 57.7389 132.842 57.8178 133.617C58.9023 132.491 60.3313 131.728 62.4025 131.567C67.488 131.171 69.7533 134.697 70.1392 139.653C70.6231 145.867 68.5685 150.064 62.5953 150.529C60.746 150.673 59.9972 150.136 59.0649 149.632L59.363 153.46C59.4983 155.198 59.7857 156.739 60.0131 157.986L57.0857 158.381C56.8142 157.044 56.5835 155.276 56.4524 153.594L55.1965 137.226Z" fill="#EB662B"/>
</svg>
