<svg width="99" height="173" viewBox="0 0 99 173" fill="none" xmlns="http://www.w3.org/2000/svg">
<path d="M79.2568 59.7996C79.2568 35.115 72.7227 19.7477 52.1522 19.7477C35.5748 19.7477 29.7667 25.3138 21.1755 39.1081V91.8653C27.4676 98.0365 34.3648 105.66 45.3761 105.66C65.0995 105.66 79.2568 94.0434 79.2568 59.7996ZM2.29905 34.147V31.2429C2.29905 21.1997 1.21003 10.7934 0 2.80726L19.8445 0.387207C20.4495 4.2593 21.0545 6.92136 21.1755 12.0035C28.7987 5.22732 38.4789 0.992221 52.0312 0.992221C85.307 0.992221 98.2543 25.0718 98.2543 57.5005C98.2543 98.1575 82.7659 124.415 43.682 124.415C31.5817 124.415 26.9836 120.543 21.1755 116.792V141.839C21.1755 153.214 22.2645 163.378 23.1115 171.606L3.87209 172.695C2.78306 163.862 2.17805 152.246 2.17805 141.234L2.29905 34.147Z" fill="#EB662B"/>
</svg>
