<svg width="332" height="110" viewBox="0 0 332 110" fill="none" xmlns="http://www.w3.org/2000/svg">
<path d="M66.3024 42.9913C66.72 40.1784 65.1309 39.4311 61.8161 38.856C60.9912 38.7336 60.3746 38.6973 59.764 38.6205L59.511 40.3245C59.1436 42.7993 58.6804 45.8266 58.6804 45.8266C59.1652 45.9124 59.625 45.9806 60.0713 46.0469C63.939 46.6211 65.8446 46.0747 66.3024 42.9913ZM57.416 54.2498L55.2813 53.919L57.8974 36.2977C59.4932 36.5347 60.0231 36.5028 61.8218 36.7698C64.8646 37.2215 66.7183 37.6764 67.9964 39.7736C68.5962 40.761 68.686 42.0183 68.5053 43.2355C68.3226 44.4661 68.0136 45.8024 67.0275 46.8585C65.4211 48.555 63.6744 48.6827 60.4423 48.2029C59.7931 48.1065 59.1054 47.9906 58.3792 47.8551C57.8511 51.4118 57.7292 52.1401 57.416 54.2498ZM72.3242 59.4071C73.7577 59.62 74.8594 57.2265 75.5861 55.8693C74.9734 51.2448 74.0006 46.7189 72.3833 44.7649C71.9972 44.2929 71.4448 44.1971 70.9579 44.1248L71.2651 42.0557C71.7114 42.1219 72.3795 42.2764 72.7502 42.3867C74.9584 43.0601 76.3943 48.4703 77.27 53.0923C78.7064 50.3063 80.1792 46.5305 80.7432 43.4766L82.8799 43.7939C82.7594 44.6053 82.5774 45.3661 82.3533 46.0377C80.7655 50.6811 78.737 54.9411 76.3275 58.8819C75.3397 60.6012 74.0861 61.7834 72.0711 61.4843C69.7044 61.1329 68.4432 59.4806 68.9853 55.8292L71.095 56.1424C70.7396 58.5361 71.2423 59.2465 72.3242 59.4071ZM86.7315 51.1798C85.9887 56.1836 88.774 56.6938 90.2616 56.9147L90.4374 56.9408C92.5471 57.254 93.6919 56.5255 94.5698 55.4534L96.0911 56.937C95.5605 57.4388 93.9494 59.6322 90.1763 59.072C88.7698 58.8632 87.1225 58.5081 85.9688 57.3416C84.4135 55.7147 84.1817 53.5518 84.5813 50.8606C85.3181 45.8974 87.9743 44.5779 92.2342 45.2103C93.519 45.401 94.4716 45.8742 95.1906 46.6167C95.9212 47.3748 96.22 48.2485 96.4131 48.9959L94.21 49.4981C94.1435 48.9215 93.9421 47.5786 91.7783 47.2573C88.7896 46.8136 87.2114 47.9477 86.7315 51.1798ZM101.067 53.308C100.324 58.3118 103.109 58.8221 104.597 59.0429L104.772 59.069C106.882 59.3822 108.027 58.6538 108.905 57.5816L110.426 59.0653C109.896 59.567 108.284 61.7604 104.511 61.2003C103.105 60.9915 101.458 60.6363 100.304 59.4699C98.7485 57.843 98.5168 55.68 98.9163 52.9888C99.6532 48.0256 102.309 46.7061 106.569 47.3385C107.854 47.5293 108.807 48.0024 109.526 48.745C110.256 49.503 110.555 50.3767 110.748 51.1241L108.545 51.6263C108.479 51.0498 108.277 49.7068 106.113 49.3856C103.125 48.9418 101.546 50.0759 101.067 53.308ZM119.761 55.8624C121.147 57.6991 123.736 61.3039 124.472 63.1409L122.668 64.2138C122.003 62.7329 119.645 59.1623 118.142 57.1838L116.074 58.6322L115.466 62.7299L113.356 62.4167L115.404 48.6226L117.514 48.9358L116.528 55.5759C119.282 53.6903 123.254 50.7693 125.308 49.692L126.361 51.6313C124.153 52.5338 121.507 54.532 119.761 55.8624ZM137.664 51.9273L139.812 52.2601C139.812 52.2601 139.033 57.2308 138.567 60.3683C138.24 62.5726 137.968 64.5916 137.822 66.1319L135.699 65.8166C135.921 63.486 136.057 62.5664 136.43 60.051C136.607 58.8609 137.118 55.9789 137.118 55.9789C134.841 58.9305 131.395 62.593 129.322 64.8284L127.163 64.5633L129.219 50.7151L131.37 51.0343C131.099 52.86 130.272 57.9619 129.782 61.2617C132.775 58.14 134.753 55.3376 137.664 51.9273ZM149.627 49.3634C151.088 49.5803 152.323 48.8929 152.561 47.8501L154.746 48.5891C154.066 50.9346 151.552 51.7638 149.32 51.4325C147.616 51.1796 145.251 50.165 145.054 47.0258L147.224 46.9333C147.354 48.5698 148.37 49.1767 149.627 49.3634ZM151.999 54.0556L154.148 54.3883C154.148 54.3883 153.368 59.359 152.902 62.4965C152.575 64.7008 152.303 66.7199 152.157 68.2601L150.034 67.9449C150.256 65.6143 150.392 64.6947 150.766 62.1793C150.942 60.9892 151.453 58.1072 151.453 58.1072C149.177 61.0588 145.73 64.7213 143.657 66.9566L141.499 66.6915L143.554 52.8433L145.705 53.1625C145.434 54.9882 144.607 60.0901 144.117 63.3899C147.11 60.2682 149.088 57.4658 151.999 54.0556Z" fill="white"/>
<rect x="1.60059" y="38.2539" width="183.842" height="48.3795" transform="rotate(-6.55537 1.60059 38.2539)" fill="#ECC7CF"/>
<path d="M184.241 17.265L202.708 5.28154L208.341 54.306L189.764 65.3283L184.241 17.265Z" fill="#E3B7C0"/>
<path d="M19.8271 26.2979L202.708 5.28222L184.282 17.6262L1.16084 38.6695L19.8271 26.2979Z" fill="#F8D1D9"/>
<ellipse cx="43.0939" cy="27.106" rx="13.4674" ry="3.67633" transform="rotate(-6.55537 43.0939 27.106)" fill="#E19DAC"/>
<rect x="28.9346" y="21.8608" width="8.40303" height="6.67741" transform="rotate(-6.55537 28.9346 21.8608)" fill="#E19DAC"/>
<rect x="47.3545" y="19.8198" width="8.40303" height="6.67741" transform="rotate(-6.55537 47.3545 19.8198)" fill="#E19DAC"/>
<ellipse cx="42.3312" cy="20.4722" rx="13.4674" ry="3.67633" transform="rotate(-6.55537 42.3312 20.4722)" fill="#ECC7CF"/>
<ellipse cx="83.6799" cy="22.1983" rx="13.4674" ry="3.67633" transform="rotate(-6.55537 83.6799 22.1983)" fill="#E19DAC"/>
<rect x="69.5205" y="16.9536" width="8.40303" height="6.67741" transform="rotate(-6.55537 69.5205 16.9536)" fill="#E19DAC"/>
<rect x="87.9395" y="14.9126" width="8.40303" height="6.67741" transform="rotate(-6.55537 87.9395 14.9126)" fill="#E19DAC"/>
<ellipse cx="82.9172" cy="15.565" rx="13.4674" ry="3.67633" transform="rotate(-6.55537 82.9172 15.565)" fill="#ECC7CF"/>
<ellipse cx="126.908" cy="16.9879" rx="13.4674" ry="3.67633" transform="rotate(-6.55537 126.908 16.9879)" fill="#E19DAC"/>
<rect x="112.749" y="11.7427" width="8.40303" height="6.67741" transform="rotate(-6.55537 112.749 11.7427)" fill="#E19DAC"/>
<rect x="131.169" y="9.70166" width="8.40303" height="6.67741" transform="rotate(-6.55537 131.169 9.70166)" fill="#E19DAC"/>
<ellipse cx="126.146" cy="10.3541" rx="13.4674" ry="3.67633" transform="rotate(-6.55537 126.146 10.3541)" fill="#ECC7CF"/>
<ellipse cx="170.221" cy="12.4971" rx="13.4674" ry="3.67633" transform="rotate(-6.55537 170.221 12.4971)" fill="#E19DAC"/>
<rect x="156.062" y="7.25195" width="8.40303" height="6.67741" transform="rotate(-6.55537 156.062 7.25195)" fill="#E19DAC"/>
<rect x="174.481" y="5.21143" width="8.40303" height="6.67741" transform="rotate(-6.55537 174.481 5.21143)" fill="#E19DAC"/>
<ellipse cx="169.458" cy="5.86384" rx="13.4674" ry="3.67633" transform="rotate(-6.55537 169.458 5.86384)" fill="#ECC7CF"/>
<path d="M149.418 32.9225C151.126 32.7262 152.308 31.5812 152.261 30.3371L154.94 30.5098C154.882 33.3519 152.305 35.0417 149.696 35.3415C147.704 35.5704 144.74 35.1422 143.572 31.672L145.984 30.9142C146.623 32.715 147.948 33.0914 149.418 32.9225ZM153.499 37.4837L156.015 37.2106C156.015 37.2106 156.636 43.0344 157.057 46.7025C157.354 49.2796 157.656 51.6318 157.956 53.4075L155.474 53.6928C155.021 51.0055 154.897 49.9303 154.559 46.9896C154.399 45.5982 154.105 42.2038 154.105 42.2038C152.435 46.2084 149.663 51.3648 148.006 54.5029L145.499 54.855L143.639 38.6649L146.152 38.376C146.398 40.5104 147.005 46.4959 147.449 50.3538C149.873 45.9421 151.253 42.1952 153.499 37.4837Z" fill="#EB662B"/>
<path d="M136.739 39.4092L139.255 39.1362C139.255 39.1362 139.876 44.96 140.297 48.628C140.593 51.2052 140.896 53.5573 141.196 55.3331L138.714 55.6183C138.261 52.931 138.137 51.8559 137.799 48.9151C137.639 47.5238 137.345 44.1294 137.345 44.1294C135.675 48.134 132.903 53.2903 131.246 56.4284L128.739 56.7806L126.878 40.5904L129.392 40.3015C129.638 42.436 130.245 48.4215 130.689 52.2793C133.113 47.8677 134.493 44.1207 136.739 39.4092Z" fill="#EB662B"/>
<path d="M117.795 49.2276C119.907 50.8752 123.903 54.1485 125.285 55.9922L123.579 57.7421C122.386 56.2773 118.658 52.9731 116.372 51.2013L114.484 53.4528L115.034 58.2434L112.568 58.5268L110.715 42.3999L113.181 42.1165L114.073 49.8795C116.602 46.9297 120.188 42.4487 122.172 40.6187L123.94 42.4821C121.73 44.1617 119.357 47.2059 117.795 49.2276Z" fill="#EB662B"/>
<path d="M96.0056 51.9874C96.6778 57.8373 99.9634 57.5719 101.703 57.372L101.908 57.3484C104.375 57.065 105.442 55.901 106.106 54.431L108.264 55.6409C107.818 56.3649 106.668 59.3165 102.257 59.8234C100.612 60.0124 98.653 60.1094 97.0044 59.1454C94.7655 57.7847 93.8533 55.4226 93.4917 52.2762C92.8249 46.4737 95.4139 44.1898 100.394 43.6175C101.896 43.4449 103.11 43.6899 104.142 44.3081C105.192 44.9404 105.791 45.8327 106.233 46.6149L103.908 47.8434C103.659 47.2151 103.028 45.7658 100.498 46.0565C97.0042 46.458 95.5714 48.2086 96.0056 51.9874Z" fill="#EB662B"/>
<path d="M79.2458 53.9136C79.9181 59.7636 83.2036 59.4982 84.9428 59.2983L85.1483 59.2747C87.6148 58.9913 88.6825 57.8273 89.3466 56.3573L91.5041 57.5671C91.0586 58.2911 89.908 61.2428 85.4968 61.7497C83.8525 61.9387 81.8933 62.0357 80.2446 61.0717C78.0057 59.711 77.0935 57.3488 76.7319 54.2025C76.0651 48.4 78.6541 46.116 83.6345 45.5437C85.1365 45.3711 86.3501 45.6161 87.3824 46.2344C88.4322 46.8667 89.0313 47.759 89.4737 48.5412L87.1478 49.7696C86.8994 49.1414 86.2683 47.6921 83.7386 47.9828C80.2444 48.3843 78.8116 50.1349 79.2458 53.9136Z" fill="#EB662B"/>
<path d="M65.5251 67.5055C67.201 67.3129 67.7187 64.2898 68.1269 62.5448C66.0448 57.5297 63.5873 52.7339 61.1802 51.0241C60.6039 50.6098 59.9538 50.6684 59.3847 50.7339L59.1067 48.3148C59.6284 48.2549 60.4262 48.2273 60.8762 48.2396C63.562 48.3315 66.8065 53.982 69.1836 58.9151C69.9593 55.3498 70.4777 50.6606 70.1918 47.057L72.6899 46.7699C72.7989 47.7186 72.8234 48.6289 72.7738 49.4516C72.3874 55.1508 71.3901 60.5519 69.8682 65.7088C69.2755 67.9396 68.2221 69.6466 65.8663 69.9173C63.0994 70.2352 61.1835 68.7573 60.6929 64.4884L63.1594 64.205C63.481 67.0035 64.2602 67.6508 65.5251 67.5055Z" fill="#EB662B"/>
<path d="M54.1544 56.7976C53.7837 53.5722 52.6992 51.6624 50.0114 51.9712C47.8453 52.2202 47.17 53.0347 46.2545 54.9661L47.0467 61.8596C47.9615 62.5714 48.9772 63.4639 50.416 63.2986C52.9931 63.0024 54.6685 61.272 54.1544 56.7976ZM43.7136 54.6013L43.67 54.2218C43.5192 52.9095 43.2206 51.5662 42.9426 50.5408L45.4992 49.9266C45.6364 50.4235 45.7554 50.7623 45.8475 51.4245C46.7419 50.4246 47.9431 49.7259 49.7139 49.5224C54.0619 49.0228 56.1152 51.9747 56.6021 56.212C57.2126 61.5244 55.5831 65.1878 50.4762 65.7747C48.8951 65.9564 48.2362 65.5195 47.421 65.1166L47.7971 68.3894C47.9678 69.8756 48.2628 71.1873 48.497 72.2497L45.9994 72.6809C45.7245 71.5431 45.471 70.0343 45.3057 68.5956L43.7136 54.6013Z" fill="#EB662B"/>
</svg>
