<svg width="256" height="72" viewBox="0 0 256 72" fill="none" xmlns="http://www.w3.org/2000/svg">
<path d="M65.8652 31.2812C65.8652 37.1875 65.8516 43.0938 65.8516 49H63.7051L63.6777 42.3281C62.2695 42.7656 60.5879 42.8613 59.5762 42.8613C54.1074 42.8613 53.8477 37.9668 53.8477 32.7715V31.582V31.2812H56.0078C56.0898 36.9824 55.8301 40.7695 59.8496 40.7695C60.6973 40.7695 62.4062 40.5918 63.6914 40.2363L63.7188 31.2812H65.8652ZM70.7188 41.0703C72.4824 41.0566 75.9961 40.9336 77.9375 40.7148C77.7188 38.5137 76.3242 37.1191 74.4648 37.1191C72.1406 37.1191 70.7324 38.9648 70.7188 41.0703ZM74.4512 35.041C79.6055 35.041 80.1113 40.2363 80.1113 42.123C80.1113 42.3965 80.1113 42.6016 80.0977 42.7109C76.2695 42.9707 73.1523 43.1348 70.7188 43.1621C70.7188 45.2539 71.8945 47.0449 74.6836 47.0449C76.6387 47.0449 77.7871 45.9648 78.3203 45.2266L80.002 46.7168C79.4414 47.332 77.8828 49.1367 74.6289 49.1367C70.5547 49.1367 68.5586 46.2246 68.5586 41.9453C68.5586 38.0352 70.582 35.041 74.4512 35.041ZM84.9238 46.9492H87.7266L87.7402 35.0547H89.8594L89.8457 46.9492H92.6484L92.6758 35.0547H94.7949L94.7812 49H92.6211L82.791 49.0137L82.832 35.0547H84.9238V46.9492ZM99.6211 41.7949C99.6211 46.8535 102.451 46.9492 103.955 46.9492H104.133C106.266 46.9492 107.291 46.0605 108.002 44.8711L109.725 46.1152C109.273 46.6895 108.002 49.0957 104.188 49.0957C102.766 49.0957 101.084 48.9863 99.7715 48.002C97.9941 46.6211 97.4473 44.5156 97.4473 41.7949C97.4473 36.7773 99.8809 35.082 104.188 35.082C105.486 35.082 106.498 35.4102 107.318 36.0391C108.152 36.6816 108.576 37.502 108.877 38.2129L106.771 39.0332C106.621 38.4727 106.225 37.1738 104.037 37.1738C101.016 37.1738 99.6211 38.5273 99.6211 41.7949ZM118.488 41.5762C120.129 43.1895 123.219 46.375 124.217 48.084L122.59 49.4102C121.715 48.043 118.857 44.8574 117.08 43.1211L115.248 44.8574V49H113.115V35.0547H115.248V41.7676C117.695 39.498 121.195 36.0254 123.068 34.6582L124.395 36.4219C122.344 37.6387 120.02 40.0039 118.488 41.5762ZM135.619 35.0547L137.793 35.0684C137.793 35.0684 137.752 40.0996 137.752 43.2715C137.752 45.5 137.779 47.5371 137.861 49.082H135.715C135.592 46.7441 135.592 45.8145 135.592 43.2715C135.592 42.0684 135.674 39.1426 135.674 39.1426C133.855 42.3965 130.984 46.5254 129.262 49.041L127.088 49.0957V35.0957H129.262C129.262 36.9414 129.193 42.1094 129.193 45.4453C131.695 41.918 133.24 38.8555 135.619 35.0547ZM147.076 30.7617C148.553 30.7617 149.674 29.9004 149.756 28.834L152.025 29.2441C151.697 31.6641 149.332 32.8535 147.076 32.8535C145.354 32.8535 142.865 32.1973 142.209 29.1211L144.342 28.7109C144.711 30.3105 145.805 30.7617 147.076 30.7617ZM150.111 35.0547L152.285 35.0684C152.285 35.0684 152.244 40.0996 152.244 43.2715C152.244 45.5 152.271 47.5371 152.354 49.082H150.207C150.084 46.7441 150.084 45.8145 150.084 43.2715C150.084 42.0684 150.166 39.1426 150.166 39.1426C148.348 42.3965 145.477 46.5254 143.754 49.041L141.58 49.0957V35.0957H143.754C143.754 36.9414 143.686 42.1094 143.686 45.4453C146.188 41.918 147.732 38.8555 150.111 35.0547Z" fill="white"/>
<rect x="1.33008" y="31.2676" width="152.96" height="40.2526" transform="rotate(-6.55537 1.33008 31.2676)" fill="#ECC7CF"/>
<path d="M153.29 13.8049L168.655 3.83442L173.342 44.6236L157.885 53.7943L153.29 13.8049Z" fill="#E3B7C0"/>
<path d="M16.4956 21.3193L168.655 3.8339L153.325 14.1043L0.965026 31.6126L16.4956 21.3193Z" fill="#F8D1D9"/>
<ellipse cx="35.855" cy="21.992" rx="11.2051" ry="3.05876" transform="rotate(-6.55537 35.855 21.992)" fill="#E19DAC"/>
<rect x="24.0742" y="17.6279" width="6.99146" height="5.55571" transform="rotate(-6.55537 24.0742 17.6279)" fill="#E19DAC"/>
<rect x="39.3994" y="15.9297" width="6.99146" height="5.55571" transform="rotate(-6.55537 39.3994 15.9297)" fill="#E19DAC"/>
<ellipse cx="35.2203" cy="16.4725" rx="11.2051" ry="3.05876" transform="rotate(-6.55537 35.2203 16.4725)" fill="#ECC7CF"/>
<ellipse cx="69.6216" cy="17.9095" rx="11.2051" ry="3.05876" transform="rotate(-6.55537 69.6216 17.9095)" fill="#E19DAC"/>
<rect x="57.8408" y="13.5459" width="6.99146" height="5.55571" transform="rotate(-6.55537 57.8408 13.5459)" fill="#E19DAC"/>
<rect x="73.166" y="11.8477" width="6.99146" height="5.55571" transform="rotate(-6.55537 73.166 11.8477)" fill="#E19DAC"/>
<ellipse cx="68.9869" cy="12.3904" rx="11.2051" ry="3.05876" transform="rotate(-6.55537 68.9869 12.3904)" fill="#ECC7CF"/>
<ellipse cx="105.588" cy="13.574" rx="11.2051" ry="3.05876" transform="rotate(-6.55537 105.588 13.574)" fill="#E19DAC"/>
<rect x="93.8076" y="9.20996" width="6.99146" height="5.55571" transform="rotate(-6.55537 93.8076 9.20996)" fill="#E19DAC"/>
<rect x="109.133" y="7.51172" width="6.99146" height="5.55571" transform="rotate(-6.55537 109.133 7.51172)" fill="#E19DAC"/>
<ellipse cx="104.954" cy="8.05448" rx="11.2051" ry="3.05876" transform="rotate(-6.55537 104.954 8.05448)" fill="#ECC7CF"/>
<ellipse cx="141.626" cy="9.8372" rx="11.2051" ry="3.05876" transform="rotate(-6.55537 141.626 9.8372)" fill="#E19DAC"/>
<rect x="129.845" y="5.47314" width="6.99146" height="5.55571" transform="rotate(-6.55537 129.845 5.47314)" fill="#E19DAC"/>
<rect x="145.171" y="3.77539" width="6.99146" height="5.55571" transform="rotate(-6.55537 145.171 3.77539)" fill="#E19DAC"/>
<ellipse cx="140.991" cy="4.31815" rx="11.2051" ry="3.05876" transform="rotate(-6.55537 140.991 4.31815)" fill="#ECC7CF"/>
<path d="M122.309 26.0875L123.871 25.903C124.306 29.579 125.838 42.2044 125.838 42.2044C126.036 43.3006 126.635 43.2845 127.874 43.1381C129.126 42.9902 130.762 42.5101 131.609 41.7002L132.706 43.127C131.66 44.2198 129.783 44.8513 128.113 45.0486C126.969 45.1838 125.923 45.1162 125.292 44.863C124.073 44.3654 123.838 43.3009 123.744 42.5065L122.017 28.2383C121.788 28.2653 121.423 28.2948 121.019 28.3425C120.252 28.4332 119.287 28.5881 118.488 28.8737L117.883 26.9927C119.35 26.4645 120.909 26.253 122.309 26.0875Z" fill="#EB662B"/>
<path d="M113.177 43.6595C113.955 42.7347 114.109 41.2693 113.874 39.2764L113.845 39.0341C113.525 36.5597 112.431 34.6956 110.048 34.9772C107.247 35.3081 106.675 37.6285 107.063 40.914C107.373 43.5396 108.733 44.9901 110.981 44.7244C112.003 44.5901 112.57 44.3046 113.177 43.6595ZM111.201 46.8147C107.537 47.234 105.389 45.0029 104.944 41.2326C104.479 37.3008 105.413 33.4222 109.345 32.9576C111.998 32.6442 113.589 33.3983 114.741 35.0643C115.419 36.0629 115.841 37.5558 115.994 38.8484C116.447 42.686 115.564 46.2992 111.228 46.8115L111.201 46.8147Z" fill="#EB662B"/>
<path d="M93.1504 29.8195C95.1432 29.584 96.1167 31.121 97.3286 30.9779C98.1903 30.876 99.0574 30.2411 99.1059 29.0339L101.181 29.4986C100.941 31.1654 99.5379 32.8057 97.7605 33.0157C95.8754 33.2385 94.9154 31.6999 93.5554 31.8606C92.761 31.9544 91.9943 32.1679 91.6513 33.6557L89.6753 32.8788C90.4108 30.5528 91.6692 29.9945 93.1504 29.8195ZM92.6 36.3697C94.1916 35.2806 95.3842 34.7437 96.8654 34.5687C98.4812 34.3778 101.014 35.1299 101.251 37.1361L102.182 45.0132C102.287 45.9019 102.995 46.1186 103.797 46.4335L102.844 48.0752C101.591 47.6362 100.271 47.0959 100.065 45.3589L99.1728 37.8049C99.0551 36.8085 97.6965 36.5185 96.8078 36.6235C95.946 36.7253 94.7202 37.4436 92.8657 38.6184L94.0748 48.8519L91.9489 49.1167L90.8257 39.6104C90.5425 37.2136 90.3934 36.8762 89.9207 35.6487L92.0163 34.8959C92.1891 35.2032 92.4143 35.7227 92.6 36.3697Z" fill="#EB662B"/>
<path d="M78.8225 46.4082C78.9895 47.8221 79.839 48.5409 81.0913 48.3929C83.9189 48.0588 85.0814 45.7643 85.3663 45.1708L85.2151 43.8917C84.3919 43.5111 83.3494 43.2383 81.949 43.4038C80.1194 43.6336 78.6347 44.8193 78.8225 46.4082ZM87.5232 45.2846C87.5789 45.7559 87.7269 47.0082 87.929 47.2164C88.1327 47.4381 88.6675 47.6889 89.0945 47.9525L88.1663 49.6869C87.4024 49.231 86.5548 48.9898 86.1517 47.6585C85.2207 48.7925 83.9857 50.1262 81.3331 50.4396C79.0306 50.7117 77.0019 49.0263 76.7378 46.7911C76.6169 45.7677 76.8793 44.5216 77.5767 43.6064C78.7015 42.1491 80.0233 41.6653 81.6122 41.4775C83.3088 41.2771 84.1857 41.4192 84.9654 41.7776C84.6647 39.2327 83.5908 38.1172 81.3017 38.3877C79.4435 38.6072 78.643 39.1114 77.7933 41.1642L75.9124 40.2669C76.9154 37.6635 78.6243 36.6424 81.0346 36.3576C84.2931 35.9726 86.6403 37.8115 86.9982 40.8411L87.5232 45.2846Z" fill="#EB662B"/>
<path d="M71.3283 44.3442C71.0038 41.5973 70.0746 39.9732 67.7855 40.2436C65.9408 40.4616 65.3677 41.1573 64.593 42.8053L65.2867 48.6761C66.068 49.2801 66.9357 50.0377 68.1611 49.8929C70.3559 49.6336 71.7786 48.1548 71.3283 44.3442ZM62.4272 42.5014L62.3891 42.1783C62.257 41.0607 61.999 39.917 61.7594 39.0442L63.9358 38.514C64.0541 38.9369 64.1564 39.2252 64.2367 39.7891C64.9959 38.9349 66.0174 38.3363 67.5255 38.1581C71.2284 37.7206 72.9857 40.2299 73.4121 43.8386C73.9467 48.3629 72.5684 51.4884 68.2192 52.0023C66.8726 52.1614 66.3101 51.791 65.6144 51.4499L65.9437 54.2372C66.0933 55.5029 66.3481 56.6197 66.5506 57.5241L64.4239 57.8983C64.1866 56.9297 63.9665 55.645 63.8218 54.4196L62.4272 42.5014Z" fill="#EB662B"/>
<path d="M50.3239 46.2527C49.393 45.8848 48.598 45.0503 48.4215 43.5557C48.1597 41.2246 50.2249 39.9839 52.5813 39.7055C54.224 39.5114 56.6575 39.77 57.9223 40.9996L56.5774 42.674C55.7651 41.9234 54.1633 41.5393 53.0053 41.6761C51.578 41.8447 50.4257 42.3768 50.5291 43.252C50.6055 43.8984 50.9114 44.1762 51.4786 44.355C55.3074 45.4454 58.7863 45.3074 59.2381 49.1315C59.4959 51.3128 58.1056 52.7195 56.7094 53.2668C55.976 53.5309 55.1793 53.7206 54.4118 53.8113C50.9647 54.2186 49.0264 52.6045 48.6843 49.7095L50.7999 49.4732C51.0131 51.2775 52.0568 52.1372 54.1439 51.8906C55.8001 51.6949 57.3181 50.7919 57.1431 49.3108C57.0429 48.4625 56.5777 48.1078 55.7719 47.6433C54.6476 47.0252 51.8252 46.8262 50.3239 46.2527Z" fill="#EB662B"/>
<path d="M35.6025 47.842C37.3379 47.6233 40.7841 47.0933 42.6707 46.6519C42.1992 44.5095 40.6634 43.2983 38.8322 43.5147C36.5431 43.7851 35.371 45.7668 35.6025 47.842ZM38.5769 41.4696C43.6532 40.8698 44.756 45.9277 44.9756 47.7858C45.0074 48.0551 45.0312 48.2571 45.0305 48.3664C41.2905 49.0677 38.2395 49.5921 35.8459 49.9022C36.0894 51.9623 37.4558 53.5894 40.2027 53.2649C42.1282 53.0374 43.1335 51.84 43.5728 51.0508L45.4024 52.3228C44.9219 52.994 43.5969 54.9528 40.3922 55.3314C36.3796 55.8055 34.0748 53.1697 33.5769 48.9551C33.1219 45.1041 34.7663 41.9198 38.5769 41.4696Z" fill="#EB662B"/>
</svg>
