<svg width="218" height="218" viewBox="0 0 218 218" fill="none" xmlns="http://www.w3.org/2000/svg">
<path d="M217.142 109C217.142 169.199 168.533 218 108.571 218C48.6088 218 0 169.199 0 109C0 48.801 48.6088 0 108.571 0C168.533 0 217.142 48.801 217.142 109Z" fill="#EB662B"/>
<path d="M210.79 110.983L210.683 112.761C210.046 113.11 209.21 113.531 208.174 114.023C207.138 114.522 206.263 114.933 205.549 115.254L204.468 115.724C207.156 117.23 209.111 118.419 210.331 119.291L210.234 121.093L198.239 120.459L198.336 118.657L206.821 119.09C203.994 117.397 202.443 116.499 202.166 116.398L202.287 114.809C204.671 113.842 206.235 113.116 206.981 112.632L198.686 112.162L198.784 110.349L210.79 110.983Z" fill="#EFECDB"/>
<path d="M199.563 127.979C200.094 128.775 201.248 129.324 203.027 129.627L203.235 129.662C204.393 129.843 205.357 129.77 206.126 129.441C206.895 129.112 207.362 128.467 207.526 127.504C207.625 126.918 207.599 126.399 207.446 125.945C207.292 125.499 207.019 125.123 206.627 124.819C206.235 124.514 205.771 124.261 205.235 124.059C204.705 123.866 204.071 123.706 203.331 123.58C202.192 123.386 201.259 123.485 200.535 123.877C199.818 124.27 199.379 124.944 199.216 125.899C199.149 126.339 199.141 126.711 199.193 127.013C199.243 127.322 199.367 127.644 199.563 127.979ZM197.429 125.571C197.699 124.032 198.377 122.939 199.462 122.292C200.554 121.645 201.929 121.463 203.584 121.745C204.285 121.864 204.936 122.023 205.536 122.22C206.143 122.426 206.709 122.689 207.233 123.008C207.763 123.336 208.204 123.704 208.554 124.113C208.904 124.529 209.153 125.019 209.303 125.583C209.46 126.149 209.483 126.759 209.371 127.414C209.183 128.523 208.837 129.387 208.336 130.007C207.84 130.636 207.164 131.092 206.308 131.374C205.353 131.679 204.205 131.717 202.865 131.489C202.172 131.371 201.537 131.212 200.961 131.011C200.392 130.819 199.853 130.56 199.346 130.236C198.846 129.913 198.434 129.538 198.111 129.111C197.794 128.692 197.567 128.182 197.432 127.581C197.304 126.98 197.302 126.318 197.425 125.594L197.429 125.571Z" fill="#EFECDB"/>
<path d="M196.622 130.611L198.302 131.337C198.195 131.534 198.125 131.688 198.092 131.801C198.046 131.958 198.03 132.108 198.045 132.251C198.067 132.396 198.139 132.568 198.26 132.766C198.388 132.967 198.578 133.165 198.83 133.361C199.087 133.567 199.446 133.799 199.908 134.057C200.369 134.315 200.923 134.58 201.567 134.851C202.22 135.124 203.023 135.426 203.977 135.755C204.938 136.087 206.022 136.43 207.228 136.785L206.227 140.229L205.834 141.567C205.507 142.676 205.267 143.436 205.114 143.847L193.658 140.476L194.194 138.655C194.599 138.774 195.527 139.051 196.979 139.486C198.438 139.924 199.665 140.293 200.66 140.594L202.151 141.045L203.961 141.578L204.997 138.059C204.191 137.781 203.494 137.535 202.905 137.321C202.317 137.107 201.672 136.848 200.971 136.545C200.276 136.251 199.688 135.967 199.206 135.695C198.729 135.433 198.261 135.128 197.801 134.781C197.347 134.444 196.995 134.104 196.745 133.762C196.503 133.422 196.338 133.044 196.249 132.626C196.157 132.217 196.176 131.795 196.304 131.36C196.372 131.128 196.478 130.878 196.622 130.611Z" fill="#EFECDB"/>
<path d="M193.086 148.296C193.417 149.193 194.414 149.995 196.074 150.701L196.268 150.784C197.353 151.228 198.307 151.38 199.132 151.238C199.956 151.096 200.559 150.576 200.942 149.677C201.174 149.131 201.269 148.619 201.225 148.143C201.179 147.673 201 147.245 200.69 146.858C200.379 146.471 199.986 146.117 199.511 145.796C199.041 145.485 198.46 145.183 197.77 144.889C196.706 144.437 195.776 144.317 194.981 144.531C194.193 144.747 193.609 145.301 193.23 146.192C193.062 146.605 192.969 146.964 192.949 147.27C192.926 147.583 192.972 147.925 193.086 148.296ZM191.567 145.46C192.186 144.025 193.098 143.118 194.304 142.74C195.516 142.364 196.895 142.505 198.441 143.163C199.095 143.441 199.692 143.746 200.23 144.077C200.772 144.418 201.262 144.804 201.698 145.236C202.138 145.678 202.481 146.138 202.728 146.617C202.971 147.102 203.1 147.637 203.115 148.221C203.137 148.807 203.018 149.406 202.758 150.017C202.318 151.053 201.782 151.814 201.15 152.3C200.523 152.798 199.76 153.084 198.861 153.16C197.861 153.236 196.736 153.008 195.485 152.475C194.838 152.2 194.257 151.898 193.744 151.569C193.234 151.25 192.77 150.874 192.351 150.442C191.94 150.012 191.626 149.552 191.411 149.061C191.199 148.58 191.097 148.032 191.105 147.415C191.119 146.802 191.271 146.157 191.558 145.481L191.567 145.46Z" fill="#EFECDB"/>
<path d="M194.04 161.592L194.57 161.893L196.192 159.04C194.738 158.214 193.447 157.269 192.318 156.204C191.191 155.151 190.393 154.113 189.923 153.09L187.259 157.777C187.435 157.877 188.111 158.253 189.287 158.903C190.459 159.56 191.432 160.109 192.207 160.549L194.04 161.592ZM181.214 158.142L182.115 156.605L184.915 158.224L188.701 151.493L188.538 151.4C188.212 151.215 187.831 151.016 187.394 150.804C186.947 150.595 186.583 150.428 186.303 150.305L185.877 150.13L186.582 148.509C187.882 149.068 189.086 149.662 190.193 150.292C190.437 150.431 190.774 150.613 191.203 150.839L190.93 151.318C191.339 152.323 191.842 153.184 192.441 153.902C193.042 154.63 193.737 155.272 194.526 155.829C195.318 156.396 196.451 157.098 197.925 157.936L198.638 158.342L196.963 161.312L196.395 162.31C195.824 163.316 195.416 164.001 195.173 164.366L186.361 159.356L185.625 160.65L181.214 158.142Z" fill="#EFECDB"/>
<path d="M188.499 165.067C187.035 167.084 185.895 168.805 185.079 170.232C185.89 170.712 186.681 170.896 187.451 170.784C188.224 170.683 188.849 170.308 189.325 169.66C189.895 168.886 190.085 168.066 189.897 167.2C189.716 166.34 189.25 165.628 188.499 165.067ZM190.767 170.706C190.406 171.197 190.011 171.589 189.581 171.884C189.146 172.185 188.724 172.389 188.316 172.496C187.908 172.603 187.475 172.644 187.019 172.618C186.569 172.598 186.156 172.532 185.782 172.421C185.413 172.316 185.039 172.171 184.66 171.989C184.275 171.813 183.959 171.649 183.713 171.496C183.466 171.344 183.229 171.185 183.003 171.018C182.782 170.856 182.649 170.753 182.604 170.71C184.484 167.758 185.967 165.523 187.055 164.004C186.274 163.43 185.466 163.185 184.629 163.268C183.787 163.357 183.031 163.858 182.36 164.771C181.916 165.375 181.667 165.977 181.613 166.578C181.559 167.178 181.611 167.721 181.769 168.205L179.886 168.61C179.837 168.36 179.801 168.164 179.78 168.022C179.753 167.887 179.735 167.621 179.725 167.226C179.717 166.842 179.744 166.488 179.807 166.166C179.876 165.848 180.003 165.457 180.189 164.993C180.382 164.533 180.633 164.092 180.943 163.671C181.948 162.305 183.161 161.592 184.582 161.532C185.999 161.478 187.469 162.011 188.992 163.131C190.395 164.163 191.279 165.361 191.644 166.725C192.008 168.088 191.716 169.415 190.767 170.706Z" fill="#EFECDB"/>
<path d="M177.765 170.592L174.358 174.272L181.824 181.215L180.574 182.565L173.169 175.695L171.983 176.976C171.649 176.646 171.377 176.383 171.165 176.187C169.915 175.03 168.877 174.282 168.051 173.943L168.857 172.469C169.789 172.853 170.774 173.509 171.81 174.437L173.06 173.087L177.748 168.005L186.505 176.159L185.247 177.517L177.765 170.592Z" fill="#EFECDB"/>
<path d="M170.092 180.245L167.857 182.157L165.791 179.868L165.768 179.842C164.311 178.138 164.038 176.31 164.949 174.359L166.551 175.132C166.326 175.735 166.263 176.303 166.36 176.837C166.452 177.365 166.751 177.926 167.259 178.52L168.043 177.85L170.092 180.245Z" fill="#EFECDB"/>
<path d="M155.638 186.703L160.897 195.492C161.662 195.035 162.424 194.574 163.184 194.11C163.942 193.657 164.397 193.384 164.552 193.292L165.484 194.85C165.129 195.063 163.932 195.779 161.894 196.998C159.854 198.229 158.491 199.048 157.808 199.458C157.472 199.658 156.973 199.889 156.31 200.149L155.727 198.422C156.191 198.254 156.59 198.069 156.925 197.869L159.288 196.455L154.029 187.666L155.638 186.703Z" fill="#EFECDB"/>
<path d="M150.007 194.078C149.758 193.521 149.425 193.148 149.006 192.959C148.584 192.78 148.123 192.802 147.624 193.025C147.203 193.213 146.827 193.454 146.496 193.748C146.162 194.051 145.904 194.337 145.725 194.606C145.549 194.882 145.397 195.185 145.271 195.515C145.138 195.848 145.052 196.096 145.013 196.259C144.978 196.429 144.95 196.604 144.928 196.785L145.382 197.801C146.328 197.926 147.268 197.78 148.202 197.362C148.955 197.017 149.515 196.536 149.88 195.919C150.239 195.305 150.281 194.691 150.007 194.078ZM143.119 197.247C142.711 196.334 142.433 195.838 142.286 195.758C142.218 195.72 142.125 195.685 142.008 195.652C141.883 195.622 141.729 195.584 141.546 195.537C141.359 195.501 141.222 195.473 141.135 195.451L141.454 193.781C141.523 193.802 141.669 193.831 141.891 193.868C142.106 193.909 142.263 193.946 142.363 193.978C142.467 194.017 142.602 194.072 142.771 194.143C142.942 194.22 143.099 194.321 143.24 194.446C143.378 194.581 143.51 194.745 143.639 194.935C143.784 194.571 143.927 194.259 144.067 193.999C144.201 193.743 144.392 193.443 144.641 193.101C144.89 192.758 145.203 192.443 145.579 192.155C145.958 191.874 146.398 191.622 146.897 191.399C147.803 190.994 148.716 190.971 149.638 191.329C150.563 191.694 151.226 192.326 151.628 193.224C151.816 193.645 151.926 194.11 151.956 194.618C151.99 195.134 151.924 195.617 151.757 196.068C151.496 196.767 151.14 197.328 150.688 197.753C150.239 198.184 149.669 198.555 148.977 198.864C147.836 199.375 146.888 199.58 146.133 199.481C146.592 200.508 147.134 201.173 147.757 201.476C148.373 201.783 149.131 201.735 150.029 201.333C150.792 200.992 151.327 200.608 151.632 200.18C151.93 199.756 152.122 199.075 152.208 198.138L153.991 198.394C153.917 199.548 153.614 200.479 153.083 201.187C152.549 201.906 151.779 202.49 150.773 202.939C149.489 203.513 148.291 203.6 147.179 203.198C146.067 202.797 145.24 201.99 144.698 200.778L143.119 197.247Z" fill="#EFECDB"/>
<path d="M137.372 201.885C134.143 200.229 132.025 198.944 131.018 198.031L132.009 196.53C132.52 196.959 133.416 197.558 134.697 198.327C135.98 199.104 137.124 199.749 138.128 200.261L139.181 198.371L138.119 194.983L139.863 194.436L143.439 205.842L141.694 206.389L139.973 200.898C139.761 201.267 139.284 202.121 138.541 203.459C137.793 204.807 137.173 205.898 136.681 206.732C136.184 207.576 135.757 208.238 135.4 208.718L133.863 207.615C134.798 206.577 135.968 204.667 137.372 201.885Z" fill="#EFECDB"/>
<path d="M120.287 208.629L120.37 209.232L123.621 208.789C123.395 207.133 123.362 205.533 123.523 203.989C123.676 202.454 124.016 201.19 124.543 200.195L119.202 200.923C119.229 201.125 119.341 201.89 119.538 203.219C119.728 204.55 119.882 205.656 120.003 206.539L120.287 208.629ZM115.242 196.342L117.01 196.124L117.424 199.332L125.071 198.255L125.046 198.069C124.995 197.698 124.922 197.274 124.825 196.798C124.72 196.316 124.632 195.926 124.559 195.628L124.44 195.183L126.156 194.76C126.501 196.132 126.759 197.449 126.931 198.711C126.969 198.99 127.028 199.368 127.109 199.846L126.564 199.92C126.013 200.855 125.634 201.778 125.427 202.689C125.213 203.609 125.125 204.551 125.162 205.516C125.192 206.49 125.321 207.816 125.55 209.496L125.661 210.309L122.284 210.781L121.146 210.936C120 211.092 119.208 211.184 118.771 211.212L117.402 201.169L115.927 201.37L115.242 196.342Z" fill="#EFECDB"/>
<path d="M114.246 206.3C111.755 206.364 109.695 206.505 108.066 206.724C108.178 207.66 108.512 208.4 109.07 208.944C109.62 209.496 110.297 209.764 111.102 209.748C112.062 209.73 112.829 209.383 113.402 208.707C113.975 208.04 114.257 207.237 114.246 206.3ZM111.148 211.529C110.539 211.541 109.986 211.465 109.491 211.303C108.988 211.141 108.569 210.93 108.236 210.671C107.903 210.412 107.608 210.093 107.35 209.715C107.093 209.345 106.894 208.978 106.755 208.613C106.615 208.257 106.502 207.872 106.416 207.46C106.322 207.047 106.26 206.697 106.231 206.408C106.202 206.12 106.185 205.835 106.179 205.554C106.174 205.28 106.175 205.112 106.181 205.05C109.668 204.748 112.345 204.567 114.211 204.507C114.193 203.539 113.896 202.747 113.322 202.133C112.739 201.52 111.882 201.224 110.749 201.246C109.999 201.26 109.37 201.429 108.86 201.751C108.351 202.074 107.952 202.445 107.663 202.864L106.197 201.615C106.365 201.424 106.499 201.277 106.599 201.174C106.69 201.07 106.89 200.895 107.198 200.646C107.498 200.406 107.795 200.213 108.089 200.066C108.383 199.928 108.771 199.791 109.253 199.657C109.735 199.531 110.238 199.462 110.761 199.452C112.456 199.419 113.76 199.949 114.672 201.041C115.576 202.133 116.046 203.624 116.083 205.514C116.117 207.256 115.703 208.686 114.842 209.805C113.98 210.923 112.749 211.498 111.148 211.529Z" fill="#EFECDB"/>
<path d="M96.689 204.904C96.5609 206.171 96.6622 207.151 96.9926 207.844C97.3231 208.537 97.9624 208.932 98.9107 209.027C99.4393 209.081 99.8855 209.055 100.249 208.951C100.613 208.854 100.923 208.693 101.182 208.468C101.431 208.249 101.732 207.915 102.084 207.463L102.598 202.38C102.156 201.856 101.834 201.51 101.631 201.34C101.253 201.035 100.843 200.86 100.4 200.815C98.2236 200.595 96.9866 201.958 96.689 204.904ZM103.855 208.125L103.826 208.405C103.74 209.26 103.722 210.181 103.771 211.167L101.835 211.207C101.809 210.687 101.804 210.309 101.82 210.075C100.956 210.702 99.9291 210.956 98.7398 210.836C97.2163 210.682 96.143 210.075 95.5199 209.015C94.8959 207.962 94.668 206.604 94.836 204.941C95.2703 200.642 97.2403 198.67 100.746 199.024C100.886 199.039 101.021 199.06 101.152 199.089C101.283 199.11 101.394 199.133 101.486 199.158C101.578 199.183 101.68 199.221 101.793 199.272C101.898 199.321 101.976 199.357 102.029 199.378C102.081 199.407 102.159 199.454 102.262 199.519C102.357 199.592 102.423 199.638 102.46 199.657C102.489 199.684 102.554 199.737 102.656 199.818C102.757 199.907 102.819 199.96 102.84 199.978L103.084 197.565C103.156 196.857 103.19 195.895 103.187 194.678L105.052 194.76C105.071 195.657 105.023 196.673 104.909 197.808L103.855 208.125Z" fill="#EFECDB"/>
<path d="M87.0478 203.864C86.3559 204.72 85.7607 205.409 85.2621 205.932C84.7618 206.462 83.963 207.258 82.8658 208.321L81.6802 206.945C82.3722 206.489 83.025 205.957 83.6387 205.347C84.2447 204.737 84.7585 204.182 85.1801 203.682C85.594 203.181 85.8873 202.866 86.0598 202.736C85.567 201.883 85.1143 200.812 84.7017 199.522C84.2799 198.237 83.9987 197.132 83.8582 196.205L85.6958 196.033C85.7145 196.749 85.8881 197.707 86.2166 198.907C86.5357 200.113 86.9207 201.201 87.3714 202.172L88.0467 202.32L89.1927 197.101L90.7379 197.44L89.5919 202.659L90.3817 202.833C91.1977 202.14 92.007 201.314 92.8095 200.354C93.6028 199.401 94.1579 198.603 94.4749 197.96L96.0712 198.887C95.5555 199.669 94.8408 200.556 93.9273 201.547C93.0045 202.545 92.1409 203.327 91.3365 203.894C91.4105 204.03 91.5378 204.434 91.7183 205.106C91.8895 205.783 92.1313 206.54 92.4435 207.377C92.7482 208.211 93.1169 208.936 93.5498 209.551L91.8094 210.429C91.593 209.957 91.408 209.525 91.2544 209.131C91.0933 208.736 90.9545 208.329 90.8382 207.912C90.7126 207.5 90.6177 207.168 90.5535 206.914C90.4817 206.658 90.3841 206.265 90.2607 205.734C90.1297 205.201 90.0278 204.791 89.9551 204.503L89.2225 204.342L88.162 209.172L86.6168 208.833L87.6773 204.003L87.0478 203.864Z" fill="#EFECDB"/>
<path d="M82.0778 198.99C82.2776 198.414 82.29 197.914 82.1148 197.49C81.9297 197.07 81.5789 196.77 81.0622 196.591C80.6267 196.44 80.188 196.358 79.7459 196.345C79.2938 196.337 78.9105 196.369 78.5958 196.442C78.2786 196.522 77.9609 196.639 77.6427 196.794C77.3172 196.945 77.0847 197.067 76.9452 197.159C76.8031 197.259 76.6622 197.367 76.5224 197.484L76.1574 198.536C76.7611 199.274 77.5463 199.812 78.5132 200.147C79.2981 200.411 80.0352 200.444 80.7245 200.245C81.4065 200.043 81.8576 199.625 82.0778 198.99ZM74.888 196.582C75.2159 195.637 75.3536 195.085 75.3012 194.927C75.2774 194.852 75.234 194.763 75.1711 194.658C75.1007 194.551 75.0146 194.418 74.9128 194.258C74.8011 194.104 74.721 193.989 74.6725 193.914L76.0486 192.916C76.0849 192.978 76.1711 193.099 76.3072 193.279C76.436 193.456 76.5258 193.59 76.5765 193.682C76.6247 193.782 76.6861 193.915 76.7606 194.081C76.8326 194.255 76.8773 194.436 76.8948 194.624C76.9023 194.817 76.8874 195.026 76.85 195.253C77.2054 195.087 77.5232 194.958 77.8035 194.865C78.0765 194.769 78.421 194.682 78.837 194.603C79.2531 194.524 79.6968 194.509 80.1681 194.556C80.6369 194.612 81.1296 194.729 81.6462 194.908C82.5836 195.233 83.2654 195.842 83.6918 196.734C84.1156 197.634 84.1661 198.549 83.8433 199.479C83.6922 199.914 83.4537 200.328 83.1277 200.719C82.7991 201.118 82.4198 201.424 81.9897 201.639C81.321 201.969 80.6766 202.134 80.0565 202.134C79.4338 202.141 78.7644 202.021 78.0485 201.772C76.8676 201.362 76.0362 200.863 75.5542 200.274C75.1854 201.337 75.1242 202.192 75.3707 202.84C75.6099 203.485 76.1944 203.969 77.1244 204.292C77.9141 204.566 78.5666 204.652 79.0818 204.549C79.5895 204.445 80.1956 204.08 80.9 203.456L82.0242 204.864C81.1794 205.654 80.3212 206.125 79.4497 206.277C78.5682 206.435 77.6071 206.333 76.5664 205.971C75.2379 205.51 74.3058 204.753 73.7703 203.699C73.2347 202.644 73.1847 201.49 73.6201 200.235L74.888 196.582Z" fill="#EFECDB"/>
<path d="M71.7812 190.866L67.3234 200.087C68.1252 200.475 68.9288 200.859 69.734 201.239C70.5288 201.623 71.0071 201.855 71.1689 201.933L70.3783 203.568C70.0055 203.388 68.75 202.781 66.6118 201.747C64.4631 200.717 63.03 200.029 62.3126 199.682C61.9609 199.512 61.494 199.221 60.912 198.81L62.0354 197.374C62.4307 197.67 62.8042 197.902 63.1559 198.072L65.6353 199.271L70.0931 190.05L71.7812 190.866Z" fill="#EFECDB"/>
<path d="M58.9338 190.425L60.7581 191.466C61.1181 190.917 61.8339 189.826 62.9054 188.193C62.5236 187.949 62.1954 187.73 61.9207 187.536C61.6395 187.337 61.3903 187.169 61.173 187.03C60.7649 186.769 60.4282 186.563 60.1631 186.412C59.8872 186.264 59.5932 186.136 59.2812 186.03C58.9585 185.925 58.6868 185.886 58.4663 185.912C58.2349 185.94 58.0005 186.032 57.7629 186.186C57.5211 186.346 57.2992 186.585 57.0973 186.901C56.8869 187.23 56.7838 187.558 56.788 187.885C56.7921 188.212 56.9033 188.525 57.1214 188.822C57.3287 189.121 57.579 189.397 57.8721 189.649C58.1586 189.897 58.5125 190.156 58.9338 190.425ZM58.9456 197.762L57.3657 196.752C57.6957 196.221 58.0794 195.613 58.517 194.929L59.8549 192.835C59.1208 192.533 58.4444 192.184 57.8256 191.789C57.1805 191.377 56.6448 190.96 56.2184 190.539C55.792 190.118 55.4558 189.658 55.2099 189.158C54.9532 188.66 54.8605 188.123 54.9317 187.547C54.9964 186.967 55.2285 186.365 55.6282 185.739C56.9451 183.679 59.0024 183.543 61.8001 185.331C62.0963 185.52 62.6792 185.907 63.5487 186.49C64.4224 187.067 65.06 187.484 65.4616 187.74C65.1713 188.195 64.5607 189.121 63.6298 190.519C62.6923 191.914 61.7272 193.388 60.7343 194.941C60.4945 195.316 60.1843 195.809 59.8038 196.419C59.4168 197.024 59.1307 197.472 58.9456 197.762Z" fill="#EFECDB"/>
<path d="M42.7442 190.489L49.4792 182.554L50.9848 183.786L44.5399 191.958L42.7442 190.489ZM52.5696 182.644L50.3022 180.789L52.3059 178.34L54.5733 180.196L52.5696 182.644Z" fill="#EFECDB"/>
<path d="M37.1764 180.617L36.0137 179.268C36.2269 178.573 36.5332 177.689 36.9326 176.614C37.327 175.533 37.6678 174.629 37.9552 173.901L38.4029 172.81C35.4255 173.605 33.1955 174.116 31.7129 174.342L30.526 172.983L39.5664 165.074L40.7533 166.433L34.3689 172.039C37.5762 171.281 39.3141 170.843 39.5824 170.722L40.6042 171.946C39.5698 174.301 38.9541 175.912 38.7569 176.779L45.031 171.332L46.2257 172.7L37.1764 180.617Z" fill="#EFECDB"/>
<ellipse cx="113.199" cy="84.8183" rx="33.7948" ry="38.8183" fill="#ECC7CF"/>
<ellipse cx="136.701" cy="102.631" rx="33.7948" ry="38.8183" transform="rotate(81.6837 136.701 102.631)" fill="#ECC7CF"/>
<ellipse cx="33.7948" cy="38.8183" rx="33.7948" ry="38.8183" transform="matrix(-0.264506 0.964384 0.964384 0.264506 58.8779 59.7715)" fill="#ECC7CF"/>
<ellipse cx="33.7948" cy="38.8183" rx="33.7948" ry="38.8183" transform="matrix(0.739603 0.673043 0.673043 -0.739603 44.9902 134.241)" fill="#ECC7CF"/>
<ellipse cx="33.7948" cy="38.8183" rx="33.7948" ry="38.8183" transform="matrix(0.957964 -0.286889 -0.286889 -0.957964 109.733 173.325)" fill="#ECC7CF"/>
<circle cx="113.493" cy="105.592" r="22.8343" fill="#FFF7E2"/>
<path d="M33.4566 160.713C32.5214 160.514 31.3116 160.928 29.8271 161.954L29.6536 162.074C28.6985 162.753 28.0606 163.479 27.7399 164.252C27.4192 165.024 27.5365 165.812 28.0919 166.616C28.4295 167.104 28.8115 167.457 29.2377 167.676C29.6596 167.887 30.117 167.965 30.6102 167.909C31.1034 167.853 31.6124 167.71 32.1373 167.48C32.6513 167.248 33.2168 166.919 33.8337 166.493C34.7848 165.835 35.3827 165.113 35.6273 164.327C35.8655 163.545 35.7091 162.755 35.1582 161.958C34.8986 161.597 34.6448 161.326 34.3969 161.146C34.1445 160.959 33.8311 160.815 33.4566 160.713ZM36.6657 160.945C37.5478 162.235 37.8269 163.49 37.5029 164.711C37.1725 165.937 36.3165 167.027 34.9348 167.982C34.35 168.387 33.7739 168.728 33.2065 169.006C32.6282 169.283 32.0401 169.49 31.4421 169.628C30.8333 169.764 30.2608 169.808 29.7248 169.761C29.1842 169.707 28.6633 169.531 28.162 169.231C27.6543 168.936 27.2116 168.516 26.834 167.97C26.1942 167.044 25.8373 166.185 25.7632 165.39C25.6783 164.594 25.8436 163.796 26.2592 162.996C26.7297 162.11 27.524 161.281 28.6422 160.508C29.2206 160.108 29.786 159.779 30.3386 159.521C30.8803 159.26 31.446 159.068 32.0355 158.946C32.6186 158.828 33.1753 158.808 33.7054 158.888C34.2246 158.966 34.7428 159.173 35.2599 159.509C35.7706 159.849 36.2347 160.321 36.6523 160.926L36.6657 160.945Z" fill="#EFECDB"/>
<path d="M33.7745 156.84L32.0654 157.494C32.0044 157.279 31.9464 157.12 31.8915 157.016C31.8147 156.871 31.721 156.753 31.6105 156.661C31.493 156.573 31.3218 156.5 31.0968 156.443C30.8648 156.389 30.5902 156.379 30.2731 156.415C29.9453 156.447 29.5262 156.532 29.0158 156.67C28.5053 156.808 27.9246 157.006 27.2737 157.262C26.6159 157.523 25.8308 157.868 24.9184 158.299C23.9991 158.733 22.9838 159.245 21.8725 159.834L20.1825 156.671L19.5294 155.439C18.9878 154.417 18.6283 153.706 18.451 153.305L29.0015 147.712L29.8907 149.389C29.518 149.587 28.6602 150.037 27.3175 150.74C25.9678 151.447 24.8322 152.04 23.9105 152.52L22.5279 153.239L20.861 154.123L22.579 157.364C23.3497 156.999 24.0203 156.688 24.5908 156.43C25.1613 156.172 25.8033 155.906 26.5167 155.634C27.2196 155.359 27.8385 155.15 28.3733 155.008C28.8975 154.863 29.4454 154.754 30.0168 154.681C30.5777 154.604 31.0669 154.601 31.4844 154.672C31.8951 154.746 32.278 154.901 32.6331 155.137C32.9845 155.367 33.2664 155.681 33.4786 156.082C33.5921 156.296 33.6907 156.548 33.7745 156.84Z" fill="#EFECDB"/>
<path d="M23.9778 141.79C23.1135 141.381 21.8409 141.505 20.16 142.161L19.9635 142.238C18.8776 142.679 18.0897 143.239 17.5997 143.917C17.1096 144.594 17.0423 145.388 17.3977 146.298C17.6138 146.851 17.9041 147.283 18.2686 147.593C18.6303 147.896 19.0576 148.078 19.5504 148.137C20.0432 148.196 20.5714 148.174 21.1352 148.071C21.6888 147.964 22.3149 147.774 23.0134 147.501C24.0904 147.08 24.8385 146.515 25.2577 145.806C25.6696 145.1 25.6993 144.296 25.3468 143.394C25.1774 142.982 24.9929 142.66 24.7931 142.427C24.5905 142.188 24.3187 141.975 23.9778 141.79ZM27.0472 142.754C27.6085 144.213 27.5909 145.499 26.9943 146.612C26.3905 147.729 25.3063 148.593 23.7418 149.204C23.0796 149.463 22.4404 149.662 21.8241 149.802C21.1977 149.938 20.5777 150.004 19.9641 150.001C19.3403 149.993 18.773 149.904 18.2622 149.735C17.7486 149.558 17.2824 149.266 16.8635 148.859C16.4373 148.455 16.1034 147.944 15.8617 147.326C15.4523 146.278 15.3031 145.359 15.4139 144.569C15.5146 143.775 15.8593 143.036 16.448 142.353C17.1098 141.6 18.0738 140.976 19.34 140.481C19.9949 140.225 20.621 140.035 21.2183 139.911C21.8055 139.782 22.4 139.726 23.002 139.743C23.5966 139.762 24.1427 139.872 24.6401 140.071C25.1275 140.267 25.5841 140.587 26.0099 141.033C26.4285 141.482 26.7714 142.049 27.0386 142.733L27.0472 142.754Z" fill="#EFECDB"/>
<path d="M13.9931 132.904L13.4036 133.058L14.2343 136.233C15.8517 135.81 17.4362 135.585 18.9879 135.558C20.53 135.526 21.8263 135.712 22.8767 136.115L21.512 130.9C21.3154 130.952 20.5692 131.155 19.2732 131.51C17.9752 131.858 16.8954 132.145 16.0338 132.37L13.9931 132.904ZM25.5842 126.419L26.0125 128.148L22.8776 128.944L24.8667 136.406L25.0481 136.359C25.4109 136.264 25.8226 136.14 26.2833 135.987C26.7496 135.824 27.1261 135.69 27.413 135.582L27.8403 135.41L28.4667 137.063C27.1458 137.57 25.8694 137.985 24.6375 138.307C24.3654 138.378 23.997 138.483 23.5324 138.621L23.3929 138.088C22.399 137.653 21.4373 137.388 20.5077 137.292C19.5686 137.191 18.6224 137.216 17.669 137.369C16.7061 137.516 15.4046 137.804 13.7645 138.233L12.9709 138.441L12.0962 135.145L11.8055 134.034C11.5128 132.915 11.3261 132.14 11.2456 131.709L21.0521 129.143L20.6753 127.703L25.5842 126.419Z" fill="#EFECDB"/>
<path d="M15.5725 126.79C15.2046 124.325 14.8124 122.298 14.3959 120.708C13.481 120.933 12.7877 121.356 12.316 121.976C11.8354 122.589 11.6519 123.294 11.7657 124.09C11.9016 125.042 12.3397 125.76 13.0799 126.247C13.8125 126.734 14.6433 126.915 15.5725 126.79ZM10.004 124.354C9.91787 123.751 9.92505 123.193 10.0256 122.682C10.125 122.162 10.283 121.722 10.4996 121.359C10.7161 120.997 10.9962 120.665 11.3398 120.363C11.6757 120.063 12.016 119.821 12.3607 119.637C12.6977 119.455 13.0656 119.296 13.4645 119.16C13.8622 119.016 14.2025 118.913 14.4854 118.848C14.7682 118.784 15.0488 118.732 15.3273 118.693C15.598 118.654 15.7648 118.634 15.8278 118.633C16.5536 122.057 17.0602 124.692 17.3474 126.537C18.3065 126.4 19.0555 126.009 19.5947 125.363C20.1328 124.71 20.3217 123.823 20.1615 122.702C20.0555 121.959 19.8113 121.355 19.429 120.889C19.0468 120.422 18.6297 120.072 18.1778 119.836L19.2385 118.229C19.4484 118.372 19.6108 118.487 19.7257 118.573C19.8395 118.652 20.0384 118.829 20.3223 119.104C20.5974 119.372 20.8256 119.643 21.0068 119.917C21.1802 120.193 21.3631 120.561 21.5553 121.023C21.7398 121.486 21.8691 121.976 21.9431 122.495C22.1829 124.173 21.8166 125.531 20.8443 126.57C19.8709 127.601 18.4484 128.25 16.5768 128.517C14.8521 128.763 13.3821 128.528 12.1668 127.809C10.9514 127.091 10.2305 125.939 10.004 124.354Z" fill="#EFECDB"/>
<path d="M19.3576 115.249L19.2227 110.235L9.0304 110.486L8.98092 108.646L19.0791 108.386L19.0322 106.641C19.5012 106.644 19.8802 106.642 20.1691 106.634C21.8716 106.588 23.1365 106.398 23.9637 106.063L24.4175 107.68C23.482 108.057 22.3195 108.276 20.93 108.337L20.9795 110.176L21.1772 117.087L9.21572 117.374L9.16593 115.523L19.3576 115.249Z" fill="#EFECDB"/>
<path d="M18.1089 102.512L18.3795 99.5826L21.456 99.7845L21.4911 99.7877C23.7237 99.994 25.1933 101.114 25.8997 103.149L24.2119 103.711C23.9525 103.122 23.602 102.67 23.1604 102.355C22.7266 102.04 22.1207 101.847 21.3428 101.775L21.2479 102.802L18.1089 102.512Z" fill="#EFECDB"/>
<path d="M23.9094 87.9541L14.0107 85.3236C13.782 86.1844 13.557 87.0461 13.3359 87.9089C13.1091 88.7621 12.9727 89.2755 12.9265 89.4492L11.1711 88.9827C11.2774 88.5825 11.6356 87.2348 12.2455 84.9394C12.8499 82.6345 13.2545 81.097 13.4591 80.3269C13.5594 79.9493 13.7565 79.4359 14.0504 78.7864L15.6725 79.6176C15.4575 80.0617 15.2999 80.4725 15.1996 80.85L14.4923 83.5115L24.3909 86.142L23.9094 87.9541Z" fill="#EFECDB"/>
<path d="M22.778 78.7341C23.3448 78.958 23.844 78.9914 24.2756 78.8343C24.7029 78.6671 25.0169 78.3291 25.2178 77.8205C25.3872 77.3918 25.4876 76.9569 25.519 76.5157C25.5461 76.0644 25.5299 75.68 25.4705 75.3625C25.4039 75.0422 25.3002 74.7199 25.1595 74.3955C25.0217 74.0639 24.9097 73.8264 24.8235 73.6832C24.73 73.5371 24.6278 73.3917 24.5169 73.2471L23.4815 72.8381C22.718 73.4101 22.1482 74.172 21.7722 75.1239C21.4753 75.897 21.4117 76.6321 21.5816 77.3292C21.7543 78.019 22.1531 78.4873 22.778 78.7341ZM25.4871 71.6522C26.4172 72.0195 26.9627 72.1804 27.1235 72.1347C27.1989 72.1141 27.2901 72.0745 27.3972 72.016C27.5072 71.9503 27.6439 71.8699 27.8074 71.7749C27.9666 71.6697 28.0845 71.5945 28.1612 71.5492L29.1009 72.9662C29.0372 72.9998 28.9128 73.0809 28.7276 73.2093C28.5453 73.3305 28.4072 73.4145 28.3131 73.4614C28.2117 73.5053 28.0763 73.561 27.9068 73.6285C27.7301 73.6931 27.5475 73.7302 27.3589 73.7397C27.166 73.7391 26.957 73.7153 26.7319 73.6684C26.8829 74.0304 26.9989 74.3535 27.0799 74.6375C27.1638 74.9142 27.2364 75.2621 27.2977 75.6811C27.359 76.1001 27.3558 76.544 27.2882 77.0129C27.2133 77.4789 27.0754 77.9662 26.8745 78.4749C26.51 79.3977 25.8731 80.0533 24.9637 80.4417C24.047 80.8272 23.1309 80.8391 22.2154 80.4775C21.7867 80.3081 21.3837 80.0524 21.0065 79.7102C20.622 79.3651 20.3316 78.9732 20.1353 78.5345C19.8335 77.8525 19.6958 77.2017 19.7221 76.5821C19.7412 75.9596 19.8899 75.296 20.1683 74.5912C20.6275 73.4286 21.1615 72.6189 21.7703 72.1622C20.724 71.7489 19.872 71.6518 19.2143 71.8708C18.5595 72.0825 18.0512 72.6461 17.6896 73.5617C17.3825 74.3392 17.2692 74.9874 17.3498 75.5064C17.4333 76.0182 17.7718 76.6391 18.3654 77.3692L16.912 78.4331C16.1582 77.5557 15.7235 76.6784 15.608 75.8012C15.4881 74.9139 15.6305 73.9579 16.0352 72.9334C16.5518 71.6255 17.348 70.7262 18.4238 70.2356C19.4996 69.7449 20.6551 69.7435 21.8904 70.2315L25.4871 71.6522Z" fill="#EFECDB"/>
<path d="M26.2698 64.4379C29.7352 63.3588 32.1468 62.7926 33.5044 62.7391L33.849 64.5049C33.1835 64.5565 32.1242 64.7562 30.6711 65.1042C29.2111 65.4485 27.9435 65.7894 26.8682 66.1268L27.4399 68.2134L30.5709 69.8881L29.7087 71.5001L19.1686 65.8625L20.0308 64.2504L25.1045 66.9643C24.997 66.5524 24.7399 65.6086 24.3331 64.1329C23.9231 62.6467 23.6017 61.4337 23.369 60.4941C23.133 59.5439 22.9742 58.7724 22.8926 58.1794L24.7618 57.8901C24.8212 59.2863 25.3239 61.4689 26.2698 64.4379Z" fill="#EFECDB"/>
<path d="M33.6521 47.6863L33.1706 47.3129L31.1599 49.9059C32.4811 50.9304 33.625 52.0497 34.5915 53.2638C35.5567 54.467 36.1994 55.6079 36.5196 56.6867L39.8228 52.4267C39.6623 52.3022 39.0463 51.8345 37.9748 51.0234C36.9082 50.2061 36.0229 49.5246 35.3191 48.9789L33.6521 47.6863ZM45.8578 52.9245L44.7478 54.3178L42.2062 52.3173L37.5017 58.4417L37.6498 58.5566C37.9462 58.7864 38.2953 59.0374 38.6972 59.3095C39.1101 59.5802 39.4465 59.7966 39.7065 59.9586L40.1035 60.1924L39.1746 61.6964C37.9675 60.9581 36.8608 60.1988 35.8545 59.4185C35.6322 59.2462 35.3249 59.0178 34.9326 58.7333L35.2701 58.298C35.0088 57.2453 34.633 56.3211 34.1426 55.5257C33.6508 54.7192 33.054 53.9845 32.352 53.3216C31.6487 52.6477 30.6272 51.7913 29.2875 50.7525L28.6392 50.2498L30.7196 47.5477L31.4233 46.6402C32.1319 45.7264 32.6325 45.1063 32.9253 44.7797L40.9359 50.9913L41.8479 49.8152L45.8578 52.9245Z" fill="#EFECDB"/>
<path d="M39.6699 44.9464C41.4042 43.1566 42.7762 41.6132 43.7859 40.3164C43.0511 39.7268 42.2942 39.4329 41.5153 39.4347C40.7362 39.4256 40.0649 39.7082 39.5013 40.2825C38.8283 40.9684 38.5236 41.7531 38.5873 42.6364C38.6453 43.5142 39.0062 44.2842 39.6699 44.9464ZM38.2217 39.0434C38.6485 38.6084 39.0956 38.2755 39.563 38.0445C40.0358 37.808 40.482 37.6657 40.9014 37.6175C41.3208 37.5693 41.7546 37.59 42.203 37.6797C42.6457 37.7639 43.0447 37.8872 43.3998 38.0495C43.7493 38.2064 44.0992 38.402 44.4495 38.6362C44.8052 38.8649 45.0945 39.0721 45.3172 39.2578C45.54 39.4435 45.7517 39.6348 45.9525 39.8318C46.1476 40.0233 46.2648 40.1437 46.3039 40.1931C44.0254 42.8499 42.2407 44.8529 40.9497 46.2021C41.6412 46.8806 42.407 47.2379 43.247 47.2742C44.0926 47.3048 44.9121 46.9158 45.7054 46.1073C46.2307 45.5719 46.5624 45.0108 46.7004 44.4239C46.8385 43.837 46.8637 43.2926 46.7761 42.7907L48.6973 42.6564C48.7108 42.9104 48.7182 43.1092 48.7196 43.2528C48.7264 43.3909 48.7068 43.6563 48.6608 44.0489C48.6147 44.4306 48.5379 44.7766 48.4304 45.087C48.3173 45.3919 48.1357 45.761 47.8857 46.1943C47.6301 46.6221 47.319 47.0228 46.9524 47.3964C45.7651 48.6065 44.4636 49.141 43.048 48.9997C41.6378 48.8529 40.258 48.1174 38.9085 46.7933C37.6649 45.5731 36.9592 44.2622 36.7912 42.8606C36.6232 41.459 37.1 40.1866 38.2217 39.0434Z" fill="#EFECDB"/>
<path d="M53.0003 33.7207C52.2011 32.7293 51.4404 32.1032 50.7184 31.8423C49.9963 31.5815 49.2643 31.7501 48.5222 32.3483C48.1086 32.6818 47.8091 33.0135 47.6237 33.3436C47.4333 33.6677 47.3254 34.0006 47.2998 34.3423C47.2754 34.673 47.2966 35.1226 47.3634 35.6909L50.5701 39.6687C51.2524 39.7308 51.7253 39.751 51.9887 39.7293C52.4717 39.6811 52.8866 39.5173 53.2332 39.2378C54.9363 37.8649 54.8586 36.0258 53.0003 33.7207ZM45.6386 36.4642L45.4621 36.2452C44.9228 35.5762 44.2888 34.9081 43.5604 34.241L44.9095 32.8523C45.294 33.2047 45.5628 33.4697 45.7159 33.6473C45.8901 32.5937 46.4425 31.6918 47.3731 30.9416C48.5652 29.9805 49.7555 29.6582 50.9438 29.9747C52.1273 30.2851 53.2436 31.091 54.2929 32.3926C57.0044 35.7561 56.9886 38.5435 54.2455 40.7549C54.136 40.8431 54.0247 40.9229 53.9115 40.994C53.8032 41.0713 53.7076 41.1333 53.6249 41.18C53.5421 41.2266 53.4428 41.2715 53.327 41.3147C53.2174 41.3529 53.1363 41.3831 53.084 41.4053C53.0267 41.4213 52.9383 41.4424 52.8188 41.4685C52.7005 41.4836 52.6213 41.4973 52.5811 41.5096C52.542 41.511 52.4579 41.5186 52.3286 41.5325C52.1944 41.5404 52.1133 41.5456 52.0852 41.5481L53.6077 43.4366C54.0539 43.9901 54.7056 44.699 55.5629 45.5633L54.1785 46.8148C53.5344 46.1901 52.8544 45.4337 52.1385 44.5457L45.6386 36.4642Z" fill="#EFECDB"/>
<path d="M60.2342 27.8658C60.1228 26.7708 60.0603 25.8624 60.0465 25.1403C60.0286 24.4117 60.035 23.2837 60.0658 21.7564L61.8767 21.8988C61.7063 22.7098 61.6177 23.5477 61.6108 24.4123C61.6105 25.2727 61.6364 26.0287 61.6886 26.6801C61.7474 27.3273 61.7614 27.7578 61.7305 27.9717C62.6803 28.2298 63.756 28.6718 64.9575 29.2976C66.1614 29.9126 67.1395 30.4997 67.8917 31.0589L66.7083 32.4751C66.1908 31.9799 65.3931 31.4219 64.315 30.8011C63.2393 30.1694 62.1997 29.6676 61.1961 29.2956L60.6121 29.6658L63.4733 34.179L62.1371 35.0261L59.276 30.5128L58.593 30.9458C58.5013 32.0122 58.5083 33.1686 58.614 34.4151C58.7221 35.6508 58.8898 36.6083 59.1169 37.2876L57.3311 37.7537C57.1463 36.8348 57.0293 35.7019 56.9801 34.3548C56.9333 32.9969 56.9959 31.8334 57.1677 30.8642C57.0192 30.8196 56.6444 30.6224 56.0434 30.2727C55.4449 29.9121 54.7403 29.5448 53.9296 29.1707C53.1255 28.7924 52.3533 28.5373 51.6129 28.4054L52.2309 26.5568C52.7165 26.7392 53.1524 26.9161 53.5386 27.0875C53.9314 27.2548 54.3161 27.4457 54.6926 27.6603C55.0715 27.864 55.3732 28.0335 55.5977 28.1687C55.8287 28.2998 56.175 28.5104 56.6365 28.8006C57.1046 29.0866 57.4658 29.3062 57.7202 29.4595L58.3536 29.0579L55.7058 24.8812L57.042 24.0341L59.6898 28.2108L60.2342 27.8658Z" fill="#EFECDB"/>
<path d="M67.4739 27.6139C67.7371 28.1636 68.0803 28.5276 68.5035 28.706C68.9305 28.8741 69.3906 28.84 69.8838 28.6038C70.2996 28.4047 70.669 28.1542 70.9921 27.8522C71.3189 27.5398 71.5686 27.2471 71.7409 26.9739C71.91 26.6938 72.0532 26.387 72.1707 26.0535C72.2953 25.7167 72.3747 25.4665 72.4089 25.3028C72.4398 25.1321 72.4638 24.9561 72.4809 24.7746L72.0001 23.7705C71.0513 23.6705 70.1154 23.8414 69.1923 24.2834C68.4488 24.6481 67.9022 25.1437 67.5525 25.7703C67.2099 26.3934 67.1837 27.008 67.4739 27.6139ZM74.2769 24.2654C74.7088 25.1674 74.9992 25.6563 75.1482 25.7322C75.2175 25.7683 75.3112 25.8014 75.4295 25.8314C75.5549 25.858 75.7098 25.8921 75.8943 25.9336C76.0825 25.9648 76.2201 25.9899 76.3071 26.0088L76.0321 27.6867C75.9625 27.668 75.8162 27.6428 75.5931 27.611C75.377 27.5759 75.2186 27.5435 75.1178 27.5138C75.0136 27.4771 74.8764 27.4258 74.7063 27.36C74.5328 27.2872 74.3738 27.1901 74.2291 27.0688C74.088 26.9371 73.951 26.7776 73.8179 26.5901C73.6823 26.9582 73.5477 27.2739 73.4139 27.5371C73.2871 27.7971 73.1037 28.1014 72.8636 28.4503C72.6236 28.7991 72.3193 29.1224 71.9508 29.4201C71.5789 29.7108 71.1463 29.9742 70.6531 30.2104C69.7582 30.6389 68.8454 30.6862 67.9146 30.3523C66.9804 30.0114 66.3008 29.397 65.8756 28.5092C65.6766 28.0934 65.5552 27.6318 65.5114 27.1244C65.4643 26.6099 65.518 26.1251 65.6725 25.67C65.9152 24.9648 66.2569 24.3941 66.6977 23.9578C67.135 23.5145 67.6955 23.1292 68.379 22.8019C69.5064 22.2621 70.4485 22.0318 71.2055 22.1111C70.7196 21.0965 70.1611 20.4457 69.5301 20.1589C68.906 19.8687 68.1501 19.9361 67.2623 20.3613C66.5083 20.7223 65.9843 21.1204 65.6904 21.5557C65.4034 21.9876 65.2292 22.673 65.1678 23.612L63.3787 23.4032C63.4229 22.2473 63.701 21.3086 64.2131 20.587C64.7287 19.855 65.4834 19.2511 66.4769 18.7754C67.7452 18.1681 68.9406 18.0504 70.0629 18.4225C71.1852 18.7946 72.0332 19.5796 72.6068 20.7775L74.2769 24.2654Z" fill="#EFECDB"/>
<path d="M80.3657 26.1448L77.0443 16.4561C76.2018 16.7449 75.3606 17.0374 74.5206 17.3336C73.6855 17.6199 73.183 17.7922 73.013 17.8504L72.424 16.1322C72.8157 15.9979 74.1348 15.5457 76.3815 14.7755C78.633 13.9954 80.1357 13.4762 80.8895 13.2177C81.259 13.0911 81.7953 12.9692 82.4984 12.852L82.7102 14.6624C82.2216 14.7308 81.7926 14.8283 81.4231 14.955L78.818 15.848L82.1394 25.5367L80.3657 26.1448Z" fill="#EFECDB"/>
<path d="M89.8895 17.3469L87.8611 17.892C87.9918 18.5351 88.2514 19.8138 88.64 21.728C89.083 21.6326 89.4703 21.5571 89.802 21.5016C90.1413 21.4444 90.437 21.3887 90.689 21.3343C91.1625 21.2323 91.5465 21.1415 91.8411 21.062C92.1416 20.9733 92.4402 20.857 92.7369 20.7131C93.0396 20.56 93.2601 20.3966 93.3985 20.2229C93.5428 20.0399 93.6451 19.8101 93.7054 19.5333C93.764 19.249 93.7537 18.9235 93.6747 18.5569C93.5924 18.1751 93.4346 17.8694 93.2014 17.64C92.9681 17.4106 92.6695 17.2672 92.3054 17.2097C91.9474 17.1431 91.5755 17.1233 91.1898 17.1505C90.8117 17.1761 90.3782 17.2415 89.8895 17.3469ZM84.7162 12.1444L86.5491 11.7493C86.6884 12.3586 86.8437 13.0604 87.0149 13.8547L87.5384 16.2833C88.2724 15.9812 88.9984 15.7528 89.7163 15.598C90.4647 15.4367 91.1385 15.3554 91.7376 15.3541C92.3368 15.3529 92.8997 15.4433 93.4265 15.6255C93.9592 15.7983 94.403 16.1143 94.7576 16.5733C95.12 17.0307 95.3793 17.6221 95.5357 18.3476C96.0509 20.738 94.6857 22.2831 91.4399 22.9827C91.0962 23.0567 90.4102 23.1926 89.3819 23.3903C88.3553 23.5956 87.609 23.7485 87.1431 23.8489C87.0296 23.3219 86.8111 22.2342 86.4877 20.5856C86.172 18.9354 85.8199 17.2091 85.4314 15.4068C85.3375 14.9714 85.2111 14.4033 85.052 13.7023C84.9005 12.9997 84.7886 12.4804 84.7162 12.1444Z" fill="#EFECDB"/>
<path d="M101.065 5.90494L101.884 16.2806L99.9479 16.4686L98.7553 6.12926L101.065 5.90494ZM99.6288 18.3952L102.545 18.112L102.851 21.2613L99.9347 21.5445L99.6288 18.3952Z" fill="#EFECDB"/>
<path d="M112.851 8.96503L114.626 9.1146C114.96 9.75957 115.36 10.6056 115.828 11.6527C116.303 12.7005 116.692 13.5849 116.997 14.3059L117.441 15.3982C119.01 12.7462 120.245 10.8203 121.145 9.6208L122.945 9.76051L122.027 21.7371L120.227 21.5974L120.862 13.125C119.102 15.9111 118.168 17.4411 118.06 17.7149L116.474 17.5564C115.564 15.1506 114.876 13.5692 114.409 12.8121L113.743 21.0939L111.932 20.9533L112.851 8.96503Z" fill="#EFECDB"/>
<path d="M129.367 20.5582C130.175 20.0476 130.752 18.9067 131.099 17.1356L131.139 16.9286C131.349 15.7755 131.299 14.8104 130.989 14.0334C130.679 13.2564 130.045 12.7742 129.087 12.5867C128.504 12.4728 127.984 12.4865 127.527 12.6278C127.077 12.7707 126.695 13.0344 126.381 13.4187C126.067 13.8031 125.802 14.2608 125.587 14.7919C125.381 15.3168 125.206 15.9472 125.062 16.6833C124.84 17.818 124.916 18.7523 125.29 19.4862C125.665 20.2124 126.328 20.6684 127.279 20.8544C127.717 20.9322 128.088 20.949 128.391 20.9048C128.702 20.8621 129.027 20.7465 129.367 20.5582ZM126.907 22.6325C125.375 22.3249 124.299 21.6209 123.678 20.5204C123.059 19.4122 122.911 18.0339 123.233 16.3854C123.37 15.6877 123.544 15.0411 123.756 14.4458C123.977 13.8442 124.254 13.2853 124.585 12.7691C124.926 12.2467 125.305 11.8153 125.722 11.4749C126.147 11.136 126.643 10.8987 127.211 10.763C127.78 10.6196 128.39 10.6117 129.042 10.7391C130.146 10.955 131.002 11.3214 131.609 11.8382C132.226 12.3489 132.665 13.0357 132.926 13.8987C133.207 14.8613 133.218 16.0096 132.957 17.3437C132.822 18.0338 132.647 18.6642 132.432 19.2351C132.226 19.7998 131.954 20.3319 131.618 20.8313C131.283 21.323 130.898 21.7253 130.462 22.0382C130.036 22.3449 129.521 22.5585 128.916 22.6791C128.313 22.792 127.651 22.7779 126.93 22.637L126.907 22.6325Z" fill="#EFECDB"/>
<path d="M131.944 23.5556L132.712 21.8948C132.906 22.0064 133.059 22.0802 133.17 22.1161C133.326 22.1663 133.476 22.1858 133.619 22.1744C133.765 22.1556 133.938 22.0883 134.14 21.9726C134.343 21.8494 134.546 21.6644 134.749 21.4177C134.961 21.166 135.202 20.8126 135.472 20.3577C135.741 19.9028 136.02 19.3563 136.307 18.7184C136.597 18.073 136.918 17.2778 137.272 16.3328C137.627 15.3803 137.998 14.3054 138.383 13.1081L141.8 14.1954L143.128 14.6226C144.229 14.9768 144.982 15.2358 145.389 15.3996L141.731 26.7669L139.924 26.1853C140.053 25.7837 140.354 24.8628 140.825 23.4224C141.3 21.9746 141.699 20.7573 142.025 19.7706L142.514 18.2905L143.092 16.4945L139.6 15.3709C139.302 16.1696 139.039 16.8604 138.81 17.4434C138.581 18.0264 138.306 18.6642 137.985 19.3568C137.674 20.0445 137.376 20.6257 137.092 21.1006C136.817 21.5704 136.501 22.0307 136.142 22.4817C135.794 22.9275 135.445 23.2709 135.097 23.5117C134.751 23.7451 134.368 23.901 133.949 23.9795C133.537 24.0604 133.116 24.0314 132.685 23.8926C132.454 23.8184 132.207 23.7061 131.944 23.5556Z" fill="#EFECDB"/>
<path d="M149.418 27.4857C150.323 27.1772 151.15 26.202 151.899 24.56L151.986 24.3681C152.458 23.2954 152.634 22.3452 152.514 21.5174C152.393 20.6897 151.889 20.0731 151 19.6679C150.46 19.4215 149.951 19.3138 149.473 19.3449C149.002 19.3792 148.57 19.5467 148.175 19.8475C147.78 20.1483 147.416 20.5319 147.083 20.9983C146.761 21.4608 146.444 22.0333 146.132 22.7156C145.653 23.7676 145.509 24.694 145.702 25.4947C145.898 26.2883 146.437 26.8861 147.318 27.2881C147.727 27.4658 148.084 27.5684 148.389 27.5959C148.701 27.6267 149.044 27.59 149.418 27.4857ZM146.543 28.931C145.125 28.2754 144.242 27.3403 143.894 26.1256C143.55 24.9038 143.727 23.5288 144.424 22.0006C144.719 21.3537 145.038 20.7654 145.383 20.2357C145.738 19.7021 146.137 19.2229 146.58 18.798C147.033 18.3693 147.502 18.0379 147.986 17.8038C148.478 17.573 149.016 17.4576 149.6 17.4577C150.187 17.4507 150.782 17.585 151.387 17.8606C152.41 18.3274 153.157 18.8828 153.628 19.5268C154.109 20.1669 154.376 20.937 154.429 21.837C154.479 22.8386 154.221 23.9578 153.657 25.1946C153.365 25.8344 153.049 26.4068 152.707 26.912C152.375 27.4133 151.987 27.8676 151.544 28.2751C151.104 28.6754 150.635 28.977 150.139 29.18C149.653 29.3792 149.102 29.4671 148.486 29.4436C147.873 29.4131 147.233 29.2454 146.565 28.9407L146.543 28.931Z" fill="#EFECDB"/>
<path d="M162.537 26.7443L162.852 26.2225L160.043 24.5273C159.179 25.9588 158.2 27.2252 157.107 28.3265C156.024 29.4251 154.966 30.1963 153.932 30.6398L158.547 33.4248C158.652 33.2509 159.045 32.5846 159.726 31.426C160.414 30.2715 160.987 29.3129 161.448 28.5503L162.537 26.7443ZM158.755 39.4767L157.242 38.5364L158.933 35.7792L152.303 31.8195L152.206 31.9801C152.012 32.3011 151.804 32.6771 151.58 33.108C151.359 33.5496 151.184 33.9089 151.053 34.1859L150.867 34.6075L149.265 33.8599C149.858 32.5751 150.483 31.3876 151.141 30.2973C151.286 30.0565 151.478 29.7246 151.714 29.3019L152.186 29.5864C153.201 29.2044 154.075 28.7236 154.808 28.1439C155.552 27.5616 156.212 26.8833 156.789 26.1089C157.376 25.332 158.108 24.2177 158.984 22.7662L159.408 22.0638L162.334 23.8156L163.317 24.4089C164.307 25.0062 164.981 25.4313 165.34 25.6841L160.103 34.3632L161.377 35.1321L158.755 39.4767Z" fill="#EFECDB"/>
<path d="M166.029 32.457C168.007 33.9731 169.699 35.1579 171.103 36.0112C171.604 35.2132 171.809 34.4275 171.717 33.654C171.636 32.8791 171.278 32.2448 170.643 31.7513C169.884 31.162 169.069 30.9499 168.199 31.115C167.334 31.274 166.61 31.7213 166.029 32.457ZM171.726 30.3372C172.207 30.711 172.589 31.1166 172.873 31.5543C173.162 31.9967 173.355 32.4234 173.451 32.8344C173.548 33.2455 173.577 33.6788 173.54 34.1345C173.507 34.5841 173.431 34.9945 173.31 35.366C173.195 35.7313 173.041 36.1015 172.849 36.4764C172.663 36.8562 172.49 37.1674 172.332 37.4101C172.173 37.6528 172.007 37.8852 171.835 38.1073C171.667 38.3233 171.561 38.4536 171.516 38.4981C168.614 36.5415 166.419 34.9998 164.93 33.8732C164.335 34.6383 164.069 35.4402 164.13 36.2789C164.197 37.1223 164.678 37.8914 165.573 38.5862C166.165 39.0461 166.761 39.3108 167.36 39.3803C167.959 39.4497 168.502 39.4119 168.991 39.2669L169.346 41.1598C169.095 41.2025 168.898 41.2328 168.756 41.2508C168.62 41.2735 168.354 41.2847 167.958 41.2843C167.574 41.2825 167.221 41.2462 166.901 41.1752C166.585 41.098 166.197 40.9602 165.738 40.7619C165.283 40.5574 164.849 40.2946 164.436 39.9736C163.097 38.9338 162.416 37.7027 162.393 36.2803C162.376 34.8626 162.947 33.4071 164.107 31.9138C165.175 30.5378 166.396 29.6854 167.769 29.3568C169.142 29.0282 170.461 29.355 171.726 30.3372Z" fill="#EFECDB"/>
<path d="M171.041 43.0949L174.631 46.5976L181.768 39.3166L183.085 40.6014L176.022 47.8235L177.272 49.0429C176.933 49.3675 176.663 49.6332 176.461 49.8401C175.272 51.0591 174.497 52.0769 174.137 52.8935L172.685 52.0495C173.093 51.1274 173.775 50.1605 174.729 49.1488L173.412 47.8639L168.455 43.0438L176.836 34.5045L178.161 35.7975L171.041 43.0949Z" fill="#EFECDB"/>
<path d="M180.635 51.1215L182.487 53.4061L180.145 55.4111L180.118 55.4333C178.377 56.8456 176.542 57.0708 174.615 56.1087L175.43 54.5275C176.027 54.7675 176.594 54.8461 177.13 54.7632C177.661 54.6853 178.229 54.4002 178.836 53.9081L178.186 53.1072L180.635 51.1215Z" fill="#EFECDB"/>
<path d="M186.736 65.6926L195.659 60.6635C195.222 59.8877 194.781 59.1137 194.337 58.3417C193.903 57.5726 193.642 57.1098 193.554 56.9533L195.137 56.0614C195.34 56.4221 196.025 57.6369 197.191 59.7059C198.368 61.7779 199.152 63.161 199.543 63.8552C199.735 64.1954 199.952 64.7006 200.195 65.3707L198.454 65.9084C198.297 65.4404 198.124 65.0363 197.932 64.696L196.579 62.2969L187.657 67.326L186.736 65.6926Z" fill="#EFECDB"/>
<path d="M193.934 71.3738C193.373 71.6102 192.993 71.9356 192.794 72.3498C192.606 72.7682 192.618 73.2294 192.83 73.7334C193.009 74.1582 193.241 74.5392 193.528 74.8765C193.824 75.2179 194.104 75.4813 194.369 75.6666C194.641 75.8489 194.94 76.0067 195.268 76.1401C195.598 76.2807 195.844 76.372 196.006 76.4141C196.175 76.4531 196.35 76.4855 196.53 76.5113L197.556 76.0792C197.702 75.1364 197.576 74.1933 197.179 73.2501C196.85 72.4899 196.381 71.9202 195.772 71.5408C195.166 71.1687 194.554 71.113 193.934 71.3738ZM196.952 78.3297C196.031 78.7178 195.529 78.9844 195.446 79.1296C195.406 79.197 195.369 79.2891 195.333 79.4058C195.3 79.5297 195.259 79.6828 195.209 79.8651C195.168 80.0516 195.137 80.1878 195.114 80.2738L193.451 79.9186C193.473 79.85 193.505 79.7051 193.548 79.4837C193.593 79.2696 193.633 79.1129 193.667 79.0136C193.709 78.9113 193.767 78.7768 193.841 78.61C193.922 78.4403 194.027 78.286 194.155 78.1473C194.293 78.0128 194.459 77.8836 194.653 77.7596C194.291 77.6065 193.983 77.4569 193.726 77.3106C193.472 77.1715 193.177 76.9737 192.84 76.7171C192.503 76.4606 192.195 76.1411 191.915 75.7588C191.643 75.3734 191.401 74.9287 191.188 74.4247C190.803 73.5102 190.8 72.5962 191.178 71.6825C191.563 70.7658 192.21 70.1164 193.117 69.7344C193.542 69.5555 194.009 69.4564 194.518 69.4371C195.034 69.4147 195.515 69.4916 195.963 69.6678C196.655 69.944 197.209 70.3128 197.624 70.774C198.045 71.2321 198.403 71.8104 198.697 72.5088C199.183 73.6608 199.367 74.613 199.252 75.3652C200.289 74.9286 200.965 74.402 201.282 73.7855C201.602 73.1761 201.571 72.4178 201.189 71.5106C200.864 70.7401 200.492 70.1977 200.071 69.8831C199.654 69.5758 198.977 69.3689 198.043 69.2624L198.337 67.4855C199.489 67.5851 200.414 67.908 201.11 68.454C201.816 69.0043 202.383 69.787 202.811 70.8022C203.356 72.0983 203.416 73.2979 202.991 74.401C202.565 75.5042 201.741 76.3135 200.517 76.8289L196.952 78.3297Z" fill="#EFECDB"/>
<path d="M201.499 84.2178C199.774 87.411 198.444 89.501 197.51 90.4878L196.03 89.4653C196.47 88.9634 197.088 88.0803 197.885 86.8161C198.689 85.5498 199.357 84.4202 199.891 83.4276L198.024 82.3342L194.614 83.3236L194.105 81.5679L205.584 78.2371L206.094 79.9928L200.568 81.5962C200.932 81.8157 201.776 82.3113 203.098 83.0828C204.429 83.8597 205.507 84.5029 206.33 85.0125C207.163 85.5275 207.815 85.9685 208.288 86.3357L207.153 87.8487C206.135 86.8913 204.25 85.681 201.499 84.2178Z" fill="#EFECDB"/>
<path d="M207.944 101.724L208.55 101.657L208.186 98.3957C206.524 98.5814 204.924 98.5755 203.384 98.378C201.854 98.1875 200.598 97.8169 199.616 97.2662L200.215 102.623C200.417 102.601 201.185 102.507 202.519 102.342C203.853 102.185 204.963 102.058 205.848 101.959L207.944 101.724ZM195.539 106.471L195.365 104.698L198.582 104.363L197.689 96.6915L197.503 96.7124C197.13 96.754 196.705 96.8173 196.227 96.9021C195.742 96.9956 195.35 97.0748 195.051 97.1397L194.603 97.2487L194.221 95.5226C195.602 95.2111 196.925 94.9846 198.19 94.8432C198.47 94.812 198.849 94.7617 199.329 94.6924L199.39 95.2397C200.311 95.8129 201.224 96.2139 202.13 96.4428C203.045 96.6786 203.985 96.7898 204.951 96.7762C205.925 96.7695 207.254 96.6721 208.939 96.4838L209.754 96.3927L210.144 99.7804L210.272 100.922C210.4 102.071 210.473 102.865 210.491 103.303L200.417 104.429L200.582 105.908L195.539 106.471Z" fill="#EFECDB"/>
</svg>
