<svg width="415" height="143" viewBox="0 0 415 143" fill="none" xmlns="http://www.w3.org/2000/svg">
<path d="M39.844 53.3184L38.7173 44.9415L34.6873 52.6289C35.5264 52.6055 36.2789 52.7467 37.4042 52.9023L39.844 53.3184ZM38.0618 41.9112L40.3596 42.3424L42.5921 58.4663C42.6466 58.9912 42.6842 60.125 42.5749 60.8556L40.3712 60.4421C40.4292 60.133 40.4495 59.1353 40.4101 58.7523L39.999 55.754C38.0967 55.4387 35.1221 54.9084 33.5624 54.9913L32.3183 57.2478C32.1108 57.6123 31.7613 58.4369 31.6907 58.8132L29.5138 58.4047C29.5979 58.031 30.0616 56.8939 30.3447 56.3489L38.0618 41.9112ZM49.4729 47.8918L48.3172 53.9764C49.6064 53.9262 50.8871 54.0691 52.4996 54.3717L54.569 54.76C55.2599 51.0782 55.2061 51.2907 55.6146 49.1138L57.7511 49.5148L55.1791 63.2208L53.056 62.8224L54.1857 56.8025L53.4466 56.6638C51.4176 56.2831 49.5825 55.9805 47.9339 56.0189C47.069 60.6279 47.3581 59.2354 46.9017 61.6676L44.7383 61.2616L47.3179 47.5152L49.4729 47.8918ZM62.9245 50.4856L70.6375 51.9329C71.6453 52.122 72.1206 52.406 72.7118 52.7395L71.7928 54.598C71.2393 54.2855 71.0076 54.1863 70.2223 53.9972L64.6996 52.9609L62.5159 64.5976L60.3525 64.1916L62.9245 50.4856ZM72.0153 66.3106L72.6614 64.2758C72.842 64.3514 73.0225 64.427 73.2241 64.4648C74.3932 64.6842 75.9949 63.6354 77.939 53.2752L82.0534 54.0334L83.6524 54.3335C84.7005 54.5301 85.6411 54.7067 86.3835 54.9016L83.8141 68.5943L81.6372 68.1858C82.0869 65.8636 83.4653 58.6663 83.4788 58.6688L83.8847 56.5054L79.6789 55.7161C78.3065 61.621 76.6713 67.2956 72.9223 66.5921C72.6401 66.5392 72.3252 66.4383 72.0153 66.3106ZM98.4797 57.1576L100.614 57.5719C100.614 57.5719 99.6454 62.5093 99.0604 65.6268C98.6494 67.817 98.3006 69.8243 98.0963 71.3578L95.9866 70.9619C96.2969 68.6414 96.4683 67.7277 96.9373 65.2284C97.1592 64.0459 97.7795 61.1854 97.7795 61.1854C95.3922 64.0481 91.8088 67.5767 89.6518 69.7314L87.5051 69.3843L90.0872 55.6244L92.2237 56.0254C91.8833 57.8394 90.863 62.9061 90.2477 66.1848C93.3573 63.1794 95.4406 60.4544 98.4797 57.1576ZM110.532 55.0513C111.983 55.3236 113.244 54.6838 113.521 53.6508L115.676 54.4725C114.907 56.7904 112.363 57.5233 110.146 57.1072C108.453 56.7895 106.128 55.6856 106.051 52.5411L108.223 52.5314C108.29 54.1716 109.282 54.8168 110.532 55.0513ZM112.723 59.8304L114.857 60.2448C114.857 60.2448 113.889 65.1821 113.304 68.2996C112.893 70.4899 112.544 72.4971 112.34 74.0306L110.23 73.6348C110.54 71.3143 110.712 70.4005 111.181 67.9012C111.403 66.7187 112.023 63.8582 112.023 63.8582C109.636 66.721 106.052 70.2495 103.895 72.4043L101.749 72.0571L104.331 58.2973L106.467 58.6982C106.127 60.5122 105.107 65.5789 104.491 68.8576C107.601 65.8523 109.684 63.1272 112.723 59.8304ZM118.83 67.8343C117.897 72.8061 120.661 73.4221 122.139 73.6995L122.314 73.7323C124.41 74.1256 125.582 73.4413 126.5 72.4034L127.964 73.9439C127.414 74.4251 125.721 76.5555 121.972 75.852C120.574 75.5898 118.942 75.1721 117.833 73.9626C116.341 72.2776 116.192 70.1074 116.694 67.4334C117.619 62.5019 120.324 61.2845 124.556 62.0787C125.833 62.3183 126.767 62.8274 127.457 63.5968C128.158 64.3822 128.424 65.2666 128.588 66.0208L126.367 66.4387C126.323 65.86 126.173 64.5104 124.023 64.1069C121.053 63.5497 119.433 64.6228 118.83 67.8343ZM137.414 71.099C138.729 72.9872 141.178 76.688 141.844 78.5517L140.001 79.5551C139.393 78.05 137.172 74.3921 135.745 72.3577L133.624 73.7264L132.86 77.7979L130.764 77.4045L133.336 63.6984L135.432 64.0918L134.194 70.6895C137.018 68.9103 141.099 66.1427 143.192 65.1444L144.17 67.1224C141.93 67.9401 139.209 69.8361 137.414 71.099ZM155.454 67.8489L157.588 68.2633C157.588 68.2633 156.62 73.2006 156.035 76.3181C155.624 78.5084 155.275 80.5156 155.071 82.0491L152.961 81.6533C153.271 79.3328 153.443 78.419 153.912 75.9197C154.134 74.7372 154.754 71.8767 154.754 71.8767C152.366 74.7395 148.783 78.268 146.626 80.4228L144.479 80.0756L147.062 66.3158L149.198 66.7167C148.858 68.5307 147.837 73.5974 147.222 76.8761C150.332 73.8708 152.415 71.1457 155.454 67.8489ZM167.506 65.7426C168.957 66.015 170.218 65.3752 170.495 64.3422L172.65 65.1639C171.882 67.4818 169.338 68.2146 167.12 67.7985C165.427 67.4808 163.103 66.3769 163.025 63.2325L165.197 63.2227C165.265 64.863 166.257 65.5081 167.506 65.7426ZM169.698 70.5217L171.832 70.9361C171.832 70.9361 170.863 75.8735 170.278 78.9909C169.867 81.1812 169.518 83.1884 169.314 84.722L167.205 84.3261C167.515 82.0056 167.686 81.0919 168.155 78.5925C168.377 77.41 168.997 74.5496 168.997 74.5496C166.61 77.4123 163.027 80.9409 160.87 83.0956L158.723 82.7484L161.305 68.9886L163.442 69.3895C163.101 71.2036 162.081 76.2703 161.466 79.549C164.575 76.5436 166.658 73.8186 169.698 70.5217Z" fill="white"/>
<rect x="17.9102" y="8.64062" width="172.744" height="45.459" transform="rotate(23.2027 17.9102 8.64062)" fill="#EFECDB"/>
<path d="M176.682 76.6992L197.335 75.5367L179.066 118.154L158.772 118.481L176.682 76.6992Z" fill="#E2DFCD"/>
<path d="M38.3543 7.38794L197.335 75.5361L176.548 77.012L17.358 8.77425L38.3543 7.38794Z" fill="#FEF9E5"/>
<ellipse cx="56.9544" cy="18.8984" rx="12.6544" ry="3.4544" transform="rotate(23.2027 56.9544 18.8984)" fill="#DDDACB"/>
<rect x="47.8506" y="8.01611" width="7.89577" height="6.27432" transform="rotate(23.2027 47.8506 8.01611)" fill="#DDDACB"/>
<rect x="63.8281" y="14.9414" width="7.89577" height="6.27432" transform="rotate(23.2027 63.8281 14.9414)" fill="#DDDACB"/>
<ellipse cx="59.4261" cy="13.1313" rx="12.6544" ry="3.4544" transform="rotate(23.2027 59.4261 13.1313)" fill="#EFECDB"/>
<ellipse cx="92.3509" cy="33.8242" rx="12.6544" ry="3.4544" transform="rotate(23.2027 92.3509 33.8242)" fill="#DDDACB"/>
<rect x="83.2471" y="22.9419" width="7.89577" height="6.27432" transform="rotate(23.2027 83.2471 22.9419)" fill="#DDDACB"/>
<rect x="99.2246" y="29.8672" width="7.89577" height="6.27432" transform="rotate(23.2027 99.2246 29.8672)" fill="#DDDACB"/>
<ellipse cx="94.8226" cy="28.0571" rx="12.6544" ry="3.4544" transform="rotate(23.2027 94.8226 28.0571)" fill="#EFECDB"/>
<ellipse cx="130.044" cy="49.7339" rx="12.6544" ry="3.4544" transform="rotate(23.2027 130.044 49.7339)" fill="#DDDACB"/>
<rect x="120.94" y="38.8521" width="7.89577" height="6.27432" transform="rotate(23.2027 120.94 38.8521)" fill="#DDDACB"/>
<rect x="136.918" y="45.7773" width="7.89577" height="6.27432" transform="rotate(23.2027 136.918 45.7773)" fill="#DDDACB"/>
<ellipse cx="132.516" cy="43.9673" rx="12.6544" ry="3.4544" transform="rotate(23.2027 132.516 43.9673)" fill="#EFECDB"/>
<ellipse cx="167.47" cy="66.2715" rx="12.6544" ry="3.4544" transform="rotate(23.2027 167.47 66.2715)" fill="#DDDACB"/>
<rect x="158.366" y="55.3892" width="7.89577" height="6.27432" transform="rotate(23.2027 158.366 55.3892)" fill="#DDDACB"/>
<rect x="174.344" y="62.3145" width="7.89577" height="6.27432" transform="rotate(23.2027 174.344 62.3145)" fill="#DDDACB"/>
<ellipse cx="169.942" cy="60.5044" rx="12.6544" ry="3.4544" transform="rotate(23.2027 169.942 60.5044)" fill="#EFECDB"/>
<path d="M127.596 78.9467C129.006 75.5479 128.984 73.0588 126.151 71.884C123.869 70.9372 122.751 71.3719 120.78 72.7806L117.767 80.0448C118.281 81.2538 118.796 82.6974 120.312 83.3262C123.027 84.4527 125.64 83.6618 127.596 78.9467ZM118.465 71.0194L118.631 70.6196C119.204 69.2367 119.648 67.7417 119.938 66.573L122.809 67.3731C122.671 67.9408 122.602 68.3419 122.328 69.0486C123.765 68.5509 125.34 68.5206 127.206 69.2946C131.788 71.1951 132.195 75.25 130.343 79.7151C128.021 85.3132 124.389 88.0441 119.007 85.8119C117.341 85.1209 116.929 84.3251 116.344 83.4769L114.913 86.9257C114.264 88.4919 113.833 89.9536 113.48 91.1349L110.769 90.1861C111.123 88.9076 111.703 87.2736 112.332 85.7575L118.465 71.0194Z" fill="#EB662B"/>
<path d="M99.6288 71.5643C98.9032 73.3137 99.4215 74.7003 100.971 75.343C104.47 76.7943 107.311 74.8874 108.028 74.384L108.684 72.8012C107.976 71.8242 106.944 70.8296 105.211 70.1109C102.938 69.1878 100.444 69.5983 99.6288 71.5643ZM110.457 75.9188C110.215 76.502 109.572 78.0514 109.671 78.4245C109.764 78.8143 110.221 79.4531 110.545 80.0368L108.34 81.4458C107.75 80.42 106.923 79.5889 107.321 77.7817C105.503 78.4923 103.203 79.2369 99.9206 77.8755C97.0716 76.6938 95.8134 73.4185 96.9606 70.6528C97.4858 69.3866 98.6007 68.1111 100.005 67.5025C102.258 66.5429 104.107 66.841 106.073 67.6565C108.172 68.5272 109.097 69.2625 109.769 70.1855C111.075 67.0366 110.554 65.0436 107.722 63.8688C105.423 62.9151 104.166 62.9796 101.845 64.8092L100.246 62.5446C103.103 60.1758 105.75 60.1021 108.732 61.3391C112.764 63.0115 114.292 66.672 112.737 70.4207L110.457 75.9188Z" fill="#EB662B"/>
<path d="M82.7895 70.828L88.8294 56.2664C85.5305 54.8981 84.0241 54.2928 82.7579 53.7676L83.829 51.1851C85.8617 52.0282 93.4326 55.149 96.5649 56.4482C97.7811 56.9527 98.5146 57.4912 98.7938 57.6656L97.1935 59.97C97.1935 59.97 96.2435 59.3416 95.4104 58.9961L91.4951 57.3721L85.4552 71.9337L82.7895 70.828Z" fill="#EB662B"/>
<path d="M64.3085 56.9134C63.5829 58.6628 64.1012 60.0495 65.6507 60.6921C69.1495 62.1434 71.9908 60.2366 72.7073 59.7331L73.3638 58.1504C72.656 57.1733 71.6235 56.1788 69.8908 55.4601C67.618 54.5369 65.1239 54.9474 64.3085 56.9134ZM75.1365 61.268C74.8946 61.8511 74.2519 63.4006 74.351 63.7736C74.4432 64.1634 74.9007 64.8023 75.225 65.3859L73.0197 66.7949C72.4298 65.7692 71.6029 64.938 72.001 63.1308C70.1831 63.8414 67.8825 64.586 64.6003 63.2246C61.7513 62.0429 60.4931 58.7677 61.6403 56.002C62.1655 54.7357 63.2803 53.4602 64.6849 52.8516C66.938 51.892 68.7866 52.1901 70.7526 53.0056C72.8519 53.8763 73.7771 54.6116 74.4488 55.5346C75.7549 52.3857 75.2342 50.3927 72.4018 49.2179C70.1026 48.2642 68.8456 48.3287 66.5245 50.1583L64.9253 47.8938C67.7825 45.5249 70.4297 45.4513 73.412 46.6883C77.4439 48.3606 78.9719 52.0211 77.417 55.7699L75.1365 61.268Z" fill="#EB662B"/>
<path d="M47.4682 56.1776L53.5081 41.616C50.2092 40.2477 48.7028 39.6424 47.4366 39.1172L48.5077 36.5347C50.5404 37.3778 58.1113 40.4986 61.2436 41.7978C62.4598 42.3023 63.1933 42.8408 63.4725 43.0152L61.8722 45.3196C61.8722 45.3196 60.9222 44.6912 60.0891 44.3457L56.1738 42.7217L50.1339 57.2833L47.4682 56.1776Z" fill="#EB662B"/>
</svg>
