<svg width="152" height="97" viewBox="0 0 152 97" fill="none" xmlns="http://www.w3.org/2000/svg">
<rect x="13.7832" y="6.64941" width="132.938" height="34.9838" transform="rotate(23.2027 13.7832 6.64941)" fill="#EFECDB"/>
<path d="M135.969 59.0249L151.863 58.1303L137.804 90.9276L122.186 91.1791L135.969 59.0249Z" fill="#E2DFCD"/>
<path d="M29.5165 5.68552L151.863 58.1301L135.866 59.2659L13.3585 6.75238L29.5165 5.68552Z" fill="#FEF9E5"/>
<ellipse cx="43.8321" cy="14.5443" rx="9.7384" ry="2.65839" transform="rotate(23.2027 43.8321 14.5443)" fill="#DDDACB"/>
<rect x="36.8252" y="6.16992" width="6.07633" height="4.82851" transform="rotate(23.2027 36.8252 6.16992)" fill="#DDDACB"/>
<rect x="49.1211" y="11.4995" width="6.07633" height="4.82851" transform="rotate(23.2027 49.1211 11.4995)" fill="#DDDACB"/>
<ellipse cx="45.7334" cy="10.1063" rx="9.7384" ry="2.65839" transform="rotate(23.2027 45.7334 10.1063)" fill="#EFECDB"/>
<ellipse cx="71.0713" cy="26.0297" rx="9.7384" ry="2.65839" transform="rotate(23.2027 71.0713 26.0297)" fill="#DDDACB"/>
<rect x="64.0654" y="17.6553" width="6.07633" height="4.82851" transform="rotate(23.2027 64.0654 17.6553)" fill="#DDDACB"/>
<rect x="76.3613" y="22.9849" width="6.07633" height="4.82851" transform="rotate(23.2027 76.3613 22.9849)" fill="#DDDACB"/>
<ellipse cx="72.9737" cy="21.5917" rx="9.7384" ry="2.65839" transform="rotate(23.2027 72.9737 21.5917)" fill="#EFECDB"/>
<ellipse cx="100.078" cy="38.2738" rx="9.7384" ry="2.65839" transform="rotate(23.2027 100.078 38.2738)" fill="#DDDACB"/>
<rect x="93.0723" y="29.8994" width="6.07633" height="4.82851" transform="rotate(23.2027 93.0723 29.8994)" fill="#DDDACB"/>
<rect x="105.368" y="35.229" width="6.07633" height="4.82851" transform="rotate(23.2027 105.368 35.229)" fill="#DDDACB"/>
<ellipse cx="101.981" cy="33.8358" rx="9.7384" ry="2.65839" transform="rotate(23.2027 101.981 33.8358)" fill="#EFECDB"/>
<ellipse cx="128.88" cy="50.9994" rx="9.7384" ry="2.65839" transform="rotate(23.2027 128.88 50.9994)" fill="#DDDACB"/>
<rect x="121.873" y="42.625" width="6.07633" height="4.82851" transform="rotate(23.2027 121.873 42.625)" fill="#DDDACB"/>
<rect x="134.169" y="47.9546" width="6.07633" height="4.82851" transform="rotate(23.2027 134.169 47.9546)" fill="#DDDACB"/>
<ellipse cx="130.781" cy="46.5614" rx="9.7384" ry="2.65839" transform="rotate(23.2027 130.781 46.5614)" fill="#EFECDB"/>
<path d="M99.877 61.4839C101.495 62.1768 104.757 63.4696 106.619 64.0461C107.3 61.9461 106.582 60.1134 104.882 59.3697C102.757 58.4401 100.732 59.5644 99.877 61.4839ZM105.701 57.4642C110.413 59.5258 108.798 64.4781 108.043 66.2031C107.934 66.4531 107.852 66.6406 107.796 66.7351C104.192 65.4415 101.276 64.3448 99.0404 63.3964C98.2037 65.3089 98.5624 67.4167 101.112 68.5322C102.9 69.3142 104.382 68.786 105.165 68.3243L106.106 70.3593C105.348 70.6977 103.201 71.7243 100.226 70.4228C96.5007 68.7933 95.8405 65.3324 97.552 61.4199C99.1159 57.8449 102.163 55.9167 105.701 57.4642Z" fill="#EB662B"/>
<path d="M86.2616 56.317C84.2383 60.942 86.7876 62.1614 88.1626 62.763L88.3251 62.834C90.2751 63.6871 91.568 63.2847 92.6937 62.4815L93.7711 64.308C93.1829 64.6315 91.3212 66.0956 88.2955 65.1145L88.2134 65.302C89.3986 65.8949 89.7846 66.9871 89.2159 68.2871C88.6636 69.5496 87.0472 69.8402 85.9972 69.3809C85.1722 69.02 84.4089 68.3138 83.9058 67.5576L84.9604 66.4404C85.2745 66.8458 85.6432 67.3645 86.2807 67.6434C86.7307 67.8403 87.3526 67.8145 87.5979 67.3559L87.6088 67.3309C87.7674 66.9684 87.4291 66.4481 86.8291 66.1856C86.2291 65.9231 86.1658 65.9997 85.7612 65.9716L86.483 64.3216C85.4908 63.7982 84.5142 63.1029 83.9165 62.0522C82.8438 60.0788 83.1859 57.9351 84.2741 55.4476C86.2809 50.8601 89.184 50.2834 93.1215 52.0059C94.309 52.5254 95.1028 53.23 95.6012 54.1331C96.1067 55.0542 96.1661 55.9737 96.1568 56.744L93.9037 56.6519C93.9904 56.0792 94.1474 54.7332 92.1474 53.8582C89.3849 52.6498 87.5685 53.3295 86.2616 56.317Z" fill="#EB662B"/>
<path d="M77.6751 51.9803C78.9376 52.5326 80.1227 51.6959 80.6039 50.5959C80.7023 50.3709 80.7703 50.1474 80.7898 49.9326C80.8452 49.4654 80.6858 48.7404 79.8983 48.3959C79.5983 48.2647 79.2155 48.1866 78.7155 48.2061C77.221 48.2523 75.9875 48.3828 74.7891 48.6031L74.2969 49.7281C75.2758 50.35 76.0063 50.8929 76.5587 51.2984C76.9774 51.6007 77.3376 51.8327 77.6751 51.9803ZM75.7296 46.4531C76.8975 46.2344 79.2483 45.9671 80.5733 46.5467C82.2733 47.2904 83.3569 49.0005 82.8812 50.5645C82.7929 50.8685 82.6539 51.2544 82.4953 51.6169C82.3148 52.0294 82.0914 52.438 81.8868 52.7356C81.6258 53.1278 80.4181 54.1185 78.8626 54.1678C79.6885 55.6162 79.0073 57.1052 79.1886 58.495C79.2753 59.1138 79.4855 59.5185 79.7667 59.9989L78.1262 60.8896C76.9168 59.467 77.1245 57.8006 77.219 56.6654C77.3869 54.5795 74.9681 52.4492 73.4946 51.5961C73.4946 51.5961 72.4307 53.9602 71.6104 55.8352C71.337 56.4602 71.098 57.0407 70.9175 57.4532L68.955 56.5946L75.67 41.2446C76.0036 40.4821 76.1684 39.7649 76.2301 39.1813L78.3832 39.468C78.3699 39.8047 78.3489 40.4656 77.988 41.2906L75.7296 46.4531Z" fill="#EB662B"/>
<path d="M63.4151 41.14C65.201 40.2235 66.6979 40.3422 68.6354 41.1898C70.7229 42.103 70.662 43.7741 69.6668 46.0491L69.634 46.1241L67.684 45.271C68.0769 44.2367 68.5605 43.5398 67.4105 43.0367C66.148 42.4844 64.3636 42.24 61.8942 44.4806L58.5804 52.0556L56.6359 51.1901L60.8082 41.6526C61.1198 40.9401 60.7784 40.3589 60.3042 39.3323L62.3752 38.1385C62.8698 39.0846 63.412 39.8877 63.4151 41.14Z" fill="#EB662B"/>
<path d="M50.9236 27.7222L53.8447 29.0447L52.6144 31.8572L49.6933 30.5347L50.9236 27.7222ZM55.9822 29.9798L58.9033 31.3023L57.673 34.1148L54.7519 32.7923L55.9822 29.9798ZM52.0267 49.3367C51.5384 48.5125 51.0876 47.7047 51.2829 46.5094C49.7626 47.1251 48.1838 47.4322 46.2923 46.6495L46.1798 46.6002C45.4048 46.2612 44.3478 45.7839 43.822 44.9433C43.429 44.3097 42.9032 43.2309 43.3516 42.2059C44.7796 38.8395 47.213 33.5152 47.3293 32.3301L49.477 32.8675C49.2489 34.1378 47.4748 38.023 45.4985 42.6089C45.3875 43.0667 45.5204 43.512 45.7079 43.8323C45.8282 44.0339 46.4219 44.4128 46.9344 44.637C47.7884 44.9658 48.3446 45.09 49.1516 44.9814C49.8922 44.8884 50.9188 44.8907 51.875 43.9985L55.5715 35.5485L57.5465 36.4125L53.2758 46.175C53.0165 46.8359 53.3665 47.7039 53.6915 48.3226L52.0267 49.3367Z" fill="#EB662B"/>
<path d="M34.3832 34.9623L34.1645 35.4623C33.4372 37.1248 33.3349 38.5841 34.6623 39.3286C34.8764 39.452 35.8334 39.8856 35.9959 39.9567C36.8084 40.3121 37.6631 40.5371 38.0521 40.4988C38.9287 40.4355 39.4544 39.8464 39.6458 39.6472L40.9146 41.0362C40.6365 41.3315 39.8514 42.3432 38.096 42.5433C37.185 42.6511 36.2358 42.3699 35.1733 41.9051C32.8733 40.899 31.4522 39.9943 31.374 37.7561C31.3302 36.6647 31.6903 35.7053 32.1606 34.6303L32.3957 34.0928C33.0144 32.8147 33.7558 31.1881 34.8861 28.8084L34.7111 28.7319C34.3611 28.5788 33.9893 28.4757 33.626 28.421L34.1743 26.4866C34.5236 26.5054 35.1025 26.7139 35.515 26.8944L35.7025 26.9764C36.0852 26.1014 36.6118 24.9319 36.9945 24.0569L38.9641 24.9334C38.6032 25.7584 38.0767 26.9279 37.6923 27.7724L39.2173 28.4395C41.0353 29.2199 42.9658 30.0495 42.9658 30.0495L43.1908 30.148L42.3869 31.9855L38.4244 30.252C37.8494 30.0005 37.4955 29.8904 36.9205 29.6388C35.6925 32.1396 34.9801 33.7342 34.3832 34.9623Z" fill="#EB662B"/>
</svg>
