<svg width="251" height="71" viewBox="0 0 251 71" fill="none" xmlns="http://www.w3.org/2000/svg">
<path d="M64.8652 31.2812C64.8652 37.1875 64.8516 43.0938 64.8516 49H62.7051L62.6777 42.3281C61.2695 42.7656 59.5879 42.8613 58.5762 42.8613C53.1074 42.8613 52.8477 37.9668 52.8477 32.7715V31.582V31.2812H55.0078C55.0898 36.9824 54.8301 40.7695 58.8496 40.7695C59.6973 40.7695 61.4062 40.5918 62.6914 40.2363L62.7188 31.2812H64.8652ZM69.7188 41.0703C71.4824 41.0566 74.9961 40.9336 76.9375 40.7148C76.7188 38.5137 75.3242 37.1191 73.4648 37.1191C71.1406 37.1191 69.7324 38.9648 69.7188 41.0703ZM73.4512 35.041C78.6055 35.041 79.1113 40.2363 79.1113 42.123C79.1113 42.3965 79.1113 42.6016 79.0977 42.7109C75.2695 42.9707 72.1523 43.1348 69.7188 43.1621C69.7188 45.2539 70.8945 47.0449 73.6836 47.0449C75.6387 47.0449 76.7871 45.9648 77.3203 45.2266L79.002 46.7168C78.4414 47.332 76.8828 49.1367 73.6289 49.1367C69.5547 49.1367 67.5586 46.2246 67.5586 41.9453C67.5586 38.0352 69.582 35.041 73.4512 35.041ZM83.9238 46.9492H86.7266L86.7402 35.0547H88.8594L88.8457 46.9492H91.6484L91.6758 35.0547H93.7949L93.7812 49H91.6211L81.791 49.0137L81.832 35.0547H83.9238V46.9492ZM98.6211 41.7949C98.6211 46.8535 101.451 46.9492 102.955 46.9492H103.133C105.266 46.9492 106.291 46.0605 107.002 44.8711L108.725 46.1152C108.273 46.6895 107.002 49.0957 103.188 49.0957C101.766 49.0957 100.084 48.9863 98.7715 48.002C96.9941 46.6211 96.4473 44.5156 96.4473 41.7949C96.4473 36.7773 98.8809 35.082 103.188 35.082C104.486 35.082 105.498 35.4102 106.318 36.0391C107.152 36.6816 107.576 37.502 107.877 38.2129L105.771 39.0332C105.621 38.4727 105.225 37.1738 103.037 37.1738C100.016 37.1738 98.6211 38.5273 98.6211 41.7949ZM117.488 41.5762C119.129 43.1895 122.219 46.375 123.217 48.084L121.59 49.4102C120.715 48.043 117.857 44.8574 116.08 43.1211L114.248 44.8574V49H112.115V35.0547H114.248V41.7676C116.695 39.498 120.195 36.0254 122.068 34.6582L123.395 36.4219C121.344 37.6387 119.02 40.0039 117.488 41.5762ZM134.619 35.0547L136.793 35.0684C136.793 35.0684 136.752 40.0996 136.752 43.2715C136.752 45.5 136.779 47.5371 136.861 49.082H134.715C134.592 46.7441 134.592 45.8145 134.592 43.2715C134.592 42.0684 134.674 39.1426 134.674 39.1426C132.855 42.3965 129.984 46.5254 128.262 49.041L126.088 49.0957V35.0957H128.262C128.262 36.9414 128.193 42.1094 128.193 45.4453C130.695 41.918 132.24 38.8555 134.619 35.0547ZM146.076 30.7617C147.553 30.7617 148.674 29.9004 148.756 28.834L151.025 29.2441C150.697 31.6641 148.332 32.8535 146.076 32.8535C144.354 32.8535 141.865 32.1973 141.209 29.1211L143.342 28.7109C143.711 30.3105 144.805 30.7617 146.076 30.7617ZM149.111 35.0547L151.285 35.0684C151.285 35.0684 151.244 40.0996 151.244 43.2715C151.244 45.5 151.271 47.5371 151.354 49.082H149.207C149.084 46.7441 149.084 45.8145 149.084 43.2715C149.084 42.0684 149.166 39.1426 149.166 39.1426C147.348 42.3965 144.477 46.5254 142.754 49.041L140.58 49.0957V35.0957H142.754C142.754 36.9414 142.686 42.1094 142.686 45.4453C145.188 41.918 146.732 38.8555 149.111 35.0547Z" fill="white"/>
<rect x="1.30566" y="30.6846" width="150.11" height="39.5025" transform="rotate(-6.55537 1.30566 30.6846)" fill="#ECC7CF"/>
<path d="M150.434 13.5466L165.513 3.76189L170.112 43.7911L154.943 52.7909L150.434 13.5466Z" fill="#E3B7C0"/>
<path d="M16.1883 20.922L165.513 3.7624L150.468 13.8414L0.947045 31.0235L16.1883 20.922Z" fill="#F8D1D9"/>
<ellipse cx="35.187" cy="21.5832" rx="10.9963" ry="3.00177" transform="rotate(-6.55537 35.187 21.5832)" fill="#E19DAC"/>
<rect x="23.626" y="17.2998" width="6.86119" height="5.4522" transform="rotate(-6.55537 23.626 17.2998)" fill="#E19DAC"/>
<rect x="38.666" y="15.6338" width="6.86119" height="5.4522" transform="rotate(-6.55537 38.666 15.6338)" fill="#E19DAC"/>
<ellipse cx="34.564" cy="16.1662" rx="10.9963" ry="3.00177" transform="rotate(-6.55537 34.564 16.1662)" fill="#ECC7CF"/>
<ellipse cx="68.3247" cy="17.5744" rx="10.9963" ry="3.00177" transform="rotate(-6.55537 68.3247 17.5744)" fill="#E19DAC"/>
<rect x="56.7637" y="13.292" width="6.86119" height="5.4522" transform="rotate(-6.55537 56.7637 13.292)" fill="#E19DAC"/>
<rect x="71.8027" y="11.626" width="6.86119" height="5.4522" transform="rotate(-6.55537 71.8027 11.626)" fill="#E19DAC"/>
<ellipse cx="67.7017" cy="12.1584" rx="10.9963" ry="3.00177" transform="rotate(-6.55537 67.7017 12.1584)" fill="#ECC7CF"/>
<ellipse cx="103.622" cy="13.3215" rx="10.9963" ry="3.00177" transform="rotate(-6.55537 103.622 13.3215)" fill="#E19DAC"/>
<rect x="92.0605" y="9.03809" width="6.86119" height="5.4522" transform="rotate(-6.55537 92.0605 9.03809)" fill="#E19DAC"/>
<rect x="107.101" y="7.37207" width="6.86119" height="5.4522" transform="rotate(-6.55537 107.101 7.37207)" fill="#E19DAC"/>
<ellipse cx="102.999" cy="7.90451" rx="10.9963" ry="3.00177" transform="rotate(-6.55537 102.999 7.90451)" fill="#ECC7CF"/>
<ellipse cx="138.987" cy="9.65353" rx="10.9963" ry="3.00177" transform="rotate(-6.55537 138.987 9.65353)" fill="#E19DAC"/>
<rect x="127.426" y="5.37109" width="6.86119" height="5.4522" transform="rotate(-6.55537 127.426 5.37109)" fill="#E19DAC"/>
<rect x="142.466" y="3.70508" width="6.86119" height="5.4522" transform="rotate(-6.55537 142.466 3.70508)" fill="#E19DAC"/>
<ellipse cx="138.364" cy="4.23752" rx="10.9963" ry="3.00177" transform="rotate(-6.55537 138.364 4.23752)" fill="#ECC7CF"/>
<path d="M132.203 38.2261C132.326 39.4008 133.023 40.0062 134.064 39.897C136.413 39.6502 137.402 37.7592 137.645 37.27L137.533 36.2072C136.854 35.8826 135.992 35.6451 134.829 35.7673C133.308 35.9382 132.064 36.9059 132.203 38.2261ZM139.433 37.3876C139.474 37.7792 139.583 38.8196 139.749 38.9945C139.915 39.1806 140.356 39.3945 140.708 39.6177L139.919 41.0465C139.29 40.6601 138.589 40.4509 138.269 39.3421C137.485 40.2729 136.446 41.366 134.242 41.5975C132.329 41.7984 130.664 40.3784 130.469 38.5212C130.38 37.671 130.611 36.64 131.199 35.8883C132.148 34.6915 133.25 34.3043 134.57 34.1657C135.98 34.0176 136.706 34.145 137.349 34.4507C137.127 32.3363 136.248 31.3993 134.346 31.599C132.802 31.7612 132.132 32.1708 131.405 33.8646L129.855 33.1C130.715 30.951 132.143 30.1224 134.146 29.9121C136.853 29.6277 138.781 31.1785 139.045 33.6957L139.433 37.3876Z" fill="#EB662B"/>
<path d="M123.606 36.5048C125.088 37.684 127.89 40.0252 128.853 41.3378L127.636 42.5628C126.802 41.5193 124.19 39.1581 122.587 37.89L121.237 39.4683L121.593 42.8581L119.848 43.0414L118.649 31.6301L120.395 31.4468L120.971 36.9399C122.779 34.8725 125.345 31.7301 126.76 30.4504L127.997 31.7796C126.423 32.9515 124.724 35.0867 123.606 36.5048Z" fill="#EB662B"/>
<path d="M111.068 38.3878C110.453 38.4524 109.076 38.6988 109.076 38.6988C109.332 41.3526 109.346 41.5887 109.424 42.4401C110.632 42.3132 110.581 42.3638 111.42 42.2757C113.434 42.0642 114.749 41.7678 114.556 39.933C114.391 38.3668 112.802 38.2057 111.068 38.3878ZM106.668 32.889L108.458 32.7011C108.563 33.5949 108.624 34.1766 108.685 34.7584L108.934 37.1301C109.79 36.8819 110.378 36.7749 111.083 36.7008C113.835 36.4118 116.046 36.9941 116.353 39.9252C116.626 42.5207 114.741 43.6349 111.967 43.9263C110.904 44.0379 109.074 44.1734 107.776 44.3097C107.549 42.1393 107.502 40.7303 107.014 36.0763C106.886 34.8569 106.776 33.9183 106.668 32.889Z" fill="#EB662B"/>
<path d="M96.3283 39.5504C96.763 43.6898 99.0871 43.5249 100.318 43.3957L100.463 43.3804C102.208 43.1971 102.971 42.3818 103.451 41.3474L104.967 42.2174C104.647 42.7261 103.814 44.8044 100.692 45.1322C99.5289 45.2543 98.1434 45.3094 96.9848 44.6166C95.4118 43.6394 94.7833 41.9635 94.5495 39.7372C94.1183 35.6314 95.964 34.035 99.4881 33.6649C100.551 33.5533 101.407 33.7349 102.132 34.179C102.87 34.6332 103.287 35.268 103.594 35.8239L101.942 36.6761C101.771 36.2303 101.335 35.2016 99.5448 35.3895C97.0724 35.6492 96.0475 36.8766 96.3283 39.5504Z" fill="#EB662B"/>
<path d="M84.3877 35.1714L84.9087 40.2405C85.9133 39.8975 86.9567 39.7087 88.2992 39.5678L90.0221 39.3868C89.7001 36.3214 89.7078 36.5016 89.5174 34.6892L91.2962 34.5024L92.4946 45.9137L90.727 46.0994L90.2006 41.0873L89.5853 41.152C87.896 41.3294 86.378 41.5227 85.0873 41.941C85.4903 45.7784 85.3904 44.6125 85.6031 46.6374L83.8019 46.8266L82.6 35.3818L84.3877 35.1714Z" fill="#EB662B"/>
<path d="M70.5536 32.259L73.1862 32.0165L73.4505 34.5337L70.818 34.7762L70.5536 32.259ZM75.0993 31.8156L77.7319 31.5731L77.9962 34.0903L75.3636 34.3328L75.0993 31.8156ZM74.1313 36.3851L75.4291 36.2488C75.7498 39.303 76.3837 45.2312 76.3837 45.2312C76.536 46.1427 77.0329 46.1358 78.0622 46.0277C79.1026 45.9184 80.4652 45.5378 81.1761 44.875L82.0707 46.0704C81.192 46.9658 79.6275 47.4694 78.2402 47.6151C77.2893 47.715 76.4226 47.6477 75.9021 47.4308C74.896 47.0049 74.7125 46.1193 74.6431 45.4592L73.8783 38.1761C73.3301 38.2337 72.0618 38.4348 71.0248 38.7925L70.5335 37.2379C71.756 36.8155 72.9678 36.5072 74.1313 36.3851Z" fill="#EB662B"/>
<path d="M61.0504 45.6987C61.1737 46.8734 61.8707 47.4789 62.9112 47.3696C65.2605 47.1229 66.2496 45.2319 66.4923 44.7427L66.3807 43.6798C65.7019 43.3552 64.8399 43.1177 63.6764 43.2399C62.1561 43.4109 60.9117 44.3786 61.0504 45.6987ZM68.2805 44.8603C68.3216 45.2518 68.4309 46.2923 68.5963 46.4672C68.7629 46.6533 69.2038 46.8671 69.5553 47.0904L68.7665 48.5192C68.1378 48.1328 67.4371 47.9236 67.1171 46.8148C66.3326 47.7455 65.2937 48.8387 63.0897 49.0701C61.1767 49.271 59.5119 47.851 59.3169 45.9939C59.2276 45.1436 59.4586 44.1127 60.047 43.3609C60.9959 42.1641 62.0976 41.777 63.4177 41.6383C64.8274 41.4903 65.5533 41.6176 66.1962 41.9234C65.9742 39.809 65.0953 38.872 63.1935 39.0717C61.6496 39.2338 60.98 39.6435 60.253 41.3373L58.7023 40.5726C59.5625 38.4237 60.9911 37.595 62.9937 37.3847C65.7011 37.1004 67.6284 38.6512 67.8928 41.1684L68.2805 44.8603Z" fill="#EB662B"/>
<path d="M54.8559 43.9062C54.6162 41.6239 53.8629 40.2665 51.961 40.4663C50.4283 40.6272 49.9453 41.1982 49.285 42.557L49.7972 47.4348C50.4389 47.9443 51.1506 48.5821 52.1686 48.4752C53.9922 48.2837 55.1884 47.0722 54.8559 43.9062ZM47.4915 42.2816L47.4633 42.0131C47.3658 41.0846 47.1641 40.133 46.9747 39.4064L48.7859 38.9899C48.8795 39.3421 48.9612 39.5823 49.0218 40.051C49.6608 39.3505 50.5147 38.8649 51.7677 38.7334C54.8443 38.4103 56.2751 40.5109 56.59 43.5091C56.9848 47.2682 55.8077 49.8462 52.1941 50.2257C51.0754 50.3432 50.6126 50.0298 50.0392 49.7394L50.2824 52.0552C50.3929 53.1069 50.5922 54.0361 50.7504 54.7886L48.9822 55.0761C48.7957 54.27 48.627 53.2018 48.5201 52.1838L47.4915 42.2816Z" fill="#EB662B"/>
<path d="M40.5947 45.2226C42.0758 46.4018 44.878 48.7429 45.8415 50.0556L44.6242 51.2806C43.7907 50.237 41.1787 47.8759 39.5751 46.6078L38.2252 48.1861L38.5812 51.5759L36.836 51.7592L35.6376 40.3479L37.3828 40.1646L37.9597 45.6577C39.7672 43.5902 42.3328 40.4478 43.748 39.1681L44.9848 40.4974C43.4112 41.6693 41.7126 43.8045 40.5947 45.2226Z" fill="#EB662B"/>
<path d="M27.2415 55.2895C28.4274 55.165 28.8142 53.0318 29.1148 51.8013C27.6778 48.2422 25.974 44.8356 24.2845 43.6105C23.88 43.3136 23.4202 43.3506 23.0174 43.3929L22.8376 41.6812C23.2068 41.6424 23.7709 41.6284 24.0889 41.6403C25.9866 41.7238 28.2407 45.74 29.8867 49.2431C30.4596 46.7285 30.8585 43.4178 30.6813 40.8688L32.4489 40.6832C32.5194 41.3544 32.5304 41.998 32.4897 42.5791C32.1772 46.6047 31.435 50.4152 30.3236 54.0497C29.8893 55.6222 29.133 56.8214 27.466 56.9965C25.5082 57.2021 24.1642 56.1443 23.847 53.1236L25.5923 52.9404C25.8002 54.9206 26.3465 55.3835 27.2415 55.2895Z" fill="#EB662B"/>
</svg>
