<svg width="305" height="323" viewBox="0 0 305 323" fill="none" xmlns="http://www.w3.org/2000/svg">
<path d="M224.163 58.3501C217.043 70.3867 207.126 86.1529 194.411 105.649C181.696 124.975 170.592 140.996 161.099 153.71C166.354 160.661 173.729 171.087 183.222 184.988C192.716 198.72 200.853 210.418 207.634 220.081C214.416 229.575 218.569 234.83 220.095 235.847C222.129 237.373 226.706 238.136 233.827 238.136C237.217 238.136 241.625 237.627 247.05 236.61V275.517C240.269 276.534 235.013 277.043 231.284 277.043C220.603 277.043 210.432 273.652 200.768 266.871C196.53 264.158 191.36 259.242 185.257 252.122C179.153 245.002 173.813 238.22 169.236 231.778C164.659 225.167 158.556 216.266 150.927 205.078C143.468 193.889 138.043 186.006 134.652 181.428C116.682 204.823 89.3878 238.475 52.7695 282.383L22 256.445C22.8476 255.258 27.5097 249.325 35.9861 238.644C44.6321 227.794 56.0753 213.554 70.3158 195.923C84.7258 178.292 97.8643 162.271 109.731 147.861C82.2676 109.378 54.2953 71.3191 25.8144 33.6837L58.8726 8C71.4177 25.292 87.523 48.0936 107.188 76.405C127.023 104.547 137.025 118.787 137.195 119.126C150.079 103.53 166.863 77.5917 187.545 41.3125C191.275 34.7008 194.157 27.1568 196.191 18.6803L236.37 18.426C234.335 35.3789 230.266 48.687 224.163 58.3501Z" fill="#EB662B"/>
<path d="M293.5 248.5C293.5 283.864 265.052 312.5 230 312.5C194.948 312.5 166.5 283.864 166.5 248.5C166.5 213.136 194.948 184.5 230 184.5C265.052 184.5 293.5 213.136 293.5 248.5Z" stroke="#EFECDB" stroke-width="5"/>
</svg>
