<svg width="298" height="414" viewBox="0 0 298 414" fill="none" xmlns="http://www.w3.org/2000/svg">
<path d="M135.016 369.513C137.898 369.513 140.695 369.004 143.407 367.987C146.12 366.97 148.663 365.359 151.036 363.156C153.579 360.952 155.868 358.748 157.902 356.544C159.936 354.34 161.971 351.288 164.005 347.389C166.04 343.49 167.735 340.184 169.091 337.472C170.617 334.929 172.312 331.284 174.177 326.537C176.042 321.79 177.398 318.23 178.246 315.857C179.093 313.484 180.365 309.839 182.06 304.922C183.755 300.006 184.857 296.87 185.366 295.513C155.698 191.931 125.946 126.747 96.1088 99.9617C90.3448 94.7063 81.0207 92.0786 68.1365 92.0786V53.1716C77.4606 53.1716 86.8694 53.8497 96.3631 55.206C130.269 60.2919 167.735 121.831 208.761 239.823C218.763 210.495 227.239 178.962 234.19 145.226C241.31 111.49 245.379 80.8896 246.396 53.4259H286.575C286.575 68.514 285.388 82.7545 283.015 96.1472C266.909 183.624 241.649 267.88 207.235 348.915C199.776 367.902 190.452 382.567 179.263 392.908C168.243 403.249 153.833 408.42 136.033 408.42C87.8866 408.42 63.8135 376.548 63.8135 312.805H103.483C103.483 334.336 106.026 349.169 111.112 357.307C116.198 365.444 124.166 369.513 135.016 369.513Z" fill="#EB662B"/>
<path d="M141.5 72.5C141.5 107.864 113.052 136.5 78 136.5C42.9477 136.5 14.5 107.864 14.5 72.5C14.5 37.136 42.9477 8.5 78 8.5C113.052 8.5 141.5 37.136 141.5 72.5Z" stroke="#EFECDB" stroke-width="5"/>
</svg>
