<svg width="288" height="327" viewBox="0 0 288 327" fill="none" xmlns="http://www.w3.org/2000/svg">
<path d="M16.3573 46.3983L23.2233 8C31.0216 8.84765 54.5861 9.27147 93.9169 9.27147H215.469L221.572 38.5152C221.403 38.6848 217.504 43.0925 209.875 51.7385C202.246 60.3845 191.227 72.5906 176.817 88.3568C162.576 103.953 147.742 119.72 132.315 135.655C118.414 149.726 108.073 160.407 101.291 167.696C94.5102 174.817 86.4576 184.225 77.1335 195.923C67.9789 207.451 60.4349 218.47 54.5014 228.981L191.311 229.235C203.348 229.235 217.673 231.948 234.287 237.373L224.115 274.245C223.098 273.906 221.148 273.313 218.266 272.465C215.384 271.618 213.435 271.024 212.418 270.685C211.401 270.516 209.705 270.177 207.332 269.668C204.958 269.329 202.585 269.075 200.212 268.905C197.838 268.736 195.041 268.651 191.82 268.651H10V263.565C10 242.713 11.8648 228.388 15.5945 220.589C19.3241 212.791 23.4776 205.247 28.0548 197.957C32.8017 190.668 38.4809 183.039 45.0925 175.071C51.8737 166.934 57.4681 160.322 61.8759 155.236C66.4532 150.15 73.4039 142.691 82.728 132.858C92.2216 122.856 98.918 115.736 102.817 111.498C124.686 87.5939 144.86 66.9961 163.339 49.7042H155.456C150.201 49.7042 140.453 49.6194 126.212 49.4499C111.972 49.2803 100.952 49.1956 93.154 49.1956C53.8233 49.1956 28.2244 48.2632 16.3573 46.3983Z" fill="#EB662B"/>
<path d="M275.5 252.5C275.5 287.864 247.052 316.5 212 316.5C176.948 316.5 148.5 287.864 148.5 252.5C148.5 217.136 176.948 188.5 212 188.5C247.052 188.5 275.5 217.136 275.5 252.5Z" stroke="#EFECDB" stroke-width="5"/>
</svg>
