<svg width="263" height="286" viewBox="0 0 263 286" fill="none" xmlns="http://www.w3.org/2000/svg">
<g clip-path="url(#clip0_451_20)">
<path d="M31.9177 14L68.4177 86.5005" stroke="#EB662B" stroke-width="2"/>
<path d="M7.41635 260L56.9169 193.5" stroke="#EB662B" stroke-width="2"/>
<path d="M23.917 241.068L46.098 209.759C59.2518 221.661 93.0392 236.152 136.369 236.152C183.053 236.152 211.424 222.179 211.424 198.115C211.424 185.953 199.56 171.981 170.931 161.372C151.845 154.126 135.854 153.091 119.605 153.091C112.899 153.091 106.193 153.35 99.4871 153.35V114.019H104.13H105.419C134.048 114.019 206.781 112.984 206.781 79.8638C206.781 58.6459 183.569 49.5895 130.953 49.5895C93.2971 49.5895 65.9577 61.4922 59.7677 65.3735L42.2292 31.7354C46.8717 28.6304 71.8898 10 131.469 10C211.424 10 247.017 36.9105 247.017 78.3113C247.017 99.5292 232.573 131.097 191.048 133.944C230.252 143.259 251.917 173.533 251.917 197.597C251.917 214.416 248.564 236.411 228.704 252.195C209.36 267.461 183.569 276 136.627 276C79.1116 276 42.2292 254.782 23.917 241.068Z" fill="#EFECDB"/>
</g>
<defs>
<clipPath id="clip0_451_20">
<rect width="263" height="286" fill="white"/>
</clipPath>
</defs>
</svg>
