<svg width="282" height="79" viewBox="0 0 282 79" fill="none" xmlns="http://www.w3.org/2000/svg">
<path d="M70.8652 35.2817C70.8652 41.188 70.8516 47.0942 70.8516 53.0005H68.7051L68.6777 46.3286C67.2695 46.7661 65.5879 46.8618 64.5762 46.8618C59.1074 46.8618 58.8477 41.9673 58.8477 36.772V35.5825V35.2817H61.0078C61.0898 40.9829 60.8301 44.77 64.8496 44.77C65.6973 44.77 67.4062 44.5923 68.6914 44.2368L68.7188 35.2817H70.8652ZM75.7188 45.0708C77.4824 45.0571 80.9961 44.9341 82.9375 44.7153C82.7188 42.5142 81.3242 41.1196 79.4648 41.1196C77.1406 41.1196 75.7324 42.9653 75.7188 45.0708ZM79.4512 39.0415C84.6055 39.0415 85.1113 44.2368 85.1113 46.1235C85.1113 46.397 85.1113 46.6021 85.0977 46.7114C81.2695 46.9712 78.1523 47.1353 75.7188 47.1626C75.7188 49.2544 76.8945 51.0454 79.6836 51.0454C81.6387 51.0454 82.7871 49.9653 83.3203 49.2271L85.002 50.7173C84.4414 51.3325 82.8828 53.1372 79.6289 53.1372C75.5547 53.1372 73.5586 50.2251 73.5586 45.9458C73.5586 42.0356 75.582 39.0415 79.4512 39.0415ZM89.9238 50.9497H92.7266L92.7402 39.0552H94.8594L94.8457 50.9497H97.6484L97.6758 39.0552H99.7949L99.7812 53.0005H97.6211L87.791 53.0142L87.832 39.0552H89.9238V50.9497ZM104.621 45.7954C104.621 50.854 107.451 50.9497 108.955 50.9497H109.133C111.266 50.9497 112.291 50.061 113.002 48.8716L114.725 50.1157C114.273 50.6899 113.002 53.0962 109.188 53.0962C107.766 53.0962 106.084 52.9868 104.771 52.0024C102.994 50.6216 102.447 48.5161 102.447 45.7954C102.447 40.7778 104.881 39.0825 109.188 39.0825C110.486 39.0825 111.498 39.4106 112.318 40.0396C113.152 40.6821 113.576 41.5024 113.877 42.2134L111.771 43.0337C111.621 42.4731 111.225 41.1743 109.037 41.1743C106.016 41.1743 104.621 42.5278 104.621 45.7954ZM123.488 45.5767C125.129 47.1899 128.219 50.3755 129.217 52.0845L127.59 53.4106C126.715 52.0435 123.857 48.8579 122.08 47.1216L120.248 48.8579V53.0005H118.115V39.0552H120.248V45.7681C122.695 43.4985 126.195 40.0259 128.068 38.6587L129.395 40.4224C127.344 41.6392 125.02 44.0044 123.488 45.5767ZM140.619 39.0552L142.793 39.0688C142.793 39.0688 142.752 44.1001 142.752 47.272C142.752 49.5005 142.779 51.5376 142.861 53.0825H140.715C140.592 50.7446 140.592 49.8149 140.592 47.272C140.592 46.0688 140.674 43.1431 140.674 43.1431C138.855 46.397 135.984 50.5259 134.262 53.0415L132.088 53.0962V39.0962H134.262C134.262 40.9419 134.193 46.1099 134.193 49.4458C136.695 45.9185 138.24 42.856 140.619 39.0552ZM152.076 34.7622C153.553 34.7622 154.674 33.9009 154.756 32.8345L157.025 33.2446C156.697 35.6646 154.332 36.854 152.076 36.854C150.354 36.854 147.865 36.1978 147.209 33.1216L149.342 32.7114C149.711 34.311 150.805 34.7622 152.076 34.7622ZM155.111 39.0552L157.285 39.0688C157.285 39.0688 157.244 44.1001 157.244 47.272C157.244 49.5005 157.271 51.5376 157.354 53.0825H155.207C155.084 50.7446 155.084 49.8149 155.084 47.272C155.084 46.0688 155.166 43.1431 155.166 43.1431C153.348 46.397 150.477 50.5259 148.754 53.0415L146.58 53.0962V39.0962H148.754C148.754 40.9419 148.686 46.1099 148.686 49.4458C151.188 45.9185 152.732 42.856 155.111 39.0552Z" fill="white"/>
<rect width="168.613" height="42.6332" transform="matrix(0.993973 -0.109629 0.11888 0.992909 1.46777 35.0981)" fill="#ECC7CF"/>
<path d="M169.064 16.6135L186.011 6.05925L191.18 49.2368L174.133 58.9444L169.064 16.6135Z" fill="#E3B7C0"/>
<path d="M18.1931 24.5681L186.011 6.05894L169.103 16.9307L1.06433 35.4642L18.1931 24.5681Z" fill="#F8D1D9"/>
<ellipse cx="12.3518" cy="3.23967" rx="12.3518" ry="3.23967" transform="matrix(0.993973 -0.109629 0.11888 0.992909 26.8818 23.4175)" fill="#E19DAC"/>
<rect width="7.70696" height="5.8843" transform="matrix(0.993973 -0.109629 0.11888 0.992909 26.5508 20.6606)" fill="#E19DAC"/>
<rect width="7.70696" height="5.8843" transform="matrix(0.993973 -0.109629 0.11888 0.992909 43.4541 18.8628)" fill="#E19DAC"/>
<ellipse cx="12.3518" cy="3.23967" rx="12.3518" ry="3.23967" transform="matrix(0.993973 -0.109629 0.11888 0.992909 26.1816 17.5747)" fill="#ECC7CF"/>
<ellipse cx="12.3518" cy="3.23967" rx="12.3518" ry="3.23967" transform="matrix(0.993973 -0.109629 0.11888 0.992909 65.0322 17.0938)" fill="#E19DAC"/>
<rect width="7.70696" height="5.8843" transform="matrix(0.993973 -0.109629 0.11888 0.992909 64.7012 14.3374)" fill="#E19DAC"/>
<rect width="7.70696" height="5.8843" transform="matrix(0.993973 -0.109629 0.11888 0.992909 81.6035 12.5396)" fill="#E19DAC"/>
<ellipse cx="12.3518" cy="3.23967" rx="12.3518" ry="3.23967" transform="matrix(0.993973 -0.109629 0.11888 0.992909 64.332 11.2515)" fill="#ECC7CF"/>
<path d="M145.738 48.2939L143.92 34.4597C140.655 34.855 139.173 35.0505 137.919 35.2022L137.597 32.7487C139.609 32.5052 147.094 31.5831 150.194 31.2078C151.398 31.062 152.231 31.1542 152.535 31.1657L152.306 33.6375C152.306 33.6375 151.259 33.5714 150.434 33.6712L146.559 34.1403L148.377 47.9745L145.738 48.2939Z" fill="#EB662B"/>
<path d="M132.864 41.2329C132.44 38.0038 131.285 36.1014 128.482 36.4407C126.222 36.7142 125.526 37.5382 124.593 39.4844L125.499 46.3856C126.463 47.0891 127.534 47.9725 129.035 47.7909C131.723 47.4655 133.453 45.7124 132.864 41.2329ZM121.935 39.1468L121.885 38.7669C121.712 37.4531 121.385 36.1099 121.083 35.0851L123.746 34.4412C123.895 34.9377 124.023 35.276 124.127 35.9388C125.049 34.9266 126.296 34.2129 128.143 33.9893C132.678 33.4403 134.857 36.3766 135.414 40.6187C136.113 45.9371 134.453 49.6274 129.126 50.2722C127.477 50.4719 126.784 50.0412 125.928 49.6463L126.358 52.9229C126.554 54.4107 126.877 55.7224 127.134 56.7848L124.531 57.2446C124.23 56.1071 123.948 54.5975 123.759 53.1571L121.935 39.1468Z" fill="#EB662B"/>
<path d="M114.234 48.5055C115.179 47.4102 115.354 45.6845 115.047 43.3418L115.009 43.0569C114.594 40.1484 113.234 37.9652 110.315 38.3186C106.885 38.7338 106.206 41.4693 106.713 45.3315C107.119 48.418 108.799 50.1121 111.553 49.7788C112.804 49.6112 113.497 49.2701 114.234 48.5055ZM111.843 52.2362C107.355 52.7633 104.7 50.158 104.118 45.726C103.511 41.104 104.619 36.5317 109.434 35.9488C112.683 35.5556 114.641 36.4282 116.07 38.3778C116.91 39.5464 117.442 41.2991 117.642 42.8187C118.235 47.3298 117.186 51.5894 111.876 52.2322L111.843 52.2362Z" fill="#EB662B"/>
<path d="M95.1638 45.5396C97.3882 47.1678 101.6 50.4048 103.064 52.2376L101.303 54.0105C100.04 52.5554 96.1082 49.2846 93.7002 47.5339L91.7544 49.8116L92.3846 54.6077L89.8119 54.9191L88.0045 41.164L84.805 41.5513L84.491 39.1612L87.6574 38.7779L87.6904 38.7739L90.2301 38.4665L90.2631 38.4625L91.2843 46.2343C93.8911 43.2495 97.5847 38.7179 99.6361 36.8616L101.504 38.7099C99.2155 40.418 96.7717 43.4958 95.1638 45.5396Z" fill="#EB662B"/>
<path d="M72.1674 54.6426L75.5482 54.2334L73.7552 40.4605L76.3114 40.151L78.1044 53.9239L81.4853 53.5147L79.7087 39.7398L82.265 39.4304L84.37 55.5776L81.7643 55.893L69.9087 57.3441L67.8346 41.1771L70.3579 40.8717L72.1674 54.6426Z" fill="#EB662B"/>
<path d="M54.6642 54.1723C54.8825 55.8343 55.9309 56.6722 57.4646 56.4866C60.9279 56.0674 62.3309 53.3568 62.6744 52.656L62.4768 51.1522C61.464 50.712 60.1833 50.4007 58.4681 50.6083C56.2273 50.8956 54.4187 52.3045 54.6642 54.1723ZM65.3198 52.7699C65.3926 53.3239 65.586 54.796 65.8358 55.0391C66.0876 55.2981 66.7456 55.5883 67.2717 55.8944L66.1504 57.9437C65.2097 57.4144 64.1682 57.1385 63.6612 55.5757C62.5309 56.9185 61.0296 58.4993 57.7808 58.8925C54.9607 59.2339 52.4575 57.2695 52.1122 54.642C51.9542 53.439 52.2638 51.9704 53.1099 50.8871C54.4749 49.162 56.0907 48.5805 58.0367 48.345C60.1147 48.0934 61.1911 48.2526 62.1503 48.6671C61.7572 45.6755 60.43 44.3729 57.6264 44.7122C55.3505 44.9877 54.3739 45.5883 53.352 48.0115L51.0375 46.9731C52.2422 43.9007 54.3273 42.6834 57.2793 42.3261C61.2703 41.843 64.1655 43.985 64.6334 47.5465L65.3198 52.7699Z" fill="#EB662B"/>
<path d="M44.3093 56.9695C45.2544 55.8742 45.4547 54.3384 45.1801 52.249L45.1427 51.9641C44.727 49.0556 43.4074 47.1731 40.4883 47.5265C38.9216 47.7161 36.177 49.1418 36.7157 53.2414C37.1878 56.8345 38.8743 58.5761 41.6284 58.2427C42.8797 58.0752 43.572 57.7341 44.3093 56.9695ZM36.1318 47.5232C37.1259 46.036 38.8322 45.2506 40.8112 45.011C42.8892 44.7595 44.7992 45.5253 46.2282 47.4749C47.0687 48.6435 47.5756 50.2063 47.7753 51.7258C48.314 55.8254 47.2611 60.0534 41.9508 60.6962L41.9178 60.7002C37.4299 61.2273 34.9752 60.1415 33.8146 51.3092C32.835 43.8539 34.2933 40.799 39.8298 39.5821C43.2329 38.8325 43.6097 38.3849 44.6455 37.3429L46.1693 39.2489C45.2137 40.1364 44.2705 41.1189 40.3622 41.8493C36.7652 42.5259 35.8172 44.6185 36.1318 47.5232Z" fill="#EB662B"/>
<path d="M70.8652 35.2817C70.8652 41.188 70.8516 47.0942 70.8516 53.0005H68.7051L68.6777 46.3286C67.2695 46.7661 65.5879 46.8618 64.5762 46.8618C59.1074 46.8618 58.8477 41.9673 58.8477 36.772V35.5825V35.2817H61.0078C61.0898 40.9829 60.8301 44.77 64.8496 44.77C65.6973 44.77 67.4062 44.5923 68.6914 44.2368L68.7188 35.2817H70.8652ZM75.7188 45.0708C77.4824 45.0571 80.9961 44.9341 82.9375 44.7153C82.7188 42.5142 81.3242 41.1196 79.4648 41.1196C77.1406 41.1196 75.7324 42.9653 75.7188 45.0708ZM79.4512 39.0415C84.6055 39.0415 85.1113 44.2368 85.1113 46.1235C85.1113 46.397 85.1113 46.6021 85.0977 46.7114C81.2695 46.9712 78.1523 47.1353 75.7188 47.1626C75.7188 49.2544 76.8945 51.0454 79.6836 51.0454C81.6387 51.0454 82.7871 49.9653 83.3203 49.2271L85.002 50.7173C84.4414 51.3325 82.8828 53.1372 79.6289 53.1372C75.5547 53.1372 73.5586 50.2251 73.5586 45.9458C73.5586 42.0356 75.582 39.0415 79.4512 39.0415ZM89.9238 50.9497H92.7266L92.7402 39.0552H94.8594L94.8457 50.9497H97.6484L97.6758 39.0552H99.7949L99.7812 53.0005H97.6211L87.791 53.0142L87.832 39.0552H89.9238V50.9497ZM104.621 45.7954C104.621 50.854 107.451 50.9497 108.955 50.9497H109.133C111.266 50.9497 112.291 50.061 113.002 48.8716L114.725 50.1157C114.273 50.6899 113.002 53.0962 109.188 53.0962C107.766 53.0962 106.084 52.9868 104.771 52.0024C102.994 50.6216 102.447 48.5161 102.447 45.7954C102.447 40.7778 104.881 39.0825 109.188 39.0825C110.486 39.0825 111.498 39.4106 112.318 40.0396C113.152 40.6821 113.576 41.5024 113.877 42.2134L111.771 43.0337C111.621 42.4731 111.225 41.1743 109.037 41.1743C106.016 41.1743 104.621 42.5278 104.621 45.7954ZM123.488 45.5767C125.129 47.1899 128.219 50.3755 129.217 52.0845L127.59 53.4106C126.715 52.0435 123.857 48.8579 122.08 47.1216L120.248 48.8579V53.0005H118.115V39.0552H120.248V45.7681C122.695 43.4985 126.195 40.0259 128.068 38.6587L129.395 40.4224C127.344 41.6392 125.02 44.0044 123.488 45.5767ZM140.619 39.0552L142.793 39.0688C142.793 39.0688 142.752 44.1001 142.752 47.272C142.752 49.5005 142.779 51.5376 142.861 53.0825H140.715C140.592 50.7446 140.592 49.8149 140.592 47.272C140.592 46.0688 140.674 43.1431 140.674 43.1431C138.855 46.397 135.984 50.5259 134.262 53.0415L132.088 53.0962V39.0962H134.262C134.262 40.9419 134.193 46.1099 134.193 49.4458C136.695 45.9185 138.24 42.856 140.619 39.0552ZM152.076 34.7622C153.553 34.7622 154.674 33.9009 154.756 32.8345L157.025 33.2446C156.697 35.6646 154.332 36.854 152.076 36.854C150.354 36.854 147.865 36.1978 147.209 33.1216L149.342 32.7114C149.711 34.311 150.805 34.7622 152.076 34.7622ZM155.111 39.0552L157.285 39.0688C157.285 39.0688 157.244 44.1001 157.244 47.272C157.244 49.5005 157.271 51.5376 157.354 53.0825H155.207C155.084 50.7446 155.084 49.8149 155.084 47.272C155.084 46.0688 155.166 43.1431 155.166 43.1431C153.348 46.397 150.477 50.5259 148.754 53.0415L146.58 53.0962V39.0962H148.754C148.754 40.9419 148.686 46.1099 148.686 49.4458C151.188 45.9185 152.732 42.856 155.111 39.0552Z" fill="white"/>
<rect width="168.613" height="42.6332" transform="matrix(0.993973 -0.109629 0.11888 0.992909 1.46777 35.0981)" fill="#ECC7CF"/>
<path d="M169.064 16.6135L186.011 6.05925L191.18 49.2368L174.133 58.9444L169.064 16.6135Z" fill="#E3B7C0"/>
<path d="M18.1931 24.5681L186.011 6.05894L169.103 16.9307L1.06433 35.4642L18.1931 24.5681Z" fill="#F8D1D9"/>
<ellipse cx="12.3518" cy="3.23967" rx="12.3518" ry="3.23967" transform="matrix(0.993973 -0.109629 0.11888 0.992909 26.8818 23.4175)" fill="#E19DAC"/>
<rect width="7.70696" height="5.8843" transform="matrix(0.993973 -0.109629 0.11888 0.992909 26.5508 20.6606)" fill="#E19DAC"/>
<rect width="7.70696" height="5.8843" transform="matrix(0.993973 -0.109629 0.11888 0.992909 43.4541 18.8628)" fill="#E19DAC"/>
<ellipse cx="12.3518" cy="3.23967" rx="12.3518" ry="3.23967" transform="matrix(0.993973 -0.109629 0.11888 0.992909 26.1816 17.5747)" fill="#ECC7CF"/>
<ellipse cx="12.3518" cy="3.23967" rx="12.3518" ry="3.23967" transform="matrix(0.993973 -0.109629 0.11888 0.992909 65.0322 17.0938)" fill="#E19DAC"/>
<rect width="7.70696" height="5.8843" transform="matrix(0.993973 -0.109629 0.11888 0.992909 64.7012 14.3374)" fill="#E19DAC"/>
<rect width="7.70696" height="5.8843" transform="matrix(0.993973 -0.109629 0.11888 0.992909 81.6035 12.5396)" fill="#E19DAC"/>
<ellipse cx="12.3518" cy="3.23967" rx="12.3518" ry="3.23967" transform="matrix(0.993973 -0.109629 0.11888 0.992909 64.332 11.2515)" fill="#ECC7CF"/>
<path d="M145.738 48.2939L143.92 34.4597C140.655 34.855 139.173 35.0505 137.919 35.2022L137.597 32.7487C139.609 32.5052 147.094 31.5831 150.194 31.2078C151.398 31.062 152.231 31.1542 152.535 31.1657L152.306 33.6375C152.306 33.6375 151.259 33.5714 150.434 33.6712L146.559 34.1403L148.377 47.9745L145.738 48.2939Z" fill="#EB662B"/>
<path d="M132.864 41.2329C132.44 38.0038 131.285 36.1014 128.482 36.4407C126.222 36.7142 125.526 37.5382 124.593 39.4844L125.499 46.3856C126.463 47.0891 127.534 47.9725 129.035 47.7909C131.723 47.4655 133.453 45.7124 132.864 41.2329ZM121.935 39.1468L121.885 38.7669C121.712 37.4531 121.385 36.1099 121.083 35.0851L123.746 34.4412C123.895 34.9377 124.023 35.276 124.127 35.9388C125.049 34.9266 126.296 34.2129 128.143 33.9893C132.678 33.4403 134.857 36.3766 135.414 40.6187C136.113 45.9371 134.453 49.6274 129.126 50.2722C127.477 50.4719 126.784 50.0412 125.928 49.6463L126.358 52.9229C126.554 54.4107 126.877 55.7224 127.134 56.7848L124.531 57.2446C124.23 56.1071 123.948 54.5975 123.759 53.1571L121.935 39.1468Z" fill="#EB662B"/>
<path d="M114.234 48.5055C115.179 47.4102 115.354 45.6845 115.047 43.3418L115.009 43.0569C114.594 40.1484 113.234 37.9652 110.315 38.3186C106.885 38.7338 106.206 41.4693 106.713 45.3315C107.119 48.418 108.799 50.1121 111.553 49.7788C112.804 49.6112 113.497 49.2701 114.234 48.5055ZM111.843 52.2362C107.355 52.7633 104.7 50.158 104.118 45.726C103.511 41.104 104.619 36.5317 109.434 35.9488C112.683 35.5556 114.641 36.4282 116.07 38.3778C116.91 39.5464 117.442 41.2991 117.642 42.8187C118.235 47.3298 117.186 51.5894 111.876 52.2322L111.843 52.2362Z" fill="#EB662B"/>
<path d="M95.1638 45.5396C97.3882 47.1678 101.6 50.4048 103.064 52.2376L101.303 54.0105C100.04 52.5554 96.1082 49.2846 93.7002 47.5339L91.7544 49.8116L92.3846 54.6077L89.8119 54.9191L88.0045 41.164L84.805 41.5513L84.491 39.1612L87.6574 38.7779L87.6904 38.7739L90.2301 38.4665L90.2631 38.4625L91.2843 46.2343C93.8911 43.2495 97.5847 38.7179 99.6361 36.8616L101.504 38.7099C99.2155 40.418 96.7717 43.4958 95.1638 45.5396Z" fill="#EB662B"/>
<path d="M72.1674 54.6426L75.5482 54.2334L73.7552 40.4605L76.3114 40.151L78.1044 53.9239L81.4853 53.5147L79.7087 39.7398L82.265 39.4304L84.37 55.5776L81.7643 55.893L69.9087 57.3441L67.8346 41.1771L70.3579 40.8717L72.1674 54.6426Z" fill="#EB662B"/>
<path d="M54.6642 54.1723C54.8825 55.8343 55.9309 56.6722 57.4646 56.4866C60.9279 56.0674 62.3309 53.3568 62.6744 52.656L62.4768 51.1522C61.464 50.712 60.1833 50.4007 58.4681 50.6083C56.2273 50.8956 54.4187 52.3045 54.6642 54.1723ZM65.3198 52.7699C65.3926 53.3239 65.586 54.796 65.8358 55.0391C66.0876 55.2981 66.7456 55.5883 67.2717 55.8944L66.1504 57.9437C65.2097 57.4144 64.1682 57.1385 63.6612 55.5757C62.5309 56.9185 61.0296 58.4993 57.7808 58.8925C54.9607 59.2339 52.4575 57.2695 52.1122 54.642C51.9542 53.439 52.2638 51.9704 53.1099 50.8871C54.4749 49.162 56.0907 48.5805 58.0367 48.345C60.1147 48.0934 61.1911 48.2526 62.1503 48.6671C61.7572 45.6755 60.43 44.3729 57.6264 44.7122C55.3505 44.9877 54.3739 45.5883 53.352 48.0115L51.0375 46.9731C52.2422 43.9007 54.3273 42.6834 57.2793 42.3261C61.2703 41.843 64.1655 43.985 64.6334 47.5465L65.3198 52.7699Z" fill="#EB662B"/>
<path d="M44.3093 56.9695C45.2544 55.8742 45.4547 54.3384 45.1801 52.249L45.1427 51.9641C44.727 49.0556 43.4074 47.1731 40.4883 47.5265C38.9216 47.7161 36.177 49.1418 36.7157 53.2414C37.1878 56.8345 38.8743 58.5761 41.6284 58.2427C42.8797 58.0752 43.572 57.7341 44.3093 56.9695ZM36.1318 47.5232C37.1259 46.036 38.8322 45.2506 40.8112 45.011C42.8892 44.7595 44.7992 45.5253 46.2282 47.4749C47.0687 48.6435 47.5756 50.2063 47.7753 51.7258C48.314 55.8254 47.2611 60.0534 41.9508 60.6962L41.9178 60.7002C37.4299 61.2273 34.9752 60.1415 33.8146 51.3092C32.835 43.8539 34.2933 40.799 39.8298 39.5821C43.2329 38.8325 43.6097 38.3849 44.6455 37.3429L46.1693 39.2489C45.2137 40.1364 44.2705 41.1189 40.3622 41.8493C36.7652 42.5259 35.8172 44.6185 36.1318 47.5232Z" fill="#EB662B"/>
<ellipse cx="12.3518" cy="3.23967" rx="12.3518" ry="3.23967" transform="matrix(0.993973 -0.109629 0.11888 0.992909 104.7 12.5054)" fill="#E19DAC"/>
<rect width="7.70696" height="5.8843" transform="matrix(0.993973 -0.109629 0.11888 0.992909 104.369 9.74854)" fill="#E19DAC"/>
<rect width="7.70696" height="5.8843" transform="matrix(0.993973 -0.109629 0.11888 0.992909 121.272 7.9502)" fill="#E19DAC"/>
<ellipse cx="12.3518" cy="3.23967" rx="12.3518" ry="3.23967" transform="matrix(0.993973 -0.109629 0.11888 0.992909 104 6.6626)" fill="#ECC7CF"/>
<ellipse cx="12.3518" cy="3.23967" rx="12.3518" ry="3.23967" transform="matrix(0.993973 -0.109629 0.11888 0.992909 144.445 8.55078)" fill="#E19DAC"/>
<rect width="7.70696" height="5.8843" transform="matrix(0.993973 -0.109629 0.11888 0.992909 144.114 5.79395)" fill="#E19DAC"/>
<rect width="7.70696" height="5.8843" transform="matrix(0.993973 -0.109629 0.11888 0.992909 161.018 3.99609)" fill="#E19DAC"/>
<ellipse cx="12.3518" cy="3.23967" rx="12.3518" ry="3.23967" transform="matrix(0.993973 -0.109629 0.11888 0.992909 143.745 2.7085)" fill="#ECC7CF"/>
</svg>
