<svg width="294" height="83" viewBox="0 0 294 83" fill="none" xmlns="http://www.w3.org/2000/svg">
<path d="M72.8652 35.2812C72.8652 37.25 72.8607 40.2031 72.8516 44.1406C72.8516 48.0781 72.8516 51.0312 72.8516 53H70.7051L70.6777 46.3281C69.5293 46.6836 68.1621 46.8613 66.5762 46.8613C65.8105 46.8613 65.1315 46.7611 64.5391 46.5605C63.9466 46.36 63.4499 46.1048 63.0488 45.7949C62.6478 45.4759 62.306 45.0475 62.0234 44.5098C61.7409 43.972 61.5221 43.4525 61.3672 42.9512C61.2214 42.4408 61.1074 41.8027 61.0254 41.0371C60.9434 40.2624 60.8932 39.5788 60.875 38.9863C60.8568 38.3939 60.8477 37.6556 60.8477 36.7715V35.582V35.2812H63.0078C63.0078 35.5456 63.0124 35.9329 63.0215 36.4434C63.0306 37.1725 63.0352 37.7148 63.0352 38.0703C63.0443 38.4258 63.0625 38.9089 63.0898 39.5195C63.1172 40.1211 63.1536 40.5677 63.1992 40.8594C63.2539 41.151 63.3223 41.5247 63.4043 41.9805C63.4954 42.4271 63.6048 42.7598 63.7324 42.9785C63.86 43.1882 64.015 43.4342 64.1973 43.7168C64.3887 43.9993 64.6074 44.1999 64.8535 44.3184C65.1087 44.4368 65.4004 44.5417 65.7285 44.6328C66.0658 44.724 66.4395 44.7695 66.8496 44.7695C67.3236 44.7695 67.9342 44.724 68.6816 44.6328C69.429 44.5326 70.099 44.4004 70.6914 44.2363L70.7188 35.2812H72.8652ZM77.7188 45.0703C80.6263 45.0521 83.0326 44.9336 84.9375 44.7148C84.8281 43.6211 84.4544 42.7507 83.8164 42.1035C83.1875 41.4473 82.4036 41.1191 81.4648 41.1191C80.3438 41.1191 79.4414 41.5065 78.7578 42.2812C78.0742 43.0469 77.7279 43.9766 77.7188 45.0703ZM81.4512 39.041C82.1621 39.041 82.8047 39.1413 83.3789 39.3418C83.9622 39.5423 84.4453 39.7975 84.8281 40.1074C85.2109 40.4173 85.5482 40.7956 85.8398 41.2422C86.1315 41.6797 86.3548 42.1126 86.5098 42.541C86.6647 42.9603 86.7878 43.4115 86.8789 43.8945C86.9792 44.3776 87.043 44.7878 87.0703 45.125C87.0977 45.4622 87.1113 45.7949 87.1113 46.123C87.1113 46.4421 87.1068 46.638 87.0977 46.7109C83.0234 46.9844 79.8971 47.1348 77.7188 47.1621C77.7188 48.2923 78.0469 49.222 78.7031 49.9512C79.3685 50.6803 80.362 51.0449 81.6836 51.0449C82.5586 51.0449 83.2969 50.8626 83.8984 50.498C84.5 50.1335 84.974 49.7096 85.3203 49.2266L87.002 50.7168C86.8014 50.9355 86.6419 51.1042 86.5234 51.2227C86.4141 51.3411 86.1771 51.5417 85.8125 51.8242C85.457 52.0977 85.1061 52.3164 84.7598 52.4805C84.4134 52.6354 83.9577 52.7858 83.3926 52.9316C82.8275 53.0684 82.2396 53.1367 81.6289 53.1367C79.651 53.1367 78.1426 52.4896 77.1035 51.1953C76.0736 49.901 75.5586 48.151 75.5586 45.9453C75.5586 43.9128 76.0736 42.2539 77.1035 40.9688C78.1335 39.6836 79.5827 39.041 81.4512 39.041ZM91.9238 50.9492H94.7266L94.7402 39.0547H96.8594L96.8457 50.9492H99.6484L99.6758 39.0547H101.795L101.781 53H99.6211L89.791 53.0137L89.832 39.0547H91.9238V50.9492ZM106.621 45.7949C106.621 46.4876 106.676 47.112 106.785 47.668C106.904 48.224 107.045 48.6797 107.209 49.0352C107.373 49.3906 107.587 49.696 107.852 49.9512C108.125 50.1973 108.376 50.3841 108.604 50.5117C108.84 50.6393 109.123 50.7396 109.451 50.8125C109.779 50.8763 110.039 50.9173 110.23 50.9355C110.431 50.9447 110.673 50.9492 110.955 50.9492H111.133C112.126 50.9492 112.919 50.7715 113.512 50.416C114.104 50.0514 114.601 49.5365 115.002 48.8711L116.725 50.1152C116.706 50.1335 116.624 50.2474 116.479 50.457C116.342 50.6576 116.21 50.8262 116.082 50.9629C115.964 51.0996 115.79 51.2865 115.562 51.5234C115.335 51.7604 115.084 51.9609 114.811 52.125C114.546 52.2799 114.236 52.4395 113.881 52.6035C113.535 52.7585 113.129 52.8815 112.664 52.9727C112.199 53.0547 111.707 53.0957 111.188 53.0957C110.285 53.0957 109.469 53.0228 108.74 52.877C108.02 52.7311 107.364 52.4395 106.771 52.002C105.924 51.3457 105.322 50.5117 104.967 49.5C104.62 48.4792 104.447 47.2441 104.447 45.7949C104.447 44.5553 104.593 43.5026 104.885 42.6367C105.176 41.7617 105.618 41.069 106.211 40.5586C106.803 40.0391 107.501 39.6654 108.303 39.4375C109.114 39.2005 110.076 39.082 111.188 39.082C112.445 39.082 113.489 39.401 114.318 40.0391C114.947 40.5221 115.467 41.2467 115.877 42.2129L113.771 43.0332C113.726 42.8691 113.68 42.7324 113.635 42.623C113.598 42.5046 113.512 42.3451 113.375 42.1445C113.238 41.944 113.079 41.7845 112.896 41.666C112.723 41.5384 112.473 41.4245 112.145 41.3242C111.816 41.224 111.447 41.1738 111.037 41.1738C109.515 41.1738 108.398 41.5384 107.688 42.2676C106.977 42.9967 106.621 44.1725 106.621 45.7949ZM125.488 45.5762C128.505 48.5475 130.415 50.7168 131.217 52.084L129.59 53.4102C129.171 52.7539 128.382 51.7741 127.225 50.4707C126.067 49.1582 125.019 48.0417 124.08 47.1211L122.248 48.8574V53H120.115V39.0547H122.248V45.7676C122.613 45.4303 123.442 44.6465 124.736 43.416C126.04 42.1764 127.111 41.1784 127.949 40.4219C128.797 39.6562 129.503 39.0684 130.068 38.6582L131.395 40.4219C129.991 41.2513 128.022 42.9694 125.488 45.5762ZM142.619 39.0547L144.793 39.0684C144.766 42.4225 144.752 45.1569 144.752 47.2715C144.752 49.7689 144.788 51.7057 144.861 53.082H142.715C142.633 51.5234 142.592 49.5866 142.592 47.2715L142.674 43.1426C142.455 43.5345 142.204 43.9629 141.922 44.4277C141.648 44.8926 141.398 45.3118 141.17 45.6855C140.942 46.0501 140.646 46.515 140.281 47.0801C139.917 47.6361 139.639 48.0553 139.447 48.3379C139.265 48.6204 138.964 49.0716 138.545 49.6914C138.126 50.3112 137.861 50.7031 137.752 50.8672C137.643 51.0221 137.369 51.4186 136.932 52.0566C136.503 52.6947 136.28 53.0228 136.262 53.041L134.088 53.0957V39.0957H136.262C136.262 39.5879 136.248 41.1283 136.221 43.7168C136.202 46.2962 136.193 48.2057 136.193 49.4453C137.169 48.069 138.395 46.1322 139.871 43.6348C141.357 41.1374 142.273 39.6107 142.619 39.0547ZM154.076 34.748C154.805 34.748 155.421 34.5612 155.922 34.1875C156.432 33.8138 156.71 33.3581 156.756 32.8203L159.025 33.2305C158.943 33.8138 158.743 34.3424 158.424 34.8164C158.114 35.2812 157.727 35.6595 157.262 35.9512C156.806 36.2428 156.305 36.4661 155.758 36.6211C155.211 36.7669 154.65 36.8398 154.076 36.8398C153.693 36.8398 153.32 36.8125 152.955 36.7578C152.6 36.694 152.217 36.5801 151.807 36.416C151.396 36.2428 151.027 36.0241 150.699 35.7598C150.38 35.4954 150.084 35.1354 149.811 34.6797C149.537 34.224 149.337 33.6999 149.209 33.1074L151.342 32.6973C151.661 34.0645 152.572 34.748 154.076 34.748ZM157.111 39.0547L159.285 39.0684C159.258 42.4225 159.244 45.1569 159.244 47.2715C159.244 49.7689 159.281 51.7057 159.354 53.082H157.207C157.125 51.5234 157.084 49.5866 157.084 47.2715L157.166 43.1426C156.947 43.5345 156.697 43.9629 156.414 44.4277C156.141 44.8926 155.89 45.3118 155.662 45.6855C155.434 46.0501 155.138 46.515 154.773 47.0801C154.409 47.6361 154.131 48.0553 153.939 48.3379C153.757 48.6204 153.456 49.0716 153.037 49.6914C152.618 50.3112 152.354 50.7031 152.244 50.8672C152.135 51.0221 151.861 51.4186 151.424 52.0566C150.995 52.6947 150.772 53.0228 150.754 53.041L148.58 53.0957V39.0957H150.754C150.754 39.5879 150.74 41.1283 150.713 43.7168C150.695 46.2962 150.686 48.2057 150.686 49.4453C151.661 48.069 152.887 46.1322 154.363 43.6348C155.849 41.1374 156.765 39.6107 157.111 39.0547Z" fill="white"/>
<rect x="1.52539" y="35.8564" width="175.409" height="46.1603" transform="rotate(-6.55537 1.52539 35.8564)" fill="#ECC7CF"/>
<path d="M175.788 15.8303L193.408 4.3965L198.783 51.1722L181.058 61.6888L175.788 15.8303Z" fill="#E3B7C0"/>
<path d="M18.9166 24.4483L193.408 4.39665L175.828 16.1744L1.10666 36.2524L18.9166 24.4483Z" fill="#F8D1D9"/>
<ellipse cx="41.1162" cy="25.2204" rx="12.8496" ry="3.50769" transform="rotate(-6.55537 41.1162 25.2204)" fill="#E19DAC"/>
<rect x="27.6074" y="20.2163" width="8.01757" height="6.37111" transform="rotate(-6.55537 27.6074 20.2163)" fill="#E19DAC"/>
<rect x="45.1816" y="18.2686" width="8.01757" height="6.37111" transform="rotate(-6.55537 45.1816 18.2686)" fill="#E19DAC"/>
<ellipse cx="40.3887" cy="18.8909" rx="12.8496" ry="3.50769" transform="rotate(-6.55537 40.3887 18.8909)" fill="#ECC7CF"/>
<ellipse cx="79.8389" cy="20.5373" rx="12.8496" ry="3.50769" transform="rotate(-6.55537 79.8389 20.5373)" fill="#E19DAC"/>
<rect x="66.3301" y="15.5332" width="8.01757" height="6.37111" transform="rotate(-6.55537 66.3301 15.5332)" fill="#E19DAC"/>
<rect x="83.9033" y="13.5854" width="8.01757" height="6.37111" transform="rotate(-6.55537 83.9033 13.5854)" fill="#E19DAC"/>
<ellipse cx="79.1113" cy="14.2082" rx="12.8496" ry="3.50769" transform="rotate(-6.55537 79.1113 14.2082)" fill="#ECC7CF"/>
<ellipse cx="121.085" cy="15.5661" rx="12.8496" ry="3.50769" transform="rotate(-6.55537 121.085 15.5661)" fill="#E19DAC"/>
<rect x="107.576" y="10.5615" width="8.01757" height="6.37111" transform="rotate(-6.55537 107.576 10.5615)" fill="#E19DAC"/>
<rect x="125.15" y="8.61377" width="8.01757" height="6.37111" transform="rotate(-6.55537 125.15 8.61377)" fill="#E19DAC"/>
<ellipse cx="120.357" cy="9.23655" rx="12.8496" ry="3.50769" transform="rotate(-6.55537 120.357 9.23655)" fill="#ECC7CF"/>
<ellipse cx="162.411" cy="11.2805" rx="12.8496" ry="3.50769" transform="rotate(-6.55537 162.411 11.2805)" fill="#E19DAC"/>
<rect x="148.901" y="6.27588" width="8.01757" height="6.37111" transform="rotate(-6.55537 148.901 6.27588)" fill="#E19DAC"/>
<rect x="166.477" y="4.32861" width="8.01757" height="6.37111" transform="rotate(-6.55537 166.477 4.32861)" fill="#E19DAC"/>
<ellipse cx="161.684" cy="4.9514" rx="12.8496" ry="3.50769" transform="rotate(-6.55537 161.684 4.9514)" fill="#ECC7CF"/>
<path d="M159.376 39.5995C158.379 39.2679 156.799 38.4612 156.457 35.8392C155.886 31.4741 159.392 30.599 162.498 30.1934C163.391 30.0767 165.097 30.0178 165.72 29.996C165.778 30.8972 165.853 31.5876 165.981 32.569L167.598 44.9465L165.284 45.2489L164.485 39.0215C163.68 39.2459 163.066 39.5644 161.88 39.8385C161.253 41.306 158.1 45.3381 156.676 46.984L154.964 45.5093C156.151 44.1029 158.526 41.5281 159.376 39.5995ZM158.727 35.5427C158.978 37.4616 160.555 37.7918 161.464 37.6732C162.372 37.5545 163.259 37.2748 164.194 36.795L163.642 32.3382C162.917 32.3734 162.193 32.4232 161.505 32.5131C160.142 32.6911 158.476 33.6238 158.727 35.5427Z" fill="#EB662B"/>
<path d="M142.102 43.6437C142.303 45.1818 143.238 45.9535 144.601 45.7756C147.677 45.3738 148.912 42.8585 149.215 42.2082L149.033 40.8166C148.131 40.413 146.992 40.1298 145.468 40.3288C143.478 40.6036 141.877 41.9153 142.102 43.6437ZM151.566 42.3033C151.633 42.8159 151.811 44.1782 152.034 44.4023C152.259 44.6411 152.845 44.9072 153.314 45.1887L152.326 47.0906C151.487 46.6041 150.561 46.3528 150.104 44.9077C149.105 46.1556 147.777 47.6251 144.891 48.0021C142.387 48.3292 140.154 46.5203 139.836 44.0887C139.691 42.9755 139.96 41.6144 140.708 40.608C141.914 39.0053 143.347 38.4605 145.076 38.2348C146.921 37.9937 147.878 38.1368 148.733 38.5169C148.371 35.7484 147.186 34.5474 144.696 34.8727C142.675 35.1368 141.809 35.6967 140.911 37.9445L138.85 36.9921C139.908 34.1425 141.756 33.0072 144.378 32.6647C147.923 32.2017 150.504 34.1736 150.935 37.4694L151.566 42.3033Z" fill="#EB662B"/>
<path d="M130.76 41.6687C132.744 43.1676 136.5 46.1481 137.808 47.8395L136.251 49.488C135.122 48.1457 131.615 45.1326 129.467 43.521L127.748 45.6377L128.327 50.076L126.042 50.3745L124.091 35.4336L126.376 35.1351L127.315 42.3273C129.62 39.5532 132.883 35.3428 134.699 33.6159L136.367 35.3199C134.34 36.9105 132.181 39.7699 130.76 41.6687Z" fill="#EB662B"/>
<path d="M110.577 44.5437C111.285 49.9635 114.331 49.6699 115.942 49.4595L116.132 49.4346C118.417 49.1361 119.392 48.0405 119.987 46.6666L122.007 47.7585C121.604 48.4368 120.578 51.1928 116.491 51.7267C114.968 51.9257 113.151 52.0438 111.607 51.1728C109.509 49.9421 108.629 47.7629 108.248 44.8479C107.546 39.4721 109.916 37.3152 114.53 36.7125C115.922 36.5307 117.051 36.7407 118.018 37.2997C119.002 37.8714 119.571 38.691 119.992 39.4106L117.851 40.5841C117.612 40.0046 117.005 38.6685 114.662 38.9747C111.424 39.3975 110.12 41.0428 110.577 44.5437Z" fill="#EB662B"/>
<path d="M98.0373 57.3553C99.59 57.1525 100.027 54.3393 100.381 52.7139C98.3763 48.0892 96.0267 43.6735 93.768 42.1212C93.2272 41.7449 92.6248 41.8087 92.0974 41.8776L91.8047 39.6364C92.2881 39.5733 93.0281 39.5362 93.4459 39.5412C95.94 39.5879 99.0324 44.7856 101.309 49.33C101.978 46.0097 102.392 41.6502 102.075 38.3098L104.389 38.0075C104.504 38.8864 104.54 39.7309 104.506 40.4951C104.229 45.7902 103.381 50.8173 102.042 55.6254C101.524 57.7043 100.571 59.3037 98.3887 59.5888C95.8253 59.9236 94.0258 58.5795 93.5092 54.6245L95.7943 54.3261C96.133 56.9188 96.8655 57.5084 98.0373 57.3553Z" fill="#EB662B"/>
<path d="M87.3298 47.5805C86.9395 44.5923 85.9055 42.8353 83.4153 43.1606C81.4085 43.4228 80.7935 44.1884 79.9716 45.9941L80.8058 52.3806C81.6651 53.0282 82.6206 53.842 83.9535 53.6678C86.3411 53.356 87.8713 51.7259 87.3298 47.5805ZM77.608 45.692L77.5621 45.3405C77.4033 44.1247 77.1069 42.8822 76.8342 41.9346L79.1982 41.3278C79.3326 41.787 79.448 42.0997 79.543 42.713C80.3587 41.7721 81.4635 41.1064 83.1041 40.8921C87.1323 40.3659 89.0804 43.0761 89.5932 47.0018C90.2361 51.9235 88.7763 55.3471 84.045 55.9651C82.5802 56.1564 81.9624 55.7604 81.2 55.3981L81.596 58.4303C81.7759 59.8072 82.0684 61.0204 82.3011 62.0031L79.9893 62.4391C79.7178 61.387 79.4608 59.9904 79.2867 58.6574L77.608 45.692Z" fill="#EB662B"/>
<path d="M64.4675 53.7844C64.6684 55.3224 65.6035 56.0941 66.9658 55.9162C70.0419 55.5144 71.2776 52.9991 71.58 52.3488L71.3982 50.9572C70.4963 50.5536 69.3569 50.2704 67.8335 50.4694C65.8433 50.7443 64.2417 52.0559 64.4675 53.7844ZM73.9314 52.4439C73.9983 52.9566 74.1763 54.3188 74.3992 54.543C74.6241 54.7818 75.2101 55.0479 75.6789 55.3293L74.6908 57.2312C73.8526 56.7448 72.9258 56.4934 72.4689 55.0484C71.4699 56.2962 70.1423 57.7658 67.2566 58.1427C64.7518 58.4699 62.5192 56.6609 62.2016 54.2293C62.0561 53.1161 62.3253 51.755 63.0728 50.7486C64.2788 49.146 65.7123 48.6012 67.4408 48.3754C69.2864 48.1343 70.2437 48.2774 71.0978 48.6575C70.7362 45.889 69.5514 44.6881 67.0612 45.0133C65.0398 45.2774 64.1744 45.8374 63.2761 48.0851L61.215 47.1327C62.273 44.2831 64.121 43.1478 66.743 42.8053C70.2878 42.3423 72.8695 44.3142 73.3 47.61L73.9314 52.4439Z" fill="#EB662B"/>
<path d="M46.4498 60.6963L46.4315 58.3895C46.6423 58.4067 46.8531 58.4238 47.0728 58.3951C48.3472 58.2287 49.6411 56.6146 48.1659 45.321L52.6462 44.7208L54.3893 44.4931C55.5319 44.3439 56.5573 44.21 57.3852 44.1614L59.3349 59.0877L56.9619 59.3977C56.6456 56.8617 55.6493 49.0065 55.664 49.0046L55.3559 46.6463L50.7711 47.2452C51.3404 53.7706 51.5626 60.1477 47.4758 60.6815C47.1682 60.7217 46.8109 60.7236 46.4498 60.6963Z" fill="#EB662B"/>
<path d="M32.9287 53.8967C34.8164 53.6352 38.5637 53.0117 40.6131 52.5056C40.0707 50.1779 38.3814 48.879 36.3893 49.1392C33.8991 49.4645 32.6487 51.639 32.9287 53.8967ZM36.0838 46.9146C41.6061 46.1933 42.8751 51.6887 43.1392 53.7101C43.1775 54.0031 43.2062 54.2228 43.2068 54.3419C39.1417 55.156 35.8249 55.768 33.2214 56.1379C33.5142 58.379 35.0246 60.1333 38.0127 59.743C40.1074 59.4694 41.1867 58.1515 41.6546 57.2859L43.6649 58.6472C43.1504 59.3848 41.7331 61.5364 38.2469 61.9918C33.8818 62.562 31.3356 59.7213 30.7368 55.1365C30.1895 50.9472 31.9384 47.4561 36.0838 46.9146Z" fill="#EB662B"/>
<path d="M24.2228 60.4718C25.0582 59.4539 25.2299 58.0311 24.9773 56.0976L24.9429 55.8339C24.5615 53.1425 23.3811 51.4046 20.7884 51.7433C19.3968 51.9251 16.9635 53.256 17.4591 57.0498C17.8934 60.3749 19.3993 61.9809 21.8455 61.6613C22.9569 61.5013 23.5708 61.1827 24.2228 60.4718ZM16.9168 51.7574C17.7941 50.3765 19.3072 49.6425 21.065 49.4129C22.9106 49.1718 24.6112 49.8733 25.8892 51.6729C26.6409 52.7517 27.0978 54.1967 27.2815 55.6029C27.7771 59.3967 26.8588 63.3157 22.1421 63.9318L22.1128 63.9356C18.1266 64.4414 15.9407 63.4457 14.873 55.2721C13.9718 48.3729 15.2552 45.5385 20.1705 44.39C23.1918 43.6825 23.5248 43.2665 24.4411 42.2976L25.8031 44.0565C24.9574 44.882 24.1233 45.7955 20.653 46.4871C17.4592 47.1278 16.6252 49.0692 16.9168 51.7574Z" fill="#EB662B"/>
</svg>
